G75*
%MOIN*%
%OFA0B0*%
%FSLAX25Y25*%
%IPPOS*%
%LPD*%
%AMOC8*
5,1,8,0,0,1.08239X$1,22.5*
%
%ADD10R,0.05118X0.05906*%
%ADD11R,0.05906X0.05118*%
%ADD12R,0.06299X0.01181*%
%ADD13R,0.02165X0.04724*%
%ADD14R,0.04724X0.02165*%
%ADD15C,0.06000*%
%ADD16C,0.16500*%
%ADD17OC8,0.10050*%
%ADD18C,0.05000*%
%ADD19C,0.01800*%
%ADD20C,0.01000*%
%ADD21C,0.01600*%
%ADD22C,0.01200*%
D10*
X0098701Y0034528D03*
X0106181Y0034528D03*
X0106181Y0044370D03*
X0098701Y0044370D03*
X0172520Y0100472D03*
X0180000Y0100472D03*
X0180000Y0109331D03*
X0172520Y0109331D03*
X0172520Y0118189D03*
X0180000Y0118189D03*
X0180000Y0127047D03*
X0172520Y0127047D03*
X0211890Y0141811D03*
X0219370Y0141811D03*
X0234528Y0170354D03*
X0242008Y0170354D03*
X0242008Y0179213D03*
X0234528Y0179213D03*
X0242402Y0188071D03*
X0249882Y0188071D03*
X0300472Y0159528D03*
X0307953Y0159528D03*
X0307953Y0149685D03*
X0300472Y0149685D03*
X0300472Y0088661D03*
X0307953Y0088661D03*
X0307953Y0078819D03*
X0300472Y0078819D03*
X0244961Y0077835D03*
X0237480Y0077835D03*
X0237480Y0068976D03*
X0244961Y0068976D03*
X0244961Y0060118D03*
X0237480Y0060118D03*
X0147520Y0156575D03*
X0140039Y0156575D03*
X0140039Y0165433D03*
X0147520Y0165433D03*
X0147913Y0174291D03*
X0155394Y0174291D03*
D11*
X0170354Y0164252D03*
X0170354Y0156772D03*
X0191024Y0142598D03*
X0199882Y0142598D03*
X0199882Y0135118D03*
X0191024Y0135118D03*
X0230394Y0135118D03*
X0230394Y0142598D03*
X0251063Y0142598D03*
X0251063Y0135118D03*
X0263858Y0133740D03*
X0272717Y0133740D03*
X0272717Y0126260D03*
X0263858Y0126260D03*
X0263858Y0109134D03*
X0272717Y0109134D03*
X0281575Y0109134D03*
X0281575Y0101654D03*
X0272717Y0101654D03*
X0263858Y0101654D03*
X0216614Y0105197D03*
X0216614Y0097717D03*
X0207756Y0097717D03*
X0198898Y0097717D03*
X0198898Y0105197D03*
X0207756Y0105197D03*
X0267795Y0067795D03*
X0267795Y0060315D03*
X0264843Y0170551D03*
X0264843Y0178031D03*
D12*
X0251260Y0127736D03*
X0251260Y0125177D03*
X0251260Y0122618D03*
X0251260Y0120059D03*
X0251260Y0117500D03*
X0251260Y0114941D03*
X0251260Y0112382D03*
X0251260Y0109823D03*
X0251260Y0107264D03*
X0251260Y0104705D03*
X0229213Y0104705D03*
X0229213Y0107264D03*
X0229213Y0109823D03*
X0229213Y0112382D03*
X0229213Y0114941D03*
X0229213Y0117500D03*
X0229213Y0120059D03*
X0229213Y0122618D03*
X0229213Y0125177D03*
X0229213Y0127736D03*
D13*
X0249291Y0169173D03*
X0253031Y0169173D03*
X0256772Y0169173D03*
X0256772Y0179409D03*
X0249291Y0179409D03*
X0162283Y0165630D03*
X0154803Y0165630D03*
X0154803Y0155394D03*
X0158543Y0155394D03*
X0162283Y0155394D03*
X0252244Y0069173D03*
X0259724Y0069173D03*
X0259724Y0058937D03*
X0255984Y0058937D03*
X0252244Y0058937D03*
D14*
X0218780Y0125276D03*
X0208543Y0125276D03*
X0208543Y0129016D03*
X0208543Y0132756D03*
X0218780Y0132756D03*
D15*
X0222500Y0202500D03*
X0212500Y0202500D03*
X0202500Y0202500D03*
X0192500Y0202500D03*
X0182500Y0202500D03*
X0172500Y0202500D03*
X0162500Y0202500D03*
X0152500Y0202500D03*
X0142500Y0202500D03*
X0132500Y0202500D03*
X0122500Y0202500D03*
X0112500Y0202500D03*
X0102500Y0202500D03*
X0092500Y0202500D03*
X0082500Y0202500D03*
X0082500Y0212500D03*
X0092500Y0212500D03*
X0102500Y0212500D03*
X0112500Y0212500D03*
X0122500Y0212500D03*
X0132500Y0212500D03*
X0142500Y0212500D03*
X0152500Y0212500D03*
X0162500Y0212500D03*
X0172500Y0212500D03*
X0182500Y0212500D03*
X0192500Y0212500D03*
X0202500Y0212500D03*
X0212500Y0212500D03*
X0222500Y0212500D03*
X0232500Y0212500D03*
X0242500Y0212500D03*
X0252500Y0212500D03*
X0262500Y0212500D03*
X0272500Y0212500D03*
X0282500Y0212500D03*
X0292500Y0212500D03*
X0302500Y0212500D03*
X0302500Y0202500D03*
X0292500Y0202500D03*
X0282500Y0202500D03*
X0272500Y0202500D03*
X0262500Y0202500D03*
X0252500Y0202500D03*
X0242500Y0202500D03*
X0232500Y0202500D03*
X0222500Y0035000D03*
X0212500Y0035000D03*
X0202500Y0035000D03*
X0192500Y0035000D03*
X0182500Y0035000D03*
X0172500Y0035000D03*
X0172500Y0022500D03*
X0162500Y0022500D03*
X0152500Y0022500D03*
X0142500Y0022500D03*
X0132500Y0022500D03*
X0122500Y0022500D03*
X0112500Y0022500D03*
X0102500Y0022500D03*
X0092500Y0022500D03*
X0082500Y0022500D03*
X0082500Y0012500D03*
X0092500Y0012500D03*
X0102500Y0012500D03*
X0112500Y0012500D03*
X0122500Y0012500D03*
X0132500Y0012500D03*
X0142500Y0012500D03*
X0152500Y0012500D03*
X0162500Y0012500D03*
X0172500Y0012500D03*
X0182500Y0012500D03*
X0192500Y0012500D03*
X0202500Y0012500D03*
X0212500Y0012500D03*
X0222500Y0012500D03*
X0232500Y0012500D03*
X0242500Y0012500D03*
X0252500Y0012500D03*
X0262500Y0012500D03*
X0272500Y0012500D03*
X0282500Y0012500D03*
X0292500Y0012500D03*
X0302500Y0012500D03*
X0302500Y0022500D03*
X0292500Y0022500D03*
X0282500Y0022500D03*
X0272500Y0022500D03*
X0262500Y0022500D03*
X0252500Y0022500D03*
X0242500Y0022500D03*
X0232500Y0022500D03*
X0222500Y0022500D03*
X0212500Y0022500D03*
X0202500Y0022500D03*
X0192500Y0022500D03*
X0182500Y0022500D03*
D16*
X0062500Y0017500D03*
X0322500Y0030000D03*
X0322500Y0195000D03*
X0062500Y0207500D03*
D17*
X0136890Y0138858D03*
X0189055Y0168386D03*
X0205787Y0168386D03*
X0281575Y0185118D03*
X0300276Y0172323D03*
X0275669Y0079803D03*
X0300276Y0066024D03*
X0206772Y0067008D03*
X0182165Y0079803D03*
X0160512Y0079803D03*
X0143780Y0079803D03*
X0125079Y0079803D03*
X0082756Y0053228D03*
X0087677Y0034528D03*
X0126063Y0036496D03*
D18*
X0305846Y0099488D02*
X0310846Y0099488D01*
X0310846Y0109331D02*
X0305846Y0109331D01*
X0328031Y0116673D02*
X0328031Y0121673D01*
X0310846Y0129016D02*
X0305846Y0129016D01*
X0305846Y0138858D02*
X0310846Y0138858D01*
D19*
X0278622Y0133937D03*
X0251063Y0149685D03*
X0253031Y0163465D03*
X0264843Y0165433D03*
X0234331Y0164449D03*
X0230394Y0149685D03*
X0212677Y0149685D03*
X0199882Y0149685D03*
X0184134Y0137874D03*
X0170354Y0150669D03*
X0158543Y0150669D03*
X0132953Y0156575D03*
X0132953Y0165433D03*
X0192992Y0109331D03*
X0198898Y0092205D03*
X0207756Y0091614D03*
X0235315Y0107362D03*
X0245157Y0109331D03*
X0235315Y0115236D03*
X0223504Y0112283D03*
X0223504Y0131969D03*
X0257953Y0112283D03*
X0257953Y0105394D03*
X0281575Y0094567D03*
X0316024Y0078819D03*
X0267795Y0055197D03*
X0255984Y0054213D03*
X0232362Y0060118D03*
X0232362Y0068976D03*
X0214646Y0060118D03*
X0134921Y0045354D03*
X0130000Y0060118D03*
X0316024Y0159528D03*
D20*
X0307953Y0159528D01*
X0304213Y0154606D02*
X0300472Y0158346D01*
X0300472Y0159528D01*
X0300472Y0172126D01*
X0300276Y0172323D01*
X0304213Y0154606D02*
X0306181Y0154606D01*
X0307165Y0153622D01*
X0307165Y0150472D01*
X0307953Y0149685D01*
X0307953Y0139252D01*
X0308346Y0138858D01*
X0300472Y0149685D02*
X0292402Y0149685D01*
X0289449Y0146732D01*
X0289449Y0124094D01*
X0285413Y0120059D01*
X0251260Y0120059D01*
X0251260Y0117500D02*
X0286201Y0117500D01*
X0289449Y0114252D01*
X0289449Y0091614D01*
X0292402Y0088661D01*
X0300472Y0088661D01*
X0307953Y0088661D02*
X0308150Y0088465D01*
X0308150Y0084724D01*
X0307165Y0083740D01*
X0302244Y0083740D01*
X0300472Y0081969D01*
X0300472Y0078819D01*
X0300472Y0066220D01*
X0300276Y0066024D01*
X0307953Y0078819D02*
X0316024Y0078819D01*
X0307953Y0088661D02*
X0307953Y0099094D01*
X0308346Y0099488D01*
X0281575Y0101654D02*
X0281575Y0094567D01*
X0281575Y0101654D02*
X0280197Y0101654D01*
X0272717Y0109134D01*
X0263858Y0109134D01*
X0263169Y0109823D01*
X0257953Y0112283D02*
X0257854Y0112382D01*
X0251260Y0112382D01*
X0251260Y0109823D02*
X0245650Y0109823D01*
X0245157Y0109331D01*
X0251260Y0107264D02*
X0256083Y0107264D01*
X0257953Y0105394D01*
X0254311Y0101654D02*
X0251260Y0104705D01*
X0254311Y0101654D02*
X0263858Y0101654D01*
X0272717Y0101654D01*
X0281575Y0109134D02*
X0281575Y0114252D01*
X0280886Y0114941D01*
X0251260Y0114941D01*
X0251260Y0122618D02*
X0257461Y0122618D01*
X0261102Y0126260D01*
X0263858Y0126260D01*
X0272717Y0126260D01*
X0272717Y0133740D02*
X0263858Y0133740D01*
X0259724Y0133740D01*
X0258937Y0132953D01*
X0258937Y0127047D01*
X0257067Y0125177D01*
X0251260Y0125177D01*
X0251260Y0127736D02*
X0251260Y0134921D01*
X0251063Y0135118D01*
X0251063Y0142598D02*
X0251063Y0149685D01*
X0237283Y0151654D02*
X0237283Y0125079D01*
X0234823Y0122618D01*
X0229213Y0122618D01*
X0221437Y0122618D01*
X0218780Y0125276D01*
X0221535Y0129016D02*
X0223504Y0127047D01*
X0223504Y0126063D01*
X0224488Y0125079D01*
X0229114Y0125079D01*
X0229213Y0125177D01*
X0229213Y0127736D02*
X0229213Y0133937D01*
X0230394Y0135118D01*
X0223504Y0131969D02*
X0222717Y0132756D01*
X0218780Y0132756D01*
X0219370Y0133346D01*
X0219370Y0141811D01*
X0211890Y0141811D02*
X0211890Y0137677D01*
X0212677Y0136890D01*
X0212677Y0126063D01*
X0211693Y0125079D01*
X0208740Y0125079D01*
X0208543Y0125276D01*
X0214646Y0128031D02*
X0215630Y0129016D01*
X0221535Y0129016D01*
X0214646Y0128031D02*
X0214646Y0121142D01*
X0212677Y0119173D01*
X0180984Y0119173D01*
X0180000Y0118189D01*
X0172520Y0118189D02*
X0159528Y0118189D01*
X0152638Y0111299D01*
X0152638Y0079803D01*
X0143780Y0079803D01*
X0152638Y0079803D02*
X0152638Y0072913D01*
X0170354Y0055197D01*
X0185118Y0055197D01*
X0197913Y0042402D01*
X0197913Y0017087D01*
X0202500Y0012500D01*
X0217598Y0016811D02*
X0217598Y0041417D01*
X0189055Y0069961D01*
X0178228Y0069961D01*
X0173307Y0074882D01*
X0173307Y0079803D01*
X0182165Y0079803D01*
X0173307Y0079803D02*
X0173307Y0099685D01*
X0172520Y0100472D01*
X0180000Y0100472D02*
X0188071Y0100472D01*
X0190039Y0102441D01*
X0190039Y0112283D01*
X0191024Y0113268D01*
X0215630Y0113268D01*
X0219567Y0117205D01*
X0228917Y0117205D01*
X0229213Y0117500D01*
X0229213Y0114941D02*
X0235020Y0114941D01*
X0235315Y0115236D01*
X0229213Y0112382D02*
X0229114Y0112283D01*
X0223504Y0112283D01*
X0221535Y0110315D02*
X0208740Y0110315D01*
X0207756Y0109331D01*
X0207756Y0105197D01*
X0199094Y0105394D02*
X0198898Y0105197D01*
X0198898Y0102441D01*
X0199882Y0101457D01*
X0215630Y0101457D01*
X0216614Y0100472D01*
X0216614Y0097717D01*
X0226654Y0097717D01*
X0229409Y0100472D01*
X0229409Y0104508D01*
X0229213Y0104705D01*
X0229213Y0107264D02*
X0223406Y0107264D01*
X0221535Y0105394D01*
X0216811Y0105394D01*
X0216614Y0105197D01*
X0221535Y0110315D02*
X0222028Y0109823D01*
X0229213Y0109823D01*
X0229213Y0107264D02*
X0235217Y0107264D01*
X0235315Y0107362D01*
X0229213Y0120059D02*
X0229114Y0120157D01*
X0217598Y0120157D01*
X0213661Y0116220D01*
X0189055Y0116220D01*
X0187087Y0114252D01*
X0187087Y0110315D01*
X0186102Y0109331D01*
X0180000Y0109331D01*
X0172520Y0109331D02*
X0166417Y0109331D01*
X0165433Y0108346D01*
X0165433Y0094567D01*
X0168386Y0091614D01*
X0168386Y0079803D01*
X0160512Y0079803D01*
X0168386Y0079803D02*
X0168386Y0068976D01*
X0173307Y0064055D01*
X0187087Y0064055D01*
X0207756Y0043386D01*
X0207756Y0027244D01*
X0212500Y0022500D01*
X0217598Y0016811D02*
X0221909Y0012500D01*
X0222500Y0012500D01*
X0255984Y0054213D02*
X0255984Y0058937D01*
X0252244Y0058937D02*
X0246142Y0058937D01*
X0244961Y0060118D01*
X0252047Y0059134D02*
X0252244Y0058937D01*
X0252047Y0059134D02*
X0252047Y0062087D01*
X0253031Y0063071D01*
X0258937Y0063071D01*
X0259724Y0062283D01*
X0259724Y0058937D01*
X0267795Y0060315D02*
X0267795Y0055197D01*
X0267795Y0067795D02*
X0266417Y0069173D01*
X0259724Y0069173D01*
X0252244Y0069173D02*
X0252047Y0068976D01*
X0244961Y0068976D01*
X0244961Y0077835D01*
X0237480Y0068976D02*
X0232362Y0068976D01*
X0232362Y0060118D02*
X0237480Y0060118D01*
X0207756Y0091614D02*
X0207756Y0097717D01*
X0198898Y0097717D02*
X0198898Y0092205D01*
X0198898Y0105197D02*
X0198701Y0105394D01*
X0194961Y0105394D01*
X0192992Y0107362D01*
X0192992Y0109331D01*
X0180000Y0127047D02*
X0181969Y0129016D01*
X0208543Y0129016D01*
X0208543Y0132756D02*
X0206181Y0135118D01*
X0199882Y0135118D01*
X0191024Y0135118D01*
X0184134Y0137874D02*
X0184134Y0141811D01*
X0185118Y0142795D01*
X0190827Y0142795D01*
X0191024Y0142598D01*
X0191024Y0166417D01*
X0189055Y0168386D01*
X0183150Y0174291D01*
X0155394Y0174291D01*
X0154803Y0165630D02*
X0147717Y0165630D01*
X0147520Y0165433D01*
X0140039Y0165433D02*
X0132953Y0165433D01*
X0132953Y0156575D02*
X0140039Y0156575D01*
X0147520Y0156575D02*
X0148701Y0155394D01*
X0154803Y0155394D01*
X0154606Y0155591D01*
X0154606Y0158543D01*
X0155591Y0159528D01*
X0161496Y0159528D01*
X0162283Y0158740D01*
X0162283Y0155394D01*
X0158543Y0155394D02*
X0158543Y0150669D01*
X0170354Y0150669D02*
X0170354Y0156772D01*
X0170354Y0164252D02*
X0168976Y0165630D01*
X0162283Y0165630D01*
X0199882Y0149685D02*
X0199882Y0142598D01*
X0211890Y0141811D02*
X0211890Y0148898D01*
X0212677Y0149685D01*
X0218583Y0153622D02*
X0235315Y0153622D01*
X0237283Y0151654D01*
X0230394Y0149685D02*
X0230394Y0142598D01*
X0218583Y0153622D02*
X0205787Y0166417D01*
X0205787Y0168386D01*
X0234528Y0170354D02*
X0234528Y0164646D01*
X0234331Y0164449D01*
X0234528Y0170354D02*
X0234528Y0179213D01*
X0242008Y0179213D02*
X0249094Y0179213D01*
X0249291Y0179409D01*
X0250079Y0173307D02*
X0249094Y0172323D01*
X0249094Y0169370D01*
X0249291Y0169173D01*
X0243189Y0169173D01*
X0242008Y0170354D01*
X0250079Y0173307D02*
X0255984Y0173307D01*
X0256772Y0172520D01*
X0256772Y0169173D01*
X0253031Y0169173D02*
X0253031Y0163465D01*
X0264843Y0165433D02*
X0264843Y0170551D01*
X0264843Y0178031D02*
X0263465Y0179409D01*
X0256772Y0179409D01*
X0272717Y0133740D02*
X0278425Y0133740D01*
X0278622Y0133937D01*
X0172520Y0127047D02*
X0171535Y0128031D01*
X0142795Y0128031D01*
X0134921Y0120157D01*
X0134921Y0079803D01*
X0125079Y0079803D01*
X0134921Y0079803D02*
X0134921Y0045354D01*
D21*
X0126063Y0036496D02*
X0126063Y0056181D01*
X0130000Y0060118D01*
X0106181Y0044370D02*
X0106181Y0139646D01*
X0106181Y0177047D01*
X0118189Y0189055D01*
X0223504Y0189055D01*
X0227441Y0185118D01*
X0227441Y0161496D01*
X0230394Y0158543D01*
X0239252Y0158543D01*
X0242205Y0161496D01*
X0242205Y0170157D01*
X0242008Y0170354D01*
X0147717Y0156378D02*
X0147717Y0153622D01*
X0144764Y0150669D01*
X0117205Y0150669D01*
X0106181Y0139646D01*
X0147520Y0156575D02*
X0147717Y0156378D01*
X0214646Y0060118D02*
X0223504Y0051260D01*
X0249094Y0051260D01*
X0252244Y0054409D01*
X0252244Y0058937D01*
X0126063Y0036496D02*
X0124094Y0034528D01*
X0106181Y0034528D01*
X0098701Y0034528D02*
X0087677Y0034528D01*
X0098504Y0034331D02*
X0098504Y0028622D01*
X0102500Y0024626D01*
X0102500Y0022500D01*
X0102500Y0012500D01*
X0082500Y0012500D02*
X0082500Y0022500D01*
X0082500Y0025925D01*
X0074882Y0033543D01*
X0074882Y0045354D01*
X0082756Y0053228D01*
X0091614Y0044370D01*
X0098701Y0044370D01*
X0098701Y0034528D02*
X0098504Y0034331D01*
D22*
X0106181Y0034528D02*
X0106181Y0044370D01*
X0206772Y0067008D02*
X0206772Y0071929D01*
X0211693Y0076850D01*
X0236496Y0076850D01*
X0237480Y0077835D01*
X0237480Y0081969D01*
X0239252Y0083740D01*
X0262874Y0083740D01*
X0263858Y0084724D01*
X0263858Y0101654D01*
X0272913Y0126063D02*
X0272717Y0126260D01*
X0272913Y0126063D02*
X0279606Y0126063D01*
X0281575Y0128031D01*
X0281575Y0185118D01*
X0278622Y0188071D01*
X0249882Y0188071D01*
X0242402Y0188071D02*
X0242008Y0187677D01*
X0242008Y0179213D01*
X0147913Y0174291D02*
X0147520Y0173898D01*
X0147520Y0165433D01*
M02*
