G75*
%MOIN*%
%OFA0B0*%
%FSLAX25Y25*%
%IPPOS*%
%LPD*%
%AMOC8*
5,1,8,0,0,1.08239X$1,22.5*
%
%ADD10R,0.05906X0.05118*%
%ADD11C,0.06000*%
%ADD12C,0.16500*%
%ADD13OC8,0.10050*%
%ADD14C,0.05000*%
%ADD15C,0.01000*%
%ADD16C,0.01800*%
%ADD17C,0.01600*%
D10*
X0198898Y0116417D03*
X0207756Y0116417D03*
X0216614Y0116417D03*
X0216614Y0123898D03*
X0207756Y0123898D03*
X0198898Y0123898D03*
X0263858Y0112087D03*
X0263858Y0104606D03*
D11*
X0222500Y0035000D03*
X0212500Y0035000D03*
X0202500Y0035000D03*
X0192500Y0035000D03*
X0182500Y0035000D03*
X0172500Y0035000D03*
X0172500Y0022500D03*
X0162500Y0022500D03*
X0152500Y0022500D03*
X0142500Y0022500D03*
X0132500Y0022500D03*
X0122500Y0022500D03*
X0112500Y0022500D03*
X0102500Y0022500D03*
X0092500Y0022500D03*
X0082500Y0022500D03*
X0082500Y0012500D03*
X0092500Y0012500D03*
X0102500Y0012500D03*
X0112500Y0012500D03*
X0122500Y0012500D03*
X0132500Y0012500D03*
X0142500Y0012500D03*
X0152500Y0012500D03*
X0162500Y0012500D03*
X0172500Y0012500D03*
X0182500Y0012500D03*
X0192500Y0012500D03*
X0202500Y0012500D03*
X0212500Y0012500D03*
X0222500Y0012500D03*
X0232500Y0012500D03*
X0242500Y0012500D03*
X0252500Y0012500D03*
X0262500Y0012500D03*
X0272500Y0012500D03*
X0282500Y0012500D03*
X0292500Y0012500D03*
X0302500Y0012500D03*
X0302500Y0022500D03*
X0292500Y0022500D03*
X0282500Y0022500D03*
X0272500Y0022500D03*
X0262500Y0022500D03*
X0252500Y0022500D03*
X0242500Y0022500D03*
X0232500Y0022500D03*
X0222500Y0022500D03*
X0212500Y0022500D03*
X0202500Y0022500D03*
X0192500Y0022500D03*
X0182500Y0022500D03*
X0182500Y0202500D03*
X0172500Y0202500D03*
X0162500Y0202500D03*
X0152500Y0202500D03*
X0142500Y0202500D03*
X0132500Y0202500D03*
X0122500Y0202500D03*
X0112500Y0202500D03*
X0102500Y0202500D03*
X0092500Y0202500D03*
X0082500Y0202500D03*
X0082500Y0212500D03*
X0092500Y0212500D03*
X0102500Y0212500D03*
X0112500Y0212500D03*
X0122500Y0212500D03*
X0132500Y0212500D03*
X0142500Y0212500D03*
X0152500Y0212500D03*
X0162500Y0212500D03*
X0172500Y0212500D03*
X0182500Y0212500D03*
X0192500Y0212500D03*
X0202500Y0212500D03*
X0212500Y0212500D03*
X0222500Y0212500D03*
X0232500Y0212500D03*
X0242500Y0212500D03*
X0252500Y0212500D03*
X0262500Y0212500D03*
X0272500Y0212500D03*
X0282500Y0212500D03*
X0292500Y0212500D03*
X0302500Y0212500D03*
X0302500Y0202500D03*
X0292500Y0202500D03*
X0282500Y0202500D03*
X0272500Y0202500D03*
X0262500Y0202500D03*
X0252500Y0202500D03*
X0242500Y0202500D03*
X0232500Y0202500D03*
X0222500Y0202500D03*
X0212500Y0202500D03*
X0202500Y0202500D03*
X0192500Y0202500D03*
D12*
X0062500Y0017500D03*
X0322500Y0030000D03*
X0322500Y0195000D03*
X0062500Y0207500D03*
D13*
X0136890Y0138858D03*
X0189055Y0168386D03*
X0205787Y0168386D03*
X0281575Y0185118D03*
X0300276Y0172323D03*
X0275669Y0079803D03*
X0300276Y0066024D03*
X0206772Y0067008D03*
X0182165Y0079803D03*
X0160512Y0079803D03*
X0143780Y0079803D03*
X0125079Y0079803D03*
X0082756Y0053228D03*
X0087677Y0034528D03*
X0126063Y0036496D03*
D14*
X0305846Y0099488D02*
X0310846Y0099488D01*
X0310846Y0109331D02*
X0305846Y0109331D01*
X0328031Y0116673D02*
X0328031Y0121673D01*
X0310846Y0129016D02*
X0305846Y0129016D01*
X0305846Y0138858D02*
X0310846Y0138858D01*
D15*
X0314446Y0138801D02*
X0323169Y0138801D01*
X0323169Y0137891D02*
X0323910Y0136104D01*
X0325277Y0134736D01*
X0327064Y0133996D01*
X0328999Y0133996D01*
X0330786Y0134736D01*
X0332153Y0136104D01*
X0332894Y0137891D01*
X0332894Y0139825D01*
X0332153Y0141612D01*
X0330786Y0142980D01*
X0328999Y0143720D01*
X0327064Y0143720D01*
X0325277Y0142980D01*
X0323910Y0141612D01*
X0323169Y0139825D01*
X0323169Y0137891D01*
X0323206Y0137802D02*
X0314306Y0137802D01*
X0314446Y0138142D02*
X0314446Y0139574D01*
X0313898Y0140898D01*
X0312886Y0141910D01*
X0311563Y0142458D01*
X0305130Y0142458D01*
X0303807Y0141910D01*
X0302795Y0140898D01*
X0302246Y0139574D01*
X0302246Y0138142D01*
X0302795Y0136819D01*
X0303807Y0135806D01*
X0305130Y0135258D01*
X0311563Y0135258D01*
X0312886Y0135806D01*
X0313898Y0136819D01*
X0314446Y0138142D01*
X0313883Y0136803D02*
X0323620Y0136803D01*
X0324209Y0135805D02*
X0312882Y0135805D01*
X0311563Y0132616D02*
X0312886Y0132068D01*
X0313898Y0131055D01*
X0314446Y0129732D01*
X0314446Y0128300D01*
X0313898Y0126977D01*
X0312886Y0125964D01*
X0311563Y0125416D01*
X0305130Y0125416D01*
X0303807Y0125964D01*
X0302795Y0126977D01*
X0302246Y0128300D01*
X0302246Y0129732D01*
X0302795Y0131055D01*
X0303807Y0132068D01*
X0305130Y0132616D01*
X0311563Y0132616D01*
X0313142Y0131811D02*
X0333740Y0131811D01*
X0333740Y0132809D02*
X0258937Y0132809D01*
X0258937Y0131811D02*
X0303550Y0131811D01*
X0302694Y0130812D02*
X0258937Y0130812D01*
X0258937Y0129814D02*
X0302280Y0129814D01*
X0302246Y0128815D02*
X0258937Y0128815D01*
X0258937Y0127817D02*
X0302446Y0127817D01*
X0302953Y0126818D02*
X0258937Y0126818D01*
X0258937Y0125820D02*
X0304155Y0125820D01*
X0305592Y0123295D02*
X0304224Y0121927D01*
X0303484Y0120140D01*
X0303484Y0118206D01*
X0304224Y0116419D01*
X0305592Y0115051D01*
X0307379Y0114311D01*
X0309314Y0114311D01*
X0311101Y0115051D01*
X0312468Y0116419D01*
X0313209Y0118206D01*
X0313209Y0120140D01*
X0312468Y0121927D01*
X0311101Y0123295D01*
X0309314Y0124035D01*
X0307379Y0124035D01*
X0305592Y0123295D01*
X0305121Y0122824D02*
X0259223Y0122824D01*
X0258937Y0123110D02*
X0258937Y0159528D01*
X0257953Y0160512D01*
X0228425Y0160512D01*
X0225472Y0163465D01*
X0225472Y0186102D01*
X0098504Y0186102D01*
X0098504Y0043386D01*
X0070945Y0043386D01*
X0070945Y0063071D01*
X0091614Y0063071D01*
X0091614Y0192992D01*
X0286496Y0192992D01*
X0297323Y0182165D01*
X0325866Y0182165D01*
X0333740Y0174291D01*
X0333740Y0141584D01*
X0333012Y0139825D01*
X0333012Y0137891D01*
X0333740Y0136133D01*
X0333740Y0102214D01*
X0333012Y0100455D01*
X0333012Y0098521D01*
X0333740Y0096763D01*
X0333740Y0048307D01*
X0292402Y0048307D01*
X0292402Y0120157D01*
X0291417Y0121142D01*
X0260906Y0121142D01*
X0258937Y0123110D01*
X0258937Y0123823D02*
X0306866Y0123823D01*
X0309827Y0123823D02*
X0324657Y0123823D01*
X0324487Y0123568D02*
X0324924Y0124223D01*
X0325482Y0124780D01*
X0326137Y0125218D01*
X0326865Y0125520D01*
X0327638Y0125673D01*
X0327941Y0125673D01*
X0327941Y0119264D01*
X0328122Y0119264D01*
X0328122Y0125673D01*
X0328425Y0125673D01*
X0329198Y0125520D01*
X0329926Y0125218D01*
X0330581Y0124780D01*
X0331138Y0124223D01*
X0331576Y0123568D01*
X0331878Y0122840D01*
X0332031Y0122067D01*
X0332031Y0119264D01*
X0328122Y0119264D01*
X0328122Y0119083D01*
X0332031Y0119083D01*
X0332031Y0116279D01*
X0331878Y0115506D01*
X0331576Y0114779D01*
X0331138Y0114123D01*
X0330581Y0113566D01*
X0329926Y0113128D01*
X0329198Y0112827D01*
X0328425Y0112673D01*
X0328122Y0112673D01*
X0328122Y0119083D01*
X0327941Y0119083D01*
X0324031Y0119083D01*
X0324031Y0116279D01*
X0324185Y0115506D01*
X0324487Y0114779D01*
X0324924Y0114123D01*
X0325482Y0113566D01*
X0326137Y0113128D01*
X0326865Y0112827D01*
X0327638Y0112673D01*
X0327941Y0112673D01*
X0327941Y0119083D01*
X0327941Y0119264D01*
X0324031Y0119264D01*
X0324031Y0122067D01*
X0324185Y0122840D01*
X0324487Y0123568D01*
X0324182Y0122824D02*
X0311572Y0122824D01*
X0312511Y0121826D02*
X0324031Y0121826D01*
X0324031Y0120827D02*
X0312924Y0120827D01*
X0313209Y0119829D02*
X0324031Y0119829D01*
X0324031Y0118830D02*
X0313209Y0118830D01*
X0313054Y0117832D02*
X0324031Y0117832D01*
X0324031Y0116833D02*
X0312640Y0116833D01*
X0311884Y0115835D02*
X0324120Y0115835D01*
X0324463Y0114836D02*
X0310582Y0114836D01*
X0311563Y0112931D02*
X0305130Y0112931D01*
X0303807Y0112383D01*
X0302795Y0111370D01*
X0302246Y0110047D01*
X0302246Y0108615D01*
X0302795Y0107291D01*
X0303807Y0106279D01*
X0305130Y0105731D01*
X0311563Y0105731D01*
X0312886Y0106279D01*
X0313898Y0107291D01*
X0314446Y0108615D01*
X0314446Y0110047D01*
X0313898Y0111370D01*
X0312886Y0112383D01*
X0311563Y0112931D01*
X0311783Y0112839D02*
X0326835Y0112839D01*
X0327941Y0112839D02*
X0328122Y0112839D01*
X0328122Y0113838D02*
X0327941Y0113838D01*
X0327941Y0114836D02*
X0328122Y0114836D01*
X0328122Y0115835D02*
X0327941Y0115835D01*
X0327941Y0116833D02*
X0328122Y0116833D01*
X0328122Y0117832D02*
X0327941Y0117832D01*
X0327941Y0118830D02*
X0328122Y0118830D01*
X0328122Y0119829D02*
X0327941Y0119829D01*
X0327941Y0120827D02*
X0328122Y0120827D01*
X0328122Y0121826D02*
X0327941Y0121826D01*
X0327941Y0122824D02*
X0328122Y0122824D01*
X0328122Y0123823D02*
X0327941Y0123823D01*
X0327941Y0124821D02*
X0328122Y0124821D01*
X0330520Y0124821D02*
X0333740Y0124821D01*
X0333740Y0123823D02*
X0331406Y0123823D01*
X0331881Y0122824D02*
X0333740Y0122824D01*
X0333740Y0121826D02*
X0332031Y0121826D01*
X0332031Y0120827D02*
X0333740Y0120827D01*
X0333740Y0119829D02*
X0332031Y0119829D01*
X0332031Y0118830D02*
X0333740Y0118830D01*
X0333740Y0117832D02*
X0332031Y0117832D01*
X0332031Y0116833D02*
X0333740Y0116833D01*
X0333740Y0115835D02*
X0331943Y0115835D01*
X0331600Y0114836D02*
X0333740Y0114836D01*
X0333740Y0113838D02*
X0330853Y0113838D01*
X0329228Y0112839D02*
X0333740Y0112839D01*
X0333740Y0111841D02*
X0313428Y0111841D01*
X0314117Y0110842D02*
X0333740Y0110842D01*
X0333740Y0109844D02*
X0314446Y0109844D01*
X0314446Y0108845D02*
X0333740Y0108845D01*
X0333740Y0107847D02*
X0314128Y0107847D01*
X0313455Y0106848D02*
X0333740Y0106848D01*
X0333740Y0105850D02*
X0311850Y0105850D01*
X0311563Y0103088D02*
X0305130Y0103088D01*
X0303807Y0102540D01*
X0302795Y0101527D01*
X0302246Y0100204D01*
X0302246Y0098772D01*
X0302795Y0097449D01*
X0303807Y0096436D01*
X0305130Y0095888D01*
X0311563Y0095888D01*
X0312886Y0096436D01*
X0313898Y0097449D01*
X0314446Y0098772D01*
X0314446Y0100204D01*
X0313898Y0101527D01*
X0312886Y0102540D01*
X0311563Y0103088D01*
X0312128Y0102854D02*
X0324521Y0102854D01*
X0323910Y0102242D02*
X0323169Y0100455D01*
X0323169Y0098521D01*
X0323910Y0096734D01*
X0325277Y0095366D01*
X0327064Y0094626D01*
X0328999Y0094626D01*
X0330786Y0095366D01*
X0332153Y0096734D01*
X0332894Y0098521D01*
X0332894Y0100455D01*
X0332153Y0102242D01*
X0330786Y0103610D01*
X0328999Y0104350D01*
X0327064Y0104350D01*
X0325277Y0103610D01*
X0323910Y0102242D01*
X0323749Y0101856D02*
X0313570Y0101856D01*
X0314176Y0100857D02*
X0323336Y0100857D01*
X0323169Y0099859D02*
X0314446Y0099859D01*
X0314446Y0098860D02*
X0323169Y0098860D01*
X0323442Y0097862D02*
X0314069Y0097862D01*
X0313312Y0096863D02*
X0323856Y0096863D01*
X0324779Y0095865D02*
X0292402Y0095865D01*
X0292402Y0096863D02*
X0303380Y0096863D01*
X0302624Y0097862D02*
X0292402Y0097862D01*
X0292402Y0098860D02*
X0302246Y0098860D01*
X0302246Y0099859D02*
X0292402Y0099859D01*
X0292402Y0100857D02*
X0302517Y0100857D01*
X0303123Y0101856D02*
X0292402Y0101856D01*
X0292402Y0102854D02*
X0304565Y0102854D01*
X0304843Y0105850D02*
X0292402Y0105850D01*
X0292402Y0106848D02*
X0303238Y0106848D01*
X0302565Y0107847D02*
X0292402Y0107847D01*
X0292402Y0108845D02*
X0302246Y0108845D01*
X0302246Y0109844D02*
X0292402Y0109844D01*
X0292402Y0110842D02*
X0302576Y0110842D01*
X0303265Y0111841D02*
X0292402Y0111841D01*
X0292402Y0112839D02*
X0304910Y0112839D01*
X0306111Y0114836D02*
X0292402Y0114836D01*
X0292402Y0113838D02*
X0325210Y0113838D01*
X0333740Y0104851D02*
X0292402Y0104851D01*
X0292402Y0103853D02*
X0325863Y0103853D01*
X0330200Y0103853D02*
X0333740Y0103853D01*
X0333740Y0102854D02*
X0331542Y0102854D01*
X0332314Y0101856D02*
X0333592Y0101856D01*
X0333178Y0100857D02*
X0332727Y0100857D01*
X0332894Y0099859D02*
X0333012Y0099859D01*
X0333012Y0098860D02*
X0332894Y0098860D01*
X0332621Y0097862D02*
X0333285Y0097862D01*
X0333699Y0096863D02*
X0332207Y0096863D01*
X0331284Y0095865D02*
X0333740Y0095865D01*
X0333740Y0094866D02*
X0329578Y0094866D01*
X0326485Y0094866D02*
X0292402Y0094866D01*
X0292402Y0093868D02*
X0333740Y0093868D01*
X0333740Y0092869D02*
X0292402Y0092869D01*
X0292402Y0091870D02*
X0333740Y0091870D01*
X0333740Y0090872D02*
X0292402Y0090872D01*
X0292402Y0089873D02*
X0333740Y0089873D01*
X0333740Y0088875D02*
X0292402Y0088875D01*
X0292402Y0087876D02*
X0333740Y0087876D01*
X0333740Y0086878D02*
X0292402Y0086878D01*
X0292402Y0085879D02*
X0333740Y0085879D01*
X0333740Y0084881D02*
X0292402Y0084881D01*
X0292402Y0083882D02*
X0333740Y0083882D01*
X0333740Y0082884D02*
X0292402Y0082884D01*
X0292402Y0081885D02*
X0333740Y0081885D01*
X0333740Y0080887D02*
X0292402Y0080887D01*
X0292402Y0079888D02*
X0333740Y0079888D01*
X0333740Y0078890D02*
X0292402Y0078890D01*
X0292402Y0077891D02*
X0333740Y0077891D01*
X0333740Y0076893D02*
X0292402Y0076893D01*
X0292402Y0075894D02*
X0333740Y0075894D01*
X0333740Y0074896D02*
X0292402Y0074896D01*
X0292402Y0073897D02*
X0333740Y0073897D01*
X0333740Y0072899D02*
X0292402Y0072899D01*
X0292402Y0071900D02*
X0297490Y0071900D01*
X0297739Y0072149D02*
X0294151Y0068561D01*
X0294151Y0063487D01*
X0297739Y0059899D01*
X0302813Y0059899D01*
X0306401Y0063487D01*
X0306401Y0068561D01*
X0302813Y0072149D01*
X0297739Y0072149D01*
X0296492Y0070902D02*
X0292402Y0070902D01*
X0292402Y0069903D02*
X0295493Y0069903D01*
X0294495Y0068905D02*
X0292402Y0068905D01*
X0292402Y0067906D02*
X0294151Y0067906D01*
X0294151Y0066908D02*
X0292402Y0066908D01*
X0292402Y0065909D02*
X0294151Y0065909D01*
X0294151Y0064911D02*
X0292402Y0064911D01*
X0292402Y0063912D02*
X0294151Y0063912D01*
X0294723Y0062914D02*
X0292402Y0062914D01*
X0292402Y0061915D02*
X0295722Y0061915D01*
X0296721Y0060917D02*
X0292402Y0060917D01*
X0292402Y0059918D02*
X0297719Y0059918D01*
X0292402Y0058920D02*
X0333740Y0058920D01*
X0333740Y0059918D02*
X0302832Y0059918D01*
X0303831Y0060917D02*
X0333740Y0060917D01*
X0333740Y0061915D02*
X0304829Y0061915D01*
X0305828Y0062914D02*
X0333740Y0062914D01*
X0333740Y0063912D02*
X0306401Y0063912D01*
X0306401Y0064911D02*
X0333740Y0064911D01*
X0333740Y0065909D02*
X0306401Y0065909D01*
X0306401Y0066908D02*
X0333740Y0066908D01*
X0333740Y0067906D02*
X0306401Y0067906D01*
X0306057Y0068905D02*
X0333740Y0068905D01*
X0333740Y0069903D02*
X0305058Y0069903D01*
X0304059Y0070902D02*
X0333740Y0070902D01*
X0333740Y0071900D02*
X0303061Y0071900D01*
X0287480Y0071900D02*
X0225472Y0071900D01*
X0225472Y0070902D02*
X0287480Y0070902D01*
X0287480Y0069903D02*
X0225472Y0069903D01*
X0225472Y0068905D02*
X0287480Y0068905D01*
X0287480Y0067906D02*
X0225472Y0067906D01*
X0225472Y0066908D02*
X0287480Y0066908D01*
X0287480Y0065909D02*
X0225472Y0065909D01*
X0225472Y0064911D02*
X0287480Y0064911D01*
X0287480Y0063912D02*
X0225472Y0063912D01*
X0225472Y0062914D02*
X0287480Y0062914D01*
X0287480Y0061915D02*
X0225472Y0061915D01*
X0225472Y0060917D02*
X0287480Y0060917D01*
X0287480Y0059918D02*
X0225472Y0059918D01*
X0225472Y0058920D02*
X0287480Y0058920D01*
X0287480Y0057921D02*
X0225472Y0057921D01*
X0225472Y0057165D02*
X0225472Y0083740D01*
X0227441Y0085709D01*
X0241220Y0085709D01*
X0243189Y0087677D01*
X0243189Y0114252D01*
X0245157Y0116220D01*
X0283543Y0116220D01*
X0287480Y0112283D01*
X0287480Y0049291D01*
X0095551Y0049291D01*
X0095551Y0057165D01*
X0225472Y0057165D01*
X0223504Y0043386D02*
X0227441Y0039449D01*
X0227441Y0017559D01*
X0232500Y0012500D01*
X0223504Y0043386D02*
X0136890Y0043386D01*
X0134921Y0045354D01*
X0112283Y0053228D02*
X0105394Y0053228D01*
X0105394Y0181181D01*
X0219567Y0181181D01*
X0219567Y0161496D01*
X0224488Y0156575D01*
X0254016Y0156575D01*
X0255984Y0154606D01*
X0255984Y0124094D01*
X0254016Y0122126D01*
X0244173Y0122126D01*
X0240236Y0118189D01*
X0240236Y0091614D01*
X0237283Y0088661D01*
X0112283Y0088661D01*
X0112283Y0053228D01*
X0112283Y0053927D02*
X0105394Y0053927D01*
X0105394Y0054926D02*
X0112283Y0054926D01*
X0112283Y0055924D02*
X0105394Y0055924D01*
X0105394Y0056923D02*
X0112283Y0056923D01*
X0112283Y0057921D02*
X0105394Y0057921D01*
X0105394Y0058920D02*
X0112283Y0058920D01*
X0112283Y0059918D02*
X0105394Y0059918D01*
X0105394Y0060917D02*
X0112283Y0060917D01*
X0112283Y0061915D02*
X0105394Y0061915D01*
X0105394Y0062914D02*
X0112283Y0062914D01*
X0112283Y0063912D02*
X0105394Y0063912D01*
X0105394Y0064911D02*
X0112283Y0064911D01*
X0112283Y0065909D02*
X0105394Y0065909D01*
X0105394Y0066908D02*
X0112283Y0066908D01*
X0112283Y0067906D02*
X0105394Y0067906D01*
X0105394Y0068905D02*
X0112283Y0068905D01*
X0112283Y0069903D02*
X0105394Y0069903D01*
X0105394Y0070902D02*
X0112283Y0070902D01*
X0112283Y0071900D02*
X0105394Y0071900D01*
X0105394Y0072899D02*
X0112283Y0072899D01*
X0112283Y0073897D02*
X0105394Y0073897D01*
X0105394Y0074896D02*
X0112283Y0074896D01*
X0112283Y0075894D02*
X0105394Y0075894D01*
X0105394Y0076893D02*
X0112283Y0076893D01*
X0112283Y0077891D02*
X0105394Y0077891D01*
X0105394Y0078890D02*
X0112283Y0078890D01*
X0112283Y0079888D02*
X0105394Y0079888D01*
X0105394Y0080887D02*
X0112283Y0080887D01*
X0112283Y0081885D02*
X0105394Y0081885D01*
X0105394Y0082884D02*
X0112283Y0082884D01*
X0112283Y0083882D02*
X0105394Y0083882D01*
X0105394Y0084881D02*
X0112283Y0084881D01*
X0112283Y0085879D02*
X0105394Y0085879D01*
X0105394Y0086878D02*
X0112283Y0086878D01*
X0112283Y0087876D02*
X0105394Y0087876D01*
X0105394Y0088875D02*
X0237497Y0088875D01*
X0238496Y0089873D02*
X0105394Y0089873D01*
X0105394Y0090872D02*
X0239494Y0090872D01*
X0240236Y0091870D02*
X0105394Y0091870D01*
X0105394Y0092869D02*
X0240236Y0092869D01*
X0240236Y0093868D02*
X0105394Y0093868D01*
X0105394Y0094866D02*
X0240236Y0094866D01*
X0240236Y0095865D02*
X0105394Y0095865D01*
X0105394Y0096863D02*
X0240236Y0096863D01*
X0240236Y0097862D02*
X0105394Y0097862D01*
X0105394Y0098860D02*
X0240236Y0098860D01*
X0240236Y0099859D02*
X0105394Y0099859D01*
X0105394Y0100857D02*
X0240236Y0100857D01*
X0240236Y0101856D02*
X0105394Y0101856D01*
X0105394Y0102854D02*
X0240236Y0102854D01*
X0240236Y0103853D02*
X0105394Y0103853D01*
X0105394Y0104851D02*
X0240236Y0104851D01*
X0240236Y0105850D02*
X0105394Y0105850D01*
X0105394Y0106848D02*
X0240236Y0106848D01*
X0240236Y0107847D02*
X0194337Y0107847D01*
X0193821Y0107331D02*
X0194992Y0108502D01*
X0194992Y0110159D01*
X0194592Y0110559D01*
X0194592Y0121463D01*
X0194845Y0121716D01*
X0194845Y0120883D01*
X0195489Y0120239D01*
X0197700Y0120239D01*
X0197538Y0120076D01*
X0195489Y0120076D01*
X0194845Y0119432D01*
X0194845Y0113403D01*
X0195489Y0112758D01*
X0202306Y0112758D01*
X0202950Y0113403D01*
X0202950Y0118557D01*
X0203703Y0118557D01*
X0203703Y0113403D01*
X0204348Y0112758D01*
X0206156Y0112758D01*
X0206156Y0112605D01*
X0207140Y0111621D01*
X0208077Y0110683D01*
X0222276Y0110683D01*
X0222676Y0110283D01*
X0224332Y0110283D01*
X0225504Y0111455D01*
X0225504Y0113112D01*
X0224980Y0113636D01*
X0234087Y0113636D01*
X0234487Y0113236D01*
X0236143Y0113236D01*
X0237315Y0114408D01*
X0237315Y0116065D01*
X0236143Y0117236D01*
X0234487Y0117236D01*
X0234087Y0116836D01*
X0220667Y0116836D01*
X0220667Y0119432D01*
X0220154Y0119945D01*
X0220488Y0120138D01*
X0220767Y0120418D01*
X0220965Y0120760D01*
X0221067Y0121141D01*
X0221067Y0123398D01*
X0217114Y0123398D01*
X0217114Y0124398D01*
X0221067Y0124398D01*
X0221067Y0126654D01*
X0220965Y0127036D01*
X0220767Y0127378D01*
X0220729Y0127416D01*
X0223182Y0127416D01*
X0224167Y0128400D01*
X0225104Y0129337D01*
X0225104Y0130740D01*
X0225504Y0131140D01*
X0225504Y0132797D01*
X0224332Y0133968D01*
X0222676Y0133968D01*
X0221504Y0132797D01*
X0221504Y0131140D01*
X0221904Y0130740D01*
X0221904Y0130663D01*
X0221857Y0130616D01*
X0208077Y0130616D01*
X0207140Y0129678D01*
X0206156Y0128694D01*
X0206156Y0127557D01*
X0204348Y0127557D01*
X0203703Y0126912D01*
X0203703Y0125498D01*
X0202950Y0125498D01*
X0202950Y0126912D01*
X0202306Y0127557D01*
X0195489Y0127557D01*
X0194845Y0126912D01*
X0194845Y0125498D01*
X0186962Y0125498D01*
X0185734Y0126726D01*
X0185734Y0136646D01*
X0186134Y0137046D01*
X0186134Y0138702D01*
X0184962Y0139874D01*
X0183305Y0139874D01*
X0182134Y0138702D01*
X0182134Y0137046D01*
X0182534Y0136646D01*
X0182534Y0125400D01*
X0183471Y0124463D01*
X0183471Y0124463D01*
X0184699Y0123235D01*
X0184699Y0123235D01*
X0185636Y0122298D01*
X0191392Y0122298D01*
X0191392Y0110559D01*
X0190992Y0110159D01*
X0190992Y0108502D01*
X0192164Y0107331D01*
X0193821Y0107331D01*
X0194992Y0108845D02*
X0240236Y0108845D01*
X0240236Y0109844D02*
X0194992Y0109844D01*
X0194592Y0110842D02*
X0207919Y0110842D01*
X0206920Y0111841D02*
X0194592Y0111841D01*
X0194592Y0112839D02*
X0195408Y0112839D01*
X0194845Y0113838D02*
X0194592Y0113838D01*
X0194592Y0114836D02*
X0194845Y0114836D01*
X0194845Y0115835D02*
X0194592Y0115835D01*
X0194592Y0116833D02*
X0194845Y0116833D01*
X0194845Y0117832D02*
X0194592Y0117832D01*
X0194592Y0118830D02*
X0194845Y0118830D01*
X0194592Y0119829D02*
X0195242Y0119829D01*
X0194901Y0120827D02*
X0194592Y0120827D01*
X0192992Y0122126D02*
X0192992Y0109331D01*
X0191648Y0107847D02*
X0105394Y0107847D01*
X0105394Y0108845D02*
X0190992Y0108845D01*
X0190992Y0109844D02*
X0105394Y0109844D01*
X0105394Y0110842D02*
X0191392Y0110842D01*
X0191392Y0111841D02*
X0105394Y0111841D01*
X0105394Y0112839D02*
X0191392Y0112839D01*
X0191392Y0113838D02*
X0105394Y0113838D01*
X0105394Y0114836D02*
X0191392Y0114836D01*
X0191392Y0115835D02*
X0105394Y0115835D01*
X0105394Y0116833D02*
X0191392Y0116833D01*
X0191392Y0117832D02*
X0105394Y0117832D01*
X0105394Y0118830D02*
X0191392Y0118830D01*
X0191392Y0119829D02*
X0105394Y0119829D01*
X0105394Y0120827D02*
X0191392Y0120827D01*
X0191392Y0121826D02*
X0105394Y0121826D01*
X0105394Y0122824D02*
X0185110Y0122824D01*
X0184111Y0123823D02*
X0105394Y0123823D01*
X0105394Y0124821D02*
X0183113Y0124821D01*
X0182534Y0125820D02*
X0105394Y0125820D01*
X0105394Y0126818D02*
X0182534Y0126818D01*
X0182534Y0127817D02*
X0105394Y0127817D01*
X0105394Y0128815D02*
X0182534Y0128815D01*
X0182534Y0129814D02*
X0105394Y0129814D01*
X0105394Y0130812D02*
X0182534Y0130812D01*
X0182534Y0131811D02*
X0105394Y0131811D01*
X0105394Y0132809D02*
X0133711Y0132809D01*
X0134187Y0132333D02*
X0130365Y0136156D01*
X0130365Y0138358D01*
X0136390Y0138358D01*
X0137390Y0138358D01*
X0137390Y0139358D01*
X0143415Y0139358D01*
X0143415Y0141561D01*
X0139592Y0145383D01*
X0137390Y0145383D01*
X0137390Y0139358D01*
X0136390Y0139358D01*
X0136390Y0138358D01*
X0136390Y0132333D01*
X0134187Y0132333D01*
X0132712Y0133808D02*
X0105394Y0133808D01*
X0105394Y0134806D02*
X0131714Y0134806D01*
X0130715Y0135805D02*
X0105394Y0135805D01*
X0105394Y0136803D02*
X0130365Y0136803D01*
X0130365Y0137802D02*
X0105394Y0137802D01*
X0105394Y0138801D02*
X0136390Y0138801D01*
X0136390Y0139358D02*
X0130365Y0139358D01*
X0130365Y0141561D01*
X0134187Y0145383D01*
X0136390Y0145383D01*
X0136390Y0139358D01*
X0136390Y0139799D02*
X0137390Y0139799D01*
X0137390Y0138801D02*
X0182232Y0138801D01*
X0182134Y0137802D02*
X0143415Y0137802D01*
X0143415Y0138358D02*
X0137390Y0138358D01*
X0137390Y0132333D01*
X0139592Y0132333D01*
X0143415Y0136156D01*
X0143415Y0138358D01*
X0143415Y0139799D02*
X0183230Y0139799D01*
X0185037Y0139799D02*
X0255984Y0139799D01*
X0255984Y0138801D02*
X0186036Y0138801D01*
X0186134Y0137802D02*
X0255984Y0137802D01*
X0255984Y0136803D02*
X0185892Y0136803D01*
X0185734Y0135805D02*
X0255984Y0135805D01*
X0255984Y0134806D02*
X0185734Y0134806D01*
X0185734Y0133808D02*
X0222515Y0133808D01*
X0221516Y0132809D02*
X0185734Y0132809D01*
X0185734Y0131811D02*
X0221504Y0131811D01*
X0221832Y0130812D02*
X0185734Y0130812D01*
X0185734Y0129814D02*
X0207276Y0129814D01*
X0206277Y0128815D02*
X0185734Y0128815D01*
X0185734Y0127817D02*
X0206156Y0127817D01*
X0207756Y0128031D02*
X0208740Y0129016D01*
X0222520Y0129016D01*
X0223504Y0130000D01*
X0223504Y0131969D01*
X0225504Y0131811D02*
X0255984Y0131811D01*
X0255984Y0132809D02*
X0225491Y0132809D01*
X0224493Y0133808D02*
X0255984Y0133808D01*
X0258937Y0133808D02*
X0333740Y0133808D01*
X0333740Y0134806D02*
X0330856Y0134806D01*
X0331854Y0135805D02*
X0333740Y0135805D01*
X0333462Y0136803D02*
X0332443Y0136803D01*
X0332857Y0137802D02*
X0333049Y0137802D01*
X0333012Y0138801D02*
X0332894Y0138801D01*
X0332894Y0139799D02*
X0333012Y0139799D01*
X0333414Y0140798D02*
X0332491Y0140798D01*
X0331970Y0141796D02*
X0333740Y0141796D01*
X0333740Y0142795D02*
X0330971Y0142795D01*
X0333740Y0143793D02*
X0258937Y0143793D01*
X0258937Y0142795D02*
X0325092Y0142795D01*
X0324093Y0141796D02*
X0313000Y0141796D01*
X0313940Y0140798D02*
X0323572Y0140798D01*
X0323169Y0139799D02*
X0314353Y0139799D01*
X0303693Y0141796D02*
X0258937Y0141796D01*
X0258937Y0140798D02*
X0302753Y0140798D01*
X0302340Y0139799D02*
X0258937Y0139799D01*
X0258937Y0138801D02*
X0302246Y0138801D01*
X0302387Y0137802D02*
X0258937Y0137802D01*
X0258937Y0136803D02*
X0302810Y0136803D01*
X0303810Y0135805D02*
X0258937Y0135805D01*
X0258937Y0134806D02*
X0325207Y0134806D01*
X0333740Y0130812D02*
X0313999Y0130812D01*
X0314412Y0129814D02*
X0333740Y0129814D01*
X0333740Y0128815D02*
X0314446Y0128815D01*
X0314246Y0127817D02*
X0333740Y0127817D01*
X0333740Y0126818D02*
X0313740Y0126818D01*
X0312538Y0125820D02*
X0333740Y0125820D01*
X0325543Y0124821D02*
X0258937Y0124821D01*
X0255984Y0124821D02*
X0221067Y0124821D01*
X0221067Y0125820D02*
X0255984Y0125820D01*
X0255984Y0126818D02*
X0221023Y0126818D01*
X0223584Y0127817D02*
X0255984Y0127817D01*
X0255984Y0128815D02*
X0224582Y0128815D01*
X0225104Y0129814D02*
X0255984Y0129814D01*
X0255984Y0130812D02*
X0225176Y0130812D01*
X0217114Y0123823D02*
X0255713Y0123823D01*
X0254714Y0122824D02*
X0221067Y0122824D01*
X0221067Y0121826D02*
X0243873Y0121826D01*
X0242875Y0120827D02*
X0220983Y0120827D01*
X0220270Y0119829D02*
X0241876Y0119829D01*
X0240878Y0118830D02*
X0220667Y0118830D01*
X0220667Y0117832D02*
X0240236Y0117832D01*
X0240236Y0116833D02*
X0236546Y0116833D01*
X0237315Y0115835D02*
X0240236Y0115835D01*
X0240236Y0114836D02*
X0237315Y0114836D01*
X0236745Y0113838D02*
X0240236Y0113838D01*
X0240236Y0112839D02*
X0225504Y0112839D01*
X0225504Y0111841D02*
X0240236Y0111841D01*
X0240236Y0110842D02*
X0224891Y0110842D01*
X0223504Y0112283D02*
X0208740Y0112283D01*
X0207756Y0113268D01*
X0207756Y0116417D01*
X0203703Y0116833D02*
X0202950Y0116833D01*
X0202950Y0115835D02*
X0203703Y0115835D01*
X0203703Y0114836D02*
X0202950Y0114836D01*
X0202950Y0113838D02*
X0203703Y0113838D01*
X0204267Y0112839D02*
X0202387Y0112839D01*
X0198898Y0116417D02*
X0198898Y0119173D01*
X0199882Y0120157D01*
X0215630Y0120157D01*
X0216614Y0119173D01*
X0216614Y0116417D01*
X0217795Y0115236D01*
X0235315Y0115236D01*
X0243189Y0113838D02*
X0256679Y0113838D01*
X0257124Y0114283D02*
X0255953Y0113112D01*
X0255953Y0111455D01*
X0257124Y0110283D01*
X0258781Y0110283D01*
X0259181Y0110683D01*
X0259806Y0110683D01*
X0259806Y0109072D01*
X0260450Y0108428D01*
X0267267Y0108428D01*
X0267911Y0109072D01*
X0267911Y0115101D01*
X0267267Y0115746D01*
X0260450Y0115746D01*
X0259806Y0115101D01*
X0259806Y0113883D01*
X0259181Y0113883D01*
X0258781Y0114283D01*
X0257124Y0114283D01*
X0255953Y0112839D02*
X0243189Y0112839D01*
X0243189Y0111841D02*
X0255953Y0111841D01*
X0256566Y0110842D02*
X0243189Y0110842D01*
X0243189Y0109844D02*
X0259806Y0109844D01*
X0260032Y0108845D02*
X0243189Y0108845D01*
X0243189Y0107847D02*
X0260031Y0107847D01*
X0259806Y0107621D02*
X0259806Y0106369D01*
X0258781Y0107394D01*
X0257124Y0107394D01*
X0255953Y0106222D01*
X0255953Y0104565D01*
X0257124Y0103394D01*
X0257690Y0103394D01*
X0258077Y0103006D01*
X0259806Y0103006D01*
X0259806Y0101592D01*
X0260450Y0100947D01*
X0267267Y0100947D01*
X0267911Y0101592D01*
X0267911Y0107621D01*
X0267267Y0108265D01*
X0260450Y0108265D01*
X0259806Y0107621D01*
X0259806Y0106848D02*
X0259327Y0106848D01*
X0257953Y0105394D02*
X0258740Y0104606D01*
X0263858Y0104606D01*
X0267911Y0104851D02*
X0287480Y0104851D01*
X0287480Y0103853D02*
X0267911Y0103853D01*
X0267911Y0102854D02*
X0287480Y0102854D01*
X0287480Y0101856D02*
X0267911Y0101856D01*
X0267911Y0105850D02*
X0287480Y0105850D01*
X0287480Y0106848D02*
X0267911Y0106848D01*
X0267685Y0107847D02*
X0287480Y0107847D01*
X0287480Y0108845D02*
X0267684Y0108845D01*
X0267911Y0109844D02*
X0287480Y0109844D01*
X0287480Y0110842D02*
X0267911Y0110842D01*
X0267911Y0111841D02*
X0287480Y0111841D01*
X0286925Y0112839D02*
X0267911Y0112839D01*
X0267911Y0113838D02*
X0285926Y0113838D01*
X0284928Y0114836D02*
X0267911Y0114836D01*
X0263858Y0112087D02*
X0263661Y0112283D01*
X0257953Y0112283D01*
X0259806Y0114836D02*
X0243773Y0114836D01*
X0244772Y0115835D02*
X0283929Y0115835D01*
X0292402Y0115835D02*
X0304809Y0115835D01*
X0304053Y0116833D02*
X0292402Y0116833D01*
X0292402Y0117832D02*
X0303639Y0117832D01*
X0303484Y0118830D02*
X0292402Y0118830D01*
X0292402Y0119829D02*
X0303484Y0119829D01*
X0303769Y0120827D02*
X0291732Y0120827D01*
X0304182Y0121826D02*
X0260221Y0121826D01*
X0256579Y0106848D02*
X0243189Y0106848D01*
X0243189Y0105850D02*
X0255953Y0105850D01*
X0255953Y0104851D02*
X0243189Y0104851D01*
X0243189Y0103853D02*
X0256665Y0103853D01*
X0259806Y0102854D02*
X0243189Y0102854D01*
X0243189Y0101856D02*
X0259806Y0101856D01*
X0243189Y0100857D02*
X0287480Y0100857D01*
X0287480Y0099859D02*
X0243189Y0099859D01*
X0243189Y0098860D02*
X0287480Y0098860D01*
X0287480Y0097862D02*
X0243189Y0097862D01*
X0243189Y0096863D02*
X0287480Y0096863D01*
X0287480Y0095865D02*
X0243189Y0095865D01*
X0243189Y0094866D02*
X0287480Y0094866D01*
X0287480Y0093868D02*
X0243189Y0093868D01*
X0243189Y0092869D02*
X0287480Y0092869D01*
X0287480Y0091870D02*
X0243189Y0091870D01*
X0243189Y0090872D02*
X0287480Y0090872D01*
X0287480Y0089873D02*
X0243189Y0089873D01*
X0243189Y0088875D02*
X0287480Y0088875D01*
X0287480Y0087876D02*
X0243189Y0087876D01*
X0242390Y0086878D02*
X0287480Y0086878D01*
X0287480Y0085879D02*
X0278821Y0085879D01*
X0278372Y0086328D02*
X0276169Y0086328D01*
X0276169Y0080303D01*
X0275169Y0080303D01*
X0275169Y0079303D01*
X0269144Y0079303D01*
X0269144Y0077100D01*
X0272967Y0073278D01*
X0275169Y0073278D01*
X0275169Y0079303D01*
X0276169Y0079303D01*
X0276169Y0073278D01*
X0278372Y0073278D01*
X0282194Y0077100D01*
X0282194Y0079303D01*
X0276169Y0079303D01*
X0276169Y0080303D01*
X0282194Y0080303D01*
X0282194Y0082506D01*
X0278372Y0086328D01*
X0279819Y0084881D02*
X0287480Y0084881D01*
X0287480Y0083882D02*
X0280818Y0083882D01*
X0281816Y0082884D02*
X0287480Y0082884D01*
X0287480Y0081885D02*
X0282194Y0081885D01*
X0282194Y0080887D02*
X0287480Y0080887D01*
X0287480Y0079888D02*
X0276169Y0079888D01*
X0276169Y0078890D02*
X0275169Y0078890D01*
X0275169Y0079888D02*
X0225472Y0079888D01*
X0225472Y0078890D02*
X0269144Y0078890D01*
X0269144Y0077891D02*
X0225472Y0077891D01*
X0225472Y0076893D02*
X0269352Y0076893D01*
X0270350Y0075894D02*
X0225472Y0075894D01*
X0225472Y0074896D02*
X0271349Y0074896D01*
X0272347Y0073897D02*
X0225472Y0073897D01*
X0225472Y0072899D02*
X0287480Y0072899D01*
X0287480Y0073897D02*
X0278991Y0073897D01*
X0279990Y0074896D02*
X0287480Y0074896D01*
X0287480Y0075894D02*
X0280988Y0075894D01*
X0281987Y0076893D02*
X0287480Y0076893D01*
X0287480Y0077891D02*
X0282194Y0077891D01*
X0282194Y0078890D02*
X0287480Y0078890D01*
X0276169Y0077891D02*
X0275169Y0077891D01*
X0275169Y0076893D02*
X0276169Y0076893D01*
X0276169Y0075894D02*
X0275169Y0075894D01*
X0275169Y0074896D02*
X0276169Y0074896D01*
X0276169Y0073897D02*
X0275169Y0073897D01*
X0275169Y0080303D02*
X0269144Y0080303D01*
X0269144Y0082506D01*
X0272967Y0086328D01*
X0275169Y0086328D01*
X0275169Y0080303D01*
X0275169Y0080887D02*
X0276169Y0080887D01*
X0276169Y0081885D02*
X0275169Y0081885D01*
X0275169Y0082884D02*
X0276169Y0082884D01*
X0276169Y0083882D02*
X0275169Y0083882D01*
X0275169Y0084881D02*
X0276169Y0084881D01*
X0276169Y0085879D02*
X0275169Y0085879D01*
X0272518Y0085879D02*
X0241391Y0085879D01*
X0226613Y0084881D02*
X0271519Y0084881D01*
X0270521Y0083882D02*
X0225615Y0083882D01*
X0225472Y0082884D02*
X0269522Y0082884D01*
X0269144Y0081885D02*
X0225472Y0081885D01*
X0225472Y0080887D02*
X0269144Y0080887D01*
X0292402Y0057921D02*
X0333740Y0057921D01*
X0333740Y0056923D02*
X0292402Y0056923D01*
X0292402Y0055924D02*
X0333740Y0055924D01*
X0333740Y0054926D02*
X0292402Y0054926D01*
X0292402Y0053927D02*
X0333740Y0053927D01*
X0333740Y0052929D02*
X0292402Y0052929D01*
X0292402Y0051930D02*
X0333740Y0051930D01*
X0333740Y0050932D02*
X0292402Y0050932D01*
X0292402Y0049933D02*
X0333740Y0049933D01*
X0333740Y0048934D02*
X0292402Y0048934D01*
X0287480Y0049933D02*
X0095551Y0049933D01*
X0095551Y0050932D02*
X0287480Y0050932D01*
X0287480Y0051930D02*
X0095551Y0051930D01*
X0095551Y0052929D02*
X0287480Y0052929D01*
X0287480Y0053927D02*
X0095551Y0053927D01*
X0095551Y0054926D02*
X0287480Y0054926D01*
X0287480Y0055924D02*
X0095551Y0055924D01*
X0095551Y0056923D02*
X0287480Y0056923D01*
X0203703Y0117832D02*
X0202950Y0117832D01*
X0198898Y0123898D02*
X0194764Y0123898D01*
X0186299Y0123898D01*
X0184134Y0126063D01*
X0184134Y0137874D01*
X0182376Y0136803D02*
X0143415Y0136803D01*
X0143064Y0135805D02*
X0182534Y0135805D01*
X0182534Y0134806D02*
X0142066Y0134806D01*
X0141067Y0133808D02*
X0182534Y0133808D01*
X0182534Y0132809D02*
X0140069Y0132809D01*
X0137390Y0132809D02*
X0136390Y0132809D01*
X0136390Y0133808D02*
X0137390Y0133808D01*
X0137390Y0134806D02*
X0136390Y0134806D01*
X0136390Y0135805D02*
X0137390Y0135805D01*
X0137390Y0136803D02*
X0136390Y0136803D01*
X0136390Y0137802D02*
X0137390Y0137802D01*
X0137390Y0140798D02*
X0136390Y0140798D01*
X0136390Y0141796D02*
X0137390Y0141796D01*
X0137390Y0142795D02*
X0136390Y0142795D01*
X0136390Y0143793D02*
X0137390Y0143793D01*
X0137390Y0144792D02*
X0136390Y0144792D01*
X0133595Y0144792D02*
X0105394Y0144792D01*
X0105394Y0145790D02*
X0255984Y0145790D01*
X0255984Y0144792D02*
X0140184Y0144792D01*
X0141183Y0143793D02*
X0255984Y0143793D01*
X0255984Y0142795D02*
X0142181Y0142795D01*
X0143180Y0141796D02*
X0255984Y0141796D01*
X0255984Y0140798D02*
X0143415Y0140798D01*
X0132597Y0143793D02*
X0105394Y0143793D01*
X0105394Y0142795D02*
X0131598Y0142795D01*
X0130600Y0141796D02*
X0105394Y0141796D01*
X0105394Y0140798D02*
X0130365Y0140798D01*
X0130365Y0139799D02*
X0105394Y0139799D01*
X0098504Y0139799D02*
X0091614Y0139799D01*
X0091614Y0138801D02*
X0098504Y0138801D01*
X0098504Y0137802D02*
X0091614Y0137802D01*
X0091614Y0136803D02*
X0098504Y0136803D01*
X0098504Y0135805D02*
X0091614Y0135805D01*
X0091614Y0134806D02*
X0098504Y0134806D01*
X0098504Y0133808D02*
X0091614Y0133808D01*
X0091614Y0132809D02*
X0098504Y0132809D01*
X0098504Y0131811D02*
X0091614Y0131811D01*
X0091614Y0130812D02*
X0098504Y0130812D01*
X0098504Y0129814D02*
X0091614Y0129814D01*
X0091614Y0128815D02*
X0098504Y0128815D01*
X0098504Y0127817D02*
X0091614Y0127817D01*
X0091614Y0126818D02*
X0098504Y0126818D01*
X0098504Y0125820D02*
X0091614Y0125820D01*
X0091614Y0124821D02*
X0098504Y0124821D01*
X0098504Y0123823D02*
X0091614Y0123823D01*
X0091614Y0122824D02*
X0098504Y0122824D01*
X0098504Y0121826D02*
X0091614Y0121826D01*
X0091614Y0120827D02*
X0098504Y0120827D01*
X0098504Y0119829D02*
X0091614Y0119829D01*
X0091614Y0118830D02*
X0098504Y0118830D01*
X0098504Y0117832D02*
X0091614Y0117832D01*
X0091614Y0116833D02*
X0098504Y0116833D01*
X0098504Y0115835D02*
X0091614Y0115835D01*
X0091614Y0114836D02*
X0098504Y0114836D01*
X0098504Y0113838D02*
X0091614Y0113838D01*
X0091614Y0112839D02*
X0098504Y0112839D01*
X0098504Y0111841D02*
X0091614Y0111841D01*
X0091614Y0110842D02*
X0098504Y0110842D01*
X0098504Y0109844D02*
X0091614Y0109844D01*
X0091614Y0108845D02*
X0098504Y0108845D01*
X0098504Y0107847D02*
X0091614Y0107847D01*
X0091614Y0106848D02*
X0098504Y0106848D01*
X0098504Y0105850D02*
X0091614Y0105850D01*
X0091614Y0104851D02*
X0098504Y0104851D01*
X0098504Y0103853D02*
X0091614Y0103853D01*
X0091614Y0102854D02*
X0098504Y0102854D01*
X0098504Y0101856D02*
X0091614Y0101856D01*
X0091614Y0100857D02*
X0098504Y0100857D01*
X0098504Y0099859D02*
X0091614Y0099859D01*
X0091614Y0098860D02*
X0098504Y0098860D01*
X0098504Y0097862D02*
X0091614Y0097862D01*
X0091614Y0096863D02*
X0098504Y0096863D01*
X0098504Y0095865D02*
X0091614Y0095865D01*
X0091614Y0094866D02*
X0098504Y0094866D01*
X0098504Y0093868D02*
X0091614Y0093868D01*
X0091614Y0092869D02*
X0098504Y0092869D01*
X0098504Y0091870D02*
X0091614Y0091870D01*
X0091614Y0090872D02*
X0098504Y0090872D01*
X0098504Y0089873D02*
X0091614Y0089873D01*
X0091614Y0088875D02*
X0098504Y0088875D01*
X0098504Y0087876D02*
X0091614Y0087876D01*
X0091614Y0086878D02*
X0098504Y0086878D01*
X0098504Y0085879D02*
X0091614Y0085879D01*
X0091614Y0084881D02*
X0098504Y0084881D01*
X0098504Y0083882D02*
X0091614Y0083882D01*
X0091614Y0082884D02*
X0098504Y0082884D01*
X0098504Y0081885D02*
X0091614Y0081885D01*
X0091614Y0080887D02*
X0098504Y0080887D01*
X0098504Y0079888D02*
X0091614Y0079888D01*
X0091614Y0078890D02*
X0098504Y0078890D01*
X0098504Y0077891D02*
X0091614Y0077891D01*
X0091614Y0076893D02*
X0098504Y0076893D01*
X0098504Y0075894D02*
X0091614Y0075894D01*
X0091614Y0074896D02*
X0098504Y0074896D01*
X0098504Y0073897D02*
X0091614Y0073897D01*
X0091614Y0072899D02*
X0098504Y0072899D01*
X0098504Y0071900D02*
X0091614Y0071900D01*
X0091614Y0070902D02*
X0098504Y0070902D01*
X0098504Y0069903D02*
X0091614Y0069903D01*
X0091614Y0068905D02*
X0098504Y0068905D01*
X0098504Y0067906D02*
X0091614Y0067906D01*
X0091614Y0066908D02*
X0098504Y0066908D01*
X0098504Y0065909D02*
X0091614Y0065909D01*
X0091614Y0064911D02*
X0098504Y0064911D01*
X0098504Y0063912D02*
X0091614Y0063912D01*
X0098504Y0062914D02*
X0070945Y0062914D01*
X0070945Y0061915D02*
X0098504Y0061915D01*
X0098504Y0060917D02*
X0070945Y0060917D01*
X0070945Y0059918D02*
X0098504Y0059918D01*
X0098504Y0058920D02*
X0086292Y0058920D01*
X0085459Y0059753D02*
X0083256Y0059753D01*
X0083256Y0053728D01*
X0089281Y0053728D01*
X0089281Y0055931D01*
X0085459Y0059753D01*
X0083256Y0058920D02*
X0082256Y0058920D01*
X0082256Y0059753D02*
X0080053Y0059753D01*
X0076231Y0055931D01*
X0076231Y0053728D01*
X0082256Y0053728D01*
X0082256Y0052728D01*
X0083256Y0052728D01*
X0083256Y0046703D01*
X0085459Y0046703D01*
X0089281Y0050526D01*
X0089281Y0052728D01*
X0083256Y0052728D01*
X0083256Y0053728D01*
X0082256Y0053728D01*
X0082256Y0059753D01*
X0082256Y0057921D02*
X0083256Y0057921D01*
X0083256Y0056923D02*
X0082256Y0056923D01*
X0082256Y0055924D02*
X0083256Y0055924D01*
X0083256Y0054926D02*
X0082256Y0054926D01*
X0082256Y0053927D02*
X0083256Y0053927D01*
X0083256Y0052929D02*
X0098504Y0052929D01*
X0098504Y0053927D02*
X0089281Y0053927D01*
X0089281Y0054926D02*
X0098504Y0054926D01*
X0098504Y0055924D02*
X0089281Y0055924D01*
X0088289Y0056923D02*
X0098504Y0056923D01*
X0098504Y0057921D02*
X0087291Y0057921D01*
X0089281Y0051930D02*
X0098504Y0051930D01*
X0098504Y0050932D02*
X0089281Y0050932D01*
X0088688Y0049933D02*
X0098504Y0049933D01*
X0098504Y0048934D02*
X0087690Y0048934D01*
X0086691Y0047936D02*
X0098504Y0047936D01*
X0098504Y0046937D02*
X0085693Y0046937D01*
X0083256Y0046937D02*
X0082256Y0046937D01*
X0082256Y0046703D02*
X0082256Y0052728D01*
X0076231Y0052728D01*
X0076231Y0050526D01*
X0080053Y0046703D01*
X0082256Y0046703D01*
X0082256Y0047936D02*
X0083256Y0047936D01*
X0083256Y0048934D02*
X0082256Y0048934D01*
X0082256Y0049933D02*
X0083256Y0049933D01*
X0083256Y0050932D02*
X0082256Y0050932D01*
X0082256Y0051930D02*
X0083256Y0051930D01*
X0082256Y0052929D02*
X0070945Y0052929D01*
X0070945Y0053927D02*
X0076231Y0053927D01*
X0076231Y0054926D02*
X0070945Y0054926D01*
X0070945Y0055924D02*
X0076231Y0055924D01*
X0077222Y0056923D02*
X0070945Y0056923D01*
X0070945Y0057921D02*
X0078221Y0057921D01*
X0079219Y0058920D02*
X0070945Y0058920D01*
X0070945Y0051930D02*
X0076231Y0051930D01*
X0076231Y0050932D02*
X0070945Y0050932D01*
X0070945Y0049933D02*
X0076823Y0049933D01*
X0077822Y0048934D02*
X0070945Y0048934D01*
X0070945Y0047936D02*
X0078821Y0047936D01*
X0079819Y0046937D02*
X0070945Y0046937D01*
X0070945Y0045939D02*
X0098504Y0045939D01*
X0098504Y0044940D02*
X0070945Y0044940D01*
X0070945Y0043942D02*
X0098504Y0043942D01*
X0192992Y0122126D02*
X0194764Y0123898D01*
X0194845Y0125820D02*
X0186640Y0125820D01*
X0185734Y0126818D02*
X0194845Y0126818D01*
X0198898Y0123898D02*
X0207756Y0123898D01*
X0207756Y0128031D01*
X0211305Y0127416D02*
X0212499Y0127416D01*
X0212461Y0127378D01*
X0212264Y0127036D01*
X0212161Y0126654D01*
X0212161Y0124398D01*
X0216114Y0124398D01*
X0216114Y0123398D01*
X0212161Y0123398D01*
X0212161Y0121757D01*
X0211809Y0121757D01*
X0211809Y0126912D01*
X0211305Y0127416D01*
X0211809Y0126818D02*
X0212205Y0126818D01*
X0212161Y0125820D02*
X0211809Y0125820D01*
X0211809Y0124821D02*
X0212161Y0124821D01*
X0211809Y0123823D02*
X0216114Y0123823D01*
X0212161Y0122824D02*
X0211809Y0122824D01*
X0211809Y0121826D02*
X0212161Y0121826D01*
X0203703Y0125820D02*
X0202950Y0125820D01*
X0202950Y0126818D02*
X0203703Y0126818D01*
X0224289Y0156774D02*
X0105394Y0156774D01*
X0105394Y0157772D02*
X0223291Y0157772D01*
X0222292Y0158771D02*
X0105394Y0158771D01*
X0105394Y0159769D02*
X0221294Y0159769D01*
X0220295Y0160768D02*
X0105394Y0160768D01*
X0105394Y0161766D02*
X0219567Y0161766D01*
X0219567Y0162765D02*
X0208828Y0162765D01*
X0208324Y0162261D02*
X0211912Y0165849D01*
X0211912Y0170923D01*
X0208324Y0174511D01*
X0203250Y0174511D01*
X0199662Y0170923D01*
X0199662Y0165849D01*
X0203250Y0162261D01*
X0208324Y0162261D01*
X0209827Y0163763D02*
X0219567Y0163763D01*
X0219567Y0164762D02*
X0210825Y0164762D01*
X0211824Y0165760D02*
X0219567Y0165760D01*
X0219567Y0166759D02*
X0211912Y0166759D01*
X0211912Y0167757D02*
X0219567Y0167757D01*
X0219567Y0168756D02*
X0211912Y0168756D01*
X0211912Y0169754D02*
X0219567Y0169754D01*
X0219567Y0170753D02*
X0211912Y0170753D01*
X0211084Y0171751D02*
X0219567Y0171751D01*
X0219567Y0172750D02*
X0210085Y0172750D01*
X0209087Y0173748D02*
X0219567Y0173748D01*
X0219567Y0174747D02*
X0105394Y0174747D01*
X0105394Y0175745D02*
X0219567Y0175745D01*
X0219567Y0176744D02*
X0105394Y0176744D01*
X0105394Y0177742D02*
X0219567Y0177742D01*
X0219567Y0178741D02*
X0105394Y0178741D01*
X0105394Y0179739D02*
X0219567Y0179739D01*
X0219567Y0180738D02*
X0105394Y0180738D01*
X0098504Y0180738D02*
X0091614Y0180738D01*
X0091614Y0181737D02*
X0098504Y0181737D01*
X0098504Y0182735D02*
X0091614Y0182735D01*
X0091614Y0183734D02*
X0098504Y0183734D01*
X0098504Y0184732D02*
X0091614Y0184732D01*
X0091614Y0185731D02*
X0098504Y0185731D01*
X0091614Y0186729D02*
X0275450Y0186729D01*
X0275450Y0187655D02*
X0275450Y0182581D01*
X0279038Y0178993D01*
X0284112Y0178993D01*
X0287700Y0182581D01*
X0287700Y0187655D01*
X0284112Y0191243D01*
X0279038Y0191243D01*
X0275450Y0187655D01*
X0275522Y0187728D02*
X0091614Y0187728D01*
X0091614Y0188726D02*
X0276521Y0188726D01*
X0277519Y0189725D02*
X0091614Y0189725D01*
X0091614Y0190723D02*
X0278518Y0190723D01*
X0275450Y0185731D02*
X0225472Y0185731D01*
X0225472Y0184732D02*
X0275450Y0184732D01*
X0275450Y0183734D02*
X0225472Y0183734D01*
X0225472Y0182735D02*
X0275450Y0182735D01*
X0276294Y0181737D02*
X0225472Y0181737D01*
X0225472Y0180738D02*
X0277293Y0180738D01*
X0278291Y0179739D02*
X0225472Y0179739D01*
X0225472Y0178741D02*
X0329291Y0178741D01*
X0330289Y0177742D02*
X0303518Y0177742D01*
X0302813Y0178448D02*
X0297739Y0178448D01*
X0294151Y0174860D01*
X0294151Y0169786D01*
X0297739Y0166198D01*
X0302813Y0166198D01*
X0306401Y0169786D01*
X0306401Y0174860D01*
X0302813Y0178448D01*
X0304517Y0176744D02*
X0331288Y0176744D01*
X0332286Y0175745D02*
X0305515Y0175745D01*
X0306401Y0174747D02*
X0333285Y0174747D01*
X0333740Y0173748D02*
X0306401Y0173748D01*
X0306401Y0172750D02*
X0333740Y0172750D01*
X0333740Y0171751D02*
X0306401Y0171751D01*
X0306401Y0170753D02*
X0333740Y0170753D01*
X0333740Y0169754D02*
X0306369Y0169754D01*
X0305371Y0168756D02*
X0333740Y0168756D01*
X0333740Y0167757D02*
X0304372Y0167757D01*
X0303374Y0166759D02*
X0333740Y0166759D01*
X0333740Y0165760D02*
X0225472Y0165760D01*
X0225472Y0164762D02*
X0333740Y0164762D01*
X0333740Y0163763D02*
X0225472Y0163763D01*
X0226172Y0162765D02*
X0333740Y0162765D01*
X0333740Y0161766D02*
X0227171Y0161766D01*
X0228169Y0160768D02*
X0333740Y0160768D01*
X0333740Y0159769D02*
X0258695Y0159769D01*
X0258937Y0158771D02*
X0333740Y0158771D01*
X0333740Y0157772D02*
X0258937Y0157772D01*
X0258937Y0156774D02*
X0333740Y0156774D01*
X0333740Y0155775D02*
X0258937Y0155775D01*
X0258937Y0154777D02*
X0333740Y0154777D01*
X0333740Y0153778D02*
X0258937Y0153778D01*
X0258937Y0152780D02*
X0333740Y0152780D01*
X0333740Y0151781D02*
X0258937Y0151781D01*
X0258937Y0150783D02*
X0333740Y0150783D01*
X0333740Y0149784D02*
X0258937Y0149784D01*
X0258937Y0148786D02*
X0333740Y0148786D01*
X0333740Y0147787D02*
X0258937Y0147787D01*
X0258937Y0146789D02*
X0333740Y0146789D01*
X0333740Y0145790D02*
X0258937Y0145790D01*
X0258937Y0144792D02*
X0333740Y0144792D01*
X0297178Y0166759D02*
X0225472Y0166759D01*
X0225472Y0167757D02*
X0296179Y0167757D01*
X0295181Y0168756D02*
X0225472Y0168756D01*
X0225472Y0169754D02*
X0294182Y0169754D01*
X0294151Y0170753D02*
X0225472Y0170753D01*
X0225472Y0171751D02*
X0294151Y0171751D01*
X0294151Y0172750D02*
X0225472Y0172750D01*
X0225472Y0173748D02*
X0294151Y0173748D01*
X0294151Y0174747D02*
X0225472Y0174747D01*
X0225472Y0175745D02*
X0295036Y0175745D01*
X0296035Y0176744D02*
X0225472Y0176744D01*
X0225472Y0177742D02*
X0297033Y0177742D01*
X0296753Y0182735D02*
X0287700Y0182735D01*
X0287700Y0183734D02*
X0295755Y0183734D01*
X0294756Y0184732D02*
X0287700Y0184732D01*
X0287700Y0185731D02*
X0293758Y0185731D01*
X0292759Y0186729D02*
X0287700Y0186729D01*
X0287627Y0187728D02*
X0291761Y0187728D01*
X0290762Y0188726D02*
X0286629Y0188726D01*
X0285630Y0189725D02*
X0289764Y0189725D01*
X0288765Y0190723D02*
X0284632Y0190723D01*
X0286768Y0192720D02*
X0091614Y0192720D01*
X0091614Y0191722D02*
X0287767Y0191722D01*
X0286855Y0181737D02*
X0326295Y0181737D01*
X0327294Y0180738D02*
X0285857Y0180738D01*
X0284858Y0179739D02*
X0328292Y0179739D01*
X0255814Y0154777D02*
X0105394Y0154777D01*
X0105394Y0155775D02*
X0254815Y0155775D01*
X0255984Y0153778D02*
X0105394Y0153778D01*
X0105394Y0152780D02*
X0255984Y0152780D01*
X0255984Y0151781D02*
X0105394Y0151781D01*
X0105394Y0150783D02*
X0255984Y0150783D01*
X0255984Y0149784D02*
X0105394Y0149784D01*
X0105394Y0148786D02*
X0255984Y0148786D01*
X0255984Y0147787D02*
X0105394Y0147787D01*
X0105394Y0146789D02*
X0255984Y0146789D01*
X0202746Y0162765D02*
X0192096Y0162765D01*
X0191592Y0162261D02*
X0195180Y0165849D01*
X0195180Y0170923D01*
X0191592Y0174511D01*
X0186518Y0174511D01*
X0182930Y0170923D01*
X0182930Y0165849D01*
X0186518Y0162261D01*
X0191592Y0162261D01*
X0193095Y0163763D02*
X0201748Y0163763D01*
X0200749Y0164762D02*
X0194093Y0164762D01*
X0195092Y0165760D02*
X0199751Y0165760D01*
X0199662Y0166759D02*
X0195180Y0166759D01*
X0195180Y0167757D02*
X0199662Y0167757D01*
X0199662Y0168756D02*
X0195180Y0168756D01*
X0195180Y0169754D02*
X0199662Y0169754D01*
X0199662Y0170753D02*
X0195180Y0170753D01*
X0194352Y0171751D02*
X0200491Y0171751D01*
X0201489Y0172750D02*
X0193353Y0172750D01*
X0192355Y0173748D02*
X0202488Y0173748D01*
X0185756Y0173748D02*
X0105394Y0173748D01*
X0105394Y0172750D02*
X0184757Y0172750D01*
X0183759Y0171751D02*
X0105394Y0171751D01*
X0105394Y0170753D02*
X0182930Y0170753D01*
X0182930Y0169754D02*
X0105394Y0169754D01*
X0105394Y0168756D02*
X0182930Y0168756D01*
X0182930Y0167757D02*
X0105394Y0167757D01*
X0105394Y0166759D02*
X0182930Y0166759D01*
X0183019Y0165760D02*
X0105394Y0165760D01*
X0105394Y0164762D02*
X0184017Y0164762D01*
X0185016Y0163763D02*
X0105394Y0163763D01*
X0105394Y0162765D02*
X0186014Y0162765D01*
X0098504Y0162765D02*
X0091614Y0162765D01*
X0091614Y0163763D02*
X0098504Y0163763D01*
X0098504Y0164762D02*
X0091614Y0164762D01*
X0091614Y0165760D02*
X0098504Y0165760D01*
X0098504Y0166759D02*
X0091614Y0166759D01*
X0091614Y0167757D02*
X0098504Y0167757D01*
X0098504Y0168756D02*
X0091614Y0168756D01*
X0091614Y0169754D02*
X0098504Y0169754D01*
X0098504Y0170753D02*
X0091614Y0170753D01*
X0091614Y0171751D02*
X0098504Y0171751D01*
X0098504Y0172750D02*
X0091614Y0172750D01*
X0091614Y0173748D02*
X0098504Y0173748D01*
X0098504Y0174747D02*
X0091614Y0174747D01*
X0091614Y0175745D02*
X0098504Y0175745D01*
X0098504Y0176744D02*
X0091614Y0176744D01*
X0091614Y0177742D02*
X0098504Y0177742D01*
X0098504Y0178741D02*
X0091614Y0178741D01*
X0091614Y0179739D02*
X0098504Y0179739D01*
X0098504Y0161766D02*
X0091614Y0161766D01*
X0091614Y0160768D02*
X0098504Y0160768D01*
X0098504Y0159769D02*
X0091614Y0159769D01*
X0091614Y0158771D02*
X0098504Y0158771D01*
X0098504Y0157772D02*
X0091614Y0157772D01*
X0091614Y0156774D02*
X0098504Y0156774D01*
X0098504Y0155775D02*
X0091614Y0155775D01*
X0091614Y0154777D02*
X0098504Y0154777D01*
X0098504Y0153778D02*
X0091614Y0153778D01*
X0091614Y0152780D02*
X0098504Y0152780D01*
X0098504Y0151781D02*
X0091614Y0151781D01*
X0091614Y0150783D02*
X0098504Y0150783D01*
X0098504Y0149784D02*
X0091614Y0149784D01*
X0091614Y0148786D02*
X0098504Y0148786D01*
X0098504Y0147787D02*
X0091614Y0147787D01*
X0091614Y0146789D02*
X0098504Y0146789D01*
X0098504Y0145790D02*
X0091614Y0145790D01*
X0091614Y0144792D02*
X0098504Y0144792D01*
X0098504Y0143793D02*
X0091614Y0143793D01*
X0091614Y0142795D02*
X0098504Y0142795D01*
X0098504Y0141796D02*
X0091614Y0141796D01*
X0091614Y0140798D02*
X0098504Y0140798D01*
D16*
X0132953Y0156575D03*
X0132953Y0165433D03*
X0158543Y0150669D03*
X0170354Y0150669D03*
X0184134Y0137874D03*
X0199882Y0149685D03*
X0212677Y0149685D03*
X0230394Y0149685D03*
X0251063Y0149685D03*
X0253031Y0163465D03*
X0264843Y0165433D03*
X0234331Y0164449D03*
X0278622Y0133937D03*
X0257953Y0112283D03*
X0257953Y0105394D03*
X0245157Y0109331D03*
X0235315Y0107362D03*
X0223504Y0112283D03*
X0235315Y0115236D03*
X0223504Y0131969D03*
X0192992Y0109331D03*
X0198898Y0092205D03*
X0207756Y0091614D03*
X0232362Y0068976D03*
X0232362Y0060118D03*
X0214646Y0060118D03*
X0255984Y0054213D03*
X0267795Y0055197D03*
X0316024Y0078819D03*
X0281575Y0094567D03*
X0316024Y0159528D03*
X0134921Y0045354D03*
X0130000Y0060118D03*
D17*
X0214646Y0060118D01*
M02*
