G75*
%MOIN*%
%OFA0B0*%
%FSLAX25Y25*%
%IPPOS*%
%LPD*%
%AMOC8*
5,1,8,0,0,1.08239X$1,22.5*
%
%ADD10R,0.05118X0.05906*%
%ADD11R,0.05906X0.05118*%
%ADD12R,0.06299X0.01181*%
%ADD13R,0.02165X0.04724*%
%ADD14R,0.04724X0.02165*%
D10*
X0098701Y0034528D03*
X0106181Y0034528D03*
X0106181Y0044370D03*
X0098701Y0044370D03*
X0172520Y0100472D03*
X0180000Y0100472D03*
X0180000Y0109331D03*
X0172520Y0109331D03*
X0172520Y0118189D03*
X0180000Y0118189D03*
X0180000Y0127047D03*
X0172520Y0127047D03*
X0211890Y0141811D03*
X0219370Y0141811D03*
X0234528Y0170354D03*
X0242008Y0170354D03*
X0242008Y0179213D03*
X0234528Y0179213D03*
X0242402Y0188071D03*
X0249882Y0188071D03*
X0300472Y0159528D03*
X0307953Y0159528D03*
X0307953Y0149685D03*
X0300472Y0149685D03*
X0300472Y0088661D03*
X0307953Y0088661D03*
X0307953Y0078819D03*
X0300472Y0078819D03*
X0244961Y0077835D03*
X0237480Y0077835D03*
X0237480Y0068976D03*
X0244961Y0068976D03*
X0244961Y0060118D03*
X0237480Y0060118D03*
X0147520Y0156575D03*
X0140039Y0156575D03*
X0140039Y0165433D03*
X0147520Y0165433D03*
X0147913Y0174291D03*
X0155394Y0174291D03*
D11*
X0170354Y0164252D03*
X0170354Y0156772D03*
X0191024Y0142598D03*
X0199882Y0142598D03*
X0199882Y0135118D03*
X0191024Y0135118D03*
X0230394Y0135118D03*
X0230394Y0142598D03*
X0251063Y0142598D03*
X0251063Y0135118D03*
X0263858Y0133740D03*
X0272717Y0133740D03*
X0272717Y0126260D03*
X0263858Y0126260D03*
X0263858Y0109134D03*
X0272717Y0109134D03*
X0281575Y0109134D03*
X0281575Y0101654D03*
X0272717Y0101654D03*
X0263858Y0101654D03*
X0216614Y0105197D03*
X0216614Y0097717D03*
X0207756Y0097717D03*
X0198898Y0097717D03*
X0198898Y0105197D03*
X0207756Y0105197D03*
X0267795Y0067795D03*
X0267795Y0060315D03*
X0264843Y0170551D03*
X0264843Y0178031D03*
D12*
X0251260Y0127736D03*
X0251260Y0125177D03*
X0251260Y0122618D03*
X0251260Y0120059D03*
X0251260Y0117500D03*
X0251260Y0114941D03*
X0251260Y0112382D03*
X0251260Y0109823D03*
X0251260Y0107264D03*
X0251260Y0104705D03*
X0229213Y0104705D03*
X0229213Y0107264D03*
X0229213Y0109823D03*
X0229213Y0112382D03*
X0229213Y0114941D03*
X0229213Y0117500D03*
X0229213Y0120059D03*
X0229213Y0122618D03*
X0229213Y0125177D03*
X0229213Y0127736D03*
D13*
X0249291Y0169173D03*
X0253031Y0169173D03*
X0256772Y0169173D03*
X0256772Y0179409D03*
X0249291Y0179409D03*
X0162283Y0165630D03*
X0154803Y0165630D03*
X0154803Y0155394D03*
X0158543Y0155394D03*
X0162283Y0155394D03*
X0252244Y0069173D03*
X0259724Y0069173D03*
X0259724Y0058937D03*
X0255984Y0058937D03*
X0252244Y0058937D03*
D14*
X0218780Y0125276D03*
X0208543Y0125276D03*
X0208543Y0129016D03*
X0208543Y0132756D03*
X0218780Y0132756D03*
M02*
