%
M48
M72
T01C0.00800
T02C0.02362
T03C0.04000
T04C0.04724
T05C0.06700
T06C0.12500
%
T01
X130000Y60118
X134921Y45354
X198898Y92205
X207756Y91614
X192992Y109331
X223504Y112283
X235315Y115236
X245157Y109331
X235315Y107362
X257953Y105394
X257953Y112283
X281575Y94567
X316024Y78819
X267795Y55197
X255984Y54213
X232362Y60118
X232362Y68976
X214646Y60118
X223504Y131969
X230394Y149685
X212677Y149685
X199882Y149685
X184134Y137874
X170354Y150669
X158543Y150669
X132953Y156575
X132953Y165433
X234331Y164449
X253031Y163465
X264843Y165433
X251063Y149685
X278622Y133937
X316024Y159528
T02
X308346Y138858
X308346Y129016
X328031Y119173
X308346Y109331
X308346Y99488
T03
X222500Y35000
X212500Y35000
X202500Y35000
X192500Y35000
X182500Y35000
X172500Y35000
X172500Y22500
X162500Y22500
X152500Y22500
X142500Y22500
X132500Y22500
X122500Y22500
X112500Y22500
X102500Y22500
X92500Y22500
X82500Y22500
X82500Y12500
X92500Y12500
X102500Y12500
X112500Y12500
X122500Y12500
X132500Y12500
X142500Y12500
X152500Y12500
X162500Y12500
X172500Y12500
X182500Y12500
X192500Y12500
X202500Y12500
X212500Y12500
X222500Y12500
X232500Y12500
X242500Y12500
X252500Y12500
X262500Y12500
X272500Y12500
X282500Y12500
X292500Y12500
X302500Y12500
X302500Y22500
X292500Y22500
X282500Y22500
X272500Y22500
X262500Y22500
X252500Y22500
X242500Y22500
X232500Y22500
X222500Y22500
X212500Y22500
X202500Y22500
X192500Y22500
X182500Y22500
X182500Y202500
X172500Y202500
X162500Y202500
X152500Y202500
X142500Y202500
X132500Y202500
X122500Y202500
X112500Y202500
X102500Y202500
X92500Y202500
X82500Y202500
X82500Y212500
X92500Y212500
X102500Y212500
X112500Y212500
X122500Y212500
X132500Y212500
X142500Y212500
X152500Y212500
X162500Y212500
X172500Y212500
X182500Y212500
X192500Y212500
X202500Y212500
X212500Y212500
X222500Y212500
X232500Y212500
X242500Y212500
X252500Y212500
X262500Y212500
X272500Y212500
X282500Y212500
X292500Y212500
X302500Y212500
X302500Y202500
X292500Y202500
X282500Y202500
X272500Y202500
X262500Y202500
X252500Y202500
X242500Y202500
X232500Y202500
X222500Y202500
X212500Y202500
X202500Y202500
X192500Y202500
T04
X308346Y119173
X328031Y99488
X337874Y99488
X337874Y138858
X328031Y138858
T05
X300276Y172323
X281575Y185118
X205787Y168386
X189055Y168386
X136890Y138858
X143780Y79803
X160512Y79803
X182165Y79803
X206772Y67008
X275669Y79803
X300276Y66024
X125079Y79803
X82756Y53228
X87677Y34528
X126063Y36496
T06
X62500Y17500
X322500Y30000
X322500Y195000
X62500Y207500
M30
