G75*
%MOIN*%
%OFA0B0*%
%FSLAX25Y25*%
%IPPOS*%
%LPD*%
%AMOC8*
5,1,8,0,0,1.08239X$1,22.5*
%
%ADD10C,0.00600*%
%ADD11C,0.00000*%
D10*
X0063528Y0062387D02*
X0065229Y0062387D01*
X0065796Y0062954D01*
X0065796Y0064088D01*
X0065229Y0064655D01*
X0063528Y0064655D01*
X0063528Y0065790D02*
X0063528Y0062387D01*
X0067211Y0062387D02*
X0067211Y0064088D01*
X0067778Y0064655D01*
X0069480Y0064655D01*
X0069480Y0062387D01*
X0070894Y0062387D02*
X0070894Y0064655D01*
X0070894Y0062387D02*
X0072596Y0062387D01*
X0073163Y0062954D01*
X0073163Y0064655D01*
X0074577Y0064088D02*
X0075144Y0064655D01*
X0076279Y0064655D01*
X0076846Y0064088D01*
X0076846Y0062954D01*
X0076279Y0062387D01*
X0075144Y0062387D01*
X0074577Y0062954D01*
X0074577Y0064088D01*
X0078214Y0064655D02*
X0078781Y0064655D01*
X0079915Y0063521D01*
X0079915Y0062387D02*
X0079915Y0064655D01*
X0081330Y0064088D02*
X0082464Y0064088D01*
X0081330Y0064088D02*
X0081330Y0062954D01*
X0081897Y0062387D01*
X0083031Y0062387D01*
X0083598Y0062954D01*
X0083598Y0065222D01*
X0083031Y0065790D01*
X0081897Y0065790D01*
X0081330Y0065222D01*
X0088649Y0064655D02*
X0089216Y0064655D01*
X0090351Y0063521D01*
X0090351Y0062387D02*
X0090351Y0064655D01*
X0091765Y0064088D02*
X0092332Y0064655D01*
X0093467Y0064655D01*
X0093467Y0063521D02*
X0091765Y0063521D01*
X0091765Y0064088D02*
X0091765Y0062387D01*
X0093467Y0062387D01*
X0094034Y0062954D01*
X0093467Y0063521D01*
X0095355Y0064655D02*
X0096489Y0064655D01*
X0095922Y0065222D02*
X0095922Y0062954D01*
X0095355Y0062387D01*
X0097904Y0062954D02*
X0098471Y0062387D01*
X0099605Y0062387D01*
X0100172Y0062954D01*
X0099605Y0064088D02*
X0098471Y0064088D01*
X0097904Y0063521D01*
X0097904Y0062954D01*
X0099605Y0064088D02*
X0100172Y0064655D01*
X0100172Y0065222D01*
X0099605Y0065790D01*
X0098471Y0065790D01*
X0097904Y0065222D01*
X0197308Y0103194D02*
X0200711Y0103194D01*
X0200711Y0104895D01*
X0200144Y0105462D01*
X0199009Y0105462D01*
X0198442Y0104895D01*
X0198442Y0103194D01*
X0198442Y0104328D02*
X0197308Y0105462D01*
X0197875Y0106877D02*
X0197308Y0107444D01*
X0197308Y0108578D01*
X0197875Y0109145D01*
X0199009Y0109145D01*
X0199576Y0108578D01*
X0199576Y0108011D01*
X0199009Y0106877D01*
X0200711Y0106877D01*
X0200711Y0109145D01*
X0206166Y0108578D02*
X0206166Y0107444D01*
X0206733Y0106877D01*
X0206166Y0105462D02*
X0207300Y0104328D01*
X0207300Y0104895D02*
X0207300Y0103194D01*
X0206166Y0103194D02*
X0209569Y0103194D01*
X0209569Y0104895D01*
X0209002Y0105462D01*
X0207868Y0105462D01*
X0207300Y0104895D01*
X0209002Y0106877D02*
X0209569Y0107444D01*
X0209569Y0108578D01*
X0209002Y0109145D01*
X0208435Y0109145D01*
X0207868Y0108578D01*
X0207300Y0109145D01*
X0206733Y0109145D01*
X0206166Y0108578D01*
X0207868Y0108578D02*
X0207868Y0108011D01*
X0214040Y0108578D02*
X0217443Y0108578D01*
X0215742Y0106877D01*
X0215742Y0109145D01*
X0215742Y0105462D02*
X0215174Y0104895D01*
X0215174Y0103194D01*
X0214040Y0103194D02*
X0217443Y0103194D01*
X0217443Y0104895D01*
X0216876Y0105462D01*
X0215742Y0105462D01*
X0215174Y0104328D02*
X0214040Y0105462D01*
X0270143Y0106182D02*
X0270143Y0107316D01*
X0270710Y0107884D01*
X0270143Y0109298D02*
X0270143Y0111567D01*
X0270143Y0110432D02*
X0273545Y0110432D01*
X0272411Y0109298D01*
X0272978Y0107884D02*
X0273545Y0107316D01*
X0273545Y0106182D01*
X0272978Y0105615D01*
X0270710Y0105615D01*
X0270143Y0106182D01*
D11*
X0295000Y0005000D02*
X0030000Y0005000D01*
X0029396Y0005007D01*
X0028792Y0005029D01*
X0028189Y0005066D01*
X0027587Y0005117D01*
X0026987Y0005182D01*
X0026388Y0005262D01*
X0025791Y0005357D01*
X0025197Y0005466D01*
X0024605Y0005589D01*
X0024017Y0005726D01*
X0023432Y0005878D01*
X0022851Y0006044D01*
X0022275Y0006224D01*
X0021702Y0006417D01*
X0021135Y0006625D01*
X0020573Y0006846D01*
X0020016Y0007080D01*
X0019465Y0007328D01*
X0018920Y0007589D01*
X0018382Y0007864D01*
X0017850Y0008151D01*
X0017326Y0008451D01*
X0016809Y0008763D01*
X0016300Y0009088D01*
X0015798Y0009425D01*
X0015305Y0009775D01*
X0014821Y0010136D01*
X0014345Y0010508D01*
X0013879Y0010892D01*
X0013422Y0011287D01*
X0012975Y0011693D01*
X0012537Y0012110D01*
X0012110Y0012537D01*
X0011693Y0012975D01*
X0011287Y0013422D01*
X0010892Y0013879D01*
X0010508Y0014345D01*
X0010136Y0014821D01*
X0009775Y0015305D01*
X0009425Y0015798D01*
X0009088Y0016300D01*
X0008763Y0016809D01*
X0008451Y0017326D01*
X0008151Y0017850D01*
X0007864Y0018382D01*
X0007589Y0018920D01*
X0007328Y0019465D01*
X0007080Y0020016D01*
X0006846Y0020573D01*
X0006625Y0021135D01*
X0006417Y0021702D01*
X0006224Y0022275D01*
X0006044Y0022851D01*
X0005878Y0023432D01*
X0005726Y0024017D01*
X0005589Y0024605D01*
X0005466Y0025197D01*
X0005357Y0025791D01*
X0005262Y0026388D01*
X0005182Y0026987D01*
X0005117Y0027587D01*
X0005066Y0028189D01*
X0005029Y0028792D01*
X0005007Y0029396D01*
X0005000Y0030000D01*
X0005000Y0075500D01*
X0005003Y0075742D01*
X0005012Y0075983D01*
X0005026Y0076224D01*
X0005047Y0076465D01*
X0005073Y0076705D01*
X0005105Y0076945D01*
X0005143Y0077184D01*
X0005186Y0077421D01*
X0005236Y0077658D01*
X0005291Y0077893D01*
X0005351Y0078127D01*
X0005418Y0078359D01*
X0005489Y0078590D01*
X0005567Y0078819D01*
X0005650Y0079046D01*
X0005738Y0079271D01*
X0005832Y0079494D01*
X0005931Y0079714D01*
X0006036Y0079932D01*
X0006145Y0080147D01*
X0006260Y0080360D01*
X0006380Y0080570D01*
X0006505Y0080776D01*
X0006635Y0080980D01*
X0006770Y0081181D01*
X0006910Y0081378D01*
X0007054Y0081572D01*
X0007203Y0081762D01*
X0007357Y0081948D01*
X0007515Y0082131D01*
X0007677Y0082310D01*
X0007844Y0082485D01*
X0008015Y0082656D01*
X0008190Y0082823D01*
X0008369Y0082985D01*
X0008552Y0083143D01*
X0008738Y0083297D01*
X0008928Y0083446D01*
X0009122Y0083590D01*
X0009319Y0083730D01*
X0009520Y0083865D01*
X0009724Y0083995D01*
X0009930Y0084120D01*
X0010140Y0084240D01*
X0010353Y0084355D01*
X0010568Y0084464D01*
X0010786Y0084569D01*
X0011006Y0084668D01*
X0011229Y0084762D01*
X0011454Y0084850D01*
X0011681Y0084933D01*
X0011910Y0085011D01*
X0012141Y0085082D01*
X0012373Y0085149D01*
X0012607Y0085209D01*
X0012842Y0085264D01*
X0013079Y0085314D01*
X0013316Y0085357D01*
X0013555Y0085395D01*
X0013795Y0085427D01*
X0014035Y0085453D01*
X0014276Y0085474D01*
X0014517Y0085488D01*
X0014758Y0085497D01*
X0015000Y0085500D01*
X0085500Y0085500D01*
X0085500Y0160000D01*
X0015000Y0160000D01*
X0014758Y0160003D01*
X0014517Y0160012D01*
X0014276Y0160026D01*
X0014035Y0160047D01*
X0013795Y0160073D01*
X0013555Y0160105D01*
X0013316Y0160143D01*
X0013079Y0160186D01*
X0012842Y0160236D01*
X0012607Y0160291D01*
X0012373Y0160351D01*
X0012141Y0160418D01*
X0011910Y0160489D01*
X0011681Y0160567D01*
X0011454Y0160650D01*
X0011229Y0160738D01*
X0011006Y0160832D01*
X0010786Y0160931D01*
X0010568Y0161036D01*
X0010353Y0161145D01*
X0010140Y0161260D01*
X0009930Y0161380D01*
X0009724Y0161505D01*
X0009520Y0161635D01*
X0009319Y0161770D01*
X0009122Y0161910D01*
X0008928Y0162054D01*
X0008738Y0162203D01*
X0008552Y0162357D01*
X0008369Y0162515D01*
X0008190Y0162677D01*
X0008015Y0162844D01*
X0007844Y0163015D01*
X0007677Y0163190D01*
X0007515Y0163369D01*
X0007357Y0163552D01*
X0007203Y0163738D01*
X0007054Y0163928D01*
X0006910Y0164122D01*
X0006770Y0164319D01*
X0006635Y0164520D01*
X0006505Y0164724D01*
X0006380Y0164930D01*
X0006260Y0165140D01*
X0006145Y0165353D01*
X0006036Y0165568D01*
X0005931Y0165786D01*
X0005832Y0166006D01*
X0005738Y0166229D01*
X0005650Y0166454D01*
X0005567Y0166681D01*
X0005489Y0166910D01*
X0005418Y0167141D01*
X0005351Y0167373D01*
X0005291Y0167607D01*
X0005236Y0167842D01*
X0005186Y0168079D01*
X0005143Y0168316D01*
X0005105Y0168555D01*
X0005073Y0168795D01*
X0005047Y0169035D01*
X0005026Y0169276D01*
X0005012Y0169517D01*
X0005003Y0169758D01*
X0005000Y0170000D01*
X0005000Y0195000D01*
X0005007Y0195604D01*
X0005029Y0196208D01*
X0005066Y0196811D01*
X0005117Y0197413D01*
X0005182Y0198013D01*
X0005262Y0198612D01*
X0005357Y0199209D01*
X0005466Y0199803D01*
X0005589Y0200395D01*
X0005726Y0200983D01*
X0005878Y0201568D01*
X0006044Y0202149D01*
X0006224Y0202725D01*
X0006417Y0203298D01*
X0006625Y0203865D01*
X0006846Y0204427D01*
X0007080Y0204984D01*
X0007328Y0205535D01*
X0007589Y0206080D01*
X0007864Y0206618D01*
X0008151Y0207150D01*
X0008451Y0207674D01*
X0008763Y0208191D01*
X0009088Y0208700D01*
X0009425Y0209202D01*
X0009775Y0209695D01*
X0010136Y0210179D01*
X0010508Y0210655D01*
X0010892Y0211121D01*
X0011287Y0211578D01*
X0011693Y0212025D01*
X0012110Y0212463D01*
X0012537Y0212890D01*
X0012975Y0213307D01*
X0013422Y0213713D01*
X0013879Y0214108D01*
X0014345Y0214492D01*
X0014821Y0214864D01*
X0015305Y0215225D01*
X0015798Y0215575D01*
X0016300Y0215912D01*
X0016809Y0216237D01*
X0017326Y0216549D01*
X0017850Y0216849D01*
X0018382Y0217136D01*
X0018920Y0217411D01*
X0019465Y0217672D01*
X0020016Y0217920D01*
X0020573Y0218154D01*
X0021135Y0218375D01*
X0021702Y0218583D01*
X0022275Y0218776D01*
X0022851Y0218956D01*
X0023432Y0219122D01*
X0024017Y0219274D01*
X0024605Y0219411D01*
X0025197Y0219534D01*
X0025791Y0219643D01*
X0026388Y0219738D01*
X0026987Y0219818D01*
X0027587Y0219883D01*
X0028189Y0219934D01*
X0028792Y0219971D01*
X0029396Y0219993D01*
X0030000Y0220000D01*
X0295000Y0220000D01*
X0296208Y0219985D01*
X0297416Y0219942D01*
X0298622Y0219869D01*
X0299826Y0219767D01*
X0301027Y0219635D01*
X0302224Y0219475D01*
X0303418Y0219286D01*
X0304606Y0219069D01*
X0305789Y0218822D01*
X0306966Y0218547D01*
X0308135Y0218244D01*
X0309297Y0217912D01*
X0310451Y0217553D01*
X0311595Y0217166D01*
X0312730Y0216751D01*
X0313855Y0216309D01*
X0314968Y0215840D01*
X0316070Y0215344D01*
X0317160Y0214821D01*
X0318236Y0214273D01*
X0319299Y0213698D01*
X0320348Y0213098D01*
X0321382Y0212473D01*
X0322401Y0211824D01*
X0323403Y0211149D01*
X0324389Y0210451D01*
X0325358Y0209729D01*
X0326309Y0208984D01*
X0327242Y0208216D01*
X0328156Y0207426D01*
X0329051Y0206613D01*
X0329926Y0205780D01*
X0330780Y0204926D01*
X0331613Y0204051D01*
X0332426Y0203156D01*
X0333216Y0202242D01*
X0333984Y0201309D01*
X0334729Y0200358D01*
X0335451Y0199389D01*
X0336149Y0198403D01*
X0336824Y0197401D01*
X0337473Y0196382D01*
X0338098Y0195348D01*
X0338698Y0194299D01*
X0339273Y0193236D01*
X0339821Y0192160D01*
X0340344Y0191070D01*
X0340840Y0189968D01*
X0341309Y0188855D01*
X0341751Y0187730D01*
X0342166Y0186595D01*
X0342553Y0185451D01*
X0342912Y0184297D01*
X0343244Y0183135D01*
X0343547Y0181966D01*
X0343822Y0180789D01*
X0344069Y0179606D01*
X0344286Y0178418D01*
X0344475Y0177224D01*
X0344635Y0176027D01*
X0344767Y0174826D01*
X0344869Y0173622D01*
X0344942Y0172416D01*
X0344985Y0171208D01*
X0345000Y0170000D01*
X0345000Y0055000D01*
X0344985Y0053792D01*
X0344942Y0052584D01*
X0344869Y0051378D01*
X0344767Y0050174D01*
X0344635Y0048973D01*
X0344475Y0047776D01*
X0344286Y0046582D01*
X0344069Y0045394D01*
X0343822Y0044211D01*
X0343547Y0043034D01*
X0343244Y0041865D01*
X0342912Y0040703D01*
X0342553Y0039549D01*
X0342166Y0038405D01*
X0341751Y0037270D01*
X0341309Y0036145D01*
X0340840Y0035032D01*
X0340344Y0033930D01*
X0339821Y0032840D01*
X0339273Y0031764D01*
X0338698Y0030701D01*
X0338098Y0029652D01*
X0337473Y0028618D01*
X0336824Y0027599D01*
X0336149Y0026597D01*
X0335451Y0025611D01*
X0334729Y0024642D01*
X0333984Y0023691D01*
X0333216Y0022758D01*
X0332426Y0021844D01*
X0331613Y0020949D01*
X0330780Y0020074D01*
X0329926Y0019220D01*
X0329051Y0018387D01*
X0328156Y0017574D01*
X0327242Y0016784D01*
X0326309Y0016016D01*
X0325358Y0015271D01*
X0324389Y0014549D01*
X0323403Y0013851D01*
X0322401Y0013176D01*
X0321382Y0012527D01*
X0320348Y0011902D01*
X0319299Y0011302D01*
X0318236Y0010727D01*
X0317160Y0010179D01*
X0316070Y0009656D01*
X0314968Y0009160D01*
X0313855Y0008691D01*
X0312730Y0008249D01*
X0311595Y0007834D01*
X0310451Y0007447D01*
X0309297Y0007088D01*
X0308135Y0006756D01*
X0306966Y0006453D01*
X0305789Y0006178D01*
X0304606Y0005931D01*
X0303418Y0005714D01*
X0302224Y0005525D01*
X0301027Y0005365D01*
X0299826Y0005233D01*
X0298622Y0005131D01*
X0297416Y0005058D01*
X0296208Y0005015D01*
X0295000Y0005000D01*
X0325669Y0099488D02*
X0325671Y0099585D01*
X0325677Y0099682D01*
X0325687Y0099778D01*
X0325701Y0099874D01*
X0325719Y0099970D01*
X0325740Y0100064D01*
X0325766Y0100158D01*
X0325795Y0100250D01*
X0325829Y0100341D01*
X0325865Y0100431D01*
X0325906Y0100519D01*
X0325950Y0100605D01*
X0325998Y0100690D01*
X0326049Y0100772D01*
X0326103Y0100853D01*
X0326161Y0100931D01*
X0326222Y0101006D01*
X0326285Y0101079D01*
X0326352Y0101150D01*
X0326422Y0101217D01*
X0326494Y0101282D01*
X0326569Y0101343D01*
X0326647Y0101402D01*
X0326726Y0101457D01*
X0326808Y0101509D01*
X0326892Y0101557D01*
X0326978Y0101602D01*
X0327066Y0101644D01*
X0327155Y0101682D01*
X0327246Y0101716D01*
X0327338Y0101746D01*
X0327431Y0101773D01*
X0327526Y0101795D01*
X0327621Y0101814D01*
X0327717Y0101829D01*
X0327813Y0101840D01*
X0327910Y0101847D01*
X0328007Y0101850D01*
X0328104Y0101849D01*
X0328201Y0101844D01*
X0328297Y0101835D01*
X0328393Y0101822D01*
X0328489Y0101805D01*
X0328584Y0101784D01*
X0328677Y0101760D01*
X0328770Y0101731D01*
X0328862Y0101699D01*
X0328952Y0101663D01*
X0329040Y0101624D01*
X0329127Y0101580D01*
X0329212Y0101534D01*
X0329295Y0101483D01*
X0329376Y0101430D01*
X0329454Y0101373D01*
X0329531Y0101313D01*
X0329604Y0101250D01*
X0329675Y0101184D01*
X0329743Y0101115D01*
X0329809Y0101043D01*
X0329871Y0100969D01*
X0329930Y0100892D01*
X0329986Y0100813D01*
X0330039Y0100731D01*
X0330089Y0100648D01*
X0330134Y0100562D01*
X0330177Y0100475D01*
X0330216Y0100386D01*
X0330251Y0100296D01*
X0330282Y0100204D01*
X0330309Y0100111D01*
X0330333Y0100017D01*
X0330353Y0099922D01*
X0330369Y0099826D01*
X0330381Y0099730D01*
X0330389Y0099633D01*
X0330393Y0099536D01*
X0330393Y0099440D01*
X0330389Y0099343D01*
X0330381Y0099246D01*
X0330369Y0099150D01*
X0330353Y0099054D01*
X0330333Y0098959D01*
X0330309Y0098865D01*
X0330282Y0098772D01*
X0330251Y0098680D01*
X0330216Y0098590D01*
X0330177Y0098501D01*
X0330134Y0098414D01*
X0330089Y0098328D01*
X0330039Y0098245D01*
X0329986Y0098163D01*
X0329930Y0098084D01*
X0329871Y0098007D01*
X0329809Y0097933D01*
X0329743Y0097861D01*
X0329675Y0097792D01*
X0329604Y0097726D01*
X0329531Y0097663D01*
X0329454Y0097603D01*
X0329376Y0097546D01*
X0329295Y0097493D01*
X0329212Y0097442D01*
X0329127Y0097396D01*
X0329040Y0097352D01*
X0328952Y0097313D01*
X0328862Y0097277D01*
X0328770Y0097245D01*
X0328677Y0097216D01*
X0328584Y0097192D01*
X0328489Y0097171D01*
X0328393Y0097154D01*
X0328297Y0097141D01*
X0328201Y0097132D01*
X0328104Y0097127D01*
X0328007Y0097126D01*
X0327910Y0097129D01*
X0327813Y0097136D01*
X0327717Y0097147D01*
X0327621Y0097162D01*
X0327526Y0097181D01*
X0327431Y0097203D01*
X0327338Y0097230D01*
X0327246Y0097260D01*
X0327155Y0097294D01*
X0327066Y0097332D01*
X0326978Y0097374D01*
X0326892Y0097419D01*
X0326808Y0097467D01*
X0326726Y0097519D01*
X0326647Y0097574D01*
X0326569Y0097633D01*
X0326494Y0097694D01*
X0326422Y0097759D01*
X0326352Y0097826D01*
X0326285Y0097897D01*
X0326222Y0097970D01*
X0326161Y0098045D01*
X0326103Y0098123D01*
X0326049Y0098204D01*
X0325998Y0098286D01*
X0325950Y0098371D01*
X0325906Y0098457D01*
X0325865Y0098545D01*
X0325829Y0098635D01*
X0325795Y0098726D01*
X0325766Y0098818D01*
X0325740Y0098912D01*
X0325719Y0099006D01*
X0325701Y0099102D01*
X0325687Y0099198D01*
X0325677Y0099294D01*
X0325671Y0099391D01*
X0325669Y0099488D01*
X0335512Y0099488D02*
X0335514Y0099585D01*
X0335520Y0099682D01*
X0335530Y0099778D01*
X0335544Y0099874D01*
X0335562Y0099970D01*
X0335583Y0100064D01*
X0335609Y0100158D01*
X0335638Y0100250D01*
X0335672Y0100341D01*
X0335708Y0100431D01*
X0335749Y0100519D01*
X0335793Y0100605D01*
X0335841Y0100690D01*
X0335892Y0100772D01*
X0335946Y0100853D01*
X0336004Y0100931D01*
X0336065Y0101006D01*
X0336128Y0101079D01*
X0336195Y0101150D01*
X0336265Y0101217D01*
X0336337Y0101282D01*
X0336412Y0101343D01*
X0336490Y0101402D01*
X0336569Y0101457D01*
X0336651Y0101509D01*
X0336735Y0101557D01*
X0336821Y0101602D01*
X0336909Y0101644D01*
X0336998Y0101682D01*
X0337089Y0101716D01*
X0337181Y0101746D01*
X0337274Y0101773D01*
X0337369Y0101795D01*
X0337464Y0101814D01*
X0337560Y0101829D01*
X0337656Y0101840D01*
X0337753Y0101847D01*
X0337850Y0101850D01*
X0337947Y0101849D01*
X0338044Y0101844D01*
X0338140Y0101835D01*
X0338236Y0101822D01*
X0338332Y0101805D01*
X0338427Y0101784D01*
X0338520Y0101760D01*
X0338613Y0101731D01*
X0338705Y0101699D01*
X0338795Y0101663D01*
X0338883Y0101624D01*
X0338970Y0101580D01*
X0339055Y0101534D01*
X0339138Y0101483D01*
X0339219Y0101430D01*
X0339297Y0101373D01*
X0339374Y0101313D01*
X0339447Y0101250D01*
X0339518Y0101184D01*
X0339586Y0101115D01*
X0339652Y0101043D01*
X0339714Y0100969D01*
X0339773Y0100892D01*
X0339829Y0100813D01*
X0339882Y0100731D01*
X0339932Y0100648D01*
X0339977Y0100562D01*
X0340020Y0100475D01*
X0340059Y0100386D01*
X0340094Y0100296D01*
X0340125Y0100204D01*
X0340152Y0100111D01*
X0340176Y0100017D01*
X0340196Y0099922D01*
X0340212Y0099826D01*
X0340224Y0099730D01*
X0340232Y0099633D01*
X0340236Y0099536D01*
X0340236Y0099440D01*
X0340232Y0099343D01*
X0340224Y0099246D01*
X0340212Y0099150D01*
X0340196Y0099054D01*
X0340176Y0098959D01*
X0340152Y0098865D01*
X0340125Y0098772D01*
X0340094Y0098680D01*
X0340059Y0098590D01*
X0340020Y0098501D01*
X0339977Y0098414D01*
X0339932Y0098328D01*
X0339882Y0098245D01*
X0339829Y0098163D01*
X0339773Y0098084D01*
X0339714Y0098007D01*
X0339652Y0097933D01*
X0339586Y0097861D01*
X0339518Y0097792D01*
X0339447Y0097726D01*
X0339374Y0097663D01*
X0339297Y0097603D01*
X0339219Y0097546D01*
X0339138Y0097493D01*
X0339055Y0097442D01*
X0338970Y0097396D01*
X0338883Y0097352D01*
X0338795Y0097313D01*
X0338705Y0097277D01*
X0338613Y0097245D01*
X0338520Y0097216D01*
X0338427Y0097192D01*
X0338332Y0097171D01*
X0338236Y0097154D01*
X0338140Y0097141D01*
X0338044Y0097132D01*
X0337947Y0097127D01*
X0337850Y0097126D01*
X0337753Y0097129D01*
X0337656Y0097136D01*
X0337560Y0097147D01*
X0337464Y0097162D01*
X0337369Y0097181D01*
X0337274Y0097203D01*
X0337181Y0097230D01*
X0337089Y0097260D01*
X0336998Y0097294D01*
X0336909Y0097332D01*
X0336821Y0097374D01*
X0336735Y0097419D01*
X0336651Y0097467D01*
X0336569Y0097519D01*
X0336490Y0097574D01*
X0336412Y0097633D01*
X0336337Y0097694D01*
X0336265Y0097759D01*
X0336195Y0097826D01*
X0336128Y0097897D01*
X0336065Y0097970D01*
X0336004Y0098045D01*
X0335946Y0098123D01*
X0335892Y0098204D01*
X0335841Y0098286D01*
X0335793Y0098371D01*
X0335749Y0098457D01*
X0335708Y0098545D01*
X0335672Y0098635D01*
X0335638Y0098726D01*
X0335609Y0098818D01*
X0335583Y0098912D01*
X0335562Y0099006D01*
X0335544Y0099102D01*
X0335530Y0099198D01*
X0335520Y0099294D01*
X0335514Y0099391D01*
X0335512Y0099488D01*
X0305984Y0119173D02*
X0305986Y0119270D01*
X0305992Y0119367D01*
X0306002Y0119463D01*
X0306016Y0119559D01*
X0306034Y0119655D01*
X0306055Y0119749D01*
X0306081Y0119843D01*
X0306110Y0119935D01*
X0306144Y0120026D01*
X0306180Y0120116D01*
X0306221Y0120204D01*
X0306265Y0120290D01*
X0306313Y0120375D01*
X0306364Y0120457D01*
X0306418Y0120538D01*
X0306476Y0120616D01*
X0306537Y0120691D01*
X0306600Y0120764D01*
X0306667Y0120835D01*
X0306737Y0120902D01*
X0306809Y0120967D01*
X0306884Y0121028D01*
X0306962Y0121087D01*
X0307041Y0121142D01*
X0307123Y0121194D01*
X0307207Y0121242D01*
X0307293Y0121287D01*
X0307381Y0121329D01*
X0307470Y0121367D01*
X0307561Y0121401D01*
X0307653Y0121431D01*
X0307746Y0121458D01*
X0307841Y0121480D01*
X0307936Y0121499D01*
X0308032Y0121514D01*
X0308128Y0121525D01*
X0308225Y0121532D01*
X0308322Y0121535D01*
X0308419Y0121534D01*
X0308516Y0121529D01*
X0308612Y0121520D01*
X0308708Y0121507D01*
X0308804Y0121490D01*
X0308899Y0121469D01*
X0308992Y0121445D01*
X0309085Y0121416D01*
X0309177Y0121384D01*
X0309267Y0121348D01*
X0309355Y0121309D01*
X0309442Y0121265D01*
X0309527Y0121219D01*
X0309610Y0121168D01*
X0309691Y0121115D01*
X0309769Y0121058D01*
X0309846Y0120998D01*
X0309919Y0120935D01*
X0309990Y0120869D01*
X0310058Y0120800D01*
X0310124Y0120728D01*
X0310186Y0120654D01*
X0310245Y0120577D01*
X0310301Y0120498D01*
X0310354Y0120416D01*
X0310404Y0120333D01*
X0310449Y0120247D01*
X0310492Y0120160D01*
X0310531Y0120071D01*
X0310566Y0119981D01*
X0310597Y0119889D01*
X0310624Y0119796D01*
X0310648Y0119702D01*
X0310668Y0119607D01*
X0310684Y0119511D01*
X0310696Y0119415D01*
X0310704Y0119318D01*
X0310708Y0119221D01*
X0310708Y0119125D01*
X0310704Y0119028D01*
X0310696Y0118931D01*
X0310684Y0118835D01*
X0310668Y0118739D01*
X0310648Y0118644D01*
X0310624Y0118550D01*
X0310597Y0118457D01*
X0310566Y0118365D01*
X0310531Y0118275D01*
X0310492Y0118186D01*
X0310449Y0118099D01*
X0310404Y0118013D01*
X0310354Y0117930D01*
X0310301Y0117848D01*
X0310245Y0117769D01*
X0310186Y0117692D01*
X0310124Y0117618D01*
X0310058Y0117546D01*
X0309990Y0117477D01*
X0309919Y0117411D01*
X0309846Y0117348D01*
X0309769Y0117288D01*
X0309691Y0117231D01*
X0309610Y0117178D01*
X0309527Y0117127D01*
X0309442Y0117081D01*
X0309355Y0117037D01*
X0309267Y0116998D01*
X0309177Y0116962D01*
X0309085Y0116930D01*
X0308992Y0116901D01*
X0308899Y0116877D01*
X0308804Y0116856D01*
X0308708Y0116839D01*
X0308612Y0116826D01*
X0308516Y0116817D01*
X0308419Y0116812D01*
X0308322Y0116811D01*
X0308225Y0116814D01*
X0308128Y0116821D01*
X0308032Y0116832D01*
X0307936Y0116847D01*
X0307841Y0116866D01*
X0307746Y0116888D01*
X0307653Y0116915D01*
X0307561Y0116945D01*
X0307470Y0116979D01*
X0307381Y0117017D01*
X0307293Y0117059D01*
X0307207Y0117104D01*
X0307123Y0117152D01*
X0307041Y0117204D01*
X0306962Y0117259D01*
X0306884Y0117318D01*
X0306809Y0117379D01*
X0306737Y0117444D01*
X0306667Y0117511D01*
X0306600Y0117582D01*
X0306537Y0117655D01*
X0306476Y0117730D01*
X0306418Y0117808D01*
X0306364Y0117889D01*
X0306313Y0117971D01*
X0306265Y0118056D01*
X0306221Y0118142D01*
X0306180Y0118230D01*
X0306144Y0118320D01*
X0306110Y0118411D01*
X0306081Y0118503D01*
X0306055Y0118597D01*
X0306034Y0118691D01*
X0306016Y0118787D01*
X0306002Y0118883D01*
X0305992Y0118979D01*
X0305986Y0119076D01*
X0305984Y0119173D01*
X0325669Y0138858D02*
X0325671Y0138955D01*
X0325677Y0139052D01*
X0325687Y0139148D01*
X0325701Y0139244D01*
X0325719Y0139340D01*
X0325740Y0139434D01*
X0325766Y0139528D01*
X0325795Y0139620D01*
X0325829Y0139711D01*
X0325865Y0139801D01*
X0325906Y0139889D01*
X0325950Y0139975D01*
X0325998Y0140060D01*
X0326049Y0140142D01*
X0326103Y0140223D01*
X0326161Y0140301D01*
X0326222Y0140376D01*
X0326285Y0140449D01*
X0326352Y0140520D01*
X0326422Y0140587D01*
X0326494Y0140652D01*
X0326569Y0140713D01*
X0326647Y0140772D01*
X0326726Y0140827D01*
X0326808Y0140879D01*
X0326892Y0140927D01*
X0326978Y0140972D01*
X0327066Y0141014D01*
X0327155Y0141052D01*
X0327246Y0141086D01*
X0327338Y0141116D01*
X0327431Y0141143D01*
X0327526Y0141165D01*
X0327621Y0141184D01*
X0327717Y0141199D01*
X0327813Y0141210D01*
X0327910Y0141217D01*
X0328007Y0141220D01*
X0328104Y0141219D01*
X0328201Y0141214D01*
X0328297Y0141205D01*
X0328393Y0141192D01*
X0328489Y0141175D01*
X0328584Y0141154D01*
X0328677Y0141130D01*
X0328770Y0141101D01*
X0328862Y0141069D01*
X0328952Y0141033D01*
X0329040Y0140994D01*
X0329127Y0140950D01*
X0329212Y0140904D01*
X0329295Y0140853D01*
X0329376Y0140800D01*
X0329454Y0140743D01*
X0329531Y0140683D01*
X0329604Y0140620D01*
X0329675Y0140554D01*
X0329743Y0140485D01*
X0329809Y0140413D01*
X0329871Y0140339D01*
X0329930Y0140262D01*
X0329986Y0140183D01*
X0330039Y0140101D01*
X0330089Y0140018D01*
X0330134Y0139932D01*
X0330177Y0139845D01*
X0330216Y0139756D01*
X0330251Y0139666D01*
X0330282Y0139574D01*
X0330309Y0139481D01*
X0330333Y0139387D01*
X0330353Y0139292D01*
X0330369Y0139196D01*
X0330381Y0139100D01*
X0330389Y0139003D01*
X0330393Y0138906D01*
X0330393Y0138810D01*
X0330389Y0138713D01*
X0330381Y0138616D01*
X0330369Y0138520D01*
X0330353Y0138424D01*
X0330333Y0138329D01*
X0330309Y0138235D01*
X0330282Y0138142D01*
X0330251Y0138050D01*
X0330216Y0137960D01*
X0330177Y0137871D01*
X0330134Y0137784D01*
X0330089Y0137698D01*
X0330039Y0137615D01*
X0329986Y0137533D01*
X0329930Y0137454D01*
X0329871Y0137377D01*
X0329809Y0137303D01*
X0329743Y0137231D01*
X0329675Y0137162D01*
X0329604Y0137096D01*
X0329531Y0137033D01*
X0329454Y0136973D01*
X0329376Y0136916D01*
X0329295Y0136863D01*
X0329212Y0136812D01*
X0329127Y0136766D01*
X0329040Y0136722D01*
X0328952Y0136683D01*
X0328862Y0136647D01*
X0328770Y0136615D01*
X0328677Y0136586D01*
X0328584Y0136562D01*
X0328489Y0136541D01*
X0328393Y0136524D01*
X0328297Y0136511D01*
X0328201Y0136502D01*
X0328104Y0136497D01*
X0328007Y0136496D01*
X0327910Y0136499D01*
X0327813Y0136506D01*
X0327717Y0136517D01*
X0327621Y0136532D01*
X0327526Y0136551D01*
X0327431Y0136573D01*
X0327338Y0136600D01*
X0327246Y0136630D01*
X0327155Y0136664D01*
X0327066Y0136702D01*
X0326978Y0136744D01*
X0326892Y0136789D01*
X0326808Y0136837D01*
X0326726Y0136889D01*
X0326647Y0136944D01*
X0326569Y0137003D01*
X0326494Y0137064D01*
X0326422Y0137129D01*
X0326352Y0137196D01*
X0326285Y0137267D01*
X0326222Y0137340D01*
X0326161Y0137415D01*
X0326103Y0137493D01*
X0326049Y0137574D01*
X0325998Y0137656D01*
X0325950Y0137741D01*
X0325906Y0137827D01*
X0325865Y0137915D01*
X0325829Y0138005D01*
X0325795Y0138096D01*
X0325766Y0138188D01*
X0325740Y0138282D01*
X0325719Y0138376D01*
X0325701Y0138472D01*
X0325687Y0138568D01*
X0325677Y0138664D01*
X0325671Y0138761D01*
X0325669Y0138858D01*
X0335512Y0138858D02*
X0335514Y0138955D01*
X0335520Y0139052D01*
X0335530Y0139148D01*
X0335544Y0139244D01*
X0335562Y0139340D01*
X0335583Y0139434D01*
X0335609Y0139528D01*
X0335638Y0139620D01*
X0335672Y0139711D01*
X0335708Y0139801D01*
X0335749Y0139889D01*
X0335793Y0139975D01*
X0335841Y0140060D01*
X0335892Y0140142D01*
X0335946Y0140223D01*
X0336004Y0140301D01*
X0336065Y0140376D01*
X0336128Y0140449D01*
X0336195Y0140520D01*
X0336265Y0140587D01*
X0336337Y0140652D01*
X0336412Y0140713D01*
X0336490Y0140772D01*
X0336569Y0140827D01*
X0336651Y0140879D01*
X0336735Y0140927D01*
X0336821Y0140972D01*
X0336909Y0141014D01*
X0336998Y0141052D01*
X0337089Y0141086D01*
X0337181Y0141116D01*
X0337274Y0141143D01*
X0337369Y0141165D01*
X0337464Y0141184D01*
X0337560Y0141199D01*
X0337656Y0141210D01*
X0337753Y0141217D01*
X0337850Y0141220D01*
X0337947Y0141219D01*
X0338044Y0141214D01*
X0338140Y0141205D01*
X0338236Y0141192D01*
X0338332Y0141175D01*
X0338427Y0141154D01*
X0338520Y0141130D01*
X0338613Y0141101D01*
X0338705Y0141069D01*
X0338795Y0141033D01*
X0338883Y0140994D01*
X0338970Y0140950D01*
X0339055Y0140904D01*
X0339138Y0140853D01*
X0339219Y0140800D01*
X0339297Y0140743D01*
X0339374Y0140683D01*
X0339447Y0140620D01*
X0339518Y0140554D01*
X0339586Y0140485D01*
X0339652Y0140413D01*
X0339714Y0140339D01*
X0339773Y0140262D01*
X0339829Y0140183D01*
X0339882Y0140101D01*
X0339932Y0140018D01*
X0339977Y0139932D01*
X0340020Y0139845D01*
X0340059Y0139756D01*
X0340094Y0139666D01*
X0340125Y0139574D01*
X0340152Y0139481D01*
X0340176Y0139387D01*
X0340196Y0139292D01*
X0340212Y0139196D01*
X0340224Y0139100D01*
X0340232Y0139003D01*
X0340236Y0138906D01*
X0340236Y0138810D01*
X0340232Y0138713D01*
X0340224Y0138616D01*
X0340212Y0138520D01*
X0340196Y0138424D01*
X0340176Y0138329D01*
X0340152Y0138235D01*
X0340125Y0138142D01*
X0340094Y0138050D01*
X0340059Y0137960D01*
X0340020Y0137871D01*
X0339977Y0137784D01*
X0339932Y0137698D01*
X0339882Y0137615D01*
X0339829Y0137533D01*
X0339773Y0137454D01*
X0339714Y0137377D01*
X0339652Y0137303D01*
X0339586Y0137231D01*
X0339518Y0137162D01*
X0339447Y0137096D01*
X0339374Y0137033D01*
X0339297Y0136973D01*
X0339219Y0136916D01*
X0339138Y0136863D01*
X0339055Y0136812D01*
X0338970Y0136766D01*
X0338883Y0136722D01*
X0338795Y0136683D01*
X0338705Y0136647D01*
X0338613Y0136615D01*
X0338520Y0136586D01*
X0338427Y0136562D01*
X0338332Y0136541D01*
X0338236Y0136524D01*
X0338140Y0136511D01*
X0338044Y0136502D01*
X0337947Y0136497D01*
X0337850Y0136496D01*
X0337753Y0136499D01*
X0337656Y0136506D01*
X0337560Y0136517D01*
X0337464Y0136532D01*
X0337369Y0136551D01*
X0337274Y0136573D01*
X0337181Y0136600D01*
X0337089Y0136630D01*
X0336998Y0136664D01*
X0336909Y0136702D01*
X0336821Y0136744D01*
X0336735Y0136789D01*
X0336651Y0136837D01*
X0336569Y0136889D01*
X0336490Y0136944D01*
X0336412Y0137003D01*
X0336337Y0137064D01*
X0336265Y0137129D01*
X0336195Y0137196D01*
X0336128Y0137267D01*
X0336065Y0137340D01*
X0336004Y0137415D01*
X0335946Y0137493D01*
X0335892Y0137574D01*
X0335841Y0137656D01*
X0335793Y0137741D01*
X0335749Y0137827D01*
X0335708Y0137915D01*
X0335672Y0138005D01*
X0335638Y0138096D01*
X0335609Y0138188D01*
X0335583Y0138282D01*
X0335562Y0138376D01*
X0335544Y0138472D01*
X0335530Y0138568D01*
X0335520Y0138664D01*
X0335514Y0138761D01*
X0335512Y0138858D01*
M02*
