G75*
%MOIN*%
%OFA0B0*%
%FSLAX25Y25*%
%IPPOS*%
%LPD*%
%AMOC8*
5,1,8,0,0,1.08239X$1,22.5*
%
%ADD10C,0.00600*%
%ADD11C,0.00000*%
%ADD12C,0.00500*%
%ADD13C,0.00400*%
%ADD14R,0.05900X0.00100*%
%ADD15R,0.01900X0.00100*%
%ADD16R,0.02000X0.00100*%
%ADD17R,0.02100X0.00100*%
%ADD18R,0.06200X0.00100*%
%ADD19R,0.05800X0.00100*%
%ADD20R,0.03000X0.00100*%
%ADD21R,0.03800X0.00100*%
%ADD22R,0.04200X0.00100*%
%ADD23R,0.04700X0.00100*%
%ADD24R,0.05100X0.00100*%
%ADD25R,0.05400X0.00100*%
%ADD26R,0.05700X0.00100*%
%ADD27R,0.06100X0.00100*%
%ADD28R,0.06300X0.00100*%
%ADD29R,0.06400X0.00100*%
%ADD30R,0.06500X0.00100*%
%ADD31R,0.03400X0.00100*%
%ADD32R,0.02500X0.00100*%
%ADD33R,0.02700X0.00100*%
%ADD34R,0.01800X0.00100*%
%ADD35R,0.02600X0.00100*%
%ADD36R,0.01600X0.00100*%
%ADD37R,0.06800X0.00100*%
%ADD38R,0.02300X0.00100*%
%ADD39R,0.06700X0.00100*%
%ADD40R,0.06600X0.00100*%
%ADD41R,0.02200X0.00100*%
%ADD42R,0.06000X0.00100*%
%ADD43R,0.03700X0.00100*%
%ADD44R,0.01700X0.00100*%
%ADD45R,0.01500X0.00100*%
%ADD46R,0.03100X0.00100*%
%ADD47R,0.02400X0.00100*%
%ADD48R,0.02900X0.00100*%
%ADD49R,0.02800X0.00100*%
%ADD50R,0.00200X0.00100*%
%ADD51R,0.00700X0.00100*%
%ADD52R,0.03500X0.00100*%
%ADD53R,0.01400X0.00100*%
%ADD54R,0.05600X0.00100*%
%ADD55R,0.05500X0.00100*%
%ADD56R,0.05300X0.00100*%
%ADD57R,0.05000X0.00100*%
%ADD58R,0.04800X0.00100*%
%ADD59R,0.04500X0.00100*%
%ADD60R,0.04000X0.00100*%
%ADD61R,0.03200X0.00100*%
%ADD62R,0.00600X0.00100*%
%ADD63R,0.01100X0.00100*%
%ADD64R,0.07000X0.00100*%
%ADD65R,0.07500X0.00100*%
%ADD66R,0.07900X0.00100*%
%ADD67R,0.04100X0.00100*%
%ADD68R,0.08200X0.00100*%
%ADD69R,0.04400X0.00100*%
%ADD70R,0.08600X0.00100*%
%ADD71R,0.04600X0.00100*%
%ADD72R,0.08900X0.00100*%
%ADD73R,0.09200X0.00100*%
%ADD74R,0.09500X0.00100*%
%ADD75R,0.04900X0.00100*%
%ADD76R,0.00300X0.00100*%
%ADD77R,0.09800X0.00100*%
%ADD78R,0.10100X0.00100*%
%ADD79R,0.10400X0.00100*%
%ADD80R,0.10600X0.00100*%
%ADD81R,0.10800X0.00100*%
%ADD82R,0.00100X0.00100*%
%ADD83R,0.11000X0.00100*%
%ADD84R,0.11300X0.00100*%
%ADD85R,0.11500X0.00100*%
%ADD86R,0.11700X0.00100*%
%ADD87R,0.03900X0.00100*%
%ADD88R,0.04300X0.00100*%
%ADD89R,0.03600X0.00100*%
%ADD90R,0.07100X0.00100*%
%ADD91R,0.07200X0.00100*%
%ADD92R,0.07400X0.00100*%
%ADD93R,0.07600X0.00100*%
%ADD94R,0.01300X0.00100*%
%ADD95R,0.07700X0.00100*%
%ADD96R,0.01000X0.00100*%
%ADD97R,0.07800X0.00100*%
%ADD98R,0.00400X0.00100*%
%ADD99R,0.08100X0.00100*%
%ADD100R,0.08300X0.00100*%
%ADD101R,0.03300X0.00100*%
%ADD102R,0.08400X0.00100*%
%ADD103R,0.08700X0.00100*%
%ADD104R,0.08800X0.00100*%
%ADD105R,0.09000X0.00100*%
%ADD106R,0.05200X0.00100*%
%ADD107R,0.07300X0.00100*%
%ADD108R,0.00900X0.00100*%
%ADD109R,0.06900X0.00100*%
%ADD110R,0.01200X0.00100*%
%ADD111R,0.08000X0.00100*%
%ADD112R,0.09700X0.00100*%
%ADD113R,0.09600X0.00100*%
%ADD114R,0.09400X0.00100*%
%ADD115R,0.09100X0.00100*%
%ADD116R,0.08500X0.00100*%
%ADD117R,0.09900X0.00100*%
%ADD118R,0.10200X0.00100*%
%ADD119R,0.10500X0.00100*%
%ADD120R,0.11100X0.00100*%
%ADD121R,0.11900X0.00100*%
%ADD122R,0.12500X0.00100*%
%ADD123R,0.13700X0.00100*%
%ADD124R,0.00800X0.00100*%
%ADD125R,0.16800X0.00100*%
%ADD126R,0.16900X0.00100*%
%ADD127R,0.17000X0.00100*%
%ADD128R,0.16700X0.00100*%
%ADD129R,0.16600X0.00100*%
%ADD130R,0.16500X0.00100*%
%ADD131R,0.16400X0.00100*%
%ADD132R,0.16300X0.00100*%
%ADD133R,0.16200X0.00100*%
%ADD134R,0.16100X0.00100*%
%ADD135R,0.16000X0.00100*%
%ADD136R,0.15900X0.00100*%
%ADD137R,0.15800X0.00100*%
%ADD138R,0.15700X0.00100*%
%ADD139R,0.15600X0.00100*%
%ADD140R,0.15500X0.00100*%
%ADD141R,0.15300X0.00100*%
%ADD142R,0.15200X0.00100*%
%ADD143R,0.15100X0.00100*%
%ADD144R,0.15000X0.00100*%
%ADD145R,0.14900X0.00100*%
%ADD146R,0.14800X0.00100*%
%ADD147R,0.14600X0.00100*%
%ADD148R,0.14500X0.00100*%
%ADD149R,0.14400X0.00100*%
%ADD150R,0.14300X0.00100*%
%ADD151R,0.14200X0.00100*%
%ADD152R,0.14100X0.00100*%
%ADD153R,0.14000X0.00100*%
%ADD154R,0.13900X0.00100*%
%ADD155R,0.13800X0.00100*%
%ADD156R,0.13600X0.00100*%
%ADD157R,0.13500X0.00100*%
%ADD158R,0.13400X0.00100*%
%ADD159R,0.13300X0.00100*%
%ADD160R,0.00500X0.00100*%
%ADD161R,0.13200X0.00100*%
%ADD162R,0.13100X0.00100*%
%ADD163R,0.12900X0.00100*%
%ADD164R,0.12700X0.00100*%
%ADD165R,0.12400X0.00100*%
%ADD166R,0.10000X0.00100*%
D10*
X0025728Y0036646D02*
X0026295Y0036646D01*
X0026862Y0037213D01*
X0026862Y0040049D01*
X0025161Y0040049D01*
X0024594Y0039482D01*
X0024594Y0038347D01*
X0025161Y0037780D01*
X0026862Y0037780D01*
X0028277Y0038347D02*
X0028277Y0039482D01*
X0028844Y0040049D01*
X0029978Y0040049D01*
X0030546Y0039482D01*
X0030546Y0038915D01*
X0028277Y0038915D01*
X0028277Y0038347D02*
X0028844Y0037780D01*
X0029978Y0037780D01*
X0035643Y0038347D02*
X0036210Y0037780D01*
X0037345Y0037780D01*
X0037912Y0038347D01*
X0037912Y0039482D01*
X0036778Y0039482D01*
X0037912Y0040616D02*
X0037345Y0041183D01*
X0036210Y0041183D01*
X0035643Y0040616D01*
X0035643Y0038347D01*
X0039326Y0038347D02*
X0039894Y0038915D01*
X0041595Y0038915D01*
X0041595Y0039482D02*
X0041595Y0037780D01*
X0039894Y0037780D01*
X0039326Y0038347D01*
X0039894Y0040049D02*
X0041028Y0040049D01*
X0041595Y0039482D01*
X0043010Y0040049D02*
X0043010Y0037780D01*
X0043010Y0038915D02*
X0044144Y0040049D01*
X0044711Y0040049D01*
X0046079Y0039482D02*
X0046079Y0038347D01*
X0046646Y0037780D01*
X0048347Y0037780D01*
X0049762Y0037780D02*
X0050896Y0037780D01*
X0050329Y0037780D02*
X0050329Y0040049D01*
X0049762Y0040049D01*
X0050329Y0041183D02*
X0050329Y0041750D01*
X0049008Y0043780D02*
X0047874Y0043780D01*
X0047307Y0044347D01*
X0047307Y0045482D02*
X0048441Y0046049D01*
X0049008Y0046049D01*
X0049575Y0045482D01*
X0049575Y0044347D01*
X0049008Y0043780D01*
X0047307Y0045482D02*
X0047307Y0047183D01*
X0049575Y0047183D01*
X0049715Y0049780D02*
X0049148Y0050347D01*
X0049148Y0051482D01*
X0049715Y0052049D01*
X0050850Y0052049D01*
X0051417Y0051482D01*
X0051417Y0050915D01*
X0049148Y0050915D01*
X0049715Y0049780D02*
X0050850Y0049780D01*
X0052831Y0049780D02*
X0054533Y0049780D01*
X0055100Y0050347D01*
X0054533Y0050915D01*
X0053398Y0050915D01*
X0052831Y0051482D01*
X0053398Y0052049D01*
X0055100Y0052049D01*
X0056514Y0052049D02*
X0057082Y0052049D01*
X0057082Y0049780D01*
X0057649Y0049780D02*
X0056514Y0049780D01*
X0058970Y0050347D02*
X0058970Y0051482D01*
X0059537Y0052049D01*
X0061238Y0052049D01*
X0061238Y0049213D01*
X0060671Y0048646D01*
X0060104Y0048646D01*
X0059537Y0049780D02*
X0061238Y0049780D01*
X0062653Y0049780D02*
X0062653Y0052049D01*
X0064354Y0052049D01*
X0064922Y0051482D01*
X0064922Y0049780D01*
X0059537Y0049780D02*
X0058970Y0050347D01*
X0057082Y0053183D02*
X0057082Y0053750D01*
X0050189Y0055213D02*
X0050189Y0058049D01*
X0047920Y0058049D02*
X0047920Y0056347D01*
X0048488Y0055780D01*
X0050189Y0055780D01*
X0050189Y0055213D02*
X0049622Y0054646D01*
X0049055Y0054646D01*
X0047166Y0053183D02*
X0047734Y0052616D01*
X0047734Y0050347D01*
X0047166Y0049780D01*
X0045465Y0049780D01*
X0045465Y0053183D01*
X0047166Y0053183D01*
X0045939Y0055780D02*
X0044237Y0055780D01*
X0044237Y0059183D01*
X0044237Y0058049D02*
X0045939Y0058049D01*
X0046506Y0057482D01*
X0046506Y0056347D01*
X0045939Y0055780D01*
X0040367Y0052049D02*
X0038666Y0052049D01*
X0038099Y0051482D01*
X0038666Y0050915D01*
X0039800Y0050915D01*
X0040367Y0050347D01*
X0039800Y0049780D01*
X0038099Y0049780D01*
X0037959Y0047183D02*
X0036824Y0047183D01*
X0036257Y0046616D01*
X0034843Y0047183D02*
X0032574Y0043780D01*
X0031159Y0044347D02*
X0031159Y0046616D01*
X0030592Y0047183D01*
X0029458Y0047183D01*
X0028891Y0046616D01*
X0028891Y0046049D01*
X0029458Y0045482D01*
X0031159Y0045482D01*
X0031159Y0044347D02*
X0030592Y0043780D01*
X0029458Y0043780D01*
X0028891Y0044347D01*
X0027476Y0043780D02*
X0025208Y0043780D01*
X0026342Y0043780D02*
X0026342Y0047183D01*
X0025208Y0046049D01*
X0023793Y0047183D02*
X0021525Y0043780D01*
X0020110Y0044347D02*
X0019543Y0043780D01*
X0018409Y0043780D01*
X0017841Y0044347D01*
X0020110Y0046616D01*
X0020110Y0044347D01*
X0017841Y0044347D02*
X0017841Y0046616D01*
X0018409Y0047183D01*
X0019543Y0047183D01*
X0020110Y0046616D01*
X0020110Y0049780D02*
X0020110Y0051482D01*
X0019543Y0052049D01*
X0018409Y0052049D01*
X0017841Y0051482D01*
X0016427Y0050915D02*
X0016427Y0050347D01*
X0015860Y0049780D01*
X0014725Y0049780D01*
X0014158Y0050347D01*
X0014725Y0051482D02*
X0015860Y0051482D01*
X0016427Y0050915D01*
X0016427Y0052616D02*
X0015860Y0053183D01*
X0014725Y0053183D01*
X0014158Y0052616D01*
X0014158Y0052049D01*
X0014725Y0051482D01*
X0017841Y0053183D02*
X0017841Y0049780D01*
X0015293Y0047183D02*
X0015293Y0043780D01*
X0016427Y0043780D02*
X0014158Y0043780D01*
X0014158Y0046049D02*
X0015293Y0047183D01*
X0021525Y0050347D02*
X0022092Y0050915D01*
X0023793Y0050915D01*
X0023793Y0051482D02*
X0023793Y0049780D01*
X0022092Y0049780D01*
X0021525Y0050347D01*
X0022092Y0052049D02*
X0023226Y0052049D01*
X0023793Y0051482D01*
X0025208Y0052049D02*
X0026909Y0052049D01*
X0027476Y0051482D01*
X0027476Y0050347D01*
X0026909Y0049780D01*
X0025208Y0049780D01*
X0025208Y0053183D01*
X0023980Y0054646D02*
X0023980Y0058049D01*
X0025681Y0058049D01*
X0026249Y0057482D01*
X0026249Y0056347D01*
X0025681Y0055780D01*
X0023980Y0055780D01*
X0022565Y0056347D02*
X0021998Y0056915D01*
X0020864Y0056915D01*
X0020297Y0057482D01*
X0020864Y0058049D01*
X0022565Y0058049D01*
X0022565Y0056347D02*
X0021998Y0055780D01*
X0020297Y0055780D01*
X0018882Y0055780D02*
X0018882Y0057482D01*
X0018315Y0058049D01*
X0016614Y0058049D01*
X0016614Y0055780D01*
X0015293Y0055780D02*
X0014158Y0055780D01*
X0014725Y0055780D02*
X0014725Y0059183D01*
X0014158Y0059183D02*
X0015293Y0059183D01*
X0015293Y0061780D02*
X0016427Y0062915D01*
X0016427Y0065183D01*
X0017841Y0064049D02*
X0018976Y0065183D01*
X0018976Y0061780D01*
X0020110Y0061780D02*
X0017841Y0061780D01*
X0015293Y0061780D02*
X0014158Y0062915D01*
X0014158Y0065183D01*
X0014158Y0067780D02*
X0015293Y0067780D01*
X0014725Y0067780D02*
X0014725Y0071183D01*
X0014158Y0071183D02*
X0015293Y0071183D01*
X0016614Y0070616D02*
X0017181Y0071183D01*
X0018315Y0071183D01*
X0018882Y0070616D01*
X0018882Y0070049D01*
X0016614Y0067780D01*
X0018882Y0067780D01*
X0020297Y0068347D02*
X0020864Y0067780D01*
X0021998Y0067780D01*
X0022565Y0068347D01*
X0022565Y0068915D01*
X0021998Y0069482D01*
X0020864Y0069482D01*
X0020297Y0070049D01*
X0020297Y0070616D01*
X0020864Y0071183D01*
X0021998Y0071183D01*
X0022565Y0070616D01*
X0026342Y0072646D02*
X0026909Y0072646D01*
X0027476Y0073213D01*
X0027476Y0076049D01*
X0025775Y0076049D01*
X0025208Y0075482D01*
X0025208Y0074347D01*
X0025775Y0073780D01*
X0027476Y0073780D01*
X0028891Y0073780D02*
X0030025Y0073780D01*
X0029458Y0073780D02*
X0029458Y0077183D01*
X0028891Y0077183D01*
X0031346Y0075482D02*
X0031346Y0074347D01*
X0031913Y0073780D01*
X0033048Y0073780D01*
X0033615Y0074915D02*
X0031346Y0074915D01*
X0031346Y0075482D02*
X0031913Y0076049D01*
X0033048Y0076049D01*
X0033615Y0075482D01*
X0033615Y0074915D01*
X0035029Y0075482D02*
X0036731Y0075482D01*
X0037298Y0074915D01*
X0037298Y0074347D01*
X0036731Y0073780D01*
X0035029Y0073780D01*
X0035029Y0077183D01*
X0036731Y0077183D01*
X0037298Y0076616D01*
X0037298Y0076049D01*
X0036731Y0075482D01*
X0038713Y0075482D02*
X0038713Y0074347D01*
X0039280Y0073780D01*
X0040414Y0073780D01*
X0040981Y0074347D01*
X0040981Y0075482D01*
X0040414Y0076049D01*
X0039280Y0076049D01*
X0038713Y0075482D01*
X0042396Y0076049D02*
X0042396Y0073780D01*
X0044664Y0073780D02*
X0044664Y0075482D01*
X0044097Y0076049D01*
X0042396Y0076049D01*
X0046079Y0075482D02*
X0046079Y0074347D01*
X0046646Y0073780D01*
X0047780Y0073780D01*
X0048347Y0074915D02*
X0046079Y0074915D01*
X0046079Y0075482D02*
X0046646Y0076049D01*
X0047780Y0076049D01*
X0048347Y0075482D01*
X0048347Y0074915D01*
X0044097Y0071183D02*
X0044664Y0070616D01*
X0044664Y0070049D01*
X0044097Y0069482D01*
X0042396Y0069482D01*
X0044097Y0069482D02*
X0044664Y0068915D01*
X0044664Y0068347D01*
X0044097Y0067780D01*
X0042396Y0067780D01*
X0042396Y0071183D01*
X0044097Y0071183D01*
X0046079Y0069482D02*
X0046079Y0068347D01*
X0046646Y0067780D01*
X0047780Y0067780D01*
X0048347Y0068347D01*
X0048347Y0069482D01*
X0047780Y0070049D01*
X0046646Y0070049D01*
X0046079Y0069482D01*
X0049762Y0068347D02*
X0050329Y0068915D01*
X0052031Y0068915D01*
X0052031Y0069482D02*
X0052031Y0067780D01*
X0050329Y0067780D01*
X0049762Y0068347D01*
X0050329Y0070049D02*
X0051463Y0070049D01*
X0052031Y0069482D01*
X0053445Y0070049D02*
X0053445Y0067780D01*
X0053445Y0068915D02*
X0054579Y0070049D01*
X0055147Y0070049D01*
X0056514Y0069482D02*
X0056514Y0068347D01*
X0057082Y0067780D01*
X0058783Y0067780D01*
X0058783Y0071183D01*
X0058783Y0070049D02*
X0057082Y0070049D01*
X0056514Y0069482D01*
X0057128Y0073780D02*
X0058263Y0073780D01*
X0057695Y0073780D02*
X0057695Y0077183D01*
X0057128Y0077183D01*
X0055714Y0076616D02*
X0055714Y0076049D01*
X0055147Y0075482D01*
X0053445Y0075482D01*
X0053445Y0077183D02*
X0055147Y0077183D01*
X0055714Y0076616D01*
X0055147Y0075482D02*
X0055714Y0074915D01*
X0055714Y0074347D01*
X0055147Y0073780D01*
X0053445Y0073780D01*
X0053445Y0077183D01*
X0059584Y0074347D02*
X0060151Y0074915D01*
X0061852Y0074915D01*
X0061852Y0075482D02*
X0061852Y0073780D01*
X0060151Y0073780D01*
X0059584Y0074347D01*
X0060151Y0076049D02*
X0061285Y0076049D01*
X0061852Y0075482D01*
X0063267Y0075482D02*
X0063267Y0074347D01*
X0063834Y0073780D01*
X0065535Y0073780D01*
X0066950Y0073780D02*
X0066950Y0077183D01*
X0065535Y0076049D02*
X0063834Y0076049D01*
X0063267Y0075482D01*
X0066950Y0074915D02*
X0068651Y0076049D01*
X0066950Y0074915D02*
X0068651Y0073780D01*
X0075603Y0064400D02*
X0077872Y0064400D01*
X0076737Y0064400D02*
X0076737Y0060997D01*
X0079286Y0060997D02*
X0079286Y0064400D01*
X0080988Y0064400D01*
X0081555Y0063833D01*
X0081555Y0062698D01*
X0080988Y0062131D01*
X0079286Y0062131D01*
X0082969Y0060997D02*
X0085238Y0060997D01*
X0084104Y0060997D02*
X0084104Y0064400D01*
X0082969Y0063265D01*
X0086653Y0063833D02*
X0087220Y0064400D01*
X0088354Y0064400D01*
X0088921Y0063833D01*
X0088921Y0063265D01*
X0088354Y0062698D01*
X0088921Y0062131D01*
X0088921Y0061564D01*
X0088354Y0060997D01*
X0087220Y0060997D01*
X0086653Y0061564D01*
X0087787Y0062698D02*
X0088354Y0062698D01*
X0112440Y0045396D02*
X0112440Y0043127D01*
X0113007Y0042560D01*
X0114141Y0042560D01*
X0114708Y0043127D01*
X0116123Y0042560D02*
X0118391Y0044828D01*
X0118391Y0045396D01*
X0117824Y0045963D01*
X0116690Y0045963D01*
X0116123Y0045396D01*
X0114708Y0045396D02*
X0114141Y0045963D01*
X0113007Y0045963D01*
X0112440Y0045396D01*
X0116123Y0042560D02*
X0118391Y0042560D01*
X0119806Y0042560D02*
X0122074Y0044828D01*
X0122074Y0045396D01*
X0121507Y0045963D01*
X0120373Y0045963D01*
X0119806Y0045396D01*
X0119806Y0042560D02*
X0122074Y0042560D01*
X0132690Y0037825D02*
X0134958Y0037825D01*
X0133824Y0037825D02*
X0133824Y0034422D01*
X0136373Y0034422D02*
X0136373Y0037825D01*
X0138074Y0037825D01*
X0138642Y0037258D01*
X0138642Y0036123D01*
X0138074Y0035556D01*
X0136373Y0035556D01*
X0140056Y0036123D02*
X0141758Y0037825D01*
X0141758Y0034422D01*
X0142325Y0036123D02*
X0140056Y0036123D01*
X0118988Y0033655D02*
X0116719Y0033655D01*
X0118421Y0035356D01*
X0118421Y0031954D01*
X0115305Y0031954D02*
X0113036Y0031954D01*
X0113036Y0035356D01*
X0081047Y0035289D02*
X0080480Y0035856D01*
X0079346Y0035856D01*
X0078779Y0035289D01*
X0081047Y0035289D02*
X0081047Y0034722D01*
X0078779Y0032454D01*
X0081047Y0032454D01*
X0077364Y0032454D02*
X0075095Y0032454D01*
X0076230Y0032454D02*
X0076230Y0035856D01*
X0075095Y0034722D01*
X0073681Y0034155D02*
X0073114Y0033588D01*
X0071412Y0033588D01*
X0071412Y0032454D02*
X0071412Y0035856D01*
X0073114Y0035856D01*
X0073681Y0035289D01*
X0073681Y0034155D01*
X0069998Y0035856D02*
X0067729Y0035856D01*
X0068863Y0035856D02*
X0068863Y0032454D01*
X0054486Y0037780D02*
X0052785Y0037780D01*
X0052217Y0038347D01*
X0052785Y0038915D01*
X0054486Y0038915D01*
X0054486Y0039482D02*
X0054486Y0037780D01*
X0054486Y0039482D02*
X0053919Y0040049D01*
X0052785Y0040049D01*
X0048347Y0040049D02*
X0046646Y0040049D01*
X0046079Y0039482D01*
X0045892Y0043780D02*
X0043623Y0043780D01*
X0044758Y0043780D02*
X0044758Y0047183D01*
X0043623Y0046049D01*
X0042209Y0046616D02*
X0042209Y0044347D01*
X0041642Y0043780D01*
X0040507Y0043780D01*
X0039940Y0044347D01*
X0042209Y0046616D01*
X0041642Y0047183D01*
X0040507Y0047183D01*
X0039940Y0046616D01*
X0039940Y0044347D01*
X0038526Y0043780D02*
X0036257Y0043780D01*
X0038526Y0046049D01*
X0038526Y0046616D01*
X0037959Y0047183D01*
X0034843Y0049780D02*
X0032574Y0049780D01*
X0034843Y0052049D01*
X0032574Y0052049D01*
X0031159Y0051482D02*
X0031159Y0049780D01*
X0029458Y0049780D01*
X0028891Y0050347D01*
X0029458Y0050915D01*
X0031159Y0050915D01*
X0031159Y0051482D02*
X0030592Y0052049D01*
X0029458Y0052049D01*
X0028797Y0055780D02*
X0027663Y0055780D01*
X0028230Y0055780D02*
X0028230Y0058049D01*
X0027663Y0058049D01*
X0028230Y0059183D02*
X0028230Y0059750D01*
X0030119Y0058049D02*
X0030119Y0055780D01*
X0030119Y0056915D02*
X0031253Y0058049D01*
X0031820Y0058049D01*
X0033188Y0057482D02*
X0033755Y0058049D01*
X0034889Y0058049D01*
X0035456Y0057482D01*
X0035456Y0056915D01*
X0033188Y0056915D01*
X0033188Y0057482D02*
X0033188Y0056347D01*
X0033755Y0055780D01*
X0034889Y0055780D01*
X0036871Y0056347D02*
X0036871Y0057482D01*
X0037438Y0058049D01*
X0039140Y0058049D01*
X0039140Y0059183D02*
X0039140Y0055780D01*
X0037438Y0055780D01*
X0036871Y0056347D01*
X0036824Y0053750D02*
X0036824Y0052616D01*
X0036257Y0052049D01*
X0025635Y0062347D02*
X0025068Y0061780D01*
X0023933Y0061780D01*
X0023366Y0062347D01*
X0025635Y0064616D01*
X0025635Y0062347D01*
X0023366Y0062347D02*
X0023366Y0064616D01*
X0023933Y0065183D01*
X0025068Y0065183D01*
X0025635Y0064616D01*
X0027663Y0067780D02*
X0029365Y0067780D01*
X0029932Y0068347D01*
X0029932Y0070616D01*
X0029365Y0071183D01*
X0027663Y0071183D01*
X0027663Y0067780D01*
X0031346Y0067780D02*
X0031346Y0070049D01*
X0032481Y0071183D01*
X0033615Y0070049D01*
X0033615Y0067780D01*
X0035029Y0068347D02*
X0035029Y0070616D01*
X0035597Y0071183D01*
X0036731Y0071183D01*
X0037298Y0070616D01*
X0037298Y0068347D02*
X0036731Y0067780D01*
X0035597Y0067780D01*
X0035029Y0068347D01*
X0033615Y0069482D02*
X0031346Y0069482D01*
X0023793Y0073780D02*
X0023793Y0075482D01*
X0023226Y0076049D01*
X0022092Y0076049D01*
X0022092Y0074915D02*
X0023793Y0074915D01*
X0023793Y0073780D02*
X0022092Y0073780D01*
X0021525Y0074347D01*
X0022092Y0074915D01*
X0020110Y0074915D02*
X0020110Y0075482D01*
X0019543Y0076049D01*
X0018409Y0076049D01*
X0017841Y0075482D01*
X0017841Y0074347D01*
X0018409Y0073780D01*
X0019543Y0073780D01*
X0020110Y0074915D02*
X0017841Y0074915D01*
X0016427Y0074915D02*
X0015860Y0075482D01*
X0014158Y0075482D01*
X0014158Y0077183D02*
X0015860Y0077183D01*
X0016427Y0076616D01*
X0016427Y0076049D01*
X0015860Y0075482D01*
X0016427Y0074915D02*
X0016427Y0074347D01*
X0015860Y0073780D01*
X0014158Y0073780D01*
X0014158Y0077183D01*
X0021525Y0062347D02*
X0022092Y0062347D01*
X0022092Y0061780D01*
X0021525Y0061780D01*
X0021525Y0062347D01*
X0016427Y0041183D02*
X0015293Y0041183D01*
X0015860Y0041183D02*
X0015860Y0038347D01*
X0015293Y0037780D01*
X0014725Y0037780D01*
X0014158Y0038347D01*
X0017841Y0038347D02*
X0018409Y0037780D01*
X0019543Y0037780D01*
X0020110Y0038347D01*
X0020110Y0039482D01*
X0019543Y0040049D01*
X0018409Y0040049D01*
X0017841Y0039482D01*
X0017841Y0038347D01*
X0021525Y0037780D02*
X0021525Y0040049D01*
X0022659Y0040049D02*
X0023226Y0040049D01*
X0022659Y0040049D02*
X0021525Y0038915D01*
X0120879Y0089006D02*
X0123147Y0089006D01*
X0122013Y0089006D02*
X0122013Y0085603D01*
X0124562Y0085603D02*
X0124562Y0089006D01*
X0126263Y0089006D01*
X0126830Y0088439D01*
X0126830Y0087305D01*
X0126263Y0086737D01*
X0124562Y0086737D01*
X0128245Y0086737D02*
X0128245Y0086170D01*
X0128812Y0085603D01*
X0129946Y0085603D01*
X0130514Y0086170D01*
X0130514Y0086737D01*
X0129946Y0087305D01*
X0128812Y0087305D01*
X0128245Y0087872D01*
X0128245Y0088439D01*
X0128812Y0089006D01*
X0129946Y0089006D01*
X0130514Y0088439D01*
X0130514Y0087872D01*
X0129946Y0087305D01*
X0128812Y0087305D02*
X0128245Y0086737D01*
X0139580Y0089006D02*
X0141848Y0089006D01*
X0140714Y0089006D02*
X0140714Y0085603D01*
X0143263Y0085603D02*
X0143263Y0089006D01*
X0144964Y0089006D01*
X0145531Y0088439D01*
X0145531Y0087305D01*
X0144964Y0086737D01*
X0143263Y0086737D01*
X0146946Y0086170D02*
X0147513Y0085603D01*
X0148647Y0085603D01*
X0149214Y0086170D01*
X0149214Y0088439D01*
X0148647Y0089006D01*
X0147513Y0089006D01*
X0146946Y0088439D01*
X0146946Y0087872D01*
X0147513Y0087305D01*
X0149214Y0087305D01*
X0156312Y0089006D02*
X0158580Y0089006D01*
X0157446Y0089006D02*
X0157446Y0085603D01*
X0159995Y0085603D02*
X0159995Y0089006D01*
X0161696Y0089006D01*
X0162264Y0088439D01*
X0162264Y0087305D01*
X0161696Y0086737D01*
X0159995Y0086737D01*
X0163678Y0085603D02*
X0165947Y0085603D01*
X0164812Y0085603D02*
X0164812Y0089006D01*
X0163678Y0087872D01*
X0167361Y0088439D02*
X0167361Y0086170D01*
X0169630Y0088439D01*
X0169630Y0086170D01*
X0169063Y0085603D01*
X0167928Y0085603D01*
X0167361Y0086170D01*
X0167361Y0088439D02*
X0167928Y0089006D01*
X0169063Y0089006D01*
X0169630Y0088439D01*
X0177965Y0089006D02*
X0180234Y0089006D01*
X0179100Y0089006D02*
X0179100Y0085603D01*
X0181648Y0085603D02*
X0181648Y0089006D01*
X0183350Y0089006D01*
X0183917Y0088439D01*
X0183917Y0087305D01*
X0183350Y0086737D01*
X0181648Y0086737D01*
X0185332Y0085603D02*
X0187600Y0085603D01*
X0186466Y0085603D02*
X0186466Y0089006D01*
X0185332Y0087872D01*
X0189015Y0087872D02*
X0190149Y0089006D01*
X0190149Y0085603D01*
X0189015Y0085603D02*
X0191283Y0085603D01*
X0198069Y0085663D02*
X0198069Y0084529D01*
X0198636Y0083961D01*
X0200905Y0083961D01*
X0201472Y0084529D01*
X0201472Y0085663D01*
X0200905Y0086230D01*
X0200905Y0087645D02*
X0200337Y0087645D01*
X0199770Y0088212D01*
X0199770Y0089346D01*
X0200337Y0089913D01*
X0200905Y0089913D01*
X0201472Y0089346D01*
X0201472Y0088212D01*
X0200905Y0087645D01*
X0199770Y0088212D02*
X0199203Y0087645D01*
X0198636Y0087645D01*
X0198069Y0088212D01*
X0198069Y0089346D01*
X0198636Y0089913D01*
X0199203Y0089913D01*
X0199770Y0089346D01*
X0198636Y0086230D02*
X0198069Y0085663D01*
X0206927Y0085663D02*
X0206927Y0084529D01*
X0207494Y0083961D01*
X0209763Y0083961D01*
X0210330Y0084529D01*
X0210330Y0085663D01*
X0209763Y0086230D01*
X0209763Y0087645D02*
X0210330Y0088212D01*
X0210330Y0089346D01*
X0209763Y0089913D01*
X0207494Y0089913D01*
X0206927Y0089346D01*
X0206927Y0088212D01*
X0207494Y0087645D01*
X0208061Y0087645D01*
X0208628Y0088212D01*
X0208628Y0089913D01*
X0207494Y0086230D02*
X0206927Y0085663D01*
X0215785Y0085663D02*
X0215785Y0084529D01*
X0216352Y0083961D01*
X0218621Y0083961D01*
X0219188Y0084529D01*
X0219188Y0085663D01*
X0218621Y0086230D01*
X0218621Y0087645D02*
X0219188Y0087645D01*
X0218621Y0087645D02*
X0216352Y0089913D01*
X0215785Y0089913D01*
X0215785Y0087645D01*
X0216352Y0086230D02*
X0215785Y0085663D01*
X0225827Y0079427D02*
X0225827Y0076024D01*
X0228096Y0076024D01*
X0229511Y0076592D02*
X0230078Y0076024D01*
X0231212Y0076024D01*
X0231779Y0076592D01*
X0231779Y0077159D01*
X0231212Y0077726D01*
X0230645Y0077726D01*
X0231212Y0077726D02*
X0231779Y0078293D01*
X0231779Y0078860D01*
X0231212Y0079427D01*
X0230078Y0079427D01*
X0229511Y0078860D01*
X0229625Y0070569D02*
X0230759Y0070569D01*
X0231326Y0070002D01*
X0229058Y0067733D01*
X0229625Y0067166D01*
X0230759Y0067166D01*
X0231326Y0067733D01*
X0231326Y0070002D01*
X0229625Y0070569D02*
X0229058Y0070002D01*
X0229058Y0067733D01*
X0227643Y0067166D02*
X0225375Y0067166D01*
X0227643Y0069435D01*
X0227643Y0070002D01*
X0227076Y0070569D01*
X0225942Y0070569D01*
X0225375Y0070002D01*
X0223960Y0070002D02*
X0223393Y0070569D01*
X0222259Y0070569D01*
X0221692Y0070002D01*
X0221692Y0067733D01*
X0222259Y0067166D01*
X0223393Y0067166D01*
X0223960Y0067733D01*
X0223393Y0062695D02*
X0222259Y0062695D01*
X0221692Y0062128D01*
X0221692Y0059859D01*
X0222259Y0059292D01*
X0223393Y0059292D01*
X0223960Y0059859D01*
X0225375Y0059292D02*
X0227643Y0059292D01*
X0226509Y0059292D02*
X0226509Y0062695D01*
X0225375Y0061561D01*
X0223960Y0062128D02*
X0223393Y0062695D01*
X0229058Y0062128D02*
X0229058Y0061561D01*
X0229625Y0060994D01*
X0231326Y0060994D01*
X0231326Y0062128D02*
X0231326Y0059859D01*
X0230759Y0059292D01*
X0229625Y0059292D01*
X0229058Y0059859D01*
X0229058Y0062128D02*
X0229625Y0062695D01*
X0230759Y0062695D01*
X0231326Y0062128D01*
X0212207Y0073375D02*
X0211639Y0072808D01*
X0210505Y0072808D01*
X0209938Y0073375D01*
X0211072Y0074509D02*
X0211639Y0074509D01*
X0212207Y0073942D01*
X0212207Y0073375D01*
X0211639Y0074509D02*
X0212207Y0075076D01*
X0212207Y0075644D01*
X0211639Y0076211D01*
X0210505Y0076211D01*
X0209938Y0075644D01*
X0208523Y0075644D02*
X0208523Y0074509D01*
X0207956Y0073942D01*
X0206255Y0073942D01*
X0206255Y0072808D02*
X0206255Y0076211D01*
X0207956Y0076211D01*
X0208523Y0075644D01*
X0204840Y0076211D02*
X0202572Y0076211D01*
X0203706Y0076211D02*
X0203706Y0072808D01*
X0238914Y0098561D02*
X0240049Y0098561D01*
X0239482Y0098561D02*
X0239482Y0101964D01*
X0240049Y0101964D02*
X0238914Y0101964D01*
X0241370Y0101397D02*
X0241370Y0099129D01*
X0241937Y0098561D01*
X0243071Y0098561D01*
X0243639Y0099129D01*
X0245053Y0098561D02*
X0247322Y0098561D01*
X0246187Y0098561D02*
X0246187Y0101964D01*
X0245053Y0100830D01*
X0243639Y0101397D02*
X0243071Y0101964D01*
X0241937Y0101964D01*
X0241370Y0101397D01*
X0249224Y0103761D02*
X0231249Y0103761D01*
X0243236Y0107261D02*
X0243238Y0107345D01*
X0243244Y0107430D01*
X0243254Y0107513D01*
X0243268Y0107597D01*
X0243285Y0107679D01*
X0243307Y0107761D01*
X0243332Y0107841D01*
X0243361Y0107920D01*
X0243394Y0107998D01*
X0243430Y0108074D01*
X0243470Y0108149D01*
X0243514Y0108221D01*
X0243560Y0108292D01*
X0243610Y0108360D01*
X0243663Y0108425D01*
X0243719Y0108488D01*
X0243778Y0108549D01*
X0243840Y0108606D01*
X0243904Y0108661D01*
X0243971Y0108712D01*
X0244040Y0108761D01*
X0244112Y0108806D01*
X0244185Y0108847D01*
X0244260Y0108885D01*
X0244337Y0108920D01*
X0244416Y0108951D01*
X0244496Y0108978D01*
X0244577Y0109001D01*
X0244659Y0109021D01*
X0244742Y0109037D01*
X0244825Y0109049D01*
X0244910Y0109057D01*
X0244994Y0109061D01*
X0245078Y0109061D01*
X0245162Y0109057D01*
X0245247Y0109049D01*
X0245330Y0109037D01*
X0245413Y0109021D01*
X0245495Y0109001D01*
X0245576Y0108978D01*
X0245656Y0108951D01*
X0245735Y0108920D01*
X0245812Y0108885D01*
X0245887Y0108847D01*
X0245960Y0108806D01*
X0246032Y0108761D01*
X0246101Y0108712D01*
X0246168Y0108661D01*
X0246232Y0108606D01*
X0246294Y0108549D01*
X0246353Y0108488D01*
X0246409Y0108425D01*
X0246462Y0108360D01*
X0246512Y0108292D01*
X0246558Y0108221D01*
X0246602Y0108149D01*
X0246642Y0108074D01*
X0246678Y0107998D01*
X0246711Y0107920D01*
X0246740Y0107841D01*
X0246765Y0107761D01*
X0246787Y0107679D01*
X0246804Y0107597D01*
X0246818Y0107513D01*
X0246828Y0107430D01*
X0246834Y0107345D01*
X0246836Y0107261D01*
X0246834Y0107177D01*
X0246828Y0107092D01*
X0246818Y0107009D01*
X0246804Y0106925D01*
X0246787Y0106843D01*
X0246765Y0106761D01*
X0246740Y0106681D01*
X0246711Y0106602D01*
X0246678Y0106524D01*
X0246642Y0106448D01*
X0246602Y0106373D01*
X0246558Y0106301D01*
X0246512Y0106230D01*
X0246462Y0106162D01*
X0246409Y0106097D01*
X0246353Y0106034D01*
X0246294Y0105973D01*
X0246232Y0105916D01*
X0246168Y0105861D01*
X0246101Y0105810D01*
X0246032Y0105761D01*
X0245960Y0105716D01*
X0245887Y0105675D01*
X0245812Y0105637D01*
X0245735Y0105602D01*
X0245656Y0105571D01*
X0245576Y0105544D01*
X0245495Y0105521D01*
X0245413Y0105501D01*
X0245330Y0105485D01*
X0245247Y0105473D01*
X0245162Y0105465D01*
X0245078Y0105461D01*
X0244994Y0105461D01*
X0244910Y0105465D01*
X0244825Y0105473D01*
X0244742Y0105485D01*
X0244659Y0105501D01*
X0244577Y0105521D01*
X0244496Y0105544D01*
X0244416Y0105571D01*
X0244337Y0105602D01*
X0244260Y0105637D01*
X0244185Y0105675D01*
X0244112Y0105716D01*
X0244040Y0105761D01*
X0243971Y0105810D01*
X0243904Y0105861D01*
X0243840Y0105916D01*
X0243778Y0105973D01*
X0243719Y0106034D01*
X0243663Y0106097D01*
X0243610Y0106162D01*
X0243560Y0106230D01*
X0243514Y0106301D01*
X0243470Y0106373D01*
X0243430Y0106448D01*
X0243394Y0106524D01*
X0243361Y0106602D01*
X0243332Y0106681D01*
X0243307Y0106761D01*
X0243285Y0106843D01*
X0243268Y0106925D01*
X0243254Y0107009D01*
X0243244Y0107092D01*
X0243238Y0107177D01*
X0243236Y0107261D01*
X0263029Y0093283D02*
X0263029Y0092149D01*
X0263597Y0091582D01*
X0263597Y0090167D02*
X0263029Y0089600D01*
X0263029Y0088466D01*
X0263597Y0087898D01*
X0265865Y0087898D01*
X0266432Y0088466D01*
X0266432Y0089600D01*
X0265865Y0090167D01*
X0266432Y0091582D02*
X0264164Y0093850D01*
X0263597Y0093850D01*
X0263029Y0093283D01*
X0266432Y0093850D02*
X0266432Y0091582D01*
X0271888Y0092149D02*
X0271888Y0093283D01*
X0272455Y0093850D01*
X0273022Y0093850D01*
X0273589Y0093283D01*
X0274156Y0093850D01*
X0274723Y0093850D01*
X0275291Y0093283D01*
X0275291Y0092149D01*
X0274723Y0091582D01*
X0274723Y0090167D02*
X0275291Y0089600D01*
X0275291Y0088466D01*
X0274723Y0087898D01*
X0272455Y0087898D01*
X0271888Y0088466D01*
X0271888Y0089600D01*
X0272455Y0090167D01*
X0272455Y0091582D02*
X0271888Y0092149D01*
X0273589Y0092716D02*
X0273589Y0093283D01*
X0280746Y0093283D02*
X0282447Y0091582D01*
X0282447Y0093850D01*
X0284149Y0093283D02*
X0280746Y0093283D01*
X0281313Y0090167D02*
X0280746Y0089600D01*
X0280746Y0088466D01*
X0281313Y0087898D01*
X0283582Y0087898D01*
X0284149Y0088466D01*
X0284149Y0089600D01*
X0283582Y0090167D01*
X0283168Y0083189D02*
X0284302Y0083189D01*
X0284869Y0082621D01*
X0284869Y0081487D01*
X0284302Y0080920D01*
X0283168Y0080920D02*
X0282601Y0082054D01*
X0282601Y0082621D01*
X0283168Y0083189D01*
X0281466Y0083189D02*
X0281466Y0080920D01*
X0283168Y0080920D01*
X0284869Y0079505D02*
X0284869Y0077237D01*
X0284869Y0078371D02*
X0281466Y0078371D01*
X0282601Y0077237D01*
X0283168Y0075822D02*
X0283735Y0075255D01*
X0283735Y0073554D01*
X0284869Y0073554D02*
X0281466Y0073554D01*
X0281466Y0075255D01*
X0282034Y0075822D01*
X0283168Y0075822D01*
X0281466Y0072139D02*
X0281466Y0069871D01*
X0281466Y0071005D02*
X0284869Y0071005D01*
X0291073Y0071459D02*
X0291073Y0069190D01*
X0292774Y0069190D01*
X0292207Y0070324D01*
X0292207Y0070891D01*
X0292774Y0071459D01*
X0293908Y0071459D01*
X0294476Y0070891D01*
X0294476Y0069757D01*
X0293908Y0069190D01*
X0292774Y0067775D02*
X0293341Y0067208D01*
X0293341Y0065507D01*
X0294476Y0065507D02*
X0291073Y0065507D01*
X0291073Y0067208D01*
X0291640Y0067775D01*
X0292774Y0067775D01*
X0291073Y0064092D02*
X0291073Y0061824D01*
X0291073Y0062958D02*
X0294476Y0062958D01*
X0277480Y0062973D02*
X0277480Y0065242D01*
X0277480Y0064107D02*
X0274077Y0064107D01*
X0275211Y0062973D01*
X0274644Y0061559D02*
X0274077Y0060991D01*
X0274077Y0059857D01*
X0274644Y0059290D01*
X0276912Y0059290D01*
X0277480Y0059857D01*
X0277480Y0060991D01*
X0276912Y0061559D01*
X0276912Y0066656D02*
X0276345Y0066656D01*
X0275778Y0067223D01*
X0275778Y0068358D01*
X0276345Y0068925D01*
X0276912Y0068925D01*
X0277480Y0068358D01*
X0277480Y0067223D01*
X0276912Y0066656D01*
X0275778Y0067223D02*
X0275211Y0066656D01*
X0274644Y0066656D01*
X0274077Y0067223D01*
X0274077Y0068358D01*
X0274644Y0068925D01*
X0275211Y0068925D01*
X0275778Y0068358D01*
X0261583Y0067244D02*
X0261583Y0060866D01*
X0261213Y0060866D01*
X0258039Y0060866D02*
X0257669Y0060866D01*
X0254299Y0060866D02*
X0253929Y0060866D01*
X0250756Y0060866D02*
X0250386Y0060866D01*
X0250386Y0067244D01*
X0250756Y0067244D01*
X0253929Y0067244D02*
X0258039Y0067244D01*
X0261213Y0067244D02*
X0261583Y0067244D01*
X0259577Y0073824D02*
X0259577Y0077227D01*
X0257876Y0075525D01*
X0260144Y0075525D01*
X0256461Y0074391D02*
X0255894Y0073824D01*
X0254760Y0073824D01*
X0254192Y0074391D01*
X0254192Y0076659D01*
X0254760Y0077227D01*
X0255894Y0077227D01*
X0256461Y0076659D01*
X0252871Y0077227D02*
X0251737Y0077227D01*
X0252304Y0077227D02*
X0252304Y0073824D01*
X0251737Y0073824D02*
X0252871Y0073824D01*
X0288541Y0109017D02*
X0289108Y0108450D01*
X0291377Y0108450D01*
X0291944Y0109017D01*
X0291944Y0110151D01*
X0291377Y0110718D01*
X0291377Y0112133D02*
X0291944Y0112700D01*
X0291944Y0113834D01*
X0291377Y0114401D01*
X0289108Y0114401D01*
X0288541Y0113834D01*
X0288541Y0112700D01*
X0289108Y0112133D01*
X0291377Y0112133D01*
X0289108Y0110718D02*
X0288541Y0110151D01*
X0288541Y0109017D01*
X0288541Y0115816D02*
X0291944Y0118084D01*
X0288541Y0118084D01*
X0288541Y0119499D02*
X0291944Y0121768D01*
X0288541Y0121768D01*
X0289675Y0123182D02*
X0288541Y0124316D01*
X0291944Y0124316D01*
X0291944Y0123182D02*
X0291944Y0125451D01*
X0291944Y0119499D02*
X0288541Y0119499D01*
X0288541Y0115816D02*
X0291944Y0115816D01*
X0273739Y0140064D02*
X0274306Y0140631D01*
X0274306Y0141765D01*
X0273739Y0142332D01*
X0273739Y0143747D02*
X0274306Y0144314D01*
X0274306Y0145448D01*
X0273739Y0146016D01*
X0272605Y0146016D01*
X0272038Y0145448D01*
X0272038Y0144881D01*
X0272605Y0143747D01*
X0270903Y0143747D01*
X0270903Y0146016D01*
X0271471Y0142332D02*
X0270903Y0141765D01*
X0270903Y0140631D01*
X0271471Y0140064D01*
X0273739Y0140064D01*
X0265448Y0140631D02*
X0265448Y0141765D01*
X0264881Y0142332D01*
X0264881Y0143747D02*
X0265448Y0144314D01*
X0265448Y0145448D01*
X0264881Y0146016D01*
X0264314Y0146016D01*
X0263747Y0145448D01*
X0263747Y0143747D01*
X0264881Y0143747D01*
X0263747Y0143747D02*
X0262612Y0144881D01*
X0262045Y0146016D01*
X0262612Y0142332D02*
X0262045Y0141765D01*
X0262045Y0140631D01*
X0262612Y0140064D01*
X0264881Y0140064D01*
X0265448Y0140631D01*
X0249224Y0128680D02*
X0231249Y0128680D01*
X0224861Y0128128D02*
X0224861Y0126994D01*
X0224861Y0127561D02*
X0221459Y0127561D01*
X0221459Y0126994D02*
X0221459Y0128128D01*
X0222026Y0129449D02*
X0221459Y0130017D01*
X0221459Y0131151D01*
X0222026Y0131718D01*
X0221459Y0133133D02*
X0223160Y0133133D01*
X0222593Y0134267D01*
X0222593Y0134834D01*
X0223160Y0135401D01*
X0224294Y0135401D01*
X0224861Y0134834D01*
X0224861Y0133700D01*
X0224294Y0133133D01*
X0224294Y0131718D02*
X0224861Y0131151D01*
X0224861Y0130017D01*
X0224294Y0129449D01*
X0222026Y0129449D01*
X0221459Y0133133D02*
X0221459Y0135401D01*
X0216850Y0134614D02*
X0216850Y0134244D01*
X0216850Y0134614D02*
X0210472Y0134614D01*
X0210472Y0134244D01*
X0210472Y0131071D02*
X0210472Y0130701D01*
X0210472Y0127331D02*
X0210472Y0126961D01*
X0210472Y0123787D02*
X0210472Y0123417D01*
X0216850Y0123417D01*
X0216850Y0123787D01*
X0216850Y0126961D02*
X0216850Y0131071D01*
X0235691Y0136260D02*
X0235691Y0137962D01*
X0236258Y0138529D01*
X0237392Y0138529D01*
X0237959Y0137962D01*
X0237959Y0136260D01*
X0239094Y0136260D02*
X0235691Y0136260D01*
X0237959Y0137395D02*
X0239094Y0138529D01*
X0239094Y0139944D02*
X0236825Y0142212D01*
X0236258Y0142212D01*
X0235691Y0141645D01*
X0235691Y0140511D01*
X0236258Y0139944D01*
X0239094Y0139944D02*
X0239094Y0142212D01*
X0241596Y0141078D02*
X0244999Y0141078D01*
X0244999Y0139944D02*
X0244999Y0142212D01*
X0242731Y0139944D02*
X0241596Y0141078D01*
X0242163Y0138529D02*
X0243298Y0138529D01*
X0243865Y0137962D01*
X0243865Y0136260D01*
X0244999Y0136260D02*
X0241596Y0136260D01*
X0241596Y0137962D01*
X0242163Y0138529D01*
X0243865Y0137395D02*
X0244999Y0138529D01*
X0221484Y0148859D02*
X0219215Y0148859D01*
X0220350Y0148859D02*
X0220350Y0152262D01*
X0219215Y0151128D01*
X0217801Y0151128D02*
X0215532Y0148859D01*
X0217801Y0148859D01*
X0217801Y0151128D02*
X0217801Y0151695D01*
X0217234Y0152262D01*
X0216099Y0152262D01*
X0215532Y0151695D01*
X0214118Y0151695D02*
X0213550Y0152262D01*
X0212416Y0152262D01*
X0211849Y0151695D01*
X0211849Y0149426D01*
X0212416Y0148859D01*
X0213550Y0148859D01*
X0214118Y0149426D01*
X0200708Y0151024D02*
X0197305Y0151024D01*
X0197305Y0152726D01*
X0197872Y0153293D01*
X0199006Y0153293D01*
X0199574Y0152726D01*
X0199574Y0151024D01*
X0199574Y0152159D02*
X0200708Y0153293D01*
X0200141Y0154707D02*
X0200708Y0155275D01*
X0200708Y0156409D01*
X0200141Y0156976D01*
X0199574Y0156976D01*
X0199006Y0156409D01*
X0199006Y0154707D01*
X0200141Y0154707D01*
X0199006Y0154707D02*
X0197872Y0155842D01*
X0197305Y0156976D01*
X0192834Y0154707D02*
X0192267Y0154707D01*
X0189998Y0156976D01*
X0189431Y0156976D01*
X0189431Y0154707D01*
X0189998Y0153293D02*
X0191132Y0153293D01*
X0191700Y0152726D01*
X0191700Y0151024D01*
X0192834Y0151024D02*
X0189431Y0151024D01*
X0189431Y0152726D01*
X0189998Y0153293D01*
X0191700Y0152159D02*
X0192834Y0153293D01*
X0179054Y0157298D02*
X0178487Y0156731D01*
X0176219Y0156731D01*
X0175651Y0157298D01*
X0175651Y0158432D01*
X0176219Y0158999D01*
X0176786Y0160414D02*
X0175651Y0161548D01*
X0179054Y0161548D01*
X0179054Y0160414D02*
X0179054Y0162683D01*
X0179054Y0164097D02*
X0176786Y0166366D01*
X0176219Y0166366D01*
X0175651Y0165799D01*
X0175651Y0164664D01*
X0176219Y0164097D01*
X0179054Y0164097D02*
X0179054Y0166366D01*
X0185989Y0174186D02*
X0185989Y0177589D01*
X0184855Y0177589D02*
X0187124Y0177589D01*
X0188538Y0177589D02*
X0190240Y0177589D01*
X0190807Y0177022D01*
X0190807Y0175887D01*
X0190240Y0175320D01*
X0188538Y0175320D01*
X0188538Y0174186D02*
X0188538Y0177589D01*
X0192221Y0176454D02*
X0193356Y0177589D01*
X0193356Y0174186D01*
X0194490Y0174186D02*
X0192221Y0174186D01*
X0201587Y0177589D02*
X0203856Y0177589D01*
X0202722Y0177589D02*
X0202722Y0174186D01*
X0205271Y0174186D02*
X0205271Y0177589D01*
X0206972Y0177589D01*
X0207539Y0177022D01*
X0207539Y0175887D01*
X0206972Y0175320D01*
X0205271Y0175320D01*
X0208954Y0174753D02*
X0208954Y0174186D01*
X0208954Y0174753D02*
X0211222Y0177022D01*
X0211222Y0177589D01*
X0208954Y0177589D01*
X0217755Y0177970D02*
X0218322Y0177402D01*
X0219456Y0177402D01*
X0220023Y0177970D01*
X0221438Y0177402D02*
X0223706Y0177402D01*
X0222572Y0177402D02*
X0222572Y0180805D01*
X0221438Y0179671D01*
X0220023Y0180238D02*
X0219456Y0180805D01*
X0218322Y0180805D01*
X0217755Y0180238D01*
X0217755Y0177970D01*
X0225121Y0177970D02*
X0225121Y0177402D01*
X0225121Y0177970D02*
X0227389Y0180238D01*
X0227389Y0180805D01*
X0225121Y0180805D01*
X0228194Y0185497D02*
X0230462Y0185497D01*
X0231877Y0185497D02*
X0234145Y0187765D01*
X0234145Y0188333D01*
X0233578Y0188900D01*
X0232444Y0188900D01*
X0231877Y0188333D01*
X0228194Y0188900D02*
X0228194Y0185497D01*
X0231877Y0185497D02*
X0234145Y0185497D01*
X0247433Y0177480D02*
X0247803Y0177480D01*
X0247433Y0177480D02*
X0247433Y0171102D01*
X0247803Y0171102D01*
X0250976Y0171102D02*
X0251346Y0171102D01*
X0254717Y0171102D02*
X0255087Y0171102D01*
X0258260Y0171102D02*
X0258630Y0171102D01*
X0258630Y0177480D01*
X0258260Y0177480D01*
X0255087Y0177480D02*
X0250976Y0177480D01*
X0264649Y0185761D02*
X0264649Y0189164D01*
X0265783Y0189164D02*
X0263514Y0189164D01*
X0267197Y0189164D02*
X0267197Y0185761D01*
X0267197Y0186895D02*
X0268899Y0186895D01*
X0269466Y0187462D01*
X0269466Y0188596D01*
X0268899Y0189164D01*
X0267197Y0189164D01*
X0270881Y0188596D02*
X0271448Y0189164D01*
X0272582Y0189164D01*
X0273149Y0188596D01*
X0273149Y0188029D01*
X0270881Y0185761D01*
X0273149Y0185761D01*
X0272825Y0180145D02*
X0273960Y0180145D01*
X0274527Y0179578D01*
X0274527Y0178444D01*
X0273960Y0177877D01*
X0272825Y0177877D02*
X0272258Y0179011D01*
X0272258Y0179578D01*
X0272825Y0180145D01*
X0271124Y0180145D02*
X0271124Y0177877D01*
X0272825Y0177877D01*
X0274527Y0176462D02*
X0274527Y0174194D01*
X0274527Y0175328D02*
X0271124Y0175328D01*
X0272258Y0174194D01*
X0271691Y0172779D02*
X0271124Y0172212D01*
X0271124Y0171078D01*
X0271691Y0170510D01*
X0273960Y0170510D01*
X0274527Y0171078D01*
X0274527Y0172212D01*
X0273960Y0172779D01*
X0291073Y0173507D02*
X0291073Y0171806D01*
X0294476Y0171806D01*
X0293341Y0171806D02*
X0293341Y0173507D01*
X0292774Y0174075D01*
X0291640Y0174075D01*
X0291073Y0173507D01*
X0292774Y0175489D02*
X0292774Y0177191D01*
X0293341Y0177758D01*
X0293908Y0177758D01*
X0294476Y0177191D01*
X0294476Y0176056D01*
X0293908Y0175489D01*
X0292774Y0175489D01*
X0291640Y0176623D01*
X0291073Y0177758D01*
X0291073Y0170391D02*
X0291073Y0168123D01*
X0291073Y0169257D02*
X0294476Y0169257D01*
X0313292Y0159789D02*
X0313292Y0157521D01*
X0313859Y0156954D01*
X0314994Y0156954D01*
X0315561Y0157521D01*
X0316975Y0156954D02*
X0319244Y0156954D01*
X0318110Y0156954D02*
X0318110Y0160356D01*
X0316975Y0159222D01*
X0315561Y0159789D02*
X0314994Y0160356D01*
X0313859Y0160356D01*
X0313292Y0159789D01*
X0320658Y0159789D02*
X0320658Y0157521D01*
X0322927Y0159789D01*
X0322927Y0157521D01*
X0322360Y0156954D01*
X0321226Y0156954D01*
X0320658Y0157521D01*
X0320658Y0159789D02*
X0321226Y0160356D01*
X0322360Y0160356D01*
X0322927Y0159789D01*
X0322891Y0150514D02*
X0321757Y0150514D01*
X0321190Y0149947D01*
X0322891Y0150514D02*
X0323459Y0149947D01*
X0323459Y0149380D01*
X0321190Y0147111D01*
X0323459Y0147111D01*
X0319775Y0147111D02*
X0317507Y0147111D01*
X0318641Y0147111D02*
X0318641Y0150514D01*
X0317507Y0149380D01*
X0316092Y0149947D02*
X0316092Y0148812D01*
X0315525Y0148245D01*
X0313824Y0148245D01*
X0314958Y0148245D02*
X0316092Y0147111D01*
X0313824Y0147111D02*
X0313824Y0150514D01*
X0315525Y0150514D01*
X0316092Y0149947D01*
X0256207Y0156084D02*
X0255640Y0155517D01*
X0254506Y0155517D01*
X0253939Y0156084D01*
X0252524Y0156084D02*
X0251957Y0155517D01*
X0250823Y0155517D01*
X0250255Y0156084D01*
X0250255Y0158352D01*
X0250823Y0158919D01*
X0251957Y0158919D01*
X0252524Y0158352D01*
X0253939Y0158352D02*
X0254506Y0158919D01*
X0255640Y0158919D01*
X0256207Y0158352D01*
X0256207Y0157785D01*
X0255640Y0157218D01*
X0256207Y0156651D01*
X0256207Y0156084D01*
X0255640Y0157218D02*
X0255073Y0157218D01*
X0248934Y0158919D02*
X0247800Y0158919D01*
X0248367Y0158919D02*
X0248367Y0155517D01*
X0247800Y0155517D02*
X0248934Y0155517D01*
X0227389Y0169111D02*
X0227389Y0169678D01*
X0226822Y0170246D01*
X0225121Y0170246D01*
X0225121Y0169111D01*
X0225688Y0168544D01*
X0226822Y0168544D01*
X0227389Y0169111D01*
X0226255Y0171380D02*
X0225121Y0170246D01*
X0226255Y0171380D02*
X0227389Y0171947D01*
X0222572Y0171947D02*
X0222572Y0168544D01*
X0221438Y0168544D02*
X0223706Y0168544D01*
X0221438Y0170813D02*
X0222572Y0171947D01*
X0220023Y0171380D02*
X0219456Y0171947D01*
X0218322Y0171947D01*
X0217755Y0171380D01*
X0217755Y0169111D01*
X0218322Y0168544D01*
X0219456Y0168544D01*
X0220023Y0169111D01*
X0179054Y0158432D02*
X0178487Y0158999D01*
X0179054Y0158432D02*
X0179054Y0157298D01*
X0164142Y0157323D02*
X0163772Y0157323D01*
X0164142Y0157323D02*
X0164142Y0163701D01*
X0163772Y0163701D01*
X0160598Y0163701D02*
X0156488Y0163701D01*
X0153315Y0163701D02*
X0152945Y0163701D01*
X0152945Y0157323D01*
X0153315Y0157323D01*
X0156488Y0157323D02*
X0156858Y0157323D01*
X0160228Y0157323D02*
X0160598Y0157323D01*
X0161152Y0146124D02*
X0160018Y0146124D01*
X0159450Y0145557D01*
X0158036Y0145557D02*
X0157469Y0146124D01*
X0156334Y0146124D01*
X0155767Y0145557D01*
X0155767Y0143288D01*
X0156334Y0142721D01*
X0157469Y0142721D01*
X0158036Y0143288D01*
X0159450Y0142721D02*
X0161719Y0144990D01*
X0161719Y0145557D01*
X0161152Y0146124D01*
X0161719Y0142721D02*
X0159450Y0142721D01*
X0154446Y0142721D02*
X0153312Y0142721D01*
X0153879Y0142721D02*
X0153879Y0146124D01*
X0153312Y0146124D02*
X0154446Y0146124D01*
X0139708Y0133061D02*
X0138007Y0131360D01*
X0140275Y0131360D01*
X0139708Y0129658D02*
X0139708Y0133061D01*
X0135458Y0133061D02*
X0135458Y0129658D01*
X0136592Y0129658D02*
X0134323Y0129658D01*
X0132909Y0131360D02*
X0132342Y0130793D01*
X0130640Y0130793D01*
X0130640Y0129658D02*
X0130640Y0133061D01*
X0132342Y0133061D01*
X0132909Y0132494D01*
X0132909Y0131360D01*
X0134323Y0131927D02*
X0135458Y0133061D01*
X0129226Y0133061D02*
X0126957Y0133061D01*
X0128091Y0133061D02*
X0128091Y0129658D01*
X0154375Y0128860D02*
X0154375Y0125457D01*
X0154375Y0126592D02*
X0156076Y0126592D01*
X0156643Y0127159D01*
X0156643Y0128293D01*
X0156076Y0128860D01*
X0154375Y0128860D01*
X0155509Y0126592D02*
X0156643Y0125457D01*
X0158058Y0125457D02*
X0160327Y0125457D01*
X0159192Y0125457D02*
X0159192Y0128860D01*
X0158058Y0127726D01*
X0161741Y0128293D02*
X0162308Y0128860D01*
X0163443Y0128860D01*
X0164010Y0128293D01*
X0161741Y0126025D01*
X0162308Y0125457D01*
X0163443Y0125457D01*
X0164010Y0126025D01*
X0164010Y0128293D01*
X0161741Y0128293D02*
X0161741Y0126025D01*
X0162875Y0120002D02*
X0162875Y0116599D01*
X0161741Y0116599D02*
X0164010Y0116599D01*
X0161741Y0118868D02*
X0162875Y0120002D01*
X0159192Y0120002D02*
X0158058Y0118868D01*
X0156643Y0119435D02*
X0156643Y0118301D01*
X0156076Y0117734D01*
X0154375Y0117734D01*
X0155509Y0117734D02*
X0156643Y0116599D01*
X0158058Y0116599D02*
X0160327Y0116599D01*
X0159192Y0116599D02*
X0159192Y0120002D01*
X0156643Y0119435D02*
X0156076Y0120002D01*
X0154375Y0120002D01*
X0154375Y0116599D01*
X0154375Y0110160D02*
X0156076Y0110160D01*
X0156643Y0109592D01*
X0156643Y0108458D01*
X0156076Y0107891D01*
X0154375Y0107891D01*
X0155509Y0107891D02*
X0156643Y0106757D01*
X0158058Y0107324D02*
X0158625Y0106757D01*
X0159759Y0106757D01*
X0160327Y0107324D01*
X0160327Y0109592D01*
X0159759Y0110160D01*
X0158625Y0110160D01*
X0158058Y0109592D01*
X0158058Y0109025D01*
X0158625Y0108458D01*
X0160327Y0108458D01*
X0154375Y0106757D02*
X0154375Y0110160D01*
X0154375Y0101301D02*
X0156076Y0101301D01*
X0156643Y0100734D01*
X0156643Y0099600D01*
X0156076Y0099033D01*
X0154375Y0099033D01*
X0155509Y0099033D02*
X0156643Y0097898D01*
X0158058Y0098466D02*
X0158058Y0099033D01*
X0158625Y0099600D01*
X0159759Y0099600D01*
X0160327Y0099033D01*
X0160327Y0098466D01*
X0159759Y0097898D01*
X0158625Y0097898D01*
X0158058Y0098466D01*
X0158625Y0099600D02*
X0158058Y0100167D01*
X0158058Y0100734D01*
X0158625Y0101301D01*
X0159759Y0101301D01*
X0160327Y0100734D01*
X0160327Y0100167D01*
X0159759Y0099600D01*
X0154375Y0097898D02*
X0154375Y0101301D01*
X0133318Y0154765D02*
X0132184Y0154765D01*
X0131617Y0155332D01*
X0130202Y0154765D02*
X0127934Y0154765D01*
X0129068Y0154765D02*
X0129068Y0158167D01*
X0127934Y0157033D01*
X0126519Y0157600D02*
X0125952Y0158167D01*
X0124818Y0158167D01*
X0124251Y0157600D01*
X0124251Y0155332D01*
X0124818Y0154765D01*
X0125952Y0154765D01*
X0126519Y0155332D01*
X0131617Y0157600D02*
X0132184Y0158167D01*
X0133318Y0158167D01*
X0133885Y0157600D01*
X0133885Y0157033D01*
X0133318Y0156466D01*
X0133885Y0155899D01*
X0133885Y0155332D01*
X0133318Y0154765D01*
X0133318Y0156466D02*
X0132751Y0156466D01*
X0133318Y0163623D02*
X0133318Y0167026D01*
X0131617Y0165324D01*
X0133885Y0165324D01*
X0130202Y0163623D02*
X0127934Y0163623D01*
X0129068Y0163623D02*
X0129068Y0167026D01*
X0127934Y0165891D01*
X0126519Y0166459D02*
X0125952Y0167026D01*
X0124818Y0167026D01*
X0124251Y0166459D01*
X0124251Y0164190D01*
X0124818Y0163623D01*
X0125952Y0163623D01*
X0126519Y0164190D01*
X0134690Y0172702D02*
X0136958Y0172702D01*
X0138373Y0172702D02*
X0140642Y0172702D01*
X0139507Y0172702D02*
X0139507Y0176104D01*
X0138373Y0174970D01*
X0134690Y0176104D02*
X0134690Y0172702D01*
X0313824Y0089490D02*
X0313824Y0086087D01*
X0313824Y0087222D02*
X0315525Y0087222D01*
X0316092Y0087789D01*
X0316092Y0088923D01*
X0315525Y0089490D01*
X0313824Y0089490D01*
X0314958Y0087222D02*
X0316092Y0086087D01*
X0317507Y0086087D02*
X0319775Y0086087D01*
X0318641Y0086087D02*
X0318641Y0089490D01*
X0317507Y0088356D01*
X0321190Y0088923D02*
X0321757Y0089490D01*
X0322891Y0089490D01*
X0323459Y0088923D01*
X0323459Y0088356D01*
X0322891Y0087789D01*
X0323459Y0087222D01*
X0323459Y0086655D01*
X0322891Y0086087D01*
X0321757Y0086087D01*
X0321190Y0086655D01*
X0322324Y0087789D02*
X0322891Y0087789D01*
X0322777Y0079648D02*
X0322777Y0076245D01*
X0321643Y0076245D02*
X0323911Y0076245D01*
X0321643Y0078513D02*
X0322777Y0079648D01*
X0319094Y0079648D02*
X0319094Y0076245D01*
X0317960Y0076245D02*
X0320228Y0076245D01*
X0317960Y0078513D02*
X0319094Y0079648D01*
X0316545Y0079081D02*
X0315978Y0079648D01*
X0314844Y0079648D01*
X0314276Y0079081D01*
X0314276Y0076812D01*
X0314844Y0076245D01*
X0315978Y0076245D01*
X0316545Y0076812D01*
D11*
X0295000Y0005000D02*
X0030000Y0005000D01*
X0029396Y0005007D01*
X0028792Y0005029D01*
X0028189Y0005066D01*
X0027587Y0005117D01*
X0026987Y0005182D01*
X0026388Y0005262D01*
X0025791Y0005357D01*
X0025197Y0005466D01*
X0024605Y0005589D01*
X0024017Y0005726D01*
X0023432Y0005878D01*
X0022851Y0006044D01*
X0022275Y0006224D01*
X0021702Y0006417D01*
X0021135Y0006625D01*
X0020573Y0006846D01*
X0020016Y0007080D01*
X0019465Y0007328D01*
X0018920Y0007589D01*
X0018382Y0007864D01*
X0017850Y0008151D01*
X0017326Y0008451D01*
X0016809Y0008763D01*
X0016300Y0009088D01*
X0015798Y0009425D01*
X0015305Y0009775D01*
X0014821Y0010136D01*
X0014345Y0010508D01*
X0013879Y0010892D01*
X0013422Y0011287D01*
X0012975Y0011693D01*
X0012537Y0012110D01*
X0012110Y0012537D01*
X0011693Y0012975D01*
X0011287Y0013422D01*
X0010892Y0013879D01*
X0010508Y0014345D01*
X0010136Y0014821D01*
X0009775Y0015305D01*
X0009425Y0015798D01*
X0009088Y0016300D01*
X0008763Y0016809D01*
X0008451Y0017326D01*
X0008151Y0017850D01*
X0007864Y0018382D01*
X0007589Y0018920D01*
X0007328Y0019465D01*
X0007080Y0020016D01*
X0006846Y0020573D01*
X0006625Y0021135D01*
X0006417Y0021702D01*
X0006224Y0022275D01*
X0006044Y0022851D01*
X0005878Y0023432D01*
X0005726Y0024017D01*
X0005589Y0024605D01*
X0005466Y0025197D01*
X0005357Y0025791D01*
X0005262Y0026388D01*
X0005182Y0026987D01*
X0005117Y0027587D01*
X0005066Y0028189D01*
X0005029Y0028792D01*
X0005007Y0029396D01*
X0005000Y0030000D01*
X0005000Y0075500D01*
X0005003Y0075742D01*
X0005012Y0075983D01*
X0005026Y0076224D01*
X0005047Y0076465D01*
X0005073Y0076705D01*
X0005105Y0076945D01*
X0005143Y0077184D01*
X0005186Y0077421D01*
X0005236Y0077658D01*
X0005291Y0077893D01*
X0005351Y0078127D01*
X0005418Y0078359D01*
X0005489Y0078590D01*
X0005567Y0078819D01*
X0005650Y0079046D01*
X0005738Y0079271D01*
X0005832Y0079494D01*
X0005931Y0079714D01*
X0006036Y0079932D01*
X0006145Y0080147D01*
X0006260Y0080360D01*
X0006380Y0080570D01*
X0006505Y0080776D01*
X0006635Y0080980D01*
X0006770Y0081181D01*
X0006910Y0081378D01*
X0007054Y0081572D01*
X0007203Y0081762D01*
X0007357Y0081948D01*
X0007515Y0082131D01*
X0007677Y0082310D01*
X0007844Y0082485D01*
X0008015Y0082656D01*
X0008190Y0082823D01*
X0008369Y0082985D01*
X0008552Y0083143D01*
X0008738Y0083297D01*
X0008928Y0083446D01*
X0009122Y0083590D01*
X0009319Y0083730D01*
X0009520Y0083865D01*
X0009724Y0083995D01*
X0009930Y0084120D01*
X0010140Y0084240D01*
X0010353Y0084355D01*
X0010568Y0084464D01*
X0010786Y0084569D01*
X0011006Y0084668D01*
X0011229Y0084762D01*
X0011454Y0084850D01*
X0011681Y0084933D01*
X0011910Y0085011D01*
X0012141Y0085082D01*
X0012373Y0085149D01*
X0012607Y0085209D01*
X0012842Y0085264D01*
X0013079Y0085314D01*
X0013316Y0085357D01*
X0013555Y0085395D01*
X0013795Y0085427D01*
X0014035Y0085453D01*
X0014276Y0085474D01*
X0014517Y0085488D01*
X0014758Y0085497D01*
X0015000Y0085500D01*
X0085500Y0085500D01*
X0085500Y0160000D01*
X0015000Y0160000D01*
X0014758Y0160003D01*
X0014517Y0160012D01*
X0014276Y0160026D01*
X0014035Y0160047D01*
X0013795Y0160073D01*
X0013555Y0160105D01*
X0013316Y0160143D01*
X0013079Y0160186D01*
X0012842Y0160236D01*
X0012607Y0160291D01*
X0012373Y0160351D01*
X0012141Y0160418D01*
X0011910Y0160489D01*
X0011681Y0160567D01*
X0011454Y0160650D01*
X0011229Y0160738D01*
X0011006Y0160832D01*
X0010786Y0160931D01*
X0010568Y0161036D01*
X0010353Y0161145D01*
X0010140Y0161260D01*
X0009930Y0161380D01*
X0009724Y0161505D01*
X0009520Y0161635D01*
X0009319Y0161770D01*
X0009122Y0161910D01*
X0008928Y0162054D01*
X0008738Y0162203D01*
X0008552Y0162357D01*
X0008369Y0162515D01*
X0008190Y0162677D01*
X0008015Y0162844D01*
X0007844Y0163015D01*
X0007677Y0163190D01*
X0007515Y0163369D01*
X0007357Y0163552D01*
X0007203Y0163738D01*
X0007054Y0163928D01*
X0006910Y0164122D01*
X0006770Y0164319D01*
X0006635Y0164520D01*
X0006505Y0164724D01*
X0006380Y0164930D01*
X0006260Y0165140D01*
X0006145Y0165353D01*
X0006036Y0165568D01*
X0005931Y0165786D01*
X0005832Y0166006D01*
X0005738Y0166229D01*
X0005650Y0166454D01*
X0005567Y0166681D01*
X0005489Y0166910D01*
X0005418Y0167141D01*
X0005351Y0167373D01*
X0005291Y0167607D01*
X0005236Y0167842D01*
X0005186Y0168079D01*
X0005143Y0168316D01*
X0005105Y0168555D01*
X0005073Y0168795D01*
X0005047Y0169035D01*
X0005026Y0169276D01*
X0005012Y0169517D01*
X0005003Y0169758D01*
X0005000Y0170000D01*
X0005000Y0195000D01*
X0005007Y0195604D01*
X0005029Y0196208D01*
X0005066Y0196811D01*
X0005117Y0197413D01*
X0005182Y0198013D01*
X0005262Y0198612D01*
X0005357Y0199209D01*
X0005466Y0199803D01*
X0005589Y0200395D01*
X0005726Y0200983D01*
X0005878Y0201568D01*
X0006044Y0202149D01*
X0006224Y0202725D01*
X0006417Y0203298D01*
X0006625Y0203865D01*
X0006846Y0204427D01*
X0007080Y0204984D01*
X0007328Y0205535D01*
X0007589Y0206080D01*
X0007864Y0206618D01*
X0008151Y0207150D01*
X0008451Y0207674D01*
X0008763Y0208191D01*
X0009088Y0208700D01*
X0009425Y0209202D01*
X0009775Y0209695D01*
X0010136Y0210179D01*
X0010508Y0210655D01*
X0010892Y0211121D01*
X0011287Y0211578D01*
X0011693Y0212025D01*
X0012110Y0212463D01*
X0012537Y0212890D01*
X0012975Y0213307D01*
X0013422Y0213713D01*
X0013879Y0214108D01*
X0014345Y0214492D01*
X0014821Y0214864D01*
X0015305Y0215225D01*
X0015798Y0215575D01*
X0016300Y0215912D01*
X0016809Y0216237D01*
X0017326Y0216549D01*
X0017850Y0216849D01*
X0018382Y0217136D01*
X0018920Y0217411D01*
X0019465Y0217672D01*
X0020016Y0217920D01*
X0020573Y0218154D01*
X0021135Y0218375D01*
X0021702Y0218583D01*
X0022275Y0218776D01*
X0022851Y0218956D01*
X0023432Y0219122D01*
X0024017Y0219274D01*
X0024605Y0219411D01*
X0025197Y0219534D01*
X0025791Y0219643D01*
X0026388Y0219738D01*
X0026987Y0219818D01*
X0027587Y0219883D01*
X0028189Y0219934D01*
X0028792Y0219971D01*
X0029396Y0219993D01*
X0030000Y0220000D01*
X0295000Y0220000D01*
X0296208Y0219985D01*
X0297416Y0219942D01*
X0298622Y0219869D01*
X0299826Y0219767D01*
X0301027Y0219635D01*
X0302224Y0219475D01*
X0303418Y0219286D01*
X0304606Y0219069D01*
X0305789Y0218822D01*
X0306966Y0218547D01*
X0308135Y0218244D01*
X0309297Y0217912D01*
X0310451Y0217553D01*
X0311595Y0217166D01*
X0312730Y0216751D01*
X0313855Y0216309D01*
X0314968Y0215840D01*
X0316070Y0215344D01*
X0317160Y0214821D01*
X0318236Y0214273D01*
X0319299Y0213698D01*
X0320348Y0213098D01*
X0321382Y0212473D01*
X0322401Y0211824D01*
X0323403Y0211149D01*
X0324389Y0210451D01*
X0325358Y0209729D01*
X0326309Y0208984D01*
X0327242Y0208216D01*
X0328156Y0207426D01*
X0329051Y0206613D01*
X0329926Y0205780D01*
X0330780Y0204926D01*
X0331613Y0204051D01*
X0332426Y0203156D01*
X0333216Y0202242D01*
X0333984Y0201309D01*
X0334729Y0200358D01*
X0335451Y0199389D01*
X0336149Y0198403D01*
X0336824Y0197401D01*
X0337473Y0196382D01*
X0338098Y0195348D01*
X0338698Y0194299D01*
X0339273Y0193236D01*
X0339821Y0192160D01*
X0340344Y0191070D01*
X0340840Y0189968D01*
X0341309Y0188855D01*
X0341751Y0187730D01*
X0342166Y0186595D01*
X0342553Y0185451D01*
X0342912Y0184297D01*
X0343244Y0183135D01*
X0343547Y0181966D01*
X0343822Y0180789D01*
X0344069Y0179606D01*
X0344286Y0178418D01*
X0344475Y0177224D01*
X0344635Y0176027D01*
X0344767Y0174826D01*
X0344869Y0173622D01*
X0344942Y0172416D01*
X0344985Y0171208D01*
X0345000Y0170000D01*
X0345000Y0055000D01*
X0344985Y0053792D01*
X0344942Y0052584D01*
X0344869Y0051378D01*
X0344767Y0050174D01*
X0344635Y0048973D01*
X0344475Y0047776D01*
X0344286Y0046582D01*
X0344069Y0045394D01*
X0343822Y0044211D01*
X0343547Y0043034D01*
X0343244Y0041865D01*
X0342912Y0040703D01*
X0342553Y0039549D01*
X0342166Y0038405D01*
X0341751Y0037270D01*
X0341309Y0036145D01*
X0340840Y0035032D01*
X0340344Y0033930D01*
X0339821Y0032840D01*
X0339273Y0031764D01*
X0338698Y0030701D01*
X0338098Y0029652D01*
X0337473Y0028618D01*
X0336824Y0027599D01*
X0336149Y0026597D01*
X0335451Y0025611D01*
X0334729Y0024642D01*
X0333984Y0023691D01*
X0333216Y0022758D01*
X0332426Y0021844D01*
X0331613Y0020949D01*
X0330780Y0020074D01*
X0329926Y0019220D01*
X0329051Y0018387D01*
X0328156Y0017574D01*
X0327242Y0016784D01*
X0326309Y0016016D01*
X0325358Y0015271D01*
X0324389Y0014549D01*
X0323403Y0013851D01*
X0322401Y0013176D01*
X0321382Y0012527D01*
X0320348Y0011902D01*
X0319299Y0011302D01*
X0318236Y0010727D01*
X0317160Y0010179D01*
X0316070Y0009656D01*
X0314968Y0009160D01*
X0313855Y0008691D01*
X0312730Y0008249D01*
X0311595Y0007834D01*
X0310451Y0007447D01*
X0309297Y0007088D01*
X0308135Y0006756D01*
X0306966Y0006453D01*
X0305789Y0006178D01*
X0304606Y0005931D01*
X0303418Y0005714D01*
X0302224Y0005525D01*
X0301027Y0005365D01*
X0299826Y0005233D01*
X0298622Y0005131D01*
X0297416Y0005058D01*
X0296208Y0005015D01*
X0295000Y0005000D01*
X0325669Y0099488D02*
X0325671Y0099585D01*
X0325677Y0099682D01*
X0325687Y0099778D01*
X0325701Y0099874D01*
X0325719Y0099970D01*
X0325740Y0100064D01*
X0325766Y0100158D01*
X0325795Y0100250D01*
X0325829Y0100341D01*
X0325865Y0100431D01*
X0325906Y0100519D01*
X0325950Y0100605D01*
X0325998Y0100690D01*
X0326049Y0100772D01*
X0326103Y0100853D01*
X0326161Y0100931D01*
X0326222Y0101006D01*
X0326285Y0101079D01*
X0326352Y0101150D01*
X0326422Y0101217D01*
X0326494Y0101282D01*
X0326569Y0101343D01*
X0326647Y0101402D01*
X0326726Y0101457D01*
X0326808Y0101509D01*
X0326892Y0101557D01*
X0326978Y0101602D01*
X0327066Y0101644D01*
X0327155Y0101682D01*
X0327246Y0101716D01*
X0327338Y0101746D01*
X0327431Y0101773D01*
X0327526Y0101795D01*
X0327621Y0101814D01*
X0327717Y0101829D01*
X0327813Y0101840D01*
X0327910Y0101847D01*
X0328007Y0101850D01*
X0328104Y0101849D01*
X0328201Y0101844D01*
X0328297Y0101835D01*
X0328393Y0101822D01*
X0328489Y0101805D01*
X0328584Y0101784D01*
X0328677Y0101760D01*
X0328770Y0101731D01*
X0328862Y0101699D01*
X0328952Y0101663D01*
X0329040Y0101624D01*
X0329127Y0101580D01*
X0329212Y0101534D01*
X0329295Y0101483D01*
X0329376Y0101430D01*
X0329454Y0101373D01*
X0329531Y0101313D01*
X0329604Y0101250D01*
X0329675Y0101184D01*
X0329743Y0101115D01*
X0329809Y0101043D01*
X0329871Y0100969D01*
X0329930Y0100892D01*
X0329986Y0100813D01*
X0330039Y0100731D01*
X0330089Y0100648D01*
X0330134Y0100562D01*
X0330177Y0100475D01*
X0330216Y0100386D01*
X0330251Y0100296D01*
X0330282Y0100204D01*
X0330309Y0100111D01*
X0330333Y0100017D01*
X0330353Y0099922D01*
X0330369Y0099826D01*
X0330381Y0099730D01*
X0330389Y0099633D01*
X0330393Y0099536D01*
X0330393Y0099440D01*
X0330389Y0099343D01*
X0330381Y0099246D01*
X0330369Y0099150D01*
X0330353Y0099054D01*
X0330333Y0098959D01*
X0330309Y0098865D01*
X0330282Y0098772D01*
X0330251Y0098680D01*
X0330216Y0098590D01*
X0330177Y0098501D01*
X0330134Y0098414D01*
X0330089Y0098328D01*
X0330039Y0098245D01*
X0329986Y0098163D01*
X0329930Y0098084D01*
X0329871Y0098007D01*
X0329809Y0097933D01*
X0329743Y0097861D01*
X0329675Y0097792D01*
X0329604Y0097726D01*
X0329531Y0097663D01*
X0329454Y0097603D01*
X0329376Y0097546D01*
X0329295Y0097493D01*
X0329212Y0097442D01*
X0329127Y0097396D01*
X0329040Y0097352D01*
X0328952Y0097313D01*
X0328862Y0097277D01*
X0328770Y0097245D01*
X0328677Y0097216D01*
X0328584Y0097192D01*
X0328489Y0097171D01*
X0328393Y0097154D01*
X0328297Y0097141D01*
X0328201Y0097132D01*
X0328104Y0097127D01*
X0328007Y0097126D01*
X0327910Y0097129D01*
X0327813Y0097136D01*
X0327717Y0097147D01*
X0327621Y0097162D01*
X0327526Y0097181D01*
X0327431Y0097203D01*
X0327338Y0097230D01*
X0327246Y0097260D01*
X0327155Y0097294D01*
X0327066Y0097332D01*
X0326978Y0097374D01*
X0326892Y0097419D01*
X0326808Y0097467D01*
X0326726Y0097519D01*
X0326647Y0097574D01*
X0326569Y0097633D01*
X0326494Y0097694D01*
X0326422Y0097759D01*
X0326352Y0097826D01*
X0326285Y0097897D01*
X0326222Y0097970D01*
X0326161Y0098045D01*
X0326103Y0098123D01*
X0326049Y0098204D01*
X0325998Y0098286D01*
X0325950Y0098371D01*
X0325906Y0098457D01*
X0325865Y0098545D01*
X0325829Y0098635D01*
X0325795Y0098726D01*
X0325766Y0098818D01*
X0325740Y0098912D01*
X0325719Y0099006D01*
X0325701Y0099102D01*
X0325687Y0099198D01*
X0325677Y0099294D01*
X0325671Y0099391D01*
X0325669Y0099488D01*
X0335512Y0099488D02*
X0335514Y0099585D01*
X0335520Y0099682D01*
X0335530Y0099778D01*
X0335544Y0099874D01*
X0335562Y0099970D01*
X0335583Y0100064D01*
X0335609Y0100158D01*
X0335638Y0100250D01*
X0335672Y0100341D01*
X0335708Y0100431D01*
X0335749Y0100519D01*
X0335793Y0100605D01*
X0335841Y0100690D01*
X0335892Y0100772D01*
X0335946Y0100853D01*
X0336004Y0100931D01*
X0336065Y0101006D01*
X0336128Y0101079D01*
X0336195Y0101150D01*
X0336265Y0101217D01*
X0336337Y0101282D01*
X0336412Y0101343D01*
X0336490Y0101402D01*
X0336569Y0101457D01*
X0336651Y0101509D01*
X0336735Y0101557D01*
X0336821Y0101602D01*
X0336909Y0101644D01*
X0336998Y0101682D01*
X0337089Y0101716D01*
X0337181Y0101746D01*
X0337274Y0101773D01*
X0337369Y0101795D01*
X0337464Y0101814D01*
X0337560Y0101829D01*
X0337656Y0101840D01*
X0337753Y0101847D01*
X0337850Y0101850D01*
X0337947Y0101849D01*
X0338044Y0101844D01*
X0338140Y0101835D01*
X0338236Y0101822D01*
X0338332Y0101805D01*
X0338427Y0101784D01*
X0338520Y0101760D01*
X0338613Y0101731D01*
X0338705Y0101699D01*
X0338795Y0101663D01*
X0338883Y0101624D01*
X0338970Y0101580D01*
X0339055Y0101534D01*
X0339138Y0101483D01*
X0339219Y0101430D01*
X0339297Y0101373D01*
X0339374Y0101313D01*
X0339447Y0101250D01*
X0339518Y0101184D01*
X0339586Y0101115D01*
X0339652Y0101043D01*
X0339714Y0100969D01*
X0339773Y0100892D01*
X0339829Y0100813D01*
X0339882Y0100731D01*
X0339932Y0100648D01*
X0339977Y0100562D01*
X0340020Y0100475D01*
X0340059Y0100386D01*
X0340094Y0100296D01*
X0340125Y0100204D01*
X0340152Y0100111D01*
X0340176Y0100017D01*
X0340196Y0099922D01*
X0340212Y0099826D01*
X0340224Y0099730D01*
X0340232Y0099633D01*
X0340236Y0099536D01*
X0340236Y0099440D01*
X0340232Y0099343D01*
X0340224Y0099246D01*
X0340212Y0099150D01*
X0340196Y0099054D01*
X0340176Y0098959D01*
X0340152Y0098865D01*
X0340125Y0098772D01*
X0340094Y0098680D01*
X0340059Y0098590D01*
X0340020Y0098501D01*
X0339977Y0098414D01*
X0339932Y0098328D01*
X0339882Y0098245D01*
X0339829Y0098163D01*
X0339773Y0098084D01*
X0339714Y0098007D01*
X0339652Y0097933D01*
X0339586Y0097861D01*
X0339518Y0097792D01*
X0339447Y0097726D01*
X0339374Y0097663D01*
X0339297Y0097603D01*
X0339219Y0097546D01*
X0339138Y0097493D01*
X0339055Y0097442D01*
X0338970Y0097396D01*
X0338883Y0097352D01*
X0338795Y0097313D01*
X0338705Y0097277D01*
X0338613Y0097245D01*
X0338520Y0097216D01*
X0338427Y0097192D01*
X0338332Y0097171D01*
X0338236Y0097154D01*
X0338140Y0097141D01*
X0338044Y0097132D01*
X0337947Y0097127D01*
X0337850Y0097126D01*
X0337753Y0097129D01*
X0337656Y0097136D01*
X0337560Y0097147D01*
X0337464Y0097162D01*
X0337369Y0097181D01*
X0337274Y0097203D01*
X0337181Y0097230D01*
X0337089Y0097260D01*
X0336998Y0097294D01*
X0336909Y0097332D01*
X0336821Y0097374D01*
X0336735Y0097419D01*
X0336651Y0097467D01*
X0336569Y0097519D01*
X0336490Y0097574D01*
X0336412Y0097633D01*
X0336337Y0097694D01*
X0336265Y0097759D01*
X0336195Y0097826D01*
X0336128Y0097897D01*
X0336065Y0097970D01*
X0336004Y0098045D01*
X0335946Y0098123D01*
X0335892Y0098204D01*
X0335841Y0098286D01*
X0335793Y0098371D01*
X0335749Y0098457D01*
X0335708Y0098545D01*
X0335672Y0098635D01*
X0335638Y0098726D01*
X0335609Y0098818D01*
X0335583Y0098912D01*
X0335562Y0099006D01*
X0335544Y0099102D01*
X0335530Y0099198D01*
X0335520Y0099294D01*
X0335514Y0099391D01*
X0335512Y0099488D01*
X0305984Y0119173D02*
X0305986Y0119270D01*
X0305992Y0119367D01*
X0306002Y0119463D01*
X0306016Y0119559D01*
X0306034Y0119655D01*
X0306055Y0119749D01*
X0306081Y0119843D01*
X0306110Y0119935D01*
X0306144Y0120026D01*
X0306180Y0120116D01*
X0306221Y0120204D01*
X0306265Y0120290D01*
X0306313Y0120375D01*
X0306364Y0120457D01*
X0306418Y0120538D01*
X0306476Y0120616D01*
X0306537Y0120691D01*
X0306600Y0120764D01*
X0306667Y0120835D01*
X0306737Y0120902D01*
X0306809Y0120967D01*
X0306884Y0121028D01*
X0306962Y0121087D01*
X0307041Y0121142D01*
X0307123Y0121194D01*
X0307207Y0121242D01*
X0307293Y0121287D01*
X0307381Y0121329D01*
X0307470Y0121367D01*
X0307561Y0121401D01*
X0307653Y0121431D01*
X0307746Y0121458D01*
X0307841Y0121480D01*
X0307936Y0121499D01*
X0308032Y0121514D01*
X0308128Y0121525D01*
X0308225Y0121532D01*
X0308322Y0121535D01*
X0308419Y0121534D01*
X0308516Y0121529D01*
X0308612Y0121520D01*
X0308708Y0121507D01*
X0308804Y0121490D01*
X0308899Y0121469D01*
X0308992Y0121445D01*
X0309085Y0121416D01*
X0309177Y0121384D01*
X0309267Y0121348D01*
X0309355Y0121309D01*
X0309442Y0121265D01*
X0309527Y0121219D01*
X0309610Y0121168D01*
X0309691Y0121115D01*
X0309769Y0121058D01*
X0309846Y0120998D01*
X0309919Y0120935D01*
X0309990Y0120869D01*
X0310058Y0120800D01*
X0310124Y0120728D01*
X0310186Y0120654D01*
X0310245Y0120577D01*
X0310301Y0120498D01*
X0310354Y0120416D01*
X0310404Y0120333D01*
X0310449Y0120247D01*
X0310492Y0120160D01*
X0310531Y0120071D01*
X0310566Y0119981D01*
X0310597Y0119889D01*
X0310624Y0119796D01*
X0310648Y0119702D01*
X0310668Y0119607D01*
X0310684Y0119511D01*
X0310696Y0119415D01*
X0310704Y0119318D01*
X0310708Y0119221D01*
X0310708Y0119125D01*
X0310704Y0119028D01*
X0310696Y0118931D01*
X0310684Y0118835D01*
X0310668Y0118739D01*
X0310648Y0118644D01*
X0310624Y0118550D01*
X0310597Y0118457D01*
X0310566Y0118365D01*
X0310531Y0118275D01*
X0310492Y0118186D01*
X0310449Y0118099D01*
X0310404Y0118013D01*
X0310354Y0117930D01*
X0310301Y0117848D01*
X0310245Y0117769D01*
X0310186Y0117692D01*
X0310124Y0117618D01*
X0310058Y0117546D01*
X0309990Y0117477D01*
X0309919Y0117411D01*
X0309846Y0117348D01*
X0309769Y0117288D01*
X0309691Y0117231D01*
X0309610Y0117178D01*
X0309527Y0117127D01*
X0309442Y0117081D01*
X0309355Y0117037D01*
X0309267Y0116998D01*
X0309177Y0116962D01*
X0309085Y0116930D01*
X0308992Y0116901D01*
X0308899Y0116877D01*
X0308804Y0116856D01*
X0308708Y0116839D01*
X0308612Y0116826D01*
X0308516Y0116817D01*
X0308419Y0116812D01*
X0308322Y0116811D01*
X0308225Y0116814D01*
X0308128Y0116821D01*
X0308032Y0116832D01*
X0307936Y0116847D01*
X0307841Y0116866D01*
X0307746Y0116888D01*
X0307653Y0116915D01*
X0307561Y0116945D01*
X0307470Y0116979D01*
X0307381Y0117017D01*
X0307293Y0117059D01*
X0307207Y0117104D01*
X0307123Y0117152D01*
X0307041Y0117204D01*
X0306962Y0117259D01*
X0306884Y0117318D01*
X0306809Y0117379D01*
X0306737Y0117444D01*
X0306667Y0117511D01*
X0306600Y0117582D01*
X0306537Y0117655D01*
X0306476Y0117730D01*
X0306418Y0117808D01*
X0306364Y0117889D01*
X0306313Y0117971D01*
X0306265Y0118056D01*
X0306221Y0118142D01*
X0306180Y0118230D01*
X0306144Y0118320D01*
X0306110Y0118411D01*
X0306081Y0118503D01*
X0306055Y0118597D01*
X0306034Y0118691D01*
X0306016Y0118787D01*
X0306002Y0118883D01*
X0305992Y0118979D01*
X0305986Y0119076D01*
X0305984Y0119173D01*
X0325669Y0138858D02*
X0325671Y0138955D01*
X0325677Y0139052D01*
X0325687Y0139148D01*
X0325701Y0139244D01*
X0325719Y0139340D01*
X0325740Y0139434D01*
X0325766Y0139528D01*
X0325795Y0139620D01*
X0325829Y0139711D01*
X0325865Y0139801D01*
X0325906Y0139889D01*
X0325950Y0139975D01*
X0325998Y0140060D01*
X0326049Y0140142D01*
X0326103Y0140223D01*
X0326161Y0140301D01*
X0326222Y0140376D01*
X0326285Y0140449D01*
X0326352Y0140520D01*
X0326422Y0140587D01*
X0326494Y0140652D01*
X0326569Y0140713D01*
X0326647Y0140772D01*
X0326726Y0140827D01*
X0326808Y0140879D01*
X0326892Y0140927D01*
X0326978Y0140972D01*
X0327066Y0141014D01*
X0327155Y0141052D01*
X0327246Y0141086D01*
X0327338Y0141116D01*
X0327431Y0141143D01*
X0327526Y0141165D01*
X0327621Y0141184D01*
X0327717Y0141199D01*
X0327813Y0141210D01*
X0327910Y0141217D01*
X0328007Y0141220D01*
X0328104Y0141219D01*
X0328201Y0141214D01*
X0328297Y0141205D01*
X0328393Y0141192D01*
X0328489Y0141175D01*
X0328584Y0141154D01*
X0328677Y0141130D01*
X0328770Y0141101D01*
X0328862Y0141069D01*
X0328952Y0141033D01*
X0329040Y0140994D01*
X0329127Y0140950D01*
X0329212Y0140904D01*
X0329295Y0140853D01*
X0329376Y0140800D01*
X0329454Y0140743D01*
X0329531Y0140683D01*
X0329604Y0140620D01*
X0329675Y0140554D01*
X0329743Y0140485D01*
X0329809Y0140413D01*
X0329871Y0140339D01*
X0329930Y0140262D01*
X0329986Y0140183D01*
X0330039Y0140101D01*
X0330089Y0140018D01*
X0330134Y0139932D01*
X0330177Y0139845D01*
X0330216Y0139756D01*
X0330251Y0139666D01*
X0330282Y0139574D01*
X0330309Y0139481D01*
X0330333Y0139387D01*
X0330353Y0139292D01*
X0330369Y0139196D01*
X0330381Y0139100D01*
X0330389Y0139003D01*
X0330393Y0138906D01*
X0330393Y0138810D01*
X0330389Y0138713D01*
X0330381Y0138616D01*
X0330369Y0138520D01*
X0330353Y0138424D01*
X0330333Y0138329D01*
X0330309Y0138235D01*
X0330282Y0138142D01*
X0330251Y0138050D01*
X0330216Y0137960D01*
X0330177Y0137871D01*
X0330134Y0137784D01*
X0330089Y0137698D01*
X0330039Y0137615D01*
X0329986Y0137533D01*
X0329930Y0137454D01*
X0329871Y0137377D01*
X0329809Y0137303D01*
X0329743Y0137231D01*
X0329675Y0137162D01*
X0329604Y0137096D01*
X0329531Y0137033D01*
X0329454Y0136973D01*
X0329376Y0136916D01*
X0329295Y0136863D01*
X0329212Y0136812D01*
X0329127Y0136766D01*
X0329040Y0136722D01*
X0328952Y0136683D01*
X0328862Y0136647D01*
X0328770Y0136615D01*
X0328677Y0136586D01*
X0328584Y0136562D01*
X0328489Y0136541D01*
X0328393Y0136524D01*
X0328297Y0136511D01*
X0328201Y0136502D01*
X0328104Y0136497D01*
X0328007Y0136496D01*
X0327910Y0136499D01*
X0327813Y0136506D01*
X0327717Y0136517D01*
X0327621Y0136532D01*
X0327526Y0136551D01*
X0327431Y0136573D01*
X0327338Y0136600D01*
X0327246Y0136630D01*
X0327155Y0136664D01*
X0327066Y0136702D01*
X0326978Y0136744D01*
X0326892Y0136789D01*
X0326808Y0136837D01*
X0326726Y0136889D01*
X0326647Y0136944D01*
X0326569Y0137003D01*
X0326494Y0137064D01*
X0326422Y0137129D01*
X0326352Y0137196D01*
X0326285Y0137267D01*
X0326222Y0137340D01*
X0326161Y0137415D01*
X0326103Y0137493D01*
X0326049Y0137574D01*
X0325998Y0137656D01*
X0325950Y0137741D01*
X0325906Y0137827D01*
X0325865Y0137915D01*
X0325829Y0138005D01*
X0325795Y0138096D01*
X0325766Y0138188D01*
X0325740Y0138282D01*
X0325719Y0138376D01*
X0325701Y0138472D01*
X0325687Y0138568D01*
X0325677Y0138664D01*
X0325671Y0138761D01*
X0325669Y0138858D01*
X0335512Y0138858D02*
X0335514Y0138955D01*
X0335520Y0139052D01*
X0335530Y0139148D01*
X0335544Y0139244D01*
X0335562Y0139340D01*
X0335583Y0139434D01*
X0335609Y0139528D01*
X0335638Y0139620D01*
X0335672Y0139711D01*
X0335708Y0139801D01*
X0335749Y0139889D01*
X0335793Y0139975D01*
X0335841Y0140060D01*
X0335892Y0140142D01*
X0335946Y0140223D01*
X0336004Y0140301D01*
X0336065Y0140376D01*
X0336128Y0140449D01*
X0336195Y0140520D01*
X0336265Y0140587D01*
X0336337Y0140652D01*
X0336412Y0140713D01*
X0336490Y0140772D01*
X0336569Y0140827D01*
X0336651Y0140879D01*
X0336735Y0140927D01*
X0336821Y0140972D01*
X0336909Y0141014D01*
X0336998Y0141052D01*
X0337089Y0141086D01*
X0337181Y0141116D01*
X0337274Y0141143D01*
X0337369Y0141165D01*
X0337464Y0141184D01*
X0337560Y0141199D01*
X0337656Y0141210D01*
X0337753Y0141217D01*
X0337850Y0141220D01*
X0337947Y0141219D01*
X0338044Y0141214D01*
X0338140Y0141205D01*
X0338236Y0141192D01*
X0338332Y0141175D01*
X0338427Y0141154D01*
X0338520Y0141130D01*
X0338613Y0141101D01*
X0338705Y0141069D01*
X0338795Y0141033D01*
X0338883Y0140994D01*
X0338970Y0140950D01*
X0339055Y0140904D01*
X0339138Y0140853D01*
X0339219Y0140800D01*
X0339297Y0140743D01*
X0339374Y0140683D01*
X0339447Y0140620D01*
X0339518Y0140554D01*
X0339586Y0140485D01*
X0339652Y0140413D01*
X0339714Y0140339D01*
X0339773Y0140262D01*
X0339829Y0140183D01*
X0339882Y0140101D01*
X0339932Y0140018D01*
X0339977Y0139932D01*
X0340020Y0139845D01*
X0340059Y0139756D01*
X0340094Y0139666D01*
X0340125Y0139574D01*
X0340152Y0139481D01*
X0340176Y0139387D01*
X0340196Y0139292D01*
X0340212Y0139196D01*
X0340224Y0139100D01*
X0340232Y0139003D01*
X0340236Y0138906D01*
X0340236Y0138810D01*
X0340232Y0138713D01*
X0340224Y0138616D01*
X0340212Y0138520D01*
X0340196Y0138424D01*
X0340176Y0138329D01*
X0340152Y0138235D01*
X0340125Y0138142D01*
X0340094Y0138050D01*
X0340059Y0137960D01*
X0340020Y0137871D01*
X0339977Y0137784D01*
X0339932Y0137698D01*
X0339882Y0137615D01*
X0339829Y0137533D01*
X0339773Y0137454D01*
X0339714Y0137377D01*
X0339652Y0137303D01*
X0339586Y0137231D01*
X0339518Y0137162D01*
X0339447Y0137096D01*
X0339374Y0137033D01*
X0339297Y0136973D01*
X0339219Y0136916D01*
X0339138Y0136863D01*
X0339055Y0136812D01*
X0338970Y0136766D01*
X0338883Y0136722D01*
X0338795Y0136683D01*
X0338705Y0136647D01*
X0338613Y0136615D01*
X0338520Y0136586D01*
X0338427Y0136562D01*
X0338332Y0136541D01*
X0338236Y0136524D01*
X0338140Y0136511D01*
X0338044Y0136502D01*
X0337947Y0136497D01*
X0337850Y0136496D01*
X0337753Y0136499D01*
X0337656Y0136506D01*
X0337560Y0136517D01*
X0337464Y0136532D01*
X0337369Y0136551D01*
X0337274Y0136573D01*
X0337181Y0136600D01*
X0337089Y0136630D01*
X0336998Y0136664D01*
X0336909Y0136702D01*
X0336821Y0136744D01*
X0336735Y0136789D01*
X0336651Y0136837D01*
X0336569Y0136889D01*
X0336490Y0136944D01*
X0336412Y0137003D01*
X0336337Y0137064D01*
X0336265Y0137129D01*
X0336195Y0137196D01*
X0336128Y0137267D01*
X0336065Y0137340D01*
X0336004Y0137415D01*
X0335946Y0137493D01*
X0335892Y0137574D01*
X0335841Y0137656D01*
X0335793Y0137741D01*
X0335749Y0137827D01*
X0335708Y0137915D01*
X0335672Y0138005D01*
X0335638Y0138096D01*
X0335609Y0138188D01*
X0335583Y0138282D01*
X0335562Y0138376D01*
X0335544Y0138472D01*
X0335530Y0138568D01*
X0335520Y0138664D01*
X0335514Y0138761D01*
X0335512Y0138858D01*
D12*
X0341811Y0142795D02*
X0294567Y0142795D01*
X0294567Y0095551D01*
X0341811Y0095551D01*
X0307500Y0027500D02*
X0307500Y0007500D01*
X0077500Y0007500D01*
X0077500Y0027500D01*
X0307500Y0027500D01*
X0227500Y0030000D02*
X0227500Y0040000D01*
X0167500Y0040000D01*
X0167500Y0030000D01*
X0227500Y0030000D01*
X0307500Y0197500D02*
X0077500Y0197500D01*
X0077500Y0217500D01*
X0307500Y0217500D01*
X0307500Y0197500D01*
D13*
X0310200Y0205200D02*
X0310200Y0209804D01*
X0312502Y0209804D01*
X0313269Y0209037D01*
X0313269Y0207502D01*
X0312502Y0206735D01*
X0310200Y0206735D01*
X0314804Y0206735D02*
X0315571Y0207502D01*
X0317106Y0207502D01*
X0317873Y0206735D01*
X0317873Y0205967D01*
X0317106Y0205200D01*
X0315571Y0205200D01*
X0314804Y0205967D01*
X0314804Y0206735D01*
X0315571Y0207502D02*
X0314804Y0208269D01*
X0314804Y0209037D01*
X0315571Y0209804D01*
X0317106Y0209804D01*
X0317873Y0209037D01*
X0317873Y0208269D01*
X0317106Y0207502D01*
X0075769Y0210200D02*
X0072700Y0210200D01*
X0075769Y0213269D01*
X0075769Y0214037D01*
X0075002Y0214804D01*
X0073467Y0214804D01*
X0072700Y0214037D01*
X0074235Y0204804D02*
X0074235Y0200200D01*
X0075769Y0200200D02*
X0072700Y0200200D01*
X0072700Y0203269D02*
X0074235Y0204804D01*
X0174235Y0047304D02*
X0175769Y0047304D01*
X0175002Y0047304D02*
X0175002Y0043467D01*
X0174235Y0042700D01*
X0173467Y0042700D01*
X0172700Y0043467D01*
X0177304Y0042700D02*
X0180373Y0042700D01*
X0178839Y0042700D02*
X0178839Y0047304D01*
X0177304Y0045769D01*
X0075769Y0024037D02*
X0075002Y0024804D01*
X0073467Y0024804D01*
X0072700Y0024037D01*
X0075769Y0024037D02*
X0075769Y0023269D01*
X0072700Y0020200D01*
X0075769Y0020200D01*
X0074235Y0014804D02*
X0072700Y0013269D01*
X0074235Y0014804D02*
X0074235Y0010200D01*
X0075769Y0010200D02*
X0072700Y0010200D01*
X0310200Y0015200D02*
X0310200Y0019804D01*
X0312502Y0019804D01*
X0313269Y0019037D01*
X0313269Y0017502D01*
X0312502Y0016735D01*
X0310200Y0016735D01*
X0314804Y0015967D02*
X0315571Y0015200D01*
X0317106Y0015200D01*
X0317873Y0015967D01*
X0317873Y0019037D01*
X0317106Y0019804D01*
X0315571Y0019804D01*
X0314804Y0019037D01*
X0314804Y0018269D01*
X0315571Y0017502D01*
X0317873Y0017502D01*
D14*
X0044000Y0188500D03*
X0046100Y0193700D03*
X0017700Y0190100D03*
X0025400Y0171000D03*
X0034100Y0168600D03*
X0017200Y0168600D03*
X0017200Y0168700D03*
X0017200Y0168800D03*
X0017200Y0168900D03*
X0017200Y0169000D03*
X0017200Y0169100D03*
X0017200Y0169200D03*
X0017200Y0169300D03*
X0017200Y0168500D03*
X0017200Y0168400D03*
X0017200Y0168300D03*
X0017200Y0168200D03*
X0017200Y0168100D03*
X0017200Y0168000D03*
X0017200Y0167900D03*
X0017200Y0167800D03*
D15*
X0015200Y0169400D03*
X0015200Y0169500D03*
X0015200Y0169600D03*
X0015200Y0169700D03*
X0015200Y0169800D03*
X0015200Y0169900D03*
X0015200Y0170000D03*
X0015200Y0170100D03*
X0015200Y0170200D03*
X0015200Y0170300D03*
X0015200Y0170400D03*
X0015200Y0170500D03*
X0015200Y0170600D03*
X0015200Y0170700D03*
X0015200Y0170800D03*
X0015200Y0170900D03*
X0015200Y0171000D03*
X0015200Y0171100D03*
X0015200Y0171200D03*
X0015200Y0171300D03*
X0015200Y0171400D03*
X0015200Y0173200D03*
X0015200Y0173300D03*
X0015200Y0173400D03*
X0015200Y0173500D03*
X0015200Y0173600D03*
X0015200Y0173700D03*
X0015200Y0173800D03*
X0015200Y0173900D03*
X0015200Y0174000D03*
X0015200Y0174100D03*
X0015200Y0174200D03*
X0015200Y0174300D03*
X0015200Y0174400D03*
X0015200Y0174500D03*
X0015200Y0174600D03*
X0015200Y0174700D03*
X0015200Y0174800D03*
X0015200Y0174900D03*
X0015200Y0175000D03*
X0023500Y0171300D03*
X0022900Y0169700D03*
X0022900Y0169600D03*
X0022800Y0169500D03*
X0022800Y0169400D03*
X0022800Y0169300D03*
X0022700Y0169200D03*
X0022700Y0169100D03*
X0022600Y0168900D03*
X0022600Y0168800D03*
X0022500Y0168700D03*
X0022500Y0168600D03*
X0022400Y0168400D03*
X0022400Y0168300D03*
X0022300Y0168100D03*
X0022200Y0167900D03*
X0022200Y0167800D03*
X0027300Y0171300D03*
X0027300Y0171400D03*
X0027200Y0171600D03*
X0027200Y0171700D03*
X0027100Y0171900D03*
X0027100Y0172000D03*
X0027400Y0171200D03*
X0025400Y0176100D03*
X0039200Y0176100D03*
X0039200Y0176200D03*
X0039200Y0176300D03*
X0039200Y0176400D03*
X0039200Y0176500D03*
X0039200Y0176600D03*
X0039200Y0176000D03*
X0039200Y0175900D03*
X0039200Y0175800D03*
X0039200Y0175700D03*
X0039200Y0175600D03*
X0039200Y0175500D03*
X0039200Y0175400D03*
X0039200Y0175300D03*
X0039200Y0175200D03*
X0039200Y0175100D03*
X0039200Y0175000D03*
X0039200Y0174900D03*
X0039200Y0174800D03*
X0039200Y0174700D03*
X0039200Y0174600D03*
X0039200Y0174500D03*
X0039200Y0174400D03*
X0039200Y0174300D03*
X0039200Y0174200D03*
X0039200Y0174100D03*
X0039200Y0174000D03*
X0039200Y0173900D03*
X0039200Y0173800D03*
X0039200Y0173700D03*
X0039200Y0173600D03*
X0039200Y0173500D03*
X0039200Y0173400D03*
X0039200Y0173300D03*
X0039200Y0173200D03*
X0039200Y0173100D03*
X0039200Y0173000D03*
X0039200Y0172900D03*
X0039200Y0172800D03*
X0039200Y0172700D03*
X0039200Y0172600D03*
X0039200Y0172500D03*
X0039200Y0172400D03*
X0039200Y0172300D03*
X0039200Y0172200D03*
X0039200Y0172100D03*
X0039200Y0172000D03*
X0039200Y0171900D03*
X0039200Y0171800D03*
X0039200Y0171700D03*
X0039200Y0171600D03*
X0039200Y0171500D03*
X0039200Y0171400D03*
X0039200Y0171300D03*
X0039200Y0171200D03*
X0039200Y0171100D03*
X0039200Y0171000D03*
X0039200Y0170900D03*
X0039200Y0170800D03*
X0039200Y0170700D03*
X0039200Y0170600D03*
X0039200Y0170500D03*
X0039200Y0170400D03*
X0039200Y0170300D03*
X0039200Y0170200D03*
X0039200Y0170100D03*
X0039200Y0170000D03*
X0039200Y0169900D03*
X0039200Y0169800D03*
X0039200Y0169700D03*
X0039200Y0169600D03*
X0039200Y0169500D03*
X0039200Y0169400D03*
X0046400Y0169400D03*
X0046400Y0169500D03*
X0046400Y0169600D03*
X0046400Y0169700D03*
X0046400Y0169800D03*
X0046400Y0169900D03*
X0046400Y0170000D03*
X0046400Y0170100D03*
X0046400Y0170200D03*
X0046400Y0170300D03*
X0046400Y0170400D03*
X0046400Y0170500D03*
X0046400Y0170600D03*
X0046400Y0170700D03*
X0046400Y0170800D03*
X0046400Y0170900D03*
X0046400Y0171000D03*
X0046400Y0171100D03*
X0046400Y0171200D03*
X0046400Y0171300D03*
X0046400Y0171400D03*
X0046400Y0171500D03*
X0046400Y0173100D03*
X0046400Y0173200D03*
X0046400Y0173300D03*
X0046400Y0173400D03*
X0046400Y0173500D03*
X0046400Y0173600D03*
X0046400Y0173700D03*
X0046400Y0173800D03*
X0046400Y0173900D03*
X0046400Y0174000D03*
X0046400Y0174100D03*
X0046400Y0174200D03*
X0046400Y0174300D03*
X0046400Y0174400D03*
X0046400Y0174500D03*
X0046400Y0174600D03*
X0046400Y0174700D03*
X0046400Y0174800D03*
X0046400Y0174900D03*
X0046400Y0175000D03*
X0046400Y0175100D03*
X0023800Y0187600D03*
X0037100Y0208500D03*
X0037200Y0208600D03*
X0037300Y0208700D03*
X0037400Y0208800D03*
X0037500Y0208900D03*
X0037600Y0209000D03*
X0038200Y0209700D03*
D16*
X0048950Y0191400D03*
X0025450Y0176000D03*
X0030750Y0173600D03*
X0030750Y0173500D03*
X0030750Y0173400D03*
X0030650Y0173100D03*
X0030650Y0173000D03*
X0030650Y0172900D03*
X0030650Y0172800D03*
X0030650Y0172700D03*
X0030650Y0172600D03*
X0030650Y0172500D03*
X0030650Y0172400D03*
X0030650Y0172300D03*
X0030650Y0172200D03*
X0030650Y0172100D03*
X0030650Y0172000D03*
X0030650Y0171900D03*
X0030650Y0171800D03*
X0030650Y0171700D03*
X0030650Y0171600D03*
X0030750Y0171200D03*
X0030750Y0171100D03*
X0027950Y0169600D03*
X0027950Y0169500D03*
X0028050Y0169300D03*
X0028050Y0169200D03*
X0028150Y0169100D03*
X0028150Y0169000D03*
X0028250Y0168800D03*
X0028250Y0168700D03*
X0028350Y0168500D03*
X0028450Y0168300D03*
X0028450Y0168200D03*
X0028550Y0168000D03*
X0028650Y0167800D03*
X0022650Y0169000D03*
X0022450Y0168500D03*
X0022350Y0168200D03*
X0022250Y0168000D03*
X0015250Y0171500D03*
X0015250Y0173100D03*
X0015250Y0175100D03*
X0036050Y0169400D03*
D17*
X0034000Y0167800D03*
X0028600Y0167900D03*
X0028500Y0168100D03*
X0028400Y0168400D03*
X0028300Y0168600D03*
X0028200Y0168900D03*
X0028000Y0169400D03*
X0027900Y0169700D03*
X0030800Y0170800D03*
X0030800Y0170900D03*
X0030800Y0171000D03*
X0030700Y0171300D03*
X0030700Y0171400D03*
X0030700Y0171500D03*
X0030900Y0170700D03*
X0030900Y0170600D03*
X0030700Y0173200D03*
X0030700Y0173300D03*
X0030800Y0173700D03*
X0030800Y0173800D03*
X0030900Y0173900D03*
X0030900Y0174000D03*
X0030900Y0174100D03*
X0031000Y0174300D03*
X0025400Y0175900D03*
X0027000Y0180900D03*
X0034300Y0176900D03*
X0041500Y0183700D03*
X0037700Y0209100D03*
X0037800Y0209200D03*
X0037900Y0209300D03*
X0038000Y0209400D03*
X0038100Y0209500D03*
X0038200Y0209600D03*
D18*
X0030650Y0211500D03*
X0037650Y0193700D03*
X0047750Y0186600D03*
X0047750Y0182800D03*
X0041350Y0169300D03*
X0041350Y0169200D03*
X0041350Y0169100D03*
X0041350Y0169000D03*
X0041350Y0168900D03*
X0041350Y0168800D03*
X0041350Y0168700D03*
X0041350Y0168600D03*
X0041350Y0168500D03*
X0041350Y0168400D03*
X0041350Y0168300D03*
X0041350Y0168200D03*
X0041350Y0168100D03*
X0041350Y0168000D03*
X0041350Y0167900D03*
X0041350Y0167800D03*
X0033950Y0168800D03*
X0025450Y0170600D03*
X0025450Y0170700D03*
X0024250Y0182900D03*
X0017750Y0190200D03*
D19*
X0017650Y0190000D03*
X0024450Y0182700D03*
X0024750Y0182500D03*
X0017150Y0176600D03*
X0017150Y0176500D03*
X0017150Y0176400D03*
X0017150Y0176300D03*
X0017150Y0176200D03*
X0017150Y0176100D03*
X0017150Y0176000D03*
X0017150Y0175900D03*
X0017150Y0175800D03*
X0017150Y0175700D03*
X0017150Y0175600D03*
X0017150Y0175500D03*
X0017150Y0175400D03*
X0017150Y0175300D03*
X0017150Y0175200D03*
X0025450Y0171100D03*
X0048350Y0169300D03*
X0048350Y0169200D03*
X0048350Y0169100D03*
X0048350Y0169000D03*
X0048350Y0168900D03*
X0048350Y0168800D03*
X0048350Y0168700D03*
X0048350Y0168600D03*
X0048350Y0168500D03*
X0048350Y0168400D03*
X0048350Y0168300D03*
X0048350Y0168200D03*
X0048350Y0168100D03*
X0048350Y0168000D03*
X0048350Y0167900D03*
X0048350Y0167800D03*
X0047950Y0186500D03*
D20*
X0049850Y0185100D03*
X0049850Y0185000D03*
X0049850Y0184900D03*
X0049850Y0184100D03*
X0049850Y0184000D03*
X0049750Y0183900D03*
X0042150Y0189900D03*
X0042150Y0190000D03*
X0042150Y0190900D03*
X0042150Y0191000D03*
X0042250Y0191100D03*
X0042250Y0191200D03*
X0048850Y0191700D03*
X0031950Y0189300D03*
X0031850Y0189000D03*
X0031850Y0188900D03*
X0031850Y0188800D03*
X0031750Y0188700D03*
X0031750Y0188600D03*
X0031750Y0188500D03*
X0031750Y0188400D03*
X0031650Y0187900D03*
X0031650Y0187800D03*
X0031650Y0186800D03*
X0031650Y0186700D03*
X0031750Y0186200D03*
X0031750Y0186100D03*
X0031750Y0186000D03*
X0031750Y0185900D03*
X0031850Y0185800D03*
X0031850Y0185700D03*
X0031950Y0185400D03*
X0031950Y0175300D03*
X0025450Y0174800D03*
X0025450Y0174700D03*
X0031850Y0169400D03*
X0034050Y0167900D03*
X0018750Y0186200D03*
X0018650Y0186300D03*
X0018550Y0186400D03*
X0018450Y0186500D03*
X0018350Y0186600D03*
X0018250Y0186700D03*
X0017950Y0187100D03*
X0017750Y0187400D03*
X0017650Y0187600D03*
D21*
X0017350Y0188600D03*
X0017350Y0188700D03*
X0026250Y0181400D03*
X0033150Y0183600D03*
X0033150Y0191200D03*
X0033250Y0191300D03*
X0045550Y0180700D03*
X0049250Y0185900D03*
X0034050Y0168000D03*
D22*
X0034050Y0168100D03*
X0048850Y0183000D03*
X0043150Y0191900D03*
X0046050Y0194000D03*
X0017350Y0189000D03*
D23*
X0017400Y0189400D03*
X0023400Y0186800D03*
X0034000Y0183000D03*
X0041400Y0183000D03*
X0048600Y0182900D03*
X0034300Y0176500D03*
X0034100Y0168200D03*
D24*
X0034100Y0168300D03*
X0034000Y0176200D03*
X0034300Y0182900D03*
X0025600Y0181900D03*
X0025200Y0182100D03*
X0023500Y0186500D03*
D25*
X0023650Y0186100D03*
X0023750Y0186000D03*
X0017550Y0189800D03*
X0024950Y0182300D03*
X0033750Y0175900D03*
X0034050Y0168400D03*
X0048150Y0171600D03*
X0048150Y0171700D03*
X0048150Y0171800D03*
X0048150Y0171900D03*
X0048150Y0172000D03*
X0048150Y0172100D03*
X0048150Y0172200D03*
X0048150Y0172300D03*
X0048150Y0172400D03*
X0048150Y0172500D03*
X0048150Y0172600D03*
X0048150Y0172700D03*
X0048150Y0172800D03*
X0048150Y0172900D03*
X0048150Y0173000D03*
X0045550Y0180900D03*
X0048250Y0186400D03*
X0016950Y0173000D03*
X0016950Y0172900D03*
X0016950Y0172800D03*
X0016950Y0172700D03*
X0016950Y0172600D03*
X0016950Y0172500D03*
X0016950Y0172400D03*
X0016950Y0172300D03*
X0016950Y0172200D03*
X0016950Y0172100D03*
X0016950Y0172000D03*
X0016950Y0171900D03*
X0016950Y0171800D03*
X0016950Y0171700D03*
X0016950Y0171600D03*
D26*
X0033500Y0175500D03*
X0034100Y0168500D03*
X0048300Y0175200D03*
X0048300Y0175300D03*
X0048300Y0175400D03*
X0048300Y0175500D03*
X0048300Y0175600D03*
X0048300Y0175700D03*
X0048300Y0175800D03*
X0048300Y0175900D03*
X0048300Y0176000D03*
X0048300Y0176100D03*
X0048300Y0176200D03*
X0048300Y0176300D03*
X0048300Y0176400D03*
X0048300Y0176500D03*
X0048300Y0176600D03*
D27*
X0045500Y0181000D03*
X0037700Y0181000D03*
X0025400Y0170800D03*
X0034000Y0168700D03*
D28*
X0033900Y0168900D03*
X0025400Y0170500D03*
X0024200Y0183000D03*
X0017800Y0190300D03*
X0044300Y0188400D03*
X0047700Y0182700D03*
X0047600Y0182600D03*
X0047500Y0182500D03*
D29*
X0047450Y0182400D03*
X0047350Y0182300D03*
X0047250Y0182200D03*
X0047150Y0182100D03*
X0046350Y0181500D03*
X0046050Y0181300D03*
X0045850Y0181200D03*
X0045650Y0181100D03*
X0033850Y0169100D03*
X0033850Y0169000D03*
X0025450Y0170400D03*
X0046050Y0193600D03*
D30*
X0047000Y0182000D03*
X0046900Y0181900D03*
X0046800Y0181800D03*
X0046600Y0181700D03*
X0046500Y0181600D03*
X0046200Y0181400D03*
X0033800Y0169200D03*
X0025400Y0170300D03*
X0024100Y0183100D03*
D31*
X0017450Y0188100D03*
X0017450Y0188200D03*
X0032550Y0190500D03*
X0032650Y0190600D03*
X0032450Y0184400D03*
X0032550Y0184300D03*
X0032550Y0184200D03*
X0032650Y0184100D03*
X0042350Y0189500D03*
X0042450Y0189400D03*
X0046050Y0194100D03*
X0049550Y0185600D03*
X0049550Y0183500D03*
X0049450Y0183400D03*
X0032150Y0169300D03*
D32*
X0031500Y0169700D03*
X0031400Y0169800D03*
X0035800Y0169300D03*
X0031500Y0175000D03*
X0025400Y0175400D03*
X0026800Y0181000D03*
D33*
X0025400Y0175100D03*
X0031800Y0175200D03*
X0031700Y0169500D03*
X0048900Y0191600D03*
D34*
X0048950Y0191300D03*
X0025450Y0176300D03*
X0025450Y0176200D03*
X0026750Y0173000D03*
X0026750Y0172900D03*
X0026850Y0172700D03*
X0026850Y0172600D03*
X0026950Y0172500D03*
X0026950Y0172400D03*
X0026950Y0172300D03*
X0027050Y0172200D03*
X0027050Y0172100D03*
X0027150Y0171800D03*
X0027250Y0171500D03*
X0023950Y0172600D03*
X0023850Y0172300D03*
X0023750Y0172000D03*
X0023650Y0171800D03*
X0023650Y0171700D03*
X0023650Y0171600D03*
X0023550Y0171500D03*
X0023550Y0171400D03*
X0023450Y0171200D03*
X0036150Y0169500D03*
X0036950Y0208400D03*
D35*
X0031650Y0175100D03*
X0025450Y0175200D03*
X0025450Y0175300D03*
X0031550Y0169600D03*
D36*
X0036250Y0169600D03*
X0036250Y0169700D03*
X0036250Y0169800D03*
X0036250Y0169900D03*
X0036250Y0170000D03*
X0036250Y0170100D03*
X0036250Y0170200D03*
X0036250Y0170300D03*
X0036250Y0170400D03*
X0036250Y0170500D03*
X0036250Y0170600D03*
X0036250Y0170700D03*
X0036250Y0170800D03*
X0036250Y0170900D03*
X0036250Y0171000D03*
X0036250Y0171100D03*
X0036250Y0171200D03*
X0036250Y0171300D03*
X0026450Y0173800D03*
X0026350Y0174100D03*
X0026350Y0174200D03*
X0026250Y0174400D03*
X0026250Y0174500D03*
X0024550Y0174300D03*
X0024450Y0174100D03*
X0024450Y0174000D03*
X0024350Y0173800D03*
X0024350Y0173700D03*
X0024250Y0173600D03*
X0024250Y0173500D03*
X0024250Y0173400D03*
X0024150Y0173200D03*
X0024050Y0172900D03*
X0025450Y0176500D03*
X0025450Y0176600D03*
X0036250Y0207700D03*
X0036350Y0207800D03*
X0036450Y0207900D03*
X0038150Y0209800D03*
D37*
X0037650Y0193600D03*
X0047250Y0186800D03*
X0023950Y0183300D03*
X0017850Y0190600D03*
X0017850Y0190700D03*
X0017850Y0190800D03*
X0025450Y0169900D03*
X0025450Y0169800D03*
D38*
X0031100Y0170200D03*
X0031200Y0170100D03*
X0031200Y0170000D03*
X0031300Y0169900D03*
X0031200Y0174600D03*
X0031300Y0174700D03*
X0025400Y0175600D03*
X0023700Y0187500D03*
X0048900Y0191500D03*
D39*
X0046100Y0193500D03*
X0024000Y0183200D03*
X0017900Y0190500D03*
X0025400Y0170000D03*
D40*
X0025450Y0170100D03*
X0025450Y0170200D03*
X0037650Y0181100D03*
X0047450Y0186700D03*
X0044550Y0188300D03*
X0017850Y0190400D03*
D41*
X0025450Y0175800D03*
X0025450Y0175700D03*
X0030950Y0174200D03*
X0031050Y0174400D03*
X0031150Y0174500D03*
X0030950Y0170500D03*
X0030950Y0170400D03*
X0031050Y0170300D03*
X0046050Y0194200D03*
D42*
X0024650Y0182600D03*
X0024350Y0182800D03*
X0025450Y0170900D03*
D43*
X0035200Y0171400D03*
X0035200Y0171500D03*
X0035200Y0171600D03*
X0035200Y0171700D03*
X0035200Y0171800D03*
X0035200Y0171900D03*
X0035200Y0172000D03*
X0035200Y0172100D03*
X0035200Y0172200D03*
X0035200Y0172300D03*
X0035200Y0172400D03*
X0035200Y0172500D03*
X0049200Y0183200D03*
X0049400Y0185800D03*
X0042600Y0189200D03*
X0033000Y0183700D03*
X0032900Y0183800D03*
X0017400Y0188500D03*
D44*
X0027200Y0180800D03*
X0025400Y0176400D03*
X0026300Y0174300D03*
X0026400Y0174000D03*
X0026400Y0173900D03*
X0026500Y0173700D03*
X0026500Y0173600D03*
X0026600Y0173500D03*
X0026600Y0173400D03*
X0026600Y0173300D03*
X0026700Y0173200D03*
X0026700Y0173100D03*
X0026800Y0172800D03*
X0024200Y0173300D03*
X0024100Y0173100D03*
X0024100Y0173000D03*
X0024000Y0172800D03*
X0024000Y0172700D03*
X0023900Y0172500D03*
X0023900Y0172400D03*
X0023800Y0172200D03*
X0023800Y0172100D03*
X0023700Y0171900D03*
X0041500Y0183800D03*
X0036600Y0208000D03*
X0036700Y0208100D03*
X0036800Y0208200D03*
X0036900Y0208300D03*
D45*
X0036200Y0207600D03*
X0036100Y0207500D03*
X0036000Y0207400D03*
X0024600Y0174500D03*
X0024600Y0174400D03*
X0024500Y0174200D03*
X0024400Y0173900D03*
D46*
X0025400Y0174600D03*
X0026500Y0181200D03*
X0032100Y0185000D03*
X0032000Y0185200D03*
X0032000Y0185300D03*
X0031900Y0185500D03*
X0031900Y0185600D03*
X0031900Y0189100D03*
X0031900Y0189200D03*
X0032000Y0189400D03*
X0032000Y0189500D03*
X0032100Y0189600D03*
X0032100Y0189700D03*
X0032200Y0189900D03*
X0037600Y0194100D03*
X0042300Y0191300D03*
X0042200Y0189800D03*
X0049800Y0185200D03*
X0049700Y0183800D03*
X0049700Y0183700D03*
X0019000Y0185900D03*
X0018900Y0186000D03*
X0018800Y0186100D03*
X0017700Y0187500D03*
X0017600Y0187700D03*
D47*
X0025450Y0175500D03*
X0031350Y0174800D03*
X0031450Y0174900D03*
X0041550Y0183600D03*
X0045550Y0180600D03*
D48*
X0049900Y0184200D03*
X0049900Y0184300D03*
X0049900Y0184400D03*
X0049900Y0184500D03*
X0049900Y0184600D03*
X0049900Y0184700D03*
X0049900Y0184800D03*
X0042100Y0190100D03*
X0042100Y0190200D03*
X0042100Y0190300D03*
X0042100Y0190400D03*
X0042100Y0190500D03*
X0042100Y0190600D03*
X0042100Y0190700D03*
X0042100Y0190800D03*
X0031700Y0188300D03*
X0031700Y0188200D03*
X0031700Y0188100D03*
X0031700Y0188000D03*
X0031600Y0187700D03*
X0031600Y0187600D03*
X0031600Y0187500D03*
X0031600Y0187400D03*
X0031600Y0187300D03*
X0031600Y0187200D03*
X0031600Y0187100D03*
X0031600Y0187000D03*
X0031600Y0186900D03*
X0031700Y0186600D03*
X0031700Y0186500D03*
X0031700Y0186400D03*
X0031700Y0186300D03*
X0018200Y0186800D03*
X0018100Y0186900D03*
X0018000Y0187000D03*
X0017900Y0187200D03*
X0017800Y0187300D03*
X0025400Y0174900D03*
D49*
X0025450Y0175000D03*
X0026650Y0181100D03*
X0023650Y0187400D03*
X0037650Y0180600D03*
X0041550Y0183500D03*
X0030650Y0211700D03*
D50*
X0038650Y0206600D03*
X0038750Y0206700D03*
X0048850Y0190700D03*
X0028050Y0182400D03*
X0027550Y0182700D03*
X0036150Y0175200D03*
D51*
X0036000Y0175300D03*
X0041300Y0184100D03*
X0048900Y0190900D03*
X0033600Y0205100D03*
X0033500Y0205000D03*
X0033400Y0204900D03*
X0033300Y0204800D03*
X0037900Y0210100D03*
D52*
X0042600Y0191600D03*
X0042500Y0189300D03*
X0048800Y0191800D03*
X0049400Y0183300D03*
X0032700Y0184000D03*
X0026400Y0181300D03*
X0023500Y0187200D03*
X0017400Y0188300D03*
X0032700Y0190700D03*
X0032800Y0190800D03*
X0032900Y0190900D03*
X0032300Y0175400D03*
D53*
X0035650Y0175400D03*
X0025450Y0176700D03*
X0023850Y0187700D03*
X0039250Y0191800D03*
X0048950Y0191200D03*
X0035450Y0206900D03*
X0035550Y0207000D03*
X0035650Y0207100D03*
X0035750Y0207200D03*
X0035850Y0207300D03*
X0038050Y0209900D03*
D54*
X0037650Y0193800D03*
X0023750Y0185900D03*
X0023750Y0185800D03*
X0017550Y0189900D03*
X0024850Y0182400D03*
X0033550Y0175600D03*
X0033650Y0175700D03*
X0037650Y0180900D03*
D55*
X0033700Y0175800D03*
X0046100Y0193800D03*
D56*
X0043700Y0188600D03*
X0025100Y0182200D03*
X0023600Y0186200D03*
X0023600Y0186300D03*
X0017500Y0189700D03*
X0033800Y0176000D03*
X0033900Y0176100D03*
D57*
X0034050Y0176300D03*
X0041150Y0182900D03*
X0037650Y0193900D03*
X0017450Y0189600D03*
D58*
X0023450Y0186700D03*
X0025750Y0181800D03*
X0034150Y0176400D03*
X0037650Y0180800D03*
X0045550Y0180800D03*
X0034150Y0191800D03*
X0030650Y0211600D03*
D59*
X0033900Y0191700D03*
X0043200Y0188800D03*
X0041600Y0183100D03*
X0033800Y0183100D03*
X0034400Y0176600D03*
D60*
X0034450Y0176700D03*
X0037650Y0180700D03*
X0033350Y0183400D03*
X0041650Y0183200D03*
X0042850Y0189000D03*
X0033550Y0191500D03*
X0023450Y0187100D03*
X0017350Y0188800D03*
X0017350Y0188900D03*
D61*
X0017550Y0187900D03*
X0017550Y0187800D03*
X0019150Y0185800D03*
X0023550Y0187300D03*
X0032050Y0185100D03*
X0032150Y0184900D03*
X0032250Y0184800D03*
X0032250Y0184700D03*
X0032150Y0189800D03*
X0032250Y0190000D03*
X0032350Y0190100D03*
X0032350Y0190200D03*
X0042250Y0189700D03*
X0042350Y0191400D03*
X0049650Y0185400D03*
X0049750Y0185300D03*
X0049650Y0183600D03*
X0041650Y0183400D03*
X0034350Y0176800D03*
D62*
X0027650Y0180600D03*
X0039550Y0191600D03*
X0033250Y0204700D03*
X0039650Y0207400D03*
X0039750Y0207500D03*
X0040650Y0208600D03*
D63*
X0040700Y0208300D03*
X0040600Y0208200D03*
X0034700Y0206200D03*
X0037600Y0194200D03*
X0027400Y0180700D03*
D64*
X0023850Y0183400D03*
X0017750Y0191100D03*
X0017750Y0191200D03*
X0037650Y0181200D03*
X0044750Y0188200D03*
D65*
X0045300Y0187900D03*
X0037400Y0193300D03*
X0037200Y0193200D03*
X0037100Y0193100D03*
X0023600Y0183800D03*
X0037600Y0181300D03*
D66*
X0037600Y0181400D03*
X0023300Y0184200D03*
X0018000Y0192000D03*
X0036300Y0192400D03*
X0036400Y0192500D03*
X0036500Y0192600D03*
D67*
X0037600Y0194000D03*
X0048600Y0191900D03*
X0049100Y0186000D03*
X0033500Y0183300D03*
X0026100Y0181500D03*
D68*
X0023150Y0184400D03*
X0018050Y0192200D03*
X0037650Y0181500D03*
X0046050Y0193000D03*
D69*
X0025950Y0181600D03*
X0023350Y0187000D03*
X0017350Y0189100D03*
X0017350Y0189200D03*
D70*
X0018150Y0192400D03*
X0022750Y0184900D03*
X0022850Y0184800D03*
X0037650Y0181600D03*
D71*
X0025850Y0181700D03*
X0023350Y0186900D03*
X0017350Y0189300D03*
X0048750Y0186200D03*
D72*
X0046100Y0192700D03*
X0037600Y0181700D03*
X0022400Y0185400D03*
X0022300Y0185500D03*
X0018300Y0192600D03*
D73*
X0018450Y0192800D03*
X0037650Y0181800D03*
X0046050Y0192500D03*
X0030650Y0211200D03*
D74*
X0018500Y0192900D03*
X0037600Y0181900D03*
D75*
X0043400Y0188700D03*
X0048500Y0186300D03*
X0046100Y0193900D03*
X0025300Y0182000D03*
X0023500Y0186600D03*
X0017400Y0189500D03*
D76*
X0028000Y0182300D03*
X0028000Y0182200D03*
X0028000Y0182100D03*
X0028000Y0182000D03*
X0039700Y0191500D03*
X0044900Y0182900D03*
X0033200Y0204600D03*
X0038900Y0206800D03*
X0039000Y0206900D03*
D77*
X0046050Y0192100D03*
X0045950Y0192000D03*
X0037650Y0182000D03*
D78*
X0037600Y0182100D03*
D79*
X0037650Y0182200D03*
D80*
X0037650Y0182300D03*
X0030650Y0211000D03*
D81*
X0019050Y0193400D03*
X0037650Y0182400D03*
D82*
X0028000Y0182500D03*
X0028000Y0182600D03*
X0028000Y0182700D03*
X0028000Y0182800D03*
X0027600Y0182800D03*
X0027600Y0182900D03*
X0033200Y0204500D03*
X0038500Y0206500D03*
X0040600Y0208800D03*
X0037800Y0210300D03*
D83*
X0037650Y0182500D03*
D84*
X0037700Y0182600D03*
X0030700Y0210900D03*
D85*
X0019400Y0193600D03*
X0037700Y0182700D03*
D86*
X0037700Y0182800D03*
D87*
X0033200Y0183500D03*
X0033400Y0191400D03*
X0042900Y0191800D03*
X0042700Y0189100D03*
X0049100Y0183100D03*
D88*
X0048900Y0186100D03*
X0043000Y0188900D03*
X0033700Y0191600D03*
X0033600Y0183200D03*
D89*
X0032850Y0183900D03*
X0032950Y0191000D03*
X0033050Y0191100D03*
X0042750Y0191700D03*
X0049450Y0185700D03*
X0041650Y0183300D03*
X0017350Y0188400D03*
D90*
X0017800Y0191300D03*
X0023800Y0183500D03*
X0047000Y0186900D03*
X0046100Y0193400D03*
D91*
X0044950Y0188100D03*
X0037650Y0193500D03*
X0023750Y0183600D03*
D92*
X0023650Y0183700D03*
X0017850Y0191600D03*
X0037550Y0193400D03*
X0046050Y0193300D03*
X0045150Y0188000D03*
X0046650Y0187100D03*
X0030650Y0211400D03*
D93*
X0036950Y0193000D03*
X0045450Y0187800D03*
X0045650Y0187700D03*
X0046450Y0187200D03*
X0023450Y0183900D03*
X0017850Y0191700D03*
D94*
X0041400Y0183900D03*
D95*
X0045800Y0187600D03*
X0046000Y0187500D03*
X0046100Y0187400D03*
X0046300Y0187300D03*
X0046100Y0193200D03*
X0036800Y0192900D03*
X0036700Y0192800D03*
X0036600Y0192700D03*
X0023400Y0184000D03*
X0017900Y0191800D03*
D96*
X0039450Y0191700D03*
X0041350Y0184000D03*
X0034350Y0205800D03*
X0034450Y0205900D03*
X0034550Y0206000D03*
X0034650Y0206100D03*
X0037950Y0210000D03*
X0040350Y0208000D03*
X0040450Y0208100D03*
X0040750Y0208400D03*
D97*
X0017950Y0191900D03*
X0023350Y0184100D03*
D98*
X0041250Y0184200D03*
X0048850Y0190800D03*
X0039150Y0207000D03*
X0039250Y0207100D03*
X0040650Y0208700D03*
X0037850Y0210200D03*
D99*
X0036000Y0192000D03*
X0035900Y0191900D03*
X0023200Y0184300D03*
X0018000Y0192100D03*
D100*
X0023000Y0184600D03*
X0023100Y0184500D03*
X0030700Y0211300D03*
D101*
X0032500Y0190400D03*
X0032400Y0190300D03*
X0032300Y0184600D03*
X0032400Y0184500D03*
X0042300Y0189600D03*
X0042500Y0191500D03*
X0049600Y0185500D03*
X0017500Y0188000D03*
D102*
X0018150Y0192300D03*
X0022950Y0184700D03*
D103*
X0022700Y0185000D03*
X0022600Y0185100D03*
X0046100Y0192800D03*
D104*
X0022550Y0185200D03*
X0022450Y0185300D03*
X0018250Y0192500D03*
D105*
X0022150Y0185700D03*
X0022250Y0185600D03*
D106*
X0023550Y0186400D03*
D107*
X0017800Y0191400D03*
X0017800Y0191500D03*
X0046800Y0187000D03*
D108*
X0048900Y0191000D03*
X0034000Y0205500D03*
X0033900Y0205400D03*
X0034100Y0205600D03*
X0034200Y0205700D03*
X0040100Y0207800D03*
X0040200Y0207900D03*
X0023900Y0187800D03*
D109*
X0017800Y0190900D03*
X0017800Y0191000D03*
D110*
X0034850Y0206300D03*
X0034950Y0206400D03*
X0035050Y0206500D03*
X0035150Y0206600D03*
X0035250Y0206700D03*
X0035350Y0206800D03*
X0048950Y0191100D03*
D111*
X0046050Y0193100D03*
X0036250Y0192300D03*
X0036150Y0192200D03*
X0036050Y0192100D03*
D112*
X0046100Y0192200D03*
X0018600Y0193000D03*
D113*
X0046050Y0192300D03*
D114*
X0046050Y0192400D03*
D115*
X0046100Y0192600D03*
X0018400Y0192700D03*
D116*
X0046100Y0192900D03*
D117*
X0018700Y0193100D03*
D118*
X0018850Y0193200D03*
D119*
X0018900Y0193300D03*
D120*
X0019200Y0193500D03*
D121*
X0019600Y0193700D03*
X0030700Y0210800D03*
D122*
X0019900Y0193800D03*
D123*
X0020400Y0193900D03*
X0020800Y0199900D03*
X0020800Y0200000D03*
X0022500Y0203800D03*
X0022600Y0203900D03*
X0022700Y0204000D03*
X0028800Y0209600D03*
X0029000Y0209700D03*
D124*
X0033750Y0205200D03*
X0033850Y0205300D03*
X0039850Y0207600D03*
X0039950Y0207700D03*
X0040750Y0208500D03*
X0029850Y0193900D03*
D125*
X0021950Y0194000D03*
X0021950Y0194100D03*
X0021950Y0194200D03*
X0021850Y0195400D03*
X0021850Y0195500D03*
X0021850Y0195600D03*
D126*
X0021900Y0195300D03*
X0021900Y0195200D03*
X0021900Y0195100D03*
X0022000Y0194700D03*
X0022000Y0194600D03*
X0022000Y0194500D03*
X0022000Y0194400D03*
X0022000Y0194300D03*
D127*
X0021950Y0194800D03*
X0021950Y0194900D03*
X0021950Y0195000D03*
D128*
X0021800Y0195700D03*
X0021800Y0195800D03*
D129*
X0021750Y0195900D03*
D130*
X0021700Y0196000D03*
X0021700Y0196100D03*
D131*
X0021650Y0196200D03*
D132*
X0021600Y0196300D03*
D133*
X0021550Y0196400D03*
D134*
X0021500Y0196500D03*
X0021500Y0196600D03*
D135*
X0021450Y0196700D03*
D136*
X0021400Y0196800D03*
D137*
X0021350Y0196900D03*
D138*
X0021300Y0197000D03*
D139*
X0021250Y0197100D03*
D140*
X0021200Y0197200D03*
D141*
X0021200Y0197300D03*
X0021200Y0197400D03*
D142*
X0021150Y0197500D03*
D143*
X0021100Y0197600D03*
X0021100Y0197700D03*
D144*
X0021050Y0197800D03*
D145*
X0021000Y0197900D03*
X0021000Y0198000D03*
D146*
X0020950Y0198100D03*
D147*
X0020950Y0198200D03*
X0020950Y0198300D03*
D148*
X0020900Y0198400D03*
X0020900Y0198500D03*
X0025000Y0206500D03*
X0025100Y0206600D03*
X0025200Y0206700D03*
X0025300Y0206800D03*
X0025500Y0206900D03*
X0025600Y0207000D03*
X0025700Y0207100D03*
X0025800Y0207200D03*
X0025900Y0207300D03*
X0026000Y0207400D03*
X0026100Y0207500D03*
X0026200Y0207600D03*
X0026600Y0207900D03*
X0026700Y0208000D03*
D149*
X0026850Y0208100D03*
X0026950Y0208200D03*
X0027050Y0208300D03*
X0026450Y0207800D03*
X0026350Y0207700D03*
X0024950Y0206400D03*
X0024850Y0206300D03*
X0024750Y0206200D03*
X0024650Y0206100D03*
X0024550Y0206000D03*
X0024450Y0205900D03*
X0024350Y0205800D03*
X0020850Y0198700D03*
X0020850Y0198600D03*
D150*
X0020900Y0198800D03*
X0024100Y0205600D03*
X0024200Y0205700D03*
X0027200Y0208400D03*
X0027300Y0208500D03*
X0027400Y0208600D03*
D151*
X0027550Y0208700D03*
X0027650Y0208800D03*
X0027850Y0208900D03*
X0024050Y0205500D03*
X0023950Y0205400D03*
X0023850Y0205300D03*
X0023750Y0205200D03*
X0023650Y0205100D03*
X0020850Y0199000D03*
X0020850Y0198900D03*
D152*
X0020800Y0199100D03*
X0020800Y0199200D03*
X0023300Y0204700D03*
X0023400Y0204800D03*
X0023500Y0204900D03*
X0023600Y0205000D03*
X0028000Y0209000D03*
X0028100Y0209100D03*
D153*
X0028250Y0209200D03*
X0023250Y0204600D03*
X0020850Y0199300D03*
D154*
X0020800Y0199400D03*
X0020800Y0199500D03*
X0020800Y0199600D03*
X0023000Y0204400D03*
X0023100Y0204500D03*
X0028400Y0209300D03*
X0028500Y0209400D03*
D155*
X0028650Y0209500D03*
X0022950Y0204300D03*
X0022850Y0204200D03*
X0022750Y0204100D03*
X0020850Y0199800D03*
X0020850Y0199700D03*
D156*
X0020850Y0200100D03*
X0020850Y0200200D03*
X0020850Y0200300D03*
X0022250Y0203500D03*
X0022350Y0203600D03*
X0022450Y0203700D03*
X0029150Y0209800D03*
D157*
X0029300Y0209900D03*
X0022200Y0203400D03*
X0022100Y0203300D03*
X0022100Y0203200D03*
X0022000Y0203100D03*
X0021000Y0200900D03*
X0020900Y0200600D03*
X0020900Y0200500D03*
X0020900Y0200400D03*
D158*
X0020950Y0200700D03*
X0020950Y0200800D03*
X0021050Y0201000D03*
X0021050Y0201100D03*
X0021050Y0201200D03*
X0021150Y0201400D03*
X0021250Y0201700D03*
X0021350Y0201900D03*
X0021550Y0202300D03*
X0021650Y0202500D03*
X0021750Y0202700D03*
X0021850Y0202800D03*
X0021850Y0202900D03*
X0021950Y0203000D03*
X0029450Y0210000D03*
D159*
X0029600Y0210100D03*
X0021700Y0202600D03*
X0021600Y0202400D03*
X0021500Y0202200D03*
X0021400Y0202100D03*
X0021400Y0202000D03*
X0021300Y0201800D03*
X0021200Y0201600D03*
X0021200Y0201500D03*
X0021100Y0201300D03*
D160*
X0039400Y0207200D03*
X0039500Y0207300D03*
D161*
X0029750Y0210200D03*
D162*
X0029900Y0210300D03*
D163*
X0030100Y0210400D03*
X0030300Y0210500D03*
D164*
X0030500Y0210600D03*
D165*
X0030650Y0210700D03*
D166*
X0030650Y0211100D03*
M02*
