%
M48
M72
T01C0.0236
T02C0.0394
T03C0.1181
%
T01
X4350Y2725
X4100Y4350
X7225Y6225
X9475Y4850
X9475Y3100
X9475Y1725
X10600Y1850
X11600Y1850
X12600Y1850
X8350Y850
X13725Y6350
X13600Y7100
X11475Y8600
X11100Y8225
X10600Y8600
X10600Y6975
X12975Y8725
X13100Y9225
X13225Y9725
X14350Y10600
X13600Y10850
X13475Y11725
X11725Y12975
X11225Y13350
X9725Y14100
X10100Y14475
X9100Y14475
X9100Y13225
X12850Y15475
X14100Y15225
X14600Y15725
X14850Y16850
X12725Y17475
X11600Y17475
X10100Y17600
X9725Y17225
X10975Y16350
X11475Y16350
X13225Y13725
X15725Y11225
X18100Y11225
X18475Y12225
X20225Y11850
X20975Y11850
X20350Y9850
X19975Y8100
X19475Y7225
X17850Y7100
X17850Y6350
X17225Y6350
X18975Y5725
X19600Y5475
X20850Y4225
X21725Y2600
X22725Y2600
X22850Y1850
X21850Y1850
X20850Y1850
X20225Y1475
X19475Y1100
X17850Y1100
X17225Y1350
X16600Y1850
X17100Y2725
X21475Y6225
X21100Y6600
X22350Y7350
X21225Y8100
X22475Y6350
X26350Y5975
X29100Y7600
X29100Y8600
X29100Y9600
X25600Y9100
X24600Y9100
X23975Y10600
X23975Y11100
X25600Y12350
X29100Y14600
X29100Y15600
X25100Y15600
X24100Y15600
X21100Y14475
X20350Y15475
X19350Y15475
X18350Y15475
X17350Y15475
X18475Y14100
X18475Y13600
X19100Y14475
X17600Y9600
X17475Y9100
X17975Y8350
X24350Y3475
X24850Y3475
X24600Y2100
X24100Y2100
X25725Y1975
X25725Y600
X26600Y600
X29100Y3100
X7225Y9350
X4225Y7975
X3725Y7975
X3225Y7975
X3100Y8975
X1225Y8975
X4350Y11725
X4100Y13350
X4225Y16975
X3725Y16975
X3225Y16975
T02
X1850Y13850
X1850Y12850
X1850Y10850
X1850Y9850
X1850Y4850
X1850Y3850
X17350Y17225
X18350Y17225
X19350Y17225
X20350Y17225
X21350Y17225
X22350Y17225
X23350Y17225
X24350Y17225
X26350Y17225
X26350Y16225
X26350Y15225
X28840Y12994
X28840Y11616
X28840Y6301
X28840Y4923
T03
X1675Y1675
X1675Y18210
X28053Y18210
X28053Y1675
M30
