G75*
G70*
%OFA0B0*%
%FSLAX24Y24*%
%IPPOS*%
%LPD*%
%AMOC8*
5,1,8,0,0,1.08239X$1,22.5*
%
%ADD10R,0.0098X0.0610*%
%ADD11R,0.0244X0.0480*%
%ADD12R,0.0433X0.0394*%
%ADD13R,0.0394X0.0433*%
%ADD14R,0.0512X0.0591*%
%ADD15R,0.0142X0.0496*%
%ADD16R,0.0591X0.0512*%
%ADD17R,0.0276X0.0394*%
%ADD18R,0.0945X0.1004*%
%ADD19R,0.0945X0.0984*%
%ADD20R,0.1024X0.0945*%
%ADD21C,0.0594*%
%ADD22R,0.0220X0.0780*%
%ADD23R,0.1732X0.0512*%
%ADD24C,0.0236*%
%ADD25C,0.0098*%
%ADD26C,0.0160*%
%ADD27C,0.0197*%
%ADD28C,0.0356*%
%ADD29C,0.0118*%
%ADD30C,0.0394*%
%ADD31C,0.0138*%
%ADD32C,0.0157*%
%ADD33C,0.0110*%
%ADD34C,0.0500*%
%ADD35C,0.0150*%
%ADD36C,0.0787*%
%ADD37C,0.0060*%
%ADD38C,0.0591*%
D10*
X014698Y010623D03*
X014954Y010623D03*
X015210Y010623D03*
X015466Y010623D03*
X015722Y010623D03*
X015978Y010623D03*
X016234Y010623D03*
X016490Y010623D03*
X016746Y010623D03*
X017002Y010623D03*
X017002Y012827D03*
X016746Y012827D03*
X016490Y012827D03*
X016234Y012827D03*
X015978Y012827D03*
X015722Y012827D03*
X015466Y012827D03*
X015210Y012827D03*
X014954Y012827D03*
X014698Y012827D03*
D11*
X010474Y012334D03*
X009726Y012334D03*
X009726Y013366D03*
X010100Y013366D03*
X010474Y013366D03*
X010474Y015459D03*
X009726Y015459D03*
X009726Y016491D03*
X010100Y016491D03*
X010474Y016491D03*
X011226Y007366D03*
X011600Y007366D03*
X011974Y007366D03*
X011974Y006334D03*
X011226Y006334D03*
D12*
X012725Y006265D03*
X012725Y006935D03*
X014140Y006350D03*
X014810Y006350D03*
X015100Y007140D03*
X015850Y007140D03*
X015850Y007810D03*
X015100Y007810D03*
X016140Y006350D03*
X016810Y006350D03*
X016515Y009350D03*
X017185Y009350D03*
X017795Y010301D03*
X017795Y010970D03*
X018890Y012225D03*
X019560Y012225D03*
X020475Y012640D03*
X020475Y013310D03*
X020475Y013765D03*
X020475Y014435D03*
X017543Y014045D03*
X017543Y013376D03*
X015185Y015225D03*
X014515Y015225D03*
X014685Y013725D03*
X014015Y013725D03*
X010810Y014100D03*
X010140Y014100D03*
X005725Y012685D03*
X005725Y012015D03*
X004679Y014886D03*
X004009Y014886D03*
X010140Y017225D03*
X010810Y017225D03*
X011515Y008225D03*
X012185Y008225D03*
X005725Y003685D03*
X005725Y003015D03*
X004685Y005850D03*
X004015Y005850D03*
X022616Y005002D03*
X022616Y004332D03*
D13*
X023015Y006975D03*
X023685Y006975D03*
X023685Y008100D03*
X023015Y008100D03*
X020924Y008930D03*
X020255Y008930D03*
X020755Y009842D03*
X021424Y009842D03*
X014104Y016041D03*
X013435Y016041D03*
X013435Y016825D03*
X014104Y016825D03*
X014843Y017422D03*
X015512Y017422D03*
X011177Y015935D03*
X011177Y015265D03*
X011225Y012935D03*
X011225Y012265D03*
X009100Y012140D03*
X009100Y012810D03*
X006060Y010975D03*
X005390Y010975D03*
X010600Y006560D03*
X010600Y005890D03*
X013765Y002975D03*
X014435Y002975D03*
X014435Y002100D03*
X013765Y002100D03*
X017640Y002725D03*
X018310Y002725D03*
X006935Y002600D03*
X006265Y002600D03*
X006265Y001725D03*
X006935Y001725D03*
D14*
X007851Y001725D03*
X008599Y001725D03*
X008599Y002600D03*
X007851Y002600D03*
X008631Y004808D03*
X009380Y004808D03*
X014226Y009350D03*
X014974Y009350D03*
X016476Y008600D03*
X017224Y008600D03*
X012474Y011600D03*
X011726Y011600D03*
X013976Y014475D03*
X014724Y014475D03*
X012421Y014689D03*
X011673Y014689D03*
X006849Y010100D03*
X006101Y010100D03*
X020476Y003350D03*
X021224Y003350D03*
D15*
X021106Y004958D03*
X021362Y004958D03*
X021618Y004958D03*
X020850Y004958D03*
X020594Y004958D03*
X020338Y004958D03*
X020082Y004958D03*
X020082Y007242D03*
X020338Y007242D03*
X020594Y007242D03*
X020850Y007242D03*
X021106Y007242D03*
X021362Y007242D03*
X021618Y007242D03*
D16*
X019187Y005393D03*
X019187Y004645D03*
X022208Y003422D03*
X022208Y002674D03*
D17*
X016473Y002725D03*
X016099Y002725D03*
X015725Y002725D03*
X015725Y003670D03*
X016473Y003670D03*
X018911Y013030D03*
X019659Y013030D03*
X019659Y013975D03*
X019285Y013975D03*
X018911Y013975D03*
D18*
X028368Y013889D03*
X028368Y010720D03*
X028368Y007196D03*
X028368Y004027D03*
D19*
X024628Y004234D03*
X024628Y006990D03*
X024628Y010927D03*
X024628Y013683D03*
D20*
X024628Y012305D03*
X024628Y005612D03*
D21*
X026350Y015225D03*
X026350Y016225D03*
X026350Y017225D03*
X024350Y017225D03*
X023350Y017225D03*
X022350Y017225D03*
X021350Y017225D03*
X020350Y017225D03*
X019350Y017225D03*
X018350Y017225D03*
X017350Y017225D03*
X001850Y013850D03*
X001850Y012850D03*
X001850Y010850D03*
X001850Y009850D03*
X001850Y004850D03*
X001850Y003850D03*
D22*
X003600Y003005D03*
X004100Y003005D03*
X004600Y003005D03*
X005100Y003005D03*
X005100Y004945D03*
X004600Y004945D03*
X004100Y004945D03*
X003600Y004945D03*
X003600Y012005D03*
X004100Y012005D03*
X004600Y012005D03*
X005100Y012005D03*
X005100Y013945D03*
X004600Y013945D03*
X004100Y013945D03*
X003600Y013945D03*
D23*
X003874Y016975D03*
X006826Y016975D03*
X006826Y007975D03*
X003874Y007975D03*
D24*
X003725Y007975D01*
X004850Y005975D02*
X004725Y005850D01*
X004685Y005850D01*
X009100Y005475D02*
X009380Y005195D01*
X009380Y004808D01*
X009683Y004808D01*
X009725Y004850D01*
X009850Y004975D01*
X009850Y007350D01*
X010100Y007600D01*
X010992Y007600D01*
X011226Y007366D01*
X011226Y006850D01*
X011974Y006850D01*
X011974Y007366D01*
X012185Y008225D01*
X011600Y008225D02*
X011515Y008225D01*
X011600Y008225D02*
X011600Y007366D01*
X011226Y006334D02*
X010782Y005890D01*
X010600Y005890D01*
X011974Y006334D02*
X012043Y006265D01*
X012725Y006265D01*
X009475Y004850D02*
X009475Y011100D01*
X008975Y011600D01*
X008725Y011600D01*
X008350Y011975D01*
X008350Y013350D01*
X008725Y013725D01*
X009475Y013725D01*
X009725Y013475D01*
X009725Y013365D01*
X009725Y012850D01*
X010474Y012850D01*
X010474Y013366D01*
X010810Y014100D01*
X010140Y014100D02*
X010100Y014060D01*
X010100Y013366D01*
X009726Y013366D02*
X009725Y013365D01*
X009100Y013225D02*
X009100Y012810D01*
X009726Y012334D02*
X009532Y012140D01*
X009100Y012140D01*
X008475Y011225D02*
X007975Y011725D01*
X007975Y014600D01*
X009350Y015975D01*
X009725Y015975D01*
X010474Y015975D01*
X010474Y016491D01*
X010810Y017225D01*
X010140Y017225D02*
X010100Y017185D01*
X010100Y016491D01*
X009726Y016491D02*
X009726Y016491D01*
X009725Y016491D01*
X009725Y016490D01*
X009725Y015975D01*
X010474Y015459D02*
X010668Y015265D01*
X011177Y015265D01*
X011177Y015185D01*
X011673Y014689D01*
X011177Y015935D02*
X011177Y016350D01*
X011475Y016350D01*
X011177Y016350D02*
X010975Y016350D01*
X010140Y017225D02*
X009725Y017225D01*
X010100Y017265D02*
X010100Y017600D01*
X010100Y017265D02*
X010140Y017225D01*
X013976Y014475D02*
X013976Y013764D01*
X014015Y013725D01*
X014015Y013310D01*
X014475Y012850D01*
X014685Y013725D02*
X014685Y014436D01*
X014724Y014475D01*
X014724Y014601D01*
X014600Y014725D01*
X014600Y015140D01*
X014515Y015225D01*
X014515Y015640D01*
X014600Y015725D01*
X018475Y014100D02*
X018911Y014100D01*
X018911Y013975D01*
X018911Y013600D01*
X018475Y013600D01*
X019659Y013030D02*
X019659Y012225D01*
X019560Y012225D01*
X020475Y013310D02*
X020475Y013765D01*
X020475Y014435D02*
X020475Y014475D01*
X021100Y014475D01*
X014350Y010600D02*
X013975Y010225D01*
X012850Y010225D01*
X012474Y010601D01*
X012474Y011600D01*
X011726Y011600D02*
X011225Y012265D01*
X010543Y012265D01*
X010474Y012334D01*
X009100Y010850D02*
X008725Y011225D01*
X008475Y011225D01*
X009100Y010850D02*
X009100Y005475D01*
X009380Y004808D02*
X009433Y004808D01*
X009475Y004850D01*
X016476Y008600D02*
X016486Y008601D01*
X016496Y008605D01*
X016504Y008611D01*
X016510Y008620D01*
X016514Y008629D01*
X016515Y008639D01*
X016515Y009350D01*
X017185Y009350D02*
X017185Y009100D01*
X017475Y009100D01*
X017185Y009100D02*
X017185Y008639D01*
X017186Y008629D01*
X017190Y008620D01*
X017196Y008611D01*
X017205Y008605D01*
X017214Y008601D01*
X017224Y008600D01*
X017185Y009350D02*
X017185Y009600D01*
X017600Y009600D01*
X018975Y005725D02*
X019187Y005513D01*
X019187Y005393D01*
X019268Y005475D01*
X019600Y005475D01*
X019187Y004645D02*
X019141Y004600D01*
X019225Y004607D02*
X019225Y004350D01*
X019350Y004225D01*
X019850Y004225D01*
X023685Y006975D02*
X024850Y006975D01*
X025725Y005475D02*
X026350Y005975D01*
X028350Y007214D02*
X028368Y007196D01*
X028350Y007214D02*
X028350Y007850D01*
X028100Y008100D01*
X023685Y008100D01*
X004850Y014975D02*
X004767Y014975D01*
X004679Y014886D01*
X003874Y016975D02*
X003725Y016975D01*
D25*
X002898Y016965D02*
X000475Y016965D01*
X000475Y016868D02*
X002898Y016868D01*
X002898Y016771D02*
X000475Y016771D01*
X000475Y016674D02*
X002898Y016674D01*
X002962Y016610D01*
X004785Y016610D01*
X004849Y016674D01*
X004849Y017276D01*
X004785Y017340D01*
X002962Y017340D01*
X002898Y017276D01*
X002898Y016674D01*
X002898Y017062D02*
X000475Y017062D01*
X000475Y017100D02*
X002850Y017100D01*
X002850Y019475D01*
X025225Y019475D01*
X025350Y019350D01*
X025350Y016475D01*
X025225Y016350D01*
X022975Y016350D01*
X022850Y016475D01*
X022850Y017975D01*
X022725Y018100D01*
X015463Y018100D01*
X015420Y018143D01*
X014155Y018143D01*
X014112Y018100D01*
X007725Y018100D01*
X007600Y017975D01*
X007600Y017380D01*
X006876Y017380D01*
X006876Y017024D01*
X006777Y017024D01*
X006777Y016926D01*
X005811Y016926D01*
X005811Y016699D01*
X005821Y016661D01*
X005841Y016627D01*
X005869Y016600D01*
X005903Y016580D01*
X005941Y016570D01*
X006777Y016570D01*
X006777Y016926D01*
X006876Y016926D01*
X006876Y016570D01*
X007600Y016570D01*
X007600Y008380D01*
X006876Y008380D01*
X006876Y008024D01*
X006777Y008024D01*
X006777Y007926D01*
X005811Y007926D01*
X005811Y007699D01*
X005821Y007661D01*
X005841Y007627D01*
X005869Y007600D01*
X005903Y007580D01*
X005941Y007570D01*
X006777Y007570D01*
X006777Y007926D01*
X006876Y007926D01*
X006876Y007570D01*
X007600Y007570D01*
X007600Y003413D01*
X007553Y003413D01*
X007413Y003553D01*
X007413Y006007D01*
X007469Y006062D01*
X007512Y006168D01*
X007512Y006282D01*
X007469Y006388D01*
X007388Y006469D01*
X007282Y006512D01*
X007168Y006512D01*
X007062Y006469D01*
X006981Y006388D01*
X006938Y006282D01*
X006938Y006168D01*
X006981Y006062D01*
X007037Y006007D01*
X007037Y003397D01*
X007287Y003147D01*
X007397Y003037D01*
X007600Y003037D01*
X007600Y003004D01*
X007550Y003004D01*
X007486Y002941D01*
X007486Y002768D01*
X007241Y002768D01*
X007241Y002862D01*
X007177Y002926D01*
X006693Y002926D01*
X006629Y002862D01*
X006629Y002338D01*
X006693Y002274D01*
X007177Y002274D01*
X007241Y002338D01*
X007241Y002432D01*
X007486Y002432D01*
X007486Y002259D01*
X007550Y002196D01*
X007600Y002196D01*
X007600Y002129D01*
X007550Y002129D01*
X007486Y002066D01*
X007486Y001893D01*
X007241Y001893D01*
X007241Y001987D01*
X007177Y002051D01*
X006693Y002051D01*
X006629Y001987D01*
X006629Y001463D01*
X006693Y001399D01*
X007177Y001399D01*
X007241Y001463D01*
X007241Y001557D01*
X007486Y001557D01*
X007486Y001384D01*
X007550Y001321D01*
X007600Y001321D01*
X007600Y000643D01*
X004170Y000643D01*
X003768Y001045D01*
X003768Y002519D01*
X003819Y002570D01*
X003819Y003440D01*
X003755Y003504D01*
X003445Y003504D01*
X003381Y003440D01*
X003381Y003173D01*
X001140Y003173D01*
X000768Y003545D01*
X000768Y008280D01*
X001176Y008688D01*
X001282Y008688D01*
X001388Y008731D01*
X001469Y008812D01*
X001512Y008918D01*
X001512Y009032D01*
X001469Y009138D01*
X001388Y009219D01*
X001282Y009262D01*
X001168Y009262D01*
X001062Y009219D01*
X000981Y009138D01*
X000938Y009032D01*
X000938Y008926D01*
X000530Y008518D01*
X000475Y008463D01*
X000475Y017100D01*
X000475Y016577D02*
X005913Y016577D01*
X005818Y016674D02*
X004849Y016674D01*
X004849Y016771D02*
X005811Y016771D01*
X005811Y016868D02*
X004849Y016868D01*
X004849Y016965D02*
X006777Y016965D01*
X006777Y017024D02*
X005811Y017024D01*
X005811Y017251D01*
X005821Y017288D01*
X005841Y017323D01*
X005869Y017350D01*
X005903Y017370D01*
X005941Y017380D01*
X006777Y017380D01*
X006777Y017024D01*
X006777Y017062D02*
X006876Y017062D01*
X006876Y017159D02*
X006777Y017159D01*
X006777Y017256D02*
X006876Y017256D01*
X006876Y017353D02*
X006777Y017353D01*
X006777Y016868D02*
X006876Y016868D01*
X006876Y016771D02*
X006777Y016771D01*
X006777Y016674D02*
X006876Y016674D01*
X006876Y016577D02*
X006777Y016577D01*
X007600Y016480D02*
X000475Y016480D01*
X000475Y016383D02*
X007600Y016383D01*
X007600Y016287D02*
X000475Y016287D01*
X000475Y016190D02*
X007600Y016190D01*
X007600Y016093D02*
X000475Y016093D01*
X000475Y015996D02*
X007600Y015996D01*
X007600Y015899D02*
X000475Y015899D01*
X000475Y015802D02*
X007600Y015802D01*
X007600Y015705D02*
X000475Y015705D01*
X000475Y015608D02*
X007600Y015608D01*
X007600Y015511D02*
X000475Y015511D01*
X000475Y015414D02*
X007600Y015414D01*
X007600Y015317D02*
X000475Y015317D01*
X000475Y015220D02*
X004401Y015220D01*
X004405Y015222D02*
X004371Y015203D01*
X004343Y015175D01*
X004323Y015141D01*
X004323Y015141D01*
X004271Y015192D01*
X003748Y015192D01*
X003684Y015129D01*
X003684Y014644D01*
X003748Y014580D01*
X003892Y014580D01*
X003892Y014392D01*
X003881Y014380D01*
X003881Y013537D01*
X003856Y013513D01*
X003813Y013407D01*
X003813Y013293D01*
X003856Y013187D01*
X003937Y013106D01*
X004043Y013063D01*
X004157Y013063D01*
X004263Y013106D01*
X004344Y013187D01*
X004387Y013293D01*
X004387Y013407D01*
X004344Y013513D01*
X004319Y013537D01*
X004319Y014380D01*
X004308Y014392D01*
X004308Y014617D01*
X004323Y014632D01*
X004343Y014598D01*
X004371Y014570D01*
X004405Y014551D01*
X004443Y014540D01*
X004630Y014540D01*
X004630Y014837D01*
X004728Y014837D01*
X004728Y014540D01*
X004915Y014540D01*
X004953Y014551D01*
X004987Y014570D01*
X005015Y014598D01*
X005034Y014632D01*
X005044Y014670D01*
X005044Y014837D01*
X004728Y014837D01*
X004728Y014936D01*
X004630Y014936D01*
X004630Y015232D01*
X004443Y015232D01*
X004405Y015222D01*
X004630Y015220D02*
X004728Y015220D01*
X004728Y015232D02*
X004728Y014936D01*
X005044Y014936D01*
X005044Y015103D01*
X005034Y015141D01*
X005015Y015175D01*
X004987Y015203D01*
X004953Y015222D01*
X004915Y015232D01*
X004728Y015232D01*
X004728Y015123D02*
X004630Y015123D01*
X004630Y015027D02*
X004728Y015027D01*
X004728Y014930D02*
X007600Y014930D01*
X007600Y015027D02*
X005044Y015027D01*
X005039Y015123D02*
X007600Y015123D01*
X007600Y015220D02*
X004956Y015220D01*
X004630Y014936D02*
X004335Y014936D01*
X004335Y014837D01*
X004630Y014837D01*
X004630Y014936D01*
X004630Y014930D02*
X004335Y014930D01*
X004630Y014833D02*
X004728Y014833D01*
X004728Y014736D02*
X004630Y014736D01*
X004630Y014639D02*
X004728Y014639D01*
X004728Y014542D02*
X004630Y014542D01*
X004606Y014484D02*
X004730Y014484D01*
X004768Y014474D01*
X004802Y014454D01*
X004829Y014427D01*
X004849Y014393D01*
X004859Y014355D01*
X004859Y013951D01*
X004606Y013951D01*
X004594Y013951D01*
X004594Y013939D01*
X004606Y013939D01*
X004606Y013406D01*
X004730Y013406D01*
X004740Y013409D01*
X004389Y013058D01*
X002204Y013058D01*
X002194Y013080D01*
X002080Y013194D01*
X001931Y013256D01*
X001769Y013256D01*
X001620Y013194D01*
X001506Y013080D01*
X001444Y012931D01*
X001444Y012769D01*
X001506Y012620D01*
X001620Y012506D01*
X001769Y012444D01*
X001931Y012444D01*
X002080Y012506D01*
X002194Y012620D01*
X002204Y012642D01*
X004561Y012642D01*
X005186Y013267D01*
X005308Y013389D01*
X005308Y013498D01*
X005319Y013510D01*
X005319Y013777D01*
X005435Y013777D01*
X005557Y013655D01*
X005557Y012991D01*
X004910Y012991D01*
X005007Y013088D02*
X005557Y013088D01*
X005557Y013185D02*
X005104Y013185D01*
X005186Y013267D02*
X005186Y013267D01*
X005201Y013282D02*
X005557Y013282D01*
X005557Y013379D02*
X005297Y013379D01*
X005308Y013476D02*
X005557Y013476D01*
X005557Y013573D02*
X005319Y013573D01*
X005319Y013670D02*
X005542Y013670D01*
X005446Y013766D02*
X005319Y013766D01*
X005575Y014113D02*
X005795Y013893D01*
X005893Y013795D01*
X005893Y012991D01*
X007600Y012991D01*
X007600Y012894D02*
X006051Y012894D01*
X006051Y012927D02*
X005987Y012991D01*
X005893Y012991D01*
X005893Y013088D02*
X007600Y013088D01*
X007600Y013185D02*
X005893Y013185D01*
X005893Y013282D02*
X007600Y013282D01*
X007600Y013379D02*
X005893Y013379D01*
X005893Y013476D02*
X007600Y013476D01*
X007600Y013573D02*
X005893Y013573D01*
X005893Y013670D02*
X007600Y013670D01*
X007600Y013766D02*
X005893Y013766D01*
X005825Y013863D02*
X007600Y013863D01*
X007600Y013960D02*
X005728Y013960D01*
X005631Y014057D02*
X007600Y014057D01*
X007600Y014154D02*
X005319Y014154D01*
X005319Y014113D02*
X005319Y014380D01*
X005255Y014444D01*
X004945Y014444D01*
X004881Y014380D01*
X004881Y013549D01*
X004856Y013525D01*
X004859Y013535D01*
X004859Y013939D01*
X004606Y013939D01*
X004606Y013951D01*
X004606Y014484D01*
X004594Y014484D02*
X004470Y014484D01*
X004432Y014474D01*
X004398Y014454D01*
X004371Y014427D01*
X004351Y014393D01*
X004341Y014355D01*
X004341Y013951D01*
X004594Y013951D01*
X004594Y014484D01*
X004594Y014445D02*
X004606Y014445D01*
X004594Y014348D02*
X004606Y014348D01*
X004594Y014251D02*
X004606Y014251D01*
X004594Y014154D02*
X004606Y014154D01*
X004594Y014057D02*
X004606Y014057D01*
X004594Y013960D02*
X004606Y013960D01*
X004594Y013939D02*
X004341Y013939D01*
X004341Y013535D01*
X004351Y013497D01*
X004371Y013463D01*
X004398Y013436D01*
X004432Y013416D01*
X004470Y013406D01*
X004594Y013406D01*
X004594Y013939D01*
X004594Y013863D02*
X004606Y013863D01*
X004594Y013766D02*
X004606Y013766D01*
X004594Y013670D02*
X004606Y013670D01*
X004594Y013573D02*
X004606Y013573D01*
X004594Y013476D02*
X004606Y013476D01*
X004710Y013379D02*
X004387Y013379D01*
X004383Y013282D02*
X004613Y013282D01*
X004516Y013185D02*
X004341Y013185D01*
X004419Y013088D02*
X004218Y013088D01*
X003982Y013088D02*
X002186Y013088D01*
X002089Y013185D02*
X003859Y013185D01*
X003817Y013282D02*
X000475Y013282D01*
X000475Y013379D02*
X003813Y013379D01*
X003755Y013446D02*
X003445Y013446D01*
X003381Y013510D01*
X003381Y013737D01*
X002243Y013737D01*
X002194Y013620D01*
X002080Y013506D01*
X001931Y013444D01*
X001769Y013444D01*
X001620Y013506D01*
X001506Y013620D01*
X001444Y013769D01*
X001444Y013931D01*
X001506Y014080D01*
X001620Y014194D01*
X001769Y014256D01*
X001931Y014256D01*
X002080Y014194D01*
X002122Y014153D01*
X003381Y014153D01*
X003381Y014380D01*
X003445Y014444D01*
X003755Y014444D01*
X003819Y014380D01*
X003819Y013510D01*
X003755Y013446D01*
X003785Y013476D02*
X003841Y013476D01*
X003819Y013573D02*
X003881Y013573D01*
X003881Y013670D02*
X003819Y013670D01*
X003819Y013766D02*
X003881Y013766D01*
X003881Y013863D02*
X003819Y013863D01*
X003819Y013960D02*
X003881Y013960D01*
X003881Y014057D02*
X003819Y014057D01*
X003819Y014154D02*
X003881Y014154D01*
X003881Y014251D02*
X003819Y014251D01*
X003819Y014348D02*
X003881Y014348D01*
X003892Y014445D02*
X000475Y014445D01*
X000475Y014542D02*
X003892Y014542D01*
X003689Y014639D02*
X000475Y014639D01*
X000475Y014736D02*
X003684Y014736D01*
X003684Y014833D02*
X000475Y014833D01*
X000475Y014930D02*
X003684Y014930D01*
X003684Y015027D02*
X000475Y015027D01*
X000475Y015123D02*
X003684Y015123D01*
X004323Y014632D02*
X004323Y014632D01*
X004308Y014542D02*
X004437Y014542D01*
X004389Y014445D02*
X004308Y014445D01*
X004319Y014348D02*
X004341Y014348D01*
X004341Y014251D02*
X004319Y014251D01*
X004319Y014154D02*
X004341Y014154D01*
X004341Y014057D02*
X004319Y014057D01*
X004319Y013960D02*
X004341Y013960D01*
X004341Y013863D02*
X004319Y013863D01*
X004319Y013766D02*
X004341Y013766D01*
X004341Y013670D02*
X004319Y013670D01*
X004319Y013573D02*
X004341Y013573D01*
X004359Y013476D02*
X004363Y013476D01*
X004859Y013573D02*
X004881Y013573D01*
X004881Y013670D02*
X004859Y013670D01*
X004859Y013766D02*
X004881Y013766D01*
X004881Y013863D02*
X004859Y013863D01*
X004859Y013960D02*
X004881Y013960D01*
X004881Y014057D02*
X004859Y014057D01*
X004859Y014154D02*
X004881Y014154D01*
X004881Y014251D02*
X004859Y014251D01*
X004859Y014348D02*
X004881Y014348D01*
X004811Y014445D02*
X007600Y014445D01*
X007600Y014542D02*
X004921Y014542D01*
X005036Y014639D02*
X007600Y014639D01*
X007600Y014736D02*
X005044Y014736D01*
X005044Y014833D02*
X007600Y014833D01*
X007600Y014348D02*
X005319Y014348D01*
X005319Y014251D02*
X007600Y014251D01*
X008850Y014251D02*
X009775Y014251D01*
X009775Y014316D02*
X009775Y014149D01*
X010091Y014149D01*
X010091Y014051D01*
X009775Y014051D01*
X009775Y013884D01*
X009785Y013846D01*
X009804Y013812D01*
X009832Y013784D01*
X009866Y013764D01*
X009904Y013754D01*
X009954Y013754D01*
X009920Y013745D01*
X009886Y013725D01*
X009876Y013715D01*
X009806Y013715D01*
X009702Y013819D01*
X009569Y013952D01*
X008850Y013952D01*
X008850Y014600D01*
X008975Y014725D01*
X010725Y014725D01*
X010850Y014600D01*
X010850Y014406D01*
X010548Y014406D01*
X010496Y014354D01*
X010496Y014354D01*
X010476Y014388D01*
X010449Y014416D01*
X010414Y014436D01*
X010377Y014446D01*
X010190Y014446D01*
X010190Y014149D01*
X010091Y014149D01*
X010091Y014446D01*
X009904Y014446D01*
X009866Y014436D01*
X009832Y014416D01*
X009804Y014388D01*
X009785Y014354D01*
X009775Y014316D01*
X009783Y014348D02*
X008850Y014348D01*
X008850Y014445D02*
X009900Y014445D01*
X010091Y014445D02*
X010190Y014445D01*
X010190Y014348D02*
X010091Y014348D01*
X010091Y014251D02*
X010190Y014251D01*
X010190Y014154D02*
X010091Y014154D01*
X010091Y014057D02*
X008850Y014057D01*
X008850Y013960D02*
X009775Y013960D01*
X009780Y013863D02*
X009658Y013863D01*
X009755Y013766D02*
X009862Y013766D01*
X010088Y013754D02*
X010091Y013754D01*
X010091Y014051D01*
X010190Y014051D01*
X010190Y013755D01*
X010112Y013755D01*
X010112Y013378D01*
X010088Y013378D01*
X010088Y013754D01*
X010091Y013766D02*
X010190Y013766D01*
X010190Y013863D02*
X010091Y013863D01*
X010091Y013960D02*
X010190Y013960D01*
X010112Y013670D02*
X010088Y013670D01*
X010088Y013573D02*
X010112Y013573D01*
X010112Y013476D02*
X010088Y013476D01*
X010088Y013379D02*
X010112Y013379D01*
X010705Y013325D02*
X010705Y013080D01*
X010701Y013076D01*
X010701Y012756D01*
X010629Y012684D01*
X010641Y012684D01*
X010705Y012620D01*
X010705Y012493D01*
X010919Y012493D01*
X010919Y012527D01*
X010971Y012579D01*
X010971Y012579D01*
X010937Y012599D01*
X010909Y012626D01*
X010889Y012661D01*
X010879Y012698D01*
X010879Y012885D01*
X011176Y012885D01*
X011176Y012984D01*
X011176Y013300D01*
X011009Y013300D01*
X010971Y013290D01*
X010937Y013271D01*
X010909Y013243D01*
X010889Y013209D01*
X010879Y013171D01*
X010879Y012984D01*
X011176Y012984D01*
X011274Y012984D01*
X011274Y013300D01*
X011441Y013300D01*
X011479Y013290D01*
X011513Y013271D01*
X011541Y013243D01*
X011561Y013209D01*
X011571Y013171D01*
X011571Y012984D01*
X011274Y012984D01*
X011274Y012885D01*
X011571Y012885D01*
X011571Y012698D01*
X011561Y012661D01*
X011541Y012626D01*
X011513Y012599D01*
X011479Y012579D01*
X011479Y012579D01*
X011531Y012527D01*
X011531Y012237D01*
X011634Y012100D01*
X012850Y012100D01*
X012975Y011975D01*
X012975Y010452D01*
X013600Y010452D01*
X013600Y012475D01*
X013475Y012600D01*
X012100Y012600D01*
X011975Y012725D01*
X011975Y013475D01*
X011850Y013600D01*
X010975Y013600D01*
X010876Y013699D01*
X010705Y013325D01*
X010705Y013282D02*
X010956Y013282D01*
X010883Y013185D02*
X010705Y013185D01*
X010705Y013088D02*
X010879Y013088D01*
X010879Y012991D02*
X010701Y012991D01*
X010701Y012894D02*
X011176Y012894D01*
X011176Y012991D02*
X011274Y012991D01*
X011274Y012894D02*
X011975Y012894D01*
X011975Y012797D02*
X011571Y012797D01*
X011571Y012700D02*
X012000Y012700D01*
X012097Y012603D02*
X011518Y012603D01*
X011531Y012506D02*
X013569Y012506D01*
X013600Y012410D02*
X011531Y012410D01*
X011531Y012313D02*
X013600Y012313D01*
X013600Y012216D02*
X011547Y012216D01*
X011620Y012119D02*
X013600Y012119D01*
X013600Y012022D02*
X012928Y012022D01*
X012975Y011925D02*
X013600Y011925D01*
X013600Y011828D02*
X012975Y011828D01*
X012975Y011731D02*
X013600Y011731D01*
X013600Y011634D02*
X012975Y011634D01*
X012975Y011537D02*
X013600Y011537D01*
X013600Y011440D02*
X012975Y011440D01*
X012975Y011343D02*
X013600Y011343D01*
X013600Y011246D02*
X012975Y011246D01*
X012975Y011150D02*
X013600Y011150D01*
X013600Y011053D02*
X012975Y011053D01*
X012975Y010956D02*
X013600Y010956D01*
X013600Y010859D02*
X012975Y010859D01*
X012975Y010762D02*
X013600Y010762D01*
X013600Y010665D02*
X012975Y010665D01*
X012975Y010568D02*
X013600Y010568D01*
X013600Y010471D02*
X012975Y010471D01*
X012975Y009998D02*
X013600Y009998D01*
X013600Y008475D01*
X013475Y008350D01*
X013100Y008350D01*
X012975Y008475D01*
X012975Y009998D01*
X012975Y009986D02*
X013600Y009986D01*
X013600Y009889D02*
X012975Y009889D01*
X012975Y009793D02*
X013600Y009793D01*
X013600Y009696D02*
X012975Y009696D01*
X012975Y009599D02*
X013600Y009599D01*
X013600Y009502D02*
X012975Y009502D01*
X012975Y009405D02*
X013600Y009405D01*
X013600Y009308D02*
X012975Y009308D01*
X012975Y009211D02*
X013600Y009211D01*
X013600Y009114D02*
X012975Y009114D01*
X012975Y009017D02*
X013600Y009017D01*
X013600Y008920D02*
X012975Y008920D01*
X012975Y008823D02*
X013600Y008823D01*
X013600Y008726D02*
X012975Y008726D01*
X012975Y008629D02*
X013600Y008629D01*
X013600Y008533D02*
X012975Y008533D01*
X013014Y008436D02*
X013561Y008436D01*
X012999Y007271D02*
X012961Y007281D01*
X012774Y007281D01*
X012774Y006984D01*
X012676Y006984D01*
X012676Y007281D01*
X012489Y007281D01*
X012451Y007271D01*
X012417Y007251D01*
X012389Y007223D01*
X012369Y007189D01*
X012359Y007151D01*
X012359Y006984D01*
X012676Y006984D01*
X012676Y006885D01*
X012774Y006885D01*
X012774Y006589D01*
X012961Y006589D01*
X012999Y006599D01*
X013033Y006618D01*
X013061Y006646D01*
X013081Y006680D01*
X013091Y006718D01*
X013091Y006885D01*
X014788Y006885D01*
X014774Y006898D02*
X014838Y006834D01*
X014912Y006834D01*
X014912Y006718D01*
X014850Y006656D01*
X014548Y006656D01*
X014496Y006604D01*
X014496Y006604D01*
X014476Y006638D01*
X014449Y006666D01*
X014414Y006686D01*
X014377Y006696D01*
X014190Y006696D01*
X014190Y006399D01*
X014091Y006399D01*
X014091Y006301D01*
X013775Y006301D01*
X013775Y006134D01*
X013785Y006096D01*
X013804Y006062D01*
X013832Y006034D01*
X013866Y006014D01*
X013904Y006004D01*
X014091Y006004D01*
X014091Y006301D01*
X014190Y006301D01*
X014190Y006004D01*
X014377Y006004D01*
X014414Y006014D01*
X014449Y006034D01*
X014476Y006062D01*
X014496Y006096D01*
X014548Y006044D01*
X015071Y006044D01*
X015135Y006108D01*
X015135Y006410D01*
X015262Y006537D01*
X015272Y006537D01*
X015287Y006522D01*
X015287Y005850D01*
X013031Y005850D01*
X013031Y006004D01*
X013051Y006023D01*
X013051Y006507D01*
X012987Y006571D01*
X012463Y006571D01*
X012399Y006507D01*
X012399Y006493D01*
X012205Y006493D01*
X012205Y006620D01*
X012141Y006684D01*
X012129Y006684D01*
X012201Y006756D01*
X012201Y007076D01*
X012205Y007080D01*
X012205Y007350D01*
X014774Y007350D01*
X014774Y006898D01*
X014774Y006982D02*
X012774Y006982D01*
X012774Y006984D02*
X013091Y006984D01*
X013091Y007151D01*
X013081Y007189D01*
X013061Y007223D01*
X013033Y007251D01*
X012999Y007271D01*
X012992Y007272D02*
X014774Y007272D01*
X014774Y007176D02*
X013084Y007176D01*
X013091Y007079D02*
X014774Y007079D01*
X014912Y006788D02*
X013091Y006788D01*
X013083Y006691D02*
X013885Y006691D01*
X013866Y006686D02*
X013832Y006666D01*
X013804Y006638D01*
X013785Y006604D01*
X013775Y006566D01*
X013775Y006399D01*
X014091Y006399D01*
X014091Y006696D01*
X013904Y006696D01*
X013866Y006686D01*
X013782Y006594D02*
X012981Y006594D01*
X013051Y006497D02*
X013775Y006497D01*
X013775Y006400D02*
X013051Y006400D01*
X013051Y006303D02*
X014091Y006303D01*
X014091Y006206D02*
X014190Y006206D01*
X014190Y006109D02*
X014091Y006109D01*
X014091Y006012D02*
X014190Y006012D01*
X014408Y006012D02*
X015287Y006012D01*
X015287Y005916D02*
X013031Y005916D01*
X013040Y006012D02*
X013872Y006012D01*
X013781Y006109D02*
X013051Y006109D01*
X013051Y006206D02*
X013775Y006206D01*
X014091Y006400D02*
X014190Y006400D01*
X014190Y006497D02*
X014091Y006497D01*
X014091Y006594D02*
X014190Y006594D01*
X014190Y006691D02*
X014091Y006691D01*
X014396Y006691D02*
X014885Y006691D01*
X015135Y006400D02*
X015287Y006400D01*
X015287Y006303D02*
X015135Y006303D01*
X015135Y006206D02*
X015287Y006206D01*
X015287Y006109D02*
X015135Y006109D01*
X015663Y006109D02*
X015815Y006109D01*
X015815Y006108D02*
X015879Y006044D01*
X016402Y006044D01*
X016454Y006096D01*
X016454Y006096D01*
X016474Y006062D01*
X016501Y006034D01*
X016536Y006014D01*
X016573Y006004D01*
X016760Y006004D01*
X016760Y006301D01*
X016859Y006301D01*
X016859Y006399D01*
X017175Y006399D01*
X017175Y006566D01*
X017165Y006604D01*
X017146Y006638D01*
X017118Y006666D01*
X017084Y006686D01*
X017046Y006696D01*
X016859Y006696D01*
X016859Y006399D01*
X016760Y006399D01*
X016760Y006696D01*
X016573Y006696D01*
X016536Y006686D01*
X016501Y006666D01*
X016474Y006638D01*
X016454Y006604D01*
X016402Y006656D01*
X016100Y006656D01*
X016038Y006718D01*
X016038Y006834D01*
X016112Y006834D01*
X016176Y006898D01*
X016176Y006952D01*
X017475Y006952D01*
X017475Y005975D01*
X017413Y005913D01*
X015678Y005913D01*
X015663Y005928D01*
X015663Y006562D01*
X015815Y006410D01*
X015815Y006108D01*
X015815Y006206D02*
X015663Y006206D01*
X015663Y006303D02*
X015815Y006303D01*
X015815Y006400D02*
X015663Y006400D01*
X015663Y006497D02*
X015727Y006497D01*
X016065Y006691D02*
X016554Y006691D01*
X016454Y006604D02*
X016454Y006604D01*
X016760Y006594D02*
X016859Y006594D01*
X016859Y006497D02*
X016760Y006497D01*
X016760Y006400D02*
X016859Y006400D01*
X016859Y006303D02*
X017475Y006303D01*
X017475Y006206D02*
X017175Y006206D01*
X017175Y006134D02*
X017175Y006301D01*
X016859Y006301D01*
X016859Y006004D01*
X017046Y006004D01*
X017084Y006014D01*
X017118Y006034D01*
X017146Y006062D01*
X017165Y006096D01*
X017175Y006134D01*
X017169Y006109D02*
X017475Y006109D01*
X017475Y006012D02*
X017078Y006012D01*
X016859Y006012D02*
X016760Y006012D01*
X016760Y006109D02*
X016859Y006109D01*
X016859Y006206D02*
X016760Y006206D01*
X016542Y006012D02*
X015663Y006012D01*
X015675Y005916D02*
X017416Y005916D01*
X017475Y006400D02*
X017175Y006400D01*
X017175Y006497D02*
X017475Y006497D01*
X017475Y006594D02*
X017168Y006594D01*
X017065Y006691D02*
X017475Y006691D01*
X017475Y006788D02*
X016038Y006788D01*
X016162Y006885D02*
X017475Y006885D01*
X016859Y006691D02*
X016760Y006691D01*
X015287Y006497D02*
X015223Y006497D01*
X014496Y006096D02*
X014496Y006096D01*
X013091Y006885D02*
X012774Y006885D01*
X012676Y006885D01*
X012676Y006589D01*
X012489Y006589D01*
X012451Y006599D01*
X012417Y006618D01*
X012389Y006646D01*
X012369Y006680D01*
X012359Y006718D01*
X012359Y006885D01*
X012201Y006885D01*
X012201Y006982D02*
X012676Y006982D01*
X012676Y006885D02*
X012359Y006885D01*
X012359Y006788D02*
X012201Y006788D01*
X012136Y006691D02*
X012367Y006691D01*
X012469Y006594D02*
X012205Y006594D01*
X012205Y006497D02*
X012399Y006497D01*
X012676Y006594D02*
X012774Y006594D01*
X012774Y006691D02*
X012676Y006691D01*
X012676Y006788D02*
X012774Y006788D01*
X012774Y006885D02*
X012774Y006984D01*
X012774Y007079D02*
X012676Y007079D01*
X012676Y007176D02*
X012774Y007176D01*
X012774Y007272D02*
X012676Y007272D01*
X012458Y007272D02*
X012205Y007272D01*
X012205Y007176D02*
X012366Y007176D01*
X012359Y007079D02*
X012204Y007079D01*
X011612Y007378D02*
X011588Y007378D01*
X011588Y007755D01*
X011458Y007755D01*
X011420Y007745D01*
X011386Y007725D01*
X011376Y007715D01*
X011198Y007715D01*
X011086Y007827D01*
X010225Y007827D01*
X010225Y008850D01*
X010350Y008975D01*
X011725Y008975D01*
X011850Y008850D01*
X011850Y008515D01*
X011824Y008541D01*
X011789Y008561D01*
X011752Y008571D01*
X011565Y008571D01*
X011565Y008274D01*
X011850Y008274D01*
X011850Y008176D01*
X011565Y008176D01*
X011565Y008274D01*
X011466Y008274D01*
X011466Y008176D01*
X011150Y008176D01*
X011150Y008009D01*
X011160Y007971D01*
X011179Y007937D01*
X011207Y007909D01*
X011241Y007889D01*
X011279Y007879D01*
X011466Y007879D01*
X011466Y008176D01*
X011565Y008176D01*
X011565Y007879D01*
X011752Y007879D01*
X011789Y007889D01*
X011824Y007909D01*
X011850Y007935D01*
X011850Y007815D01*
X011826Y007715D01*
X011824Y007715D01*
X011814Y007725D01*
X011780Y007745D01*
X011742Y007755D01*
X011612Y007755D01*
X011612Y007378D01*
X011612Y007466D02*
X011588Y007466D01*
X011588Y007563D02*
X011612Y007563D01*
X011612Y007660D02*
X011588Y007660D01*
X011836Y007757D02*
X011156Y007757D01*
X011171Y007951D02*
X010225Y007951D01*
X010225Y008048D02*
X011150Y008048D01*
X011150Y008145D02*
X010225Y008145D01*
X010225Y008242D02*
X011466Y008242D01*
X011466Y008274D02*
X011150Y008274D01*
X011150Y008441D01*
X011160Y008479D01*
X011179Y008513D01*
X011207Y008541D01*
X011241Y008561D01*
X011279Y008571D01*
X011466Y008571D01*
X011466Y008274D01*
X011466Y008339D02*
X011565Y008339D01*
X011565Y008436D02*
X011466Y008436D01*
X011466Y008533D02*
X011565Y008533D01*
X011832Y008533D02*
X011850Y008533D01*
X011850Y008629D02*
X010225Y008629D01*
X010225Y008533D02*
X011198Y008533D01*
X011150Y008436D02*
X010225Y008436D01*
X010225Y008339D02*
X011150Y008339D01*
X011466Y008145D02*
X011565Y008145D01*
X011565Y008242D02*
X011850Y008242D01*
X011565Y008048D02*
X011466Y008048D01*
X011466Y007951D02*
X011565Y007951D01*
X011850Y007854D02*
X010225Y007854D01*
X010225Y007373D02*
X010898Y007373D01*
X010995Y007276D01*
X010995Y007080D01*
X010999Y007076D01*
X010999Y006756D01*
X011071Y006684D01*
X011059Y006684D01*
X010995Y006620D01*
X010995Y006424D01*
X010946Y006376D01*
X010946Y006510D01*
X010649Y006510D01*
X010649Y006609D01*
X010551Y006609D01*
X010551Y006925D01*
X010384Y006925D01*
X010346Y006915D01*
X010312Y006896D01*
X010284Y006868D01*
X010264Y006834D01*
X010254Y006796D01*
X010254Y006609D01*
X010551Y006609D01*
X010551Y006510D01*
X010254Y006510D01*
X010254Y006323D01*
X010264Y006286D01*
X010284Y006251D01*
X010312Y006224D01*
X010346Y006204D01*
X010294Y006152D01*
X010294Y005906D01*
X010225Y005975D01*
X010225Y007373D01*
X010225Y007369D02*
X010901Y007369D01*
X010995Y007272D02*
X010225Y007272D01*
X010225Y007176D02*
X010995Y007176D01*
X010996Y007079D02*
X010225Y007079D01*
X010225Y006982D02*
X010999Y006982D01*
X010999Y006885D02*
X010899Y006885D01*
X010888Y006896D02*
X010854Y006915D01*
X010816Y006925D01*
X010649Y006925D01*
X010649Y006609D01*
X010946Y006609D01*
X010946Y006796D01*
X010936Y006834D01*
X010916Y006868D01*
X010888Y006896D01*
X010946Y006788D02*
X010999Y006788D01*
X010946Y006691D02*
X011064Y006691D01*
X010995Y006594D02*
X010649Y006594D01*
X010649Y006691D02*
X010551Y006691D01*
X010551Y006788D02*
X010649Y006788D01*
X010649Y006885D02*
X010551Y006885D01*
X010301Y006885D02*
X010225Y006885D01*
X010225Y006788D02*
X010254Y006788D01*
X010254Y006691D02*
X010225Y006691D01*
X010225Y006594D02*
X010551Y006594D01*
X010254Y006497D02*
X010225Y006497D01*
X010225Y006400D02*
X010254Y006400D01*
X010259Y006303D02*
X010225Y006303D01*
X010225Y006206D02*
X010342Y006206D01*
X010346Y006204D02*
X010346Y006204D01*
X010294Y006109D02*
X010225Y006109D01*
X010225Y006012D02*
X010294Y006012D01*
X010284Y005916D02*
X010294Y005916D01*
X010946Y006400D02*
X010970Y006400D01*
X010946Y006497D02*
X010995Y006497D01*
X010225Y008726D02*
X011850Y008726D01*
X011850Y008823D02*
X010225Y008823D01*
X010295Y008920D02*
X011780Y008920D01*
X014350Y010600D02*
X014698Y010600D01*
X014698Y010623D01*
X014954Y010623D02*
X014954Y010079D01*
X014850Y009975D01*
X015350Y009975D02*
X015466Y010091D01*
X015466Y010623D01*
X015210Y010623D02*
X015210Y010990D01*
X015100Y011100D01*
X014225Y011100D01*
X014698Y012127D02*
X014698Y012827D01*
X014498Y012827D01*
X014475Y012850D01*
X014954Y012827D02*
X014954Y013246D01*
X014850Y013350D01*
X014921Y013379D02*
X014959Y013389D01*
X014993Y013409D01*
X015021Y013437D01*
X015036Y013463D01*
X015036Y013397D01*
X015052Y013381D01*
X015052Y013350D01*
X014296Y013350D01*
X014243Y013404D01*
X014243Y013419D01*
X014277Y013419D01*
X014329Y013471D01*
X014329Y013471D01*
X014349Y013437D01*
X014376Y013409D01*
X014411Y013389D01*
X014448Y013379D01*
X014635Y013379D01*
X014635Y013676D01*
X014734Y013676D01*
X014734Y013379D01*
X014921Y013379D01*
X015052Y013379D02*
X014268Y013379D01*
X014635Y013476D02*
X014734Y013476D01*
X014734Y013573D02*
X014635Y013573D01*
X014635Y013670D02*
X014734Y013670D01*
X014734Y013774D02*
X014635Y013774D01*
X014635Y014031D01*
X014675Y014031D01*
X014675Y014426D01*
X014773Y014426D01*
X014773Y014071D01*
X014734Y014071D01*
X014734Y013774D01*
X014734Y013863D02*
X014635Y013863D01*
X014635Y013960D02*
X014734Y013960D01*
X014734Y014057D02*
X014675Y014057D01*
X014675Y014154D02*
X014773Y014154D01*
X014773Y014251D02*
X014675Y014251D01*
X014675Y014348D02*
X014773Y014348D01*
X014773Y014524D02*
X014675Y014524D01*
X014675Y014879D01*
X014752Y014879D01*
X014773Y014885D01*
X014773Y014524D01*
X014773Y014542D02*
X014675Y014542D01*
X014675Y014639D02*
X014773Y014639D01*
X014773Y014736D02*
X014675Y014736D01*
X014675Y014833D02*
X014773Y014833D01*
X014366Y014879D02*
X014349Y014862D01*
X014329Y014828D01*
X014329Y014828D01*
X014277Y014879D01*
X014079Y014879D01*
X013966Y014993D01*
X013834Y015048D01*
X013623Y015048D01*
X013623Y015715D01*
X013677Y015715D01*
X013741Y015779D01*
X013741Y016303D01*
X013677Y016367D01*
X013631Y016367D01*
X013631Y016500D01*
X013677Y016500D01*
X013741Y016564D01*
X013741Y017087D01*
X013677Y017151D01*
X013193Y017151D01*
X013129Y017087D01*
X013129Y016564D01*
X013193Y016500D01*
X013262Y016500D01*
X013262Y016367D01*
X013193Y016367D01*
X013129Y016303D01*
X013129Y015779D01*
X013193Y015715D01*
X013247Y015715D01*
X013247Y015048D01*
X012767Y015048D01*
X012722Y015093D01*
X012475Y015093D01*
X012475Y015975D01*
X012350Y016100D01*
X011523Y016100D01*
X011523Y016171D01*
X011513Y016209D01*
X011493Y016243D01*
X011465Y016271D01*
X011431Y016290D01*
X011393Y016300D01*
X011226Y016300D01*
X011226Y016100D01*
X011128Y016100D01*
X011128Y016300D01*
X010960Y016300D01*
X010922Y016290D01*
X010888Y016271D01*
X010861Y016243D01*
X010841Y016209D01*
X010831Y016171D01*
X010831Y016100D01*
X010701Y016100D01*
X010701Y016201D01*
X010705Y016205D01*
X010705Y016450D01*
X010920Y016919D01*
X011071Y016919D01*
X011135Y016983D01*
X011135Y017467D01*
X011071Y017531D01*
X010548Y017531D01*
X010496Y017479D01*
X010496Y017479D01*
X010476Y017513D01*
X010449Y017541D01*
X010414Y017561D01*
X010377Y017571D01*
X010190Y017571D01*
X010190Y017274D01*
X010091Y017274D01*
X010091Y017176D01*
X009775Y017176D01*
X009775Y017009D01*
X009785Y016971D01*
X009804Y016937D01*
X009832Y016909D01*
X009866Y016889D01*
X009904Y016879D01*
X009954Y016879D01*
X009920Y016870D01*
X009886Y016850D01*
X009876Y016840D01*
X009559Y016840D01*
X009495Y016776D01*
X009495Y016205D01*
X009498Y016202D01*
X009475Y016225D01*
X009475Y017725D01*
X009600Y017850D01*
X013932Y017850D01*
X013932Y017151D01*
X013862Y017151D01*
X013798Y017087D01*
X013798Y016564D01*
X013862Y016500D01*
X014346Y016500D01*
X014410Y016564D01*
X014410Y017087D01*
X014346Y017151D01*
X014268Y017151D01*
X014268Y017780D01*
X014295Y017807D01*
X015268Y017807D01*
X015327Y017748D01*
X015270Y017748D01*
X015206Y017684D01*
X015206Y017160D01*
X015270Y017096D01*
X015344Y017096D01*
X015344Y016219D01*
X015295Y016268D01*
X014410Y016268D01*
X014410Y016303D01*
X014346Y016367D01*
X013862Y016367D01*
X013798Y016303D01*
X013798Y015779D01*
X013862Y015715D01*
X014346Y015715D01*
X014410Y015779D01*
X014410Y015932D01*
X015155Y015932D01*
X015350Y015737D01*
X015350Y015531D01*
X014923Y015531D01*
X014871Y015479D01*
X014871Y015479D01*
X014851Y015513D01*
X014824Y015541D01*
X014789Y015561D01*
X014752Y015571D01*
X014565Y015571D01*
X014565Y015274D01*
X014466Y015274D01*
X014466Y015176D01*
X014150Y015176D01*
X014150Y015009D01*
X014160Y014971D01*
X014179Y014937D01*
X014207Y014909D01*
X014241Y014889D01*
X014279Y014879D01*
X014366Y014879D01*
X014332Y014833D02*
X014324Y014833D01*
X014186Y014930D02*
X014029Y014930D01*
X014150Y015027D02*
X013885Y015027D01*
X013623Y015123D02*
X014150Y015123D01*
X014150Y015274D02*
X014466Y015274D01*
X014466Y015571D01*
X014279Y015571D01*
X014241Y015561D01*
X014207Y015541D01*
X014179Y015513D01*
X014160Y015479D01*
X014150Y015441D01*
X014150Y015274D01*
X014150Y015317D02*
X013623Y015317D01*
X013623Y015220D02*
X014466Y015220D01*
X014466Y015317D02*
X014565Y015317D01*
X014565Y015414D02*
X014466Y015414D01*
X014466Y015511D02*
X014565Y015511D01*
X014853Y015511D02*
X014903Y015511D01*
X015350Y015608D02*
X013623Y015608D01*
X013623Y015511D02*
X014178Y015511D01*
X014150Y015414D02*
X013623Y015414D01*
X013623Y015705D02*
X015350Y015705D01*
X015285Y015802D02*
X014410Y015802D01*
X014410Y015899D02*
X015188Y015899D01*
X015344Y016287D02*
X014410Y016287D01*
X014410Y016577D02*
X015344Y016577D01*
X015344Y016480D02*
X013631Y016480D01*
X013631Y016383D02*
X015344Y016383D01*
X015344Y016674D02*
X014410Y016674D01*
X014410Y016771D02*
X015344Y016771D01*
X015344Y016868D02*
X014410Y016868D01*
X014410Y016965D02*
X015344Y016965D01*
X015344Y017062D02*
X015081Y017062D01*
X015098Y017066D02*
X015132Y017086D01*
X015159Y017114D01*
X015179Y017148D01*
X015189Y017186D01*
X015189Y017373D01*
X014892Y017373D01*
X014892Y017056D01*
X015060Y017056D01*
X015098Y017066D01*
X015182Y017159D02*
X015208Y017159D01*
X015206Y017256D02*
X015189Y017256D01*
X015189Y017353D02*
X015206Y017353D01*
X015206Y017450D02*
X014892Y017450D01*
X014892Y017471D02*
X015189Y017471D01*
X015189Y017658D01*
X015179Y017696D01*
X015159Y017730D01*
X015132Y017758D01*
X015098Y017777D01*
X015060Y017788D01*
X014892Y017788D01*
X014892Y017471D01*
X014794Y017471D01*
X014794Y017788D01*
X014627Y017788D01*
X014589Y017777D01*
X014555Y017758D01*
X014527Y017730D01*
X014507Y017696D01*
X014497Y017658D01*
X014497Y017471D01*
X014794Y017471D01*
X014794Y017373D01*
X014497Y017373D01*
X014497Y017186D01*
X014507Y017148D01*
X014527Y017114D01*
X014555Y017086D01*
X014589Y017066D01*
X014627Y017056D01*
X014794Y017056D01*
X014794Y017373D01*
X014892Y017373D01*
X014892Y017471D01*
X014892Y017547D02*
X014794Y017547D01*
X014794Y017644D02*
X014892Y017644D01*
X014892Y017740D02*
X014794Y017740D01*
X014537Y017740D02*
X014268Y017740D01*
X014268Y017644D02*
X014497Y017644D01*
X014497Y017547D02*
X014268Y017547D01*
X014268Y017450D02*
X014794Y017450D01*
X014794Y017353D02*
X014892Y017353D01*
X014892Y017256D02*
X014794Y017256D01*
X014794Y017159D02*
X014892Y017159D01*
X014892Y017062D02*
X014794Y017062D01*
X014605Y017062D02*
X014410Y017062D01*
X014504Y017159D02*
X014268Y017159D01*
X014268Y017256D02*
X014497Y017256D01*
X014497Y017353D02*
X014268Y017353D01*
X013932Y017353D02*
X011135Y017353D01*
X011135Y017450D02*
X013932Y017450D01*
X013932Y017547D02*
X010439Y017547D01*
X010190Y017547D02*
X010091Y017547D01*
X010091Y017571D02*
X009904Y017571D01*
X009866Y017561D01*
X009832Y017541D01*
X009804Y017513D01*
X009785Y017479D01*
X009775Y017441D01*
X009775Y017274D01*
X010091Y017274D01*
X010091Y017571D01*
X010091Y017450D02*
X010190Y017450D01*
X010190Y017353D02*
X010091Y017353D01*
X010091Y017256D02*
X009475Y017256D01*
X009475Y017353D02*
X009775Y017353D01*
X009777Y017450D02*
X009475Y017450D01*
X009475Y017547D02*
X009841Y017547D01*
X009587Y017837D02*
X013932Y017837D01*
X013932Y017740D02*
X009490Y017740D01*
X009475Y017644D02*
X013932Y017644D01*
X013932Y017256D02*
X011135Y017256D01*
X011135Y017159D02*
X013932Y017159D01*
X013798Y017062D02*
X013741Y017062D01*
X013741Y016965D02*
X013798Y016965D01*
X013798Y016868D02*
X013741Y016868D01*
X013741Y016771D02*
X013798Y016771D01*
X013798Y016674D02*
X013741Y016674D01*
X013741Y016577D02*
X013798Y016577D01*
X013262Y016480D02*
X010719Y016480D01*
X010705Y016383D02*
X013262Y016383D01*
X013129Y016287D02*
X011438Y016287D01*
X011518Y016190D02*
X013129Y016190D01*
X013129Y016093D02*
X012357Y016093D01*
X012454Y015996D02*
X013129Y015996D01*
X013129Y015899D02*
X012475Y015899D01*
X012475Y015802D02*
X013129Y015802D01*
X013247Y015705D02*
X012475Y015705D01*
X012475Y015608D02*
X013247Y015608D01*
X013247Y015511D02*
X012475Y015511D01*
X012475Y015414D02*
X013247Y015414D01*
X013247Y015317D02*
X012475Y015317D01*
X012475Y015220D02*
X013247Y015220D01*
X013247Y015123D02*
X012475Y015123D01*
X012475Y014284D02*
X012722Y014284D01*
X012767Y014329D01*
X013611Y014329D01*
X013611Y014134D01*
X013675Y014071D01*
X013749Y014071D01*
X013749Y014026D01*
X013690Y013967D01*
X013690Y013483D01*
X013754Y013419D01*
X013788Y013419D01*
X013788Y013350D01*
X012600Y013350D01*
X012475Y013475D01*
X012475Y014284D01*
X012475Y014251D02*
X013611Y014251D01*
X013611Y014154D02*
X012475Y014154D01*
X012475Y014057D02*
X013749Y014057D01*
X013690Y013960D02*
X012475Y013960D01*
X012475Y013863D02*
X013690Y013863D01*
X013690Y013766D02*
X012475Y013766D01*
X012475Y013670D02*
X013690Y013670D01*
X013690Y013573D02*
X012475Y013573D01*
X012475Y013476D02*
X013697Y013476D01*
X013788Y013379D02*
X012571Y013379D01*
X011975Y013379D02*
X010730Y013379D01*
X010774Y013476D02*
X011974Y013476D01*
X011877Y013573D02*
X010819Y013573D01*
X010863Y013670D02*
X010905Y013670D01*
X011176Y013282D02*
X011274Y013282D01*
X011274Y013185D02*
X011176Y013185D01*
X011176Y013088D02*
X011274Y013088D01*
X011494Y013282D02*
X011975Y013282D01*
X011975Y013185D02*
X011567Y013185D01*
X011571Y013088D02*
X011975Y013088D01*
X011975Y012991D02*
X011571Y012991D01*
X010879Y012797D02*
X010701Y012797D01*
X010646Y012700D02*
X010879Y012700D01*
X010932Y012603D02*
X010705Y012603D01*
X010705Y012506D02*
X010919Y012506D01*
X009570Y012684D02*
X009559Y012684D01*
X009495Y012620D01*
X009495Y012424D01*
X009438Y012368D01*
X009406Y012368D01*
X009406Y012402D01*
X009354Y012454D01*
X009354Y012454D01*
X009388Y012474D01*
X009416Y012501D01*
X009436Y012536D01*
X009446Y012573D01*
X009446Y012760D01*
X009149Y012760D01*
X009149Y012859D01*
X009051Y012859D01*
X009051Y013175D01*
X008884Y013175D01*
X008850Y013166D01*
X008850Y013498D01*
X009381Y013498D01*
X009495Y013384D01*
X009495Y013080D01*
X009498Y013077D01*
X009498Y012756D01*
X009570Y012684D01*
X009553Y012700D02*
X009446Y012700D01*
X009446Y012603D02*
X009495Y012603D01*
X009495Y012506D02*
X009419Y012506D01*
X009399Y012410D02*
X009480Y012410D01*
X009498Y012797D02*
X009149Y012797D01*
X009149Y012859D02*
X009446Y012859D01*
X009446Y013046D01*
X009436Y013084D01*
X009416Y013118D01*
X009388Y013146D01*
X009354Y013165D01*
X009316Y013175D01*
X009149Y013175D01*
X009149Y012859D01*
X009149Y012894D02*
X009051Y012894D01*
X009051Y012991D02*
X009149Y012991D01*
X009149Y013088D02*
X009051Y013088D01*
X008850Y013185D02*
X009495Y013185D01*
X009495Y013282D02*
X008850Y013282D01*
X008850Y013379D02*
X009495Y013379D01*
X009403Y013476D02*
X008850Y013476D01*
X009433Y013088D02*
X009495Y013088D01*
X009498Y012991D02*
X009446Y012991D01*
X009446Y012894D02*
X009498Y012894D01*
X009775Y014154D02*
X008850Y014154D01*
X008850Y014542D02*
X010850Y014542D01*
X010850Y014445D02*
X010381Y014445D01*
X010811Y014639D02*
X008889Y014639D01*
X009498Y016202D02*
X009498Y016202D01*
X009495Y016287D02*
X009475Y016287D01*
X009475Y016383D02*
X009495Y016383D01*
X009495Y016480D02*
X009475Y016480D01*
X009475Y016577D02*
X009495Y016577D01*
X009495Y016674D02*
X009475Y016674D01*
X009475Y016771D02*
X009495Y016771D01*
X009475Y016868D02*
X009917Y016868D01*
X009788Y016965D02*
X009475Y016965D01*
X009475Y017062D02*
X009775Y017062D01*
X009775Y017159D02*
X009475Y017159D01*
X010091Y017159D02*
X010190Y017159D01*
X010190Y017176D02*
X010190Y016880D01*
X010112Y016880D01*
X010112Y016503D01*
X010088Y016503D01*
X010088Y016879D01*
X010091Y016879D01*
X010091Y017176D01*
X010190Y017176D01*
X010190Y017062D02*
X010091Y017062D01*
X010091Y016965D02*
X010190Y016965D01*
X010112Y016868D02*
X010088Y016868D01*
X010088Y016771D02*
X010112Y016771D01*
X010112Y016674D02*
X010088Y016674D01*
X010088Y016577D02*
X010112Y016577D01*
X010705Y016287D02*
X010916Y016287D01*
X010836Y016190D02*
X010701Y016190D01*
X010764Y016577D02*
X013129Y016577D01*
X013129Y016674D02*
X010808Y016674D01*
X010852Y016771D02*
X013129Y016771D01*
X013129Y016868D02*
X010896Y016868D01*
X011118Y016965D02*
X013129Y016965D01*
X013129Y017062D02*
X011135Y017062D01*
X011128Y016287D02*
X011226Y016287D01*
X011226Y016190D02*
X011128Y016190D01*
X013741Y016190D02*
X013798Y016190D01*
X013798Y016287D02*
X013741Y016287D01*
X013741Y016093D02*
X013798Y016093D01*
X013798Y015996D02*
X013741Y015996D01*
X013741Y015899D02*
X013798Y015899D01*
X013798Y015802D02*
X013741Y015802D01*
X015189Y017547D02*
X015206Y017547D01*
X015206Y017644D02*
X015189Y017644D01*
X015149Y017740D02*
X015263Y017740D01*
X015435Y018128D02*
X025350Y018128D01*
X025350Y018031D02*
X022794Y018031D01*
X022850Y017934D02*
X025350Y017934D01*
X025350Y017837D02*
X022850Y017837D01*
X022850Y017740D02*
X025350Y017740D01*
X025350Y017644D02*
X024505Y017644D01*
X024521Y017638D02*
X024454Y017660D01*
X024399Y017669D01*
X024399Y017274D01*
X024794Y017274D01*
X024785Y017329D01*
X024763Y017396D01*
X024732Y017459D01*
X024690Y017516D01*
X024641Y017565D01*
X024584Y017607D01*
X024521Y017638D01*
X024399Y017644D02*
X024301Y017644D01*
X024301Y017669D02*
X024246Y017660D01*
X024179Y017638D01*
X024116Y017607D01*
X024059Y017565D01*
X024010Y017516D01*
X023968Y017459D01*
X023937Y017396D01*
X023915Y017329D01*
X023906Y017274D01*
X024301Y017274D01*
X024301Y017176D01*
X024399Y017176D01*
X024399Y016781D01*
X024454Y016790D01*
X024521Y016812D01*
X024584Y016843D01*
X024641Y016885D01*
X024690Y016934D01*
X024732Y016991D01*
X024763Y017054D01*
X024785Y017121D01*
X024794Y017176D01*
X024399Y017176D01*
X024399Y017274D01*
X024301Y017274D01*
X024301Y017669D01*
X024195Y017644D02*
X023505Y017644D01*
X023521Y017638D02*
X023454Y017660D01*
X023399Y017669D01*
X023399Y017274D01*
X023794Y017274D01*
X023785Y017329D01*
X023763Y017396D01*
X023732Y017459D01*
X023690Y017516D01*
X023641Y017565D01*
X023584Y017607D01*
X023521Y017638D01*
X023399Y017644D02*
X023301Y017644D01*
X023301Y017669D02*
X023246Y017660D01*
X023179Y017638D01*
X023116Y017607D01*
X023059Y017565D01*
X023010Y017516D01*
X022968Y017459D01*
X022937Y017396D01*
X022915Y017329D01*
X022906Y017274D01*
X023301Y017274D01*
X023301Y017176D01*
X023399Y017176D01*
X023399Y016781D01*
X023454Y016790D01*
X023521Y016812D01*
X023584Y016843D01*
X023641Y016885D01*
X023690Y016934D01*
X023732Y016991D01*
X023763Y017054D01*
X023785Y017121D01*
X023794Y017176D01*
X023399Y017176D01*
X023399Y017274D01*
X023301Y017274D01*
X023301Y017669D01*
X023195Y017644D02*
X022850Y017644D01*
X022850Y017547D02*
X023041Y017547D01*
X022964Y017450D02*
X022850Y017450D01*
X022850Y017353D02*
X022922Y017353D01*
X022850Y017256D02*
X023301Y017256D01*
X023301Y017176D02*
X022906Y017176D01*
X022915Y017121D01*
X022937Y017054D01*
X022968Y016991D01*
X023010Y016934D01*
X023059Y016885D01*
X023116Y016843D01*
X023179Y016812D01*
X023246Y016790D01*
X023301Y016781D01*
X023301Y017176D01*
X023301Y017159D02*
X023399Y017159D01*
X023399Y017256D02*
X024301Y017256D01*
X024301Y017176D02*
X023906Y017176D01*
X023915Y017121D01*
X023937Y017054D01*
X023968Y016991D01*
X024010Y016934D01*
X024059Y016885D01*
X024116Y016843D01*
X024179Y016812D01*
X024246Y016790D01*
X024301Y016781D01*
X024301Y017176D01*
X024301Y017159D02*
X024399Y017159D01*
X024399Y017256D02*
X025350Y017256D01*
X025350Y017353D02*
X024778Y017353D01*
X024736Y017450D02*
X025350Y017450D01*
X025350Y017547D02*
X024659Y017547D01*
X024399Y017547D02*
X024301Y017547D01*
X024301Y017450D02*
X024399Y017450D01*
X024399Y017353D02*
X024301Y017353D01*
X024301Y017062D02*
X024399Y017062D01*
X024399Y016965D02*
X024301Y016965D01*
X024301Y016868D02*
X024399Y016868D01*
X024618Y016868D02*
X025350Y016868D01*
X025350Y016771D02*
X022850Y016771D01*
X022850Y016674D02*
X025350Y016674D01*
X025350Y016577D02*
X022850Y016577D01*
X022850Y016480D02*
X025350Y016480D01*
X025258Y016383D02*
X022942Y016383D01*
X022850Y016868D02*
X023082Y016868D01*
X022988Y016965D02*
X022850Y016965D01*
X022850Y017062D02*
X022934Y017062D01*
X022909Y017159D02*
X022850Y017159D01*
X023301Y017062D02*
X023399Y017062D01*
X023399Y016965D02*
X023301Y016965D01*
X023301Y016868D02*
X023399Y016868D01*
X023618Y016868D02*
X024082Y016868D01*
X023988Y016965D02*
X023712Y016965D01*
X023766Y017062D02*
X023934Y017062D01*
X023909Y017159D02*
X023791Y017159D01*
X023778Y017353D02*
X023922Y017353D01*
X023964Y017450D02*
X023736Y017450D01*
X023659Y017547D02*
X024041Y017547D01*
X023399Y017547D02*
X023301Y017547D01*
X023301Y017450D02*
X023399Y017450D01*
X023399Y017353D02*
X023301Y017353D01*
X024712Y016965D02*
X025350Y016965D01*
X025350Y017062D02*
X024766Y017062D01*
X024791Y017159D02*
X025350Y017159D01*
X025350Y018225D02*
X002850Y018225D01*
X002850Y018128D02*
X014140Y018128D01*
X016475Y015475D02*
X017350Y015475D01*
X018100Y015100D02*
X018350Y015350D01*
X018350Y015475D01*
X018100Y015100D02*
X016475Y015100D01*
X016350Y014975D01*
X016350Y013475D01*
X016234Y013359D01*
X016234Y012827D01*
X016490Y012827D02*
X016490Y012335D01*
X016746Y012827D02*
X016746Y014746D01*
X016850Y014850D01*
X018475Y014850D01*
X018850Y015225D01*
X018850Y015600D01*
X019225Y015975D01*
X019475Y015975D01*
X019975Y015475D01*
X020350Y015475D01*
X020141Y014725D02*
X019827Y014725D01*
X019827Y014281D01*
X019842Y014281D01*
X019906Y014217D01*
X019906Y013733D01*
X019842Y013669D01*
X019476Y013669D01*
X019472Y013673D01*
X019468Y013669D01*
X019453Y013669D01*
X019453Y013643D01*
X020149Y013643D01*
X020149Y014007D01*
X020213Y014071D01*
X020737Y014071D01*
X020801Y014007D01*
X020801Y013068D01*
X020737Y013004D01*
X020213Y013004D01*
X020149Y013068D01*
X020149Y013307D01*
X019872Y013307D01*
X019906Y013272D01*
X019906Y012809D01*
X020149Y012809D01*
X020149Y012882D01*
X020213Y012946D01*
X020737Y012946D01*
X020801Y012882D01*
X020801Y012398D01*
X020737Y012334D01*
X020213Y012334D01*
X020149Y012398D01*
X020149Y012472D01*
X019886Y012472D01*
X019886Y012131D01*
X019885Y012130D01*
X019885Y011983D01*
X019821Y011919D01*
X019788Y011919D01*
X019788Y011647D01*
X019678Y011537D01*
X019616Y011475D01*
X021350Y011475D01*
X021475Y011600D01*
X021475Y014600D01*
X021350Y014725D01*
X020809Y014725D01*
X020811Y014723D01*
X020831Y014689D01*
X020841Y014651D01*
X020841Y014484D01*
X020524Y014484D01*
X020524Y014385D01*
X020524Y014089D01*
X020711Y014089D01*
X020749Y014099D01*
X020783Y014118D01*
X020811Y014146D01*
X020831Y014180D01*
X020841Y014218D01*
X020841Y014385D01*
X020524Y014385D01*
X020426Y014385D01*
X020426Y014089D01*
X020239Y014089D01*
X020201Y014099D01*
X020167Y014118D01*
X020139Y014146D01*
X020119Y014180D01*
X020109Y014218D01*
X020109Y014385D01*
X020426Y014385D01*
X020426Y014484D01*
X020109Y014484D01*
X020109Y014651D01*
X020119Y014689D01*
X020139Y014723D01*
X020141Y014725D01*
X020109Y014639D02*
X019827Y014639D01*
X019827Y014542D02*
X020109Y014542D01*
X020109Y014348D02*
X019827Y014348D01*
X019827Y014445D02*
X020426Y014445D01*
X020426Y014348D02*
X020524Y014348D01*
X020524Y014251D02*
X020426Y014251D01*
X020426Y014154D02*
X020524Y014154D01*
X020751Y014057D02*
X021475Y014057D01*
X021475Y013960D02*
X020801Y013960D01*
X020801Y013863D02*
X021475Y013863D01*
X021475Y013766D02*
X020801Y013766D01*
X020801Y013670D02*
X021475Y013670D01*
X021475Y013573D02*
X020801Y013573D01*
X020801Y013476D02*
X021475Y013476D01*
X021475Y013379D02*
X020801Y013379D01*
X020801Y013282D02*
X021475Y013282D01*
X021475Y013185D02*
X020801Y013185D01*
X020801Y013088D02*
X021475Y013088D01*
X021475Y012991D02*
X019906Y012991D01*
X019906Y012894D02*
X020161Y012894D01*
X020149Y013088D02*
X019906Y013088D01*
X019906Y013185D02*
X020149Y013185D01*
X020149Y013282D02*
X019896Y013282D01*
X019447Y013307D02*
X019412Y013272D01*
X019412Y012788D01*
X019432Y012768D01*
X019432Y012531D01*
X019298Y012531D01*
X019246Y012479D01*
X019246Y012479D01*
X019226Y012513D01*
X019199Y012541D01*
X019164Y012561D01*
X019127Y012571D01*
X018940Y012571D01*
X018940Y012274D01*
X018841Y012274D01*
X018841Y012176D01*
X018525Y012176D01*
X018525Y012009D01*
X018535Y011971D01*
X018554Y011937D01*
X018582Y011909D01*
X018616Y011889D01*
X018654Y011879D01*
X018841Y011879D01*
X018841Y012176D01*
X018940Y012176D01*
X018940Y011879D01*
X019127Y011879D01*
X019164Y011889D01*
X019199Y011909D01*
X019226Y011937D01*
X019246Y011971D01*
X019298Y011919D01*
X019412Y011919D01*
X019412Y011803D01*
X019397Y011788D01*
X018678Y011788D01*
X018553Y011913D01*
X018225Y011913D01*
X018225Y012612D01*
X018475Y012862D01*
X018664Y012862D01*
X018664Y012788D01*
X018728Y012724D01*
X019094Y012724D01*
X019158Y012788D01*
X019158Y013272D01*
X019094Y013336D01*
X018728Y013336D01*
X018664Y013272D01*
X018664Y013198D01*
X018335Y013198D01*
X018225Y013088D01*
X018225Y013088D01*
X018225Y014600D01*
X018317Y014692D01*
X018541Y014692D01*
X018574Y014725D01*
X019491Y014725D01*
X019491Y014281D01*
X019476Y014281D01*
X019472Y014277D01*
X019468Y014281D01*
X019151Y014281D01*
X019140Y014291D01*
X019106Y014311D01*
X019068Y014321D01*
X018931Y014321D01*
X018931Y013995D01*
X018891Y013995D01*
X018891Y013955D01*
X018931Y013955D01*
X018931Y013629D01*
X019068Y013629D01*
X019106Y013639D01*
X019117Y013645D01*
X019117Y013405D01*
X019215Y013307D01*
X019447Y013307D01*
X019422Y013282D02*
X019148Y013282D01*
X019143Y013379D02*
X018225Y013379D01*
X018225Y013476D02*
X019117Y013476D01*
X019117Y013573D02*
X018225Y013573D01*
X018225Y013670D02*
X018671Y013670D01*
X018682Y013659D02*
X018716Y013639D01*
X018754Y013629D01*
X018891Y013629D01*
X018891Y013955D01*
X018624Y013955D01*
X018624Y013759D01*
X018634Y013721D01*
X018654Y013687D01*
X018682Y013659D01*
X018624Y013766D02*
X018225Y013766D01*
X018225Y013863D02*
X018624Y013863D01*
X018624Y013995D02*
X018891Y013995D01*
X018891Y014321D01*
X018754Y014321D01*
X018716Y014311D01*
X018682Y014291D01*
X018654Y014263D01*
X018634Y014229D01*
X018624Y014191D01*
X018624Y013995D01*
X018624Y014057D02*
X018225Y014057D01*
X018225Y013960D02*
X018891Y013960D01*
X018891Y013863D02*
X018931Y013863D01*
X018931Y013766D02*
X018891Y013766D01*
X018891Y013670D02*
X018931Y013670D01*
X018931Y014057D02*
X018891Y014057D01*
X018891Y014154D02*
X018931Y014154D01*
X018931Y014251D02*
X018891Y014251D01*
X018647Y014251D02*
X018225Y014251D01*
X018225Y014154D02*
X018624Y014154D01*
X018225Y014348D02*
X019491Y014348D01*
X019491Y014445D02*
X018225Y014445D01*
X018225Y014542D02*
X019491Y014542D01*
X019491Y014639D02*
X018264Y014639D01*
X017543Y014045D02*
X017473Y013975D01*
X017100Y013975D01*
X017002Y013877D01*
X017002Y012827D01*
X015978Y012827D02*
X015975Y012830D01*
X015975Y013475D01*
X016100Y013600D01*
X016100Y015100D01*
X016475Y015475D01*
X015600Y013850D02*
X015600Y013725D01*
X015475Y013600D01*
X015475Y012836D01*
X015466Y012827D01*
X015210Y012827D02*
X015210Y013460D01*
X015225Y013475D01*
X015722Y013597D02*
X015722Y012827D01*
X015722Y013597D02*
X015850Y013725D01*
X018225Y013282D02*
X018674Y013282D01*
X018322Y013185D02*
X018225Y013185D01*
X018410Y012797D02*
X018664Y012797D01*
X018654Y012571D02*
X018616Y012561D01*
X018582Y012541D01*
X018554Y012513D01*
X018535Y012479D01*
X018525Y012441D01*
X018525Y012274D01*
X018841Y012274D01*
X018841Y012571D01*
X018654Y012571D01*
X018550Y012506D02*
X018225Y012506D01*
X018225Y012410D02*
X018525Y012410D01*
X018525Y012313D02*
X018225Y012313D01*
X018225Y012216D02*
X018841Y012216D01*
X018841Y012313D02*
X018940Y012313D01*
X018940Y012410D02*
X018841Y012410D01*
X018841Y012506D02*
X018940Y012506D01*
X019230Y012506D02*
X019273Y012506D01*
X019432Y012603D02*
X018225Y012603D01*
X018313Y012700D02*
X019432Y012700D01*
X019412Y012797D02*
X019158Y012797D01*
X019158Y012894D02*
X019412Y012894D01*
X019412Y012991D02*
X019158Y012991D01*
X019158Y013088D02*
X019412Y013088D01*
X019412Y013185D02*
X019158Y013185D01*
X019469Y013670D02*
X019475Y013670D01*
X019843Y013670D02*
X020149Y013670D01*
X020149Y013766D02*
X019906Y013766D01*
X019906Y013863D02*
X020149Y013863D01*
X020149Y013960D02*
X019906Y013960D01*
X019906Y014057D02*
X020199Y014057D01*
X020134Y014154D02*
X019906Y014154D01*
X019872Y014251D02*
X020109Y014251D01*
X020524Y014445D02*
X021475Y014445D01*
X021475Y014542D02*
X020841Y014542D01*
X020841Y014639D02*
X021436Y014639D01*
X021475Y014348D02*
X020841Y014348D01*
X020841Y014251D02*
X021475Y014251D01*
X021475Y014154D02*
X020816Y014154D01*
X020789Y012894D02*
X021475Y012894D01*
X021475Y012797D02*
X020801Y012797D01*
X020801Y012700D02*
X021475Y012700D01*
X021475Y012603D02*
X020801Y012603D01*
X020801Y012506D02*
X021475Y012506D01*
X021475Y012410D02*
X020801Y012410D01*
X020149Y012410D02*
X019886Y012410D01*
X019886Y012313D02*
X021475Y012313D01*
X021475Y012216D02*
X019886Y012216D01*
X019885Y012119D02*
X021475Y012119D01*
X021475Y012022D02*
X019885Y012022D01*
X019827Y011925D02*
X021475Y011925D01*
X021475Y011828D02*
X019788Y011828D01*
X019788Y011731D02*
X021475Y011731D01*
X021475Y011634D02*
X019775Y011634D01*
X019678Y011537D02*
X021412Y011537D01*
X019412Y011828D02*
X018638Y011828D01*
X018566Y011925D02*
X018225Y011925D01*
X018225Y012022D02*
X018525Y012022D01*
X018525Y012119D02*
X018225Y012119D01*
X018841Y012119D02*
X018940Y012119D01*
X018940Y012022D02*
X018841Y012022D01*
X018841Y011925D02*
X018940Y011925D01*
X019215Y011925D02*
X019292Y011925D01*
X019246Y011971D02*
X019246Y011971D01*
X017524Y010301D02*
X017202Y010623D01*
X017002Y010623D01*
X016746Y010623D02*
X016746Y010204D01*
X016850Y010100D01*
X016643Y009975D02*
X017725Y009975D01*
X017850Y009850D01*
X017850Y009491D01*
X017787Y009428D01*
X017787Y008787D01*
X017551Y008551D01*
X017273Y008551D01*
X017273Y008156D01*
X017475Y008156D01*
X017475Y008031D01*
X016977Y008031D01*
X016795Y008213D01*
X016829Y008247D01*
X016849Y008213D01*
X016876Y008185D01*
X016911Y008166D01*
X016948Y008156D01*
X017175Y008156D01*
X017175Y008551D01*
X017273Y008551D01*
X017273Y008649D01*
X017175Y008649D01*
X017175Y009044D01*
X017135Y009044D01*
X017135Y009301D01*
X017234Y009301D01*
X017234Y009399D01*
X017550Y009399D01*
X017550Y009566D01*
X017540Y009604D01*
X017521Y009638D01*
X017493Y009666D01*
X017459Y009686D01*
X017421Y009696D01*
X017234Y009696D01*
X017234Y009399D01*
X017135Y009399D01*
X017135Y009696D01*
X016948Y009696D01*
X016911Y009686D01*
X016876Y009666D01*
X016849Y009638D01*
X016829Y009604D01*
X016777Y009656D01*
X016643Y009656D01*
X016643Y009975D01*
X016643Y009889D02*
X017811Y009889D01*
X017850Y009793D02*
X016643Y009793D01*
X016643Y009696D02*
X016947Y009696D01*
X016829Y009604D02*
X016829Y009604D01*
X017135Y009599D02*
X017234Y009599D01*
X017234Y009696D02*
X017135Y009696D01*
X017135Y009502D02*
X017234Y009502D01*
X017234Y009405D02*
X017135Y009405D01*
X017234Y009308D02*
X017787Y009308D01*
X017787Y009405D02*
X017550Y009405D01*
X017550Y009502D02*
X017850Y009502D01*
X017850Y009599D02*
X017542Y009599D01*
X017422Y009696D02*
X017850Y009696D01*
X017787Y009211D02*
X017550Y009211D01*
X017550Y009134D02*
X017550Y009301D01*
X017234Y009301D01*
X017234Y009004D01*
X017273Y009004D01*
X017273Y008649D01*
X017629Y008649D01*
X017629Y008915D01*
X017619Y008953D01*
X017599Y008987D01*
X017572Y009015D01*
X017538Y009034D01*
X017503Y009044D01*
X017521Y009062D01*
X017540Y009096D01*
X017550Y009134D01*
X017545Y009114D02*
X017787Y009114D01*
X017787Y009017D02*
X017567Y009017D01*
X017628Y008920D02*
X017787Y008920D01*
X017787Y008823D02*
X017629Y008823D01*
X017629Y008726D02*
X017726Y008726D01*
X017629Y008629D02*
X017273Y008629D01*
X017273Y008533D02*
X017175Y008533D01*
X017175Y008436D02*
X017273Y008436D01*
X017273Y008339D02*
X017175Y008339D01*
X017175Y008242D02*
X017273Y008242D01*
X017475Y008145D02*
X016863Y008145D01*
X016832Y008242D02*
X016823Y008242D01*
X016829Y008247D02*
X016829Y008247D01*
X016960Y008048D02*
X017475Y008048D01*
X017273Y008726D02*
X017175Y008726D01*
X017175Y008823D02*
X017273Y008823D01*
X017273Y008920D02*
X017175Y008920D01*
X017175Y009017D02*
X017234Y009017D01*
X017234Y009114D02*
X017135Y009114D01*
X017135Y009211D02*
X017234Y009211D01*
X016100Y009350D02*
X016100Y009850D01*
X016234Y009984D01*
X016234Y010623D01*
X016490Y010623D02*
X016490Y010115D01*
X016475Y010100D01*
X015978Y010103D02*
X015725Y009850D01*
X015725Y009475D01*
X015978Y010103D02*
X015978Y010623D01*
X015722Y010623D02*
X015722Y011225D01*
X015725Y011225D01*
X017524Y010301D02*
X017795Y010301D01*
X023475Y010277D02*
X027786Y010277D01*
X027786Y010180D02*
X023536Y010180D01*
X023475Y010241D02*
X023475Y011084D01*
X023678Y011287D01*
X023788Y011397D01*
X023788Y013272D01*
X024011Y013495D01*
X024046Y013495D01*
X024046Y013145D01*
X024110Y013081D01*
X025145Y013081D01*
X025209Y013145D01*
X025209Y013831D01*
X026218Y014840D01*
X026269Y014819D01*
X026431Y014819D01*
X026580Y014881D01*
X026694Y014995D01*
X026756Y015144D01*
X026756Y015306D01*
X026694Y015455D01*
X026580Y015569D01*
X026431Y015631D01*
X026269Y015631D01*
X026120Y015569D01*
X026063Y015512D01*
X025997Y015484D01*
X025910Y015398D01*
X024796Y014284D01*
X024110Y014284D01*
X024046Y014220D01*
X024046Y013871D01*
X023855Y013871D01*
X023745Y013761D01*
X023745Y013761D01*
X023522Y013538D01*
X023475Y013491D01*
X023475Y015975D01*
X023600Y016100D01*
X025922Y016100D01*
X025937Y016054D01*
X025968Y015991D01*
X026010Y015934D01*
X026059Y015885D01*
X026116Y015843D01*
X026179Y015812D01*
X026246Y015790D01*
X026301Y015781D01*
X026301Y016100D01*
X026399Y016100D01*
X026399Y015781D01*
X026454Y015790D01*
X026521Y015812D01*
X026584Y015843D01*
X026641Y015885D01*
X026690Y015934D01*
X026732Y015991D01*
X026763Y016054D01*
X026778Y016100D01*
X027667Y016100D01*
X028062Y015706D01*
X028062Y014501D01*
X027850Y014501D01*
X027786Y014437D01*
X027786Y013342D01*
X027850Y013278D01*
X027865Y013278D01*
X027865Y011331D01*
X027850Y011331D01*
X027786Y011267D01*
X027786Y010173D01*
X027850Y010109D01*
X028093Y010109D01*
X028022Y010038D01*
X023678Y010038D01*
X023475Y010241D01*
X023475Y010374D02*
X024018Y010374D01*
X024016Y010377D02*
X024036Y010343D01*
X024063Y010315D01*
X024098Y010296D01*
X024135Y010285D01*
X024578Y010285D01*
X024578Y010878D01*
X024006Y010878D01*
X024006Y010415D01*
X024016Y010377D01*
X024006Y010471D02*
X023475Y010471D01*
X023475Y010568D02*
X024006Y010568D01*
X024006Y010665D02*
X023475Y010665D01*
X023475Y010762D02*
X024006Y010762D01*
X024006Y010859D02*
X023475Y010859D01*
X023475Y010956D02*
X024578Y010956D01*
X024578Y010976D02*
X024578Y010878D01*
X024677Y010878D01*
X024677Y010976D01*
X025249Y010976D01*
X025249Y011439D01*
X025239Y011476D01*
X025219Y011511D01*
X025192Y011538D01*
X025158Y011558D01*
X025120Y011568D01*
X024677Y011568D01*
X024677Y010976D01*
X024578Y010976D01*
X024006Y010976D01*
X024006Y011439D01*
X024016Y011476D01*
X024036Y011511D01*
X024063Y011538D01*
X024098Y011558D01*
X024135Y011568D01*
X024578Y011568D01*
X024578Y010976D01*
X024578Y011053D02*
X024677Y011053D01*
X024677Y011150D02*
X024578Y011150D01*
X024578Y011246D02*
X024677Y011246D01*
X024677Y011343D02*
X024578Y011343D01*
X024578Y011440D02*
X024677Y011440D01*
X024677Y011537D02*
X024578Y011537D01*
X024062Y011537D02*
X023788Y011537D01*
X023788Y011440D02*
X024006Y011440D01*
X024006Y011343D02*
X023734Y011343D01*
X023637Y011246D02*
X024006Y011246D01*
X024006Y011150D02*
X023540Y011150D01*
X023475Y011053D02*
X024006Y011053D01*
X024578Y010859D02*
X024677Y010859D01*
X024677Y010878D02*
X024677Y010285D01*
X025120Y010285D01*
X025158Y010296D01*
X025192Y010315D01*
X025219Y010343D01*
X025239Y010377D01*
X025249Y010415D01*
X025249Y010878D01*
X024677Y010878D01*
X024677Y010956D02*
X027786Y010956D01*
X027786Y011053D02*
X025249Y011053D01*
X025249Y011150D02*
X027786Y011150D01*
X027786Y011246D02*
X025249Y011246D01*
X025249Y011343D02*
X027865Y011343D01*
X027865Y011440D02*
X025249Y011440D01*
X025193Y011537D02*
X027865Y011537D01*
X027865Y011634D02*
X023788Y011634D01*
X023788Y011731D02*
X024063Y011731D01*
X024071Y011723D02*
X025185Y011723D01*
X025249Y011787D01*
X025249Y012044D01*
X025661Y012044D01*
X025773Y012091D01*
X025859Y012177D01*
X025906Y012289D01*
X025906Y012411D01*
X025859Y012523D01*
X025773Y012609D01*
X025661Y012656D01*
X025249Y012656D01*
X025249Y012822D01*
X025185Y012886D01*
X024071Y012886D01*
X024007Y012822D01*
X024007Y011787D01*
X024071Y011723D01*
X024007Y011828D02*
X023788Y011828D01*
X023788Y011925D02*
X024007Y011925D01*
X024007Y012022D02*
X023788Y012022D01*
X023788Y012119D02*
X024007Y012119D01*
X024007Y012216D02*
X023788Y012216D01*
X023788Y012313D02*
X024007Y012313D01*
X024007Y012410D02*
X023788Y012410D01*
X023788Y012506D02*
X024007Y012506D01*
X024007Y012603D02*
X023788Y012603D01*
X023788Y012700D02*
X024007Y012700D01*
X024007Y012797D02*
X023788Y012797D01*
X023788Y012894D02*
X027865Y012894D01*
X027865Y012797D02*
X025249Y012797D01*
X025249Y012700D02*
X027865Y012700D01*
X027865Y012603D02*
X025779Y012603D01*
X025866Y012506D02*
X027865Y012506D01*
X027865Y012410D02*
X025906Y012410D01*
X025906Y012313D02*
X027865Y012313D01*
X027865Y012216D02*
X025876Y012216D01*
X025802Y012119D02*
X027865Y012119D01*
X027865Y012022D02*
X025249Y012022D01*
X025249Y011925D02*
X027865Y011925D01*
X027865Y011828D02*
X025249Y011828D01*
X025193Y011731D02*
X027865Y011731D01*
X028871Y011962D02*
X028871Y012648D01*
X028909Y012648D01*
X029036Y012700D01*
X029350Y012700D01*
X029350Y012603D02*
X028871Y012603D01*
X028871Y012506D02*
X029350Y012506D01*
X029350Y012410D02*
X028871Y012410D01*
X028871Y012313D02*
X029350Y012313D01*
X029350Y012216D02*
X028871Y012216D01*
X028871Y012119D02*
X029350Y012119D01*
X029350Y012022D02*
X028871Y012022D01*
X028871Y011962D02*
X028909Y011962D01*
X029036Y011909D01*
X029134Y011812D01*
X029186Y011685D01*
X029186Y011547D01*
X029134Y011420D01*
X029036Y011322D01*
X028936Y011281D01*
X028949Y011267D01*
X028949Y010173D01*
X028885Y010109D01*
X028538Y010109D01*
X028538Y010022D01*
X028428Y009912D01*
X028178Y009662D01*
X023522Y009662D01*
X023475Y009709D01*
X023475Y008426D01*
X023927Y008426D01*
X023991Y008362D01*
X023991Y008327D01*
X028006Y008327D01*
X028194Y008327D01*
X028444Y008077D01*
X028577Y007944D01*
X028577Y007808D01*
X028885Y007808D01*
X028949Y007744D01*
X028949Y006649D01*
X028936Y006636D01*
X029036Y006594D01*
X029134Y006497D01*
X029186Y006370D01*
X029186Y006232D01*
X029134Y006105D01*
X029036Y006007D01*
X028909Y005955D01*
X028871Y005955D01*
X028871Y005269D01*
X028909Y005269D01*
X029036Y005216D01*
X029134Y005119D01*
X029186Y004992D01*
X029186Y004854D01*
X029134Y004727D01*
X029036Y004629D01*
X028936Y004588D01*
X028949Y004574D01*
X028949Y003480D01*
X028885Y003416D01*
X028538Y003416D01*
X028538Y003147D01*
X028428Y003037D01*
X028303Y002912D01*
X027178Y002912D01*
X026991Y002725D01*
X029350Y002725D01*
X029350Y016100D01*
X028533Y016100D01*
X028541Y016092D01*
X028627Y016006D01*
X028674Y015893D01*
X028674Y014501D01*
X028885Y014501D01*
X028949Y014437D01*
X028949Y013342D01*
X028936Y013329D01*
X029036Y013287D01*
X029134Y013190D01*
X029186Y013063D01*
X029186Y012925D01*
X029134Y012798D01*
X029036Y012700D01*
X029133Y012797D02*
X029350Y012797D01*
X029350Y012894D02*
X029174Y012894D01*
X029186Y012991D02*
X029350Y012991D01*
X029350Y013088D02*
X029176Y013088D01*
X029136Y013185D02*
X029350Y013185D01*
X029350Y013282D02*
X029041Y013282D01*
X028949Y013379D02*
X029350Y013379D01*
X029350Y013476D02*
X028949Y013476D01*
X028949Y013573D02*
X029350Y013573D01*
X029350Y013670D02*
X028949Y013670D01*
X028949Y013766D02*
X029350Y013766D01*
X029350Y013863D02*
X028949Y013863D01*
X028949Y013960D02*
X029350Y013960D01*
X029350Y014057D02*
X028949Y014057D01*
X028949Y014154D02*
X029350Y014154D01*
X029350Y014251D02*
X028949Y014251D01*
X028949Y014348D02*
X029350Y014348D01*
X029350Y014445D02*
X028941Y014445D01*
X028674Y014542D02*
X029350Y014542D01*
X029350Y014639D02*
X028674Y014639D01*
X028674Y014736D02*
X029350Y014736D01*
X029350Y014833D02*
X028674Y014833D01*
X028674Y014930D02*
X029350Y014930D01*
X029350Y015027D02*
X028674Y015027D01*
X028674Y015123D02*
X029350Y015123D01*
X029350Y015220D02*
X028674Y015220D01*
X028674Y015317D02*
X029350Y015317D01*
X029350Y015414D02*
X028674Y015414D01*
X028674Y015511D02*
X029350Y015511D01*
X029350Y015608D02*
X028674Y015608D01*
X028674Y015705D02*
X029350Y015705D01*
X029350Y015802D02*
X028674Y015802D01*
X028671Y015899D02*
X029350Y015899D01*
X029350Y015996D02*
X028631Y015996D01*
X028540Y016093D02*
X029350Y016093D01*
X028062Y015705D02*
X023475Y015705D01*
X023475Y015802D02*
X026209Y015802D01*
X026301Y015802D02*
X026399Y015802D01*
X026491Y015802D02*
X027965Y015802D01*
X027868Y015899D02*
X026655Y015899D01*
X026734Y015996D02*
X027771Y015996D01*
X027674Y016093D02*
X026776Y016093D01*
X026399Y016093D02*
X026301Y016093D01*
X026301Y015996D02*
X026399Y015996D01*
X026399Y015899D02*
X026301Y015899D01*
X026045Y015899D02*
X023475Y015899D01*
X023496Y015996D02*
X025966Y015996D01*
X025924Y016093D02*
X023593Y016093D01*
X023475Y015608D02*
X026214Y015608D01*
X026061Y015511D02*
X023475Y015511D01*
X023475Y015414D02*
X025926Y015414D01*
X025829Y015317D02*
X023475Y015317D01*
X023475Y015220D02*
X025732Y015220D01*
X025635Y015123D02*
X023475Y015123D01*
X023475Y015027D02*
X025539Y015027D01*
X025442Y014930D02*
X023475Y014930D01*
X023475Y014833D02*
X025345Y014833D01*
X025248Y014736D02*
X023475Y014736D01*
X023475Y014639D02*
X025151Y014639D01*
X025054Y014542D02*
X023475Y014542D01*
X023475Y014445D02*
X024957Y014445D01*
X024860Y014348D02*
X023475Y014348D01*
X023475Y014251D02*
X024077Y014251D01*
X024046Y014154D02*
X023475Y014154D01*
X023475Y014057D02*
X024046Y014057D01*
X024046Y013960D02*
X023475Y013960D01*
X023475Y013863D02*
X023848Y013863D01*
X023751Y013766D02*
X023475Y013766D01*
X023475Y013670D02*
X023654Y013670D01*
X023557Y013573D02*
X023475Y013573D01*
X023522Y013538D02*
X023522Y013538D01*
X023798Y013282D02*
X024046Y013282D01*
X024046Y013379D02*
X023895Y013379D01*
X023992Y013476D02*
X024046Y013476D01*
X024046Y013185D02*
X023788Y013185D01*
X023788Y013088D02*
X024103Y013088D01*
X023788Y012991D02*
X027865Y012991D01*
X027865Y013088D02*
X025152Y013088D01*
X025209Y013185D02*
X027865Y013185D01*
X027846Y013282D02*
X025209Y013282D01*
X025209Y013379D02*
X027786Y013379D01*
X027786Y013476D02*
X025209Y013476D01*
X025209Y013573D02*
X027786Y013573D01*
X027786Y013670D02*
X025209Y013670D01*
X025209Y013766D02*
X027786Y013766D01*
X027786Y013863D02*
X025241Y013863D01*
X025338Y013960D02*
X027786Y013960D01*
X027786Y014057D02*
X025435Y014057D01*
X025532Y014154D02*
X027786Y014154D01*
X027786Y014251D02*
X025629Y014251D01*
X025726Y014348D02*
X027786Y014348D01*
X027794Y014445D02*
X025823Y014445D01*
X025920Y014542D02*
X028062Y014542D01*
X028062Y014639D02*
X026017Y014639D01*
X026113Y014736D02*
X028062Y014736D01*
X028062Y014833D02*
X026464Y014833D01*
X026629Y014930D02*
X028062Y014930D01*
X028062Y015027D02*
X026707Y015027D01*
X026747Y015123D02*
X028062Y015123D01*
X028062Y015220D02*
X026756Y015220D01*
X026751Y015317D02*
X028062Y015317D01*
X028062Y015414D02*
X026711Y015414D01*
X026638Y015511D02*
X028062Y015511D01*
X028062Y015608D02*
X026486Y015608D01*
X026236Y014833D02*
X026210Y014833D01*
X028998Y011925D02*
X029350Y011925D01*
X029350Y011828D02*
X029117Y011828D01*
X029167Y011731D02*
X029350Y011731D01*
X029350Y011634D02*
X029186Y011634D01*
X029182Y011537D02*
X029350Y011537D01*
X029350Y011440D02*
X029142Y011440D01*
X029057Y011343D02*
X029350Y011343D01*
X029350Y011246D02*
X028949Y011246D01*
X028949Y011150D02*
X029350Y011150D01*
X029350Y011053D02*
X028949Y011053D01*
X028949Y010956D02*
X029350Y010956D01*
X029350Y010859D02*
X028949Y010859D01*
X028949Y010762D02*
X029350Y010762D01*
X029350Y010665D02*
X028949Y010665D01*
X028949Y010568D02*
X029350Y010568D01*
X029350Y010471D02*
X028949Y010471D01*
X028949Y010374D02*
X029350Y010374D01*
X029350Y010277D02*
X028949Y010277D01*
X028949Y010180D02*
X029350Y010180D01*
X029350Y010083D02*
X028538Y010083D01*
X028502Y009986D02*
X029350Y009986D01*
X029350Y009889D02*
X028405Y009889D01*
X028308Y009793D02*
X029350Y009793D01*
X029350Y009696D02*
X028211Y009696D01*
X028068Y010083D02*
X023632Y010083D01*
X023489Y009696D02*
X023475Y009696D01*
X023475Y009599D02*
X029350Y009599D01*
X029350Y009502D02*
X023475Y009502D01*
X023475Y009405D02*
X029350Y009405D01*
X029350Y009308D02*
X023475Y009308D01*
X023475Y009211D02*
X029350Y009211D01*
X029350Y009114D02*
X023475Y009114D01*
X023475Y009017D02*
X029350Y009017D01*
X029350Y008920D02*
X023475Y008920D01*
X023475Y008823D02*
X029350Y008823D01*
X029350Y008726D02*
X023475Y008726D01*
X023475Y008629D02*
X029350Y008629D01*
X029350Y008533D02*
X023475Y008533D01*
X023475Y008436D02*
X029350Y008436D01*
X029350Y008339D02*
X023991Y008339D01*
X023991Y006748D02*
X024046Y006748D01*
X024046Y006452D01*
X024110Y006388D01*
X025145Y006388D01*
X025209Y006452D01*
X025209Y006472D01*
X026325Y006472D01*
X026422Y006512D01*
X026787Y006147D01*
X026787Y003553D01*
X026147Y002913D01*
X026037Y002803D01*
X026037Y001678D01*
X026022Y001663D01*
X023475Y001663D01*
X023475Y006649D01*
X023927Y006649D01*
X023991Y006713D01*
X023991Y006748D01*
X023968Y006691D02*
X024046Y006691D01*
X024046Y006594D02*
X023475Y006594D01*
X023475Y006497D02*
X024046Y006497D01*
X024098Y006400D02*
X023475Y006400D01*
X023475Y006303D02*
X026631Y006303D01*
X026728Y006206D02*
X026525Y006206D01*
X026513Y006219D02*
X026407Y006262D01*
X026293Y006262D01*
X026187Y006219D01*
X026106Y006138D01*
X026065Y006038D01*
X025958Y005953D01*
X025885Y006026D01*
X025700Y006103D01*
X025249Y006103D01*
X025249Y006129D01*
X025185Y006193D01*
X024071Y006193D01*
X024007Y006129D01*
X024007Y005094D01*
X024071Y005030D01*
X025185Y005030D01*
X025249Y005094D01*
X025249Y005097D01*
X025347Y005097D01*
X025347Y003875D01*
X025424Y003690D01*
X025565Y003549D01*
X025631Y003521D01*
X025537Y003428D01*
X025537Y002193D01*
X025481Y002138D01*
X025438Y002032D01*
X025438Y001918D01*
X025481Y001812D01*
X025562Y001731D01*
X025668Y001688D01*
X025782Y001688D01*
X025888Y001731D01*
X025969Y001812D01*
X026012Y001918D01*
X026012Y002032D01*
X025969Y002138D01*
X025913Y002193D01*
X025913Y003272D01*
X026038Y003397D01*
X026038Y003509D01*
X026135Y003549D01*
X026276Y003690D01*
X026353Y003875D01*
X026353Y005450D01*
X026279Y005627D01*
X026355Y005688D01*
X026407Y005688D01*
X026513Y005731D01*
X026594Y005812D01*
X026637Y005918D01*
X026637Y006032D01*
X026594Y006138D01*
X026513Y006219D01*
X026605Y006109D02*
X026787Y006109D01*
X026787Y006012D02*
X026637Y006012D01*
X026636Y005916D02*
X026787Y005916D01*
X026787Y005819D02*
X026596Y005819D01*
X026489Y005722D02*
X026787Y005722D01*
X026787Y005625D02*
X026281Y005625D01*
X026321Y005528D02*
X026787Y005528D01*
X026787Y005431D02*
X026353Y005431D01*
X026353Y005334D02*
X026787Y005334D01*
X026787Y005237D02*
X026353Y005237D01*
X026353Y005140D02*
X026787Y005140D01*
X026787Y005043D02*
X026353Y005043D01*
X026353Y004946D02*
X026787Y004946D01*
X026787Y004849D02*
X026353Y004849D01*
X026353Y004752D02*
X026787Y004752D01*
X026787Y004655D02*
X026353Y004655D01*
X026353Y004559D02*
X026787Y004559D01*
X026787Y004462D02*
X026353Y004462D01*
X026353Y004365D02*
X026787Y004365D01*
X026787Y004268D02*
X026353Y004268D01*
X026353Y004171D02*
X026787Y004171D01*
X026787Y004074D02*
X026353Y004074D01*
X026353Y003977D02*
X026787Y003977D01*
X026787Y003880D02*
X026353Y003880D01*
X026315Y003783D02*
X026787Y003783D01*
X026787Y003686D02*
X026272Y003686D01*
X026176Y003589D02*
X026787Y003589D01*
X026727Y003492D02*
X026038Y003492D01*
X026036Y003395D02*
X026630Y003395D01*
X026533Y003299D02*
X025939Y003299D01*
X025913Y003202D02*
X026436Y003202D01*
X026339Y003105D02*
X025913Y003105D01*
X025913Y003008D02*
X026242Y003008D01*
X026145Y002911D02*
X025913Y002911D01*
X025913Y002814D02*
X026048Y002814D01*
X026037Y002717D02*
X025913Y002717D01*
X025913Y002620D02*
X026037Y002620D01*
X026037Y002523D02*
X025913Y002523D01*
X025913Y002426D02*
X026037Y002426D01*
X026037Y002329D02*
X025913Y002329D01*
X025913Y002232D02*
X026037Y002232D01*
X026037Y002135D02*
X025970Y002135D01*
X026010Y002039D02*
X026037Y002039D01*
X026037Y001942D02*
X026012Y001942D01*
X026037Y001845D02*
X025982Y001845D01*
X026037Y001748D02*
X025904Y001748D01*
X025546Y001748D02*
X023475Y001748D01*
X023475Y001845D02*
X025468Y001845D01*
X025438Y001942D02*
X023475Y001942D01*
X023475Y002039D02*
X025440Y002039D01*
X025480Y002135D02*
X023475Y002135D01*
X023475Y002232D02*
X025537Y002232D01*
X025537Y002329D02*
X023475Y002329D01*
X023475Y002426D02*
X025537Y002426D01*
X025537Y002523D02*
X023475Y002523D01*
X023475Y002620D02*
X025537Y002620D01*
X025537Y002717D02*
X023475Y002717D01*
X023475Y002814D02*
X025537Y002814D01*
X025537Y002911D02*
X023475Y002911D01*
X023475Y003008D02*
X025537Y003008D01*
X025537Y003105D02*
X023475Y003105D01*
X023475Y003202D02*
X025537Y003202D01*
X025537Y003299D02*
X023475Y003299D01*
X023475Y003395D02*
X025537Y003395D01*
X025602Y003492D02*
X023475Y003492D01*
X023475Y003589D02*
X025524Y003589D01*
X025428Y003686D02*
X025240Y003686D01*
X025239Y003684D02*
X025249Y003722D01*
X025249Y004185D01*
X024677Y004185D01*
X024677Y004283D01*
X025249Y004283D01*
X025249Y004746D01*
X025239Y004784D01*
X025219Y004818D01*
X025192Y004845D01*
X025158Y004865D01*
X025120Y004875D01*
X024677Y004875D01*
X024677Y004283D01*
X024578Y004283D01*
X024578Y004185D01*
X024006Y004185D01*
X024006Y003722D01*
X024016Y003684D01*
X024036Y003650D01*
X024063Y003622D01*
X024098Y003603D01*
X024135Y003593D01*
X024578Y003593D01*
X024578Y004185D01*
X024677Y004185D01*
X024677Y003593D01*
X025120Y003593D01*
X025158Y003603D01*
X025192Y003622D01*
X025219Y003650D01*
X025239Y003684D01*
X025249Y003783D02*
X025385Y003783D01*
X025347Y003880D02*
X025249Y003880D01*
X025249Y003977D02*
X025347Y003977D01*
X025347Y004074D02*
X025249Y004074D01*
X025249Y004171D02*
X025347Y004171D01*
X025347Y004268D02*
X024677Y004268D01*
X024677Y004365D02*
X024578Y004365D01*
X024578Y004283D02*
X024578Y004875D01*
X024135Y004875D01*
X024098Y004865D01*
X024063Y004845D01*
X024036Y004818D01*
X024016Y004784D01*
X024006Y004746D01*
X024006Y004283D01*
X024578Y004283D01*
X024578Y004268D02*
X023475Y004268D01*
X023475Y004365D02*
X024006Y004365D01*
X024006Y004462D02*
X023475Y004462D01*
X023475Y004559D02*
X024006Y004559D01*
X024006Y004655D02*
X023475Y004655D01*
X023475Y004752D02*
X024008Y004752D01*
X024070Y004849D02*
X023475Y004849D01*
X023475Y004946D02*
X025347Y004946D01*
X025347Y004849D02*
X025185Y004849D01*
X025247Y004752D02*
X025347Y004752D01*
X025347Y004655D02*
X025249Y004655D01*
X025249Y004559D02*
X025347Y004559D01*
X025347Y004462D02*
X025249Y004462D01*
X025249Y004365D02*
X025347Y004365D01*
X024677Y004462D02*
X024578Y004462D01*
X024578Y004559D02*
X024677Y004559D01*
X024677Y004655D02*
X024578Y004655D01*
X024578Y004752D02*
X024677Y004752D01*
X024677Y004849D02*
X024578Y004849D01*
X024057Y005043D02*
X023475Y005043D01*
X023475Y005140D02*
X024007Y005140D01*
X024007Y005237D02*
X023475Y005237D01*
X023475Y005334D02*
X024007Y005334D01*
X024007Y005431D02*
X023475Y005431D01*
X023475Y005528D02*
X024007Y005528D01*
X024007Y005625D02*
X023475Y005625D01*
X023475Y005722D02*
X024007Y005722D01*
X024007Y005819D02*
X023475Y005819D01*
X023475Y005916D02*
X024007Y005916D01*
X024007Y006012D02*
X023475Y006012D01*
X023475Y006109D02*
X024007Y006109D01*
X023475Y006206D02*
X026175Y006206D01*
X026095Y006109D02*
X025249Y006109D01*
X025157Y006400D02*
X026534Y006400D01*
X026437Y006497D02*
X026385Y006497D01*
X026033Y006012D02*
X025899Y006012D01*
X025347Y005043D02*
X025198Y005043D01*
X024677Y004171D02*
X024578Y004171D01*
X024578Y004074D02*
X024677Y004074D01*
X024677Y003977D02*
X024578Y003977D01*
X024578Y003880D02*
X024677Y003880D01*
X024677Y003783D02*
X024578Y003783D01*
X024578Y003686D02*
X024677Y003686D01*
X024016Y003686D02*
X023475Y003686D01*
X023475Y003783D02*
X024006Y003783D01*
X024006Y003880D02*
X023475Y003880D01*
X023475Y003977D02*
X024006Y003977D01*
X024006Y004074D02*
X023475Y004074D01*
X023475Y004171D02*
X024006Y004171D01*
X022616Y005002D02*
X022616Y005084D01*
X022350Y005350D01*
X020350Y005350D01*
X020350Y004970D01*
X019018Y002100D02*
X023225Y002100D01*
X023350Y001975D01*
X023350Y001663D01*
X020443Y001663D01*
X020388Y001719D01*
X020282Y001762D01*
X020168Y001762D01*
X020062Y001719D01*
X019981Y001638D01*
X019938Y001532D01*
X019938Y001418D01*
X019981Y001312D01*
X020006Y001288D01*
X019693Y001288D01*
X019638Y001344D01*
X019532Y001387D01*
X019418Y001387D01*
X019312Y001344D01*
X019231Y001263D01*
X019188Y001157D01*
X019188Y001043D01*
X019231Y000937D01*
X019312Y000856D01*
X019418Y000813D01*
X019532Y000813D01*
X019638Y000856D01*
X019693Y000912D01*
X023350Y000912D01*
X023350Y000643D01*
X019295Y000643D01*
X019018Y000920D01*
X019018Y002100D01*
X019018Y002039D02*
X023286Y002039D01*
X023350Y001942D02*
X019018Y001942D01*
X019018Y001845D02*
X023350Y001845D01*
X023350Y001748D02*
X020317Y001748D01*
X020133Y001748D02*
X019018Y001748D01*
X019018Y001651D02*
X019994Y001651D01*
X019947Y001554D02*
X019018Y001554D01*
X019018Y001457D02*
X019938Y001457D01*
X019962Y001360D02*
X019598Y001360D01*
X019352Y001360D02*
X019018Y001360D01*
X019018Y001263D02*
X019232Y001263D01*
X019191Y001166D02*
X019018Y001166D01*
X019018Y001069D02*
X019188Y001069D01*
X019217Y000972D02*
X019018Y000972D01*
X019063Y000875D02*
X019293Y000875D01*
X019159Y000778D02*
X023350Y000778D01*
X023350Y000682D02*
X019256Y000682D01*
X019657Y000875D02*
X023350Y000875D01*
X023475Y000875D02*
X025639Y000875D01*
X025668Y000887D02*
X025562Y000844D01*
X025481Y000763D01*
X025438Y000657D01*
X025438Y000643D01*
X023475Y000643D01*
X023475Y000912D01*
X026428Y000912D01*
X026538Y001022D01*
X026788Y001272D01*
X026788Y002522D01*
X026975Y002709D01*
X026975Y000350D01*
X025872Y000350D01*
X025888Y000356D01*
X025969Y000437D01*
X026012Y000543D01*
X026012Y000657D01*
X025969Y000763D01*
X025888Y000844D01*
X025782Y000887D01*
X025668Y000887D01*
X025811Y000875D02*
X026975Y000875D01*
X026975Y000778D02*
X025953Y000778D01*
X026002Y000682D02*
X026975Y000682D01*
X026975Y000585D02*
X026012Y000585D01*
X025989Y000488D02*
X026975Y000488D01*
X026975Y000391D02*
X025922Y000391D01*
X025448Y000682D02*
X023475Y000682D01*
X023475Y000778D02*
X025497Y000778D01*
X026488Y000972D02*
X026975Y000972D01*
X026975Y001069D02*
X026585Y001069D01*
X026682Y001166D02*
X026975Y001166D01*
X026975Y001263D02*
X026779Y001263D01*
X026788Y001360D02*
X026975Y001360D01*
X026975Y001457D02*
X026788Y001457D01*
X026788Y001554D02*
X026975Y001554D01*
X026975Y001651D02*
X026788Y001651D01*
X026788Y001748D02*
X026975Y001748D01*
X026975Y001845D02*
X026788Y001845D01*
X026788Y001942D02*
X026975Y001942D01*
X026975Y002039D02*
X026788Y002039D01*
X026788Y002135D02*
X026975Y002135D01*
X026975Y002232D02*
X026788Y002232D01*
X026788Y002329D02*
X026975Y002329D01*
X026975Y002426D02*
X026788Y002426D01*
X026789Y002523D02*
X026975Y002523D01*
X026975Y002620D02*
X026886Y002620D01*
X027080Y002814D02*
X029350Y002814D01*
X029350Y002911D02*
X027177Y002911D01*
X028399Y003008D02*
X029350Y003008D01*
X029350Y003105D02*
X028495Y003105D01*
X028538Y003202D02*
X029350Y003202D01*
X029350Y003299D02*
X028538Y003299D01*
X028538Y003395D02*
X029350Y003395D01*
X029350Y003492D02*
X028949Y003492D01*
X028949Y003589D02*
X029350Y003589D01*
X029350Y003686D02*
X028949Y003686D01*
X028949Y003783D02*
X029350Y003783D01*
X029350Y003880D02*
X028949Y003880D01*
X028949Y003977D02*
X029350Y003977D01*
X029350Y004074D02*
X028949Y004074D01*
X028949Y004171D02*
X029350Y004171D01*
X029350Y004268D02*
X028949Y004268D01*
X028949Y004365D02*
X029350Y004365D01*
X029350Y004462D02*
X028949Y004462D01*
X028949Y004559D02*
X029350Y004559D01*
X029350Y004655D02*
X029062Y004655D01*
X029144Y004752D02*
X029350Y004752D01*
X029350Y004849D02*
X029184Y004849D01*
X029186Y004946D02*
X029350Y004946D01*
X029350Y005043D02*
X029165Y005043D01*
X029112Y005140D02*
X029350Y005140D01*
X029350Y005237D02*
X028986Y005237D01*
X028871Y005334D02*
X029350Y005334D01*
X029350Y005431D02*
X028871Y005431D01*
X028871Y005528D02*
X029350Y005528D01*
X029350Y005625D02*
X028871Y005625D01*
X028871Y005722D02*
X029350Y005722D01*
X029350Y005819D02*
X028871Y005819D01*
X028871Y005916D02*
X029350Y005916D01*
X029350Y006012D02*
X029041Y006012D01*
X029135Y006109D02*
X029350Y006109D01*
X029350Y006206D02*
X029176Y006206D01*
X029186Y006303D02*
X029350Y006303D01*
X029350Y006400D02*
X029174Y006400D01*
X029133Y006497D02*
X029350Y006497D01*
X029350Y006594D02*
X029036Y006594D01*
X028949Y006691D02*
X029350Y006691D01*
X029350Y006788D02*
X028949Y006788D01*
X028949Y006885D02*
X029350Y006885D01*
X029350Y006982D02*
X028949Y006982D01*
X028949Y007079D02*
X029350Y007079D01*
X029350Y007176D02*
X028949Y007176D01*
X028949Y007272D02*
X029350Y007272D01*
X029350Y007369D02*
X028949Y007369D01*
X028949Y007466D02*
X029350Y007466D01*
X029350Y007563D02*
X028949Y007563D01*
X028949Y007660D02*
X029350Y007660D01*
X029350Y007757D02*
X028936Y007757D01*
X028577Y007854D02*
X029350Y007854D01*
X029350Y007951D02*
X028571Y007951D01*
X028474Y008048D02*
X029350Y008048D01*
X029350Y008145D02*
X028377Y008145D01*
X028280Y008242D02*
X029350Y008242D01*
X027786Y010374D02*
X025237Y010374D01*
X025249Y010471D02*
X027786Y010471D01*
X027786Y010568D02*
X025249Y010568D01*
X025249Y010665D02*
X027786Y010665D01*
X027786Y010762D02*
X025249Y010762D01*
X025249Y010859D02*
X027786Y010859D01*
X024677Y010762D02*
X024578Y010762D01*
X024578Y010665D02*
X024677Y010665D01*
X024677Y010568D02*
X024578Y010568D01*
X024578Y010471D02*
X024677Y010471D01*
X024677Y010374D02*
X024578Y010374D01*
X025350Y018322D02*
X002850Y018322D01*
X002850Y018419D02*
X025350Y018419D01*
X025350Y018516D02*
X002850Y018516D01*
X002850Y018613D02*
X025350Y018613D01*
X025350Y018710D02*
X002850Y018710D01*
X002850Y018807D02*
X025350Y018807D01*
X025350Y018904D02*
X002850Y018904D01*
X002850Y019000D02*
X025350Y019000D01*
X025350Y019097D02*
X002850Y019097D01*
X002850Y019194D02*
X025350Y019194D01*
X025350Y019291D02*
X002850Y019291D01*
X002850Y019388D02*
X025312Y019388D01*
X007656Y018031D02*
X002850Y018031D01*
X002850Y017934D02*
X007600Y017934D01*
X007600Y017837D02*
X002850Y017837D01*
X002850Y017740D02*
X007600Y017740D01*
X007600Y017644D02*
X002850Y017644D01*
X002850Y017547D02*
X007600Y017547D01*
X007600Y017450D02*
X002850Y017450D01*
X002850Y017353D02*
X005873Y017353D01*
X005812Y017256D02*
X004849Y017256D01*
X004849Y017159D02*
X005811Y017159D01*
X005811Y017062D02*
X004849Y017062D01*
X002898Y017159D02*
X002850Y017159D01*
X002850Y017256D02*
X002898Y017256D01*
X003381Y014348D02*
X000475Y014348D01*
X000475Y014251D02*
X001757Y014251D01*
X001943Y014251D02*
X003381Y014251D01*
X003381Y014154D02*
X002120Y014154D01*
X001580Y014154D02*
X000475Y014154D01*
X000475Y014057D02*
X001496Y014057D01*
X001456Y013960D02*
X000475Y013960D01*
X000475Y013863D02*
X001444Y013863D01*
X001445Y013766D02*
X000475Y013766D01*
X000475Y013670D02*
X001485Y013670D01*
X001553Y013573D02*
X000475Y013573D01*
X000475Y013476D02*
X001693Y013476D01*
X001611Y013185D02*
X000475Y013185D01*
X000475Y013088D02*
X001514Y013088D01*
X001469Y012991D02*
X000475Y012991D01*
X000475Y012894D02*
X001444Y012894D01*
X001444Y012797D02*
X000475Y012797D01*
X000475Y012700D02*
X001472Y012700D01*
X001522Y012603D02*
X000475Y012603D01*
X000475Y012506D02*
X001619Y012506D01*
X002081Y012506D02*
X005399Y012506D01*
X005399Y012443D02*
X005463Y012379D01*
X005987Y012379D01*
X006051Y012443D01*
X006051Y012927D01*
X006051Y012797D02*
X007600Y012797D01*
X007600Y012700D02*
X006051Y012700D01*
X006051Y012603D02*
X007600Y012603D01*
X007600Y012506D02*
X006051Y012506D01*
X006018Y012410D02*
X007600Y012410D01*
X007600Y012313D02*
X005996Y012313D01*
X005987Y012321D02*
X006051Y012257D01*
X006051Y011773D01*
X005987Y011709D01*
X005463Y011709D01*
X005399Y011773D01*
X005399Y011847D01*
X005319Y011847D01*
X005319Y011570D01*
X005288Y011539D01*
X005288Y011343D01*
X005330Y011301D01*
X005632Y011301D01*
X005696Y011237D01*
X005696Y010713D01*
X005632Y010649D01*
X005148Y010649D01*
X005084Y010713D01*
X005084Y011015D01*
X004912Y011188D01*
X004912Y011539D01*
X004881Y011570D01*
X004881Y012440D01*
X004945Y012504D01*
X005255Y012504D01*
X005319Y012440D01*
X005319Y012184D01*
X005399Y012184D01*
X005399Y012257D01*
X005463Y012321D01*
X005987Y012321D01*
X006051Y012216D02*
X007600Y012216D01*
X007600Y012119D02*
X006051Y012119D01*
X006051Y012022D02*
X007600Y012022D01*
X007600Y011925D02*
X006051Y011925D01*
X006051Y011828D02*
X007600Y011828D01*
X007600Y011731D02*
X006009Y011731D01*
X005818Y011301D02*
X005754Y011237D01*
X005754Y010713D01*
X005818Y010649D01*
X005872Y010649D01*
X005872Y010504D01*
X005800Y010504D01*
X005736Y010441D01*
X005736Y009759D01*
X005800Y009696D01*
X003768Y009696D01*
X003768Y009793D02*
X005736Y009793D01*
X005736Y009889D02*
X003768Y009889D01*
X003768Y009986D02*
X005736Y009986D01*
X005736Y010083D02*
X003768Y010083D01*
X003768Y010180D02*
X005736Y010180D01*
X005736Y010277D02*
X003768Y010277D01*
X003768Y010374D02*
X005736Y010374D01*
X005766Y010471D02*
X003768Y010471D01*
X003768Y010568D02*
X005872Y010568D01*
X005802Y010665D02*
X005648Y010665D01*
X005696Y010762D02*
X005754Y010762D01*
X005754Y010859D02*
X005696Y010859D01*
X005696Y010956D02*
X005754Y010956D01*
X005754Y011053D02*
X005696Y011053D01*
X005696Y011150D02*
X005754Y011150D01*
X005763Y011246D02*
X005687Y011246D01*
X005818Y011301D02*
X006302Y011301D01*
X006366Y011237D01*
X006366Y010713D01*
X006302Y010649D01*
X006248Y010649D01*
X006248Y010504D01*
X006402Y010504D01*
X006466Y010441D01*
X006466Y009759D01*
X006402Y009696D01*
X006548Y009696D01*
X006988Y009696D01*
X007037Y009646D01*
X007037Y009568D01*
X006981Y009513D01*
X006938Y009407D01*
X006938Y009293D01*
X006981Y009187D01*
X007062Y009106D01*
X007168Y009063D01*
X007282Y009063D01*
X007388Y009106D01*
X007469Y009187D01*
X007512Y009293D01*
X007512Y009407D01*
X007469Y009513D01*
X007413Y009568D01*
X007413Y009802D01*
X007303Y009912D01*
X007214Y010001D01*
X007214Y010441D01*
X007150Y010504D01*
X006548Y010504D01*
X006484Y010441D01*
X006484Y009759D01*
X006548Y009696D01*
X006484Y009793D02*
X006466Y009793D01*
X006466Y009889D02*
X006484Y009889D01*
X006484Y009986D02*
X006466Y009986D01*
X006466Y010083D02*
X006484Y010083D01*
X006484Y010180D02*
X006466Y010180D01*
X006466Y010277D02*
X006484Y010277D01*
X006484Y010374D02*
X006466Y010374D01*
X006436Y010471D02*
X006514Y010471D01*
X006317Y010665D02*
X007600Y010665D01*
X007600Y010762D02*
X006366Y010762D01*
X006366Y010859D02*
X007600Y010859D01*
X007600Y010956D02*
X006366Y010956D01*
X006366Y011053D02*
X007600Y011053D01*
X007600Y011150D02*
X006366Y011150D01*
X006356Y011246D02*
X007600Y011246D01*
X007600Y011343D02*
X005288Y011343D01*
X005288Y011440D02*
X007600Y011440D01*
X007600Y011537D02*
X005288Y011537D01*
X005319Y011634D02*
X007600Y011634D01*
X007600Y010568D02*
X006248Y010568D01*
X007184Y010471D02*
X007600Y010471D01*
X007600Y010374D02*
X007214Y010374D01*
X007214Y010277D02*
X007600Y010277D01*
X007600Y010180D02*
X007214Y010180D01*
X007214Y010083D02*
X007600Y010083D01*
X007600Y009986D02*
X007228Y009986D01*
X007325Y009889D02*
X007600Y009889D01*
X007600Y009793D02*
X007413Y009793D01*
X007413Y009696D02*
X007600Y009696D01*
X007600Y009599D02*
X007413Y009599D01*
X007473Y009502D02*
X007600Y009502D01*
X007600Y009405D02*
X007512Y009405D01*
X007512Y009308D02*
X007600Y009308D01*
X007600Y009211D02*
X007478Y009211D01*
X007395Y009114D02*
X007600Y009114D01*
X007600Y009017D02*
X003387Y009017D01*
X003387Y009024D02*
X003768Y009405D01*
X006938Y009405D01*
X006938Y009308D02*
X003671Y009308D01*
X003574Y009211D02*
X006972Y009211D01*
X007055Y009114D02*
X003477Y009114D01*
X003387Y009024D02*
X003387Y008918D01*
X003344Y008812D01*
X003263Y008731D01*
X003157Y008688D01*
X003043Y008688D01*
X002937Y008731D01*
X002856Y008812D01*
X002813Y008918D01*
X002813Y009032D01*
X002856Y009138D01*
X002937Y009219D01*
X003043Y009262D01*
X003149Y009262D01*
X003432Y009545D01*
X003432Y011519D01*
X003381Y011570D01*
X003381Y012440D01*
X003445Y012504D01*
X003755Y012504D01*
X003819Y012440D01*
X003819Y011570D01*
X003768Y011519D01*
X003768Y009405D01*
X003768Y009502D02*
X006977Y009502D01*
X007037Y009599D02*
X003768Y009599D01*
X003432Y009599D02*
X002219Y009599D01*
X002232Y009616D02*
X002263Y009679D01*
X002285Y009746D01*
X002294Y009801D01*
X001899Y009801D01*
X001899Y009406D01*
X001954Y009415D01*
X002021Y009437D01*
X002084Y009468D01*
X002141Y009510D01*
X002190Y009559D01*
X002232Y009616D01*
X002269Y009696D02*
X003432Y009696D01*
X003432Y009793D02*
X002293Y009793D01*
X002294Y009899D02*
X002285Y009954D01*
X002263Y010021D01*
X002232Y010084D01*
X002190Y010141D01*
X002141Y010190D01*
X002084Y010232D01*
X002021Y010263D01*
X001954Y010285D01*
X001899Y010294D01*
X001899Y009899D01*
X001801Y009899D01*
X001801Y009801D01*
X001406Y009801D01*
X001415Y009746D01*
X001437Y009679D01*
X001468Y009616D01*
X001510Y009559D01*
X001559Y009510D01*
X001616Y009468D01*
X001679Y009437D01*
X001746Y009415D01*
X001801Y009406D01*
X001801Y009801D01*
X001899Y009801D01*
X001899Y009899D01*
X002294Y009899D01*
X002275Y009986D02*
X003432Y009986D01*
X003432Y009889D02*
X001899Y009889D01*
X001899Y009793D02*
X001801Y009793D01*
X001801Y009889D02*
X000475Y009889D01*
X000475Y009793D02*
X001407Y009793D01*
X001431Y009696D02*
X000475Y009696D01*
X000475Y009599D02*
X001481Y009599D01*
X001570Y009502D02*
X000475Y009502D01*
X000475Y009405D02*
X003292Y009405D01*
X003389Y009502D02*
X002130Y009502D01*
X001899Y009502D02*
X001801Y009502D01*
X001801Y009599D02*
X001899Y009599D01*
X001899Y009696D02*
X001801Y009696D01*
X001801Y009899D02*
X001406Y009899D01*
X001415Y009954D01*
X001437Y010021D01*
X001468Y010084D01*
X001510Y010141D01*
X001559Y010190D01*
X001616Y010232D01*
X001679Y010263D01*
X001746Y010285D01*
X001801Y010294D01*
X001801Y009899D01*
X001801Y009986D02*
X001899Y009986D01*
X001899Y010083D02*
X001801Y010083D01*
X001801Y010180D02*
X001899Y010180D01*
X001899Y010277D02*
X001801Y010277D01*
X001721Y010277D02*
X000475Y010277D01*
X000475Y010180D02*
X001549Y010180D01*
X001468Y010083D02*
X000475Y010083D01*
X000475Y009986D02*
X001425Y009986D01*
X001620Y010506D02*
X001769Y010444D01*
X001931Y010444D01*
X002080Y010506D01*
X002194Y010620D01*
X002256Y010769D01*
X002256Y010931D01*
X002194Y011080D01*
X002080Y011194D01*
X001931Y011256D01*
X001769Y011256D01*
X001620Y011194D01*
X001506Y011080D01*
X001444Y010931D01*
X001444Y010769D01*
X001506Y010620D01*
X001620Y010506D01*
X001558Y010568D02*
X000475Y010568D01*
X000475Y010665D02*
X001487Y010665D01*
X001447Y010762D02*
X000475Y010762D01*
X000475Y010859D02*
X001444Y010859D01*
X001454Y010956D02*
X000475Y010956D01*
X000475Y011053D02*
X001494Y011053D01*
X001575Y011150D02*
X000475Y011150D01*
X000475Y011246D02*
X001746Y011246D01*
X001954Y011246D02*
X003432Y011246D01*
X003432Y011150D02*
X002125Y011150D01*
X002206Y011053D02*
X003432Y011053D01*
X003432Y010956D02*
X002246Y010956D01*
X002256Y010859D02*
X003432Y010859D01*
X003432Y010762D02*
X002253Y010762D01*
X002213Y010665D02*
X003432Y010665D01*
X003432Y010568D02*
X002142Y010568D01*
X001996Y010471D02*
X003432Y010471D01*
X003432Y010374D02*
X000475Y010374D01*
X000475Y010471D02*
X001704Y010471D01*
X001979Y010277D02*
X003432Y010277D01*
X003432Y010180D02*
X002151Y010180D01*
X002232Y010083D02*
X003432Y010083D01*
X003768Y010665D02*
X005133Y010665D01*
X005084Y010762D02*
X003768Y010762D01*
X003768Y010859D02*
X005084Y010859D01*
X005084Y010956D02*
X003768Y010956D01*
X003768Y011053D02*
X005047Y011053D01*
X004950Y011150D02*
X003768Y011150D01*
X003768Y011246D02*
X004912Y011246D01*
X004912Y011343D02*
X003768Y011343D01*
X003768Y011440D02*
X004287Y011440D01*
X004293Y011438D02*
X004407Y011438D01*
X004513Y011481D01*
X004537Y011506D01*
X004755Y011506D01*
X004819Y011570D01*
X004819Y012440D01*
X004755Y012504D01*
X004445Y012504D01*
X004381Y012440D01*
X004381Y012012D01*
X004319Y012012D01*
X004319Y012440D01*
X004255Y012504D01*
X003945Y012504D01*
X003881Y012440D01*
X003881Y011570D01*
X003945Y011506D01*
X004163Y011506D01*
X004187Y011481D01*
X004293Y011438D01*
X004413Y011440D02*
X004912Y011440D01*
X004912Y011537D02*
X004787Y011537D01*
X004819Y011634D02*
X004881Y011634D01*
X004881Y011731D02*
X004819Y011731D01*
X004819Y011828D02*
X004881Y011828D01*
X004881Y011925D02*
X004819Y011925D01*
X004819Y012022D02*
X004881Y012022D01*
X004881Y012119D02*
X004819Y012119D01*
X004819Y012216D02*
X004881Y012216D01*
X004881Y012313D02*
X004819Y012313D01*
X004819Y012410D02*
X004881Y012410D01*
X004619Y012700D02*
X005399Y012700D01*
X005399Y012603D02*
X002178Y012603D01*
X003381Y012410D02*
X000475Y012410D01*
X000475Y012313D02*
X003381Y012313D01*
X003381Y012216D02*
X000475Y012216D01*
X000475Y012119D02*
X003381Y012119D01*
X003381Y012022D02*
X000475Y012022D01*
X000475Y011925D02*
X003381Y011925D01*
X003381Y011828D02*
X000475Y011828D01*
X000475Y011731D02*
X003381Y011731D01*
X003381Y011634D02*
X000475Y011634D01*
X000475Y011537D02*
X003413Y011537D01*
X003432Y011440D02*
X000475Y011440D01*
X000475Y011343D02*
X003432Y011343D01*
X003787Y011537D02*
X003913Y011537D01*
X003881Y011634D02*
X003819Y011634D01*
X003819Y011731D02*
X003881Y011731D01*
X003881Y011828D02*
X003819Y011828D01*
X003819Y011925D02*
X003881Y011925D01*
X003881Y012022D02*
X003819Y012022D01*
X003819Y012119D02*
X003881Y012119D01*
X003881Y012216D02*
X003819Y012216D01*
X003819Y012313D02*
X003881Y012313D01*
X003881Y012410D02*
X003819Y012410D01*
X004319Y012410D02*
X004381Y012410D01*
X004381Y012313D02*
X004319Y012313D01*
X004319Y012216D02*
X004381Y012216D01*
X004381Y012119D02*
X004319Y012119D01*
X004319Y012022D02*
X004381Y012022D01*
X005319Y012216D02*
X005399Y012216D01*
X005454Y012313D02*
X005319Y012313D01*
X005319Y012410D02*
X005432Y012410D01*
X005399Y012443D02*
X005399Y012927D01*
X005463Y012991D01*
X005557Y012991D01*
X005399Y012894D02*
X004813Y012894D01*
X004716Y012797D02*
X005399Y012797D01*
X005399Y011828D02*
X005319Y011828D01*
X005319Y011731D02*
X005441Y011731D01*
X003415Y013476D02*
X002007Y013476D01*
X002147Y013573D02*
X003381Y013573D01*
X003381Y013670D02*
X002215Y013670D01*
X005319Y014113D02*
X005575Y014113D01*
X005800Y009696D02*
X006402Y009696D01*
X007600Y008920D02*
X003387Y008920D01*
X003348Y008823D02*
X007600Y008823D01*
X007600Y008726D02*
X003251Y008726D01*
X002949Y008726D02*
X001376Y008726D01*
X001473Y008823D02*
X002852Y008823D01*
X002813Y008920D02*
X001512Y008920D01*
X001512Y009017D02*
X002813Y009017D01*
X002847Y009114D02*
X001478Y009114D01*
X001395Y009211D02*
X002930Y009211D01*
X003195Y009308D02*
X000475Y009308D01*
X000475Y009211D02*
X001055Y009211D01*
X000972Y009114D02*
X000475Y009114D01*
X000475Y009017D02*
X000938Y009017D01*
X000932Y008920D02*
X000475Y008920D01*
X000475Y008823D02*
X000835Y008823D01*
X000738Y008726D02*
X000475Y008726D01*
X000475Y008629D02*
X000641Y008629D01*
X000545Y008533D02*
X000475Y008533D01*
X000827Y008339D02*
X002961Y008339D01*
X002962Y008340D02*
X002898Y008276D01*
X002898Y007674D01*
X002962Y007610D01*
X004785Y007610D01*
X004849Y007674D01*
X004849Y008276D01*
X004785Y008340D01*
X002962Y008340D01*
X002898Y008242D02*
X000768Y008242D01*
X000768Y008145D02*
X002898Y008145D01*
X002898Y008048D02*
X000768Y008048D01*
X000768Y007951D02*
X002898Y007951D01*
X002898Y007854D02*
X000768Y007854D01*
X000768Y007757D02*
X002898Y007757D01*
X002912Y007660D02*
X000768Y007660D01*
X000768Y007563D02*
X007600Y007563D01*
X007600Y007466D02*
X000768Y007466D01*
X000768Y007369D02*
X007600Y007369D01*
X007600Y007272D02*
X000768Y007272D01*
X000768Y007176D02*
X007600Y007176D01*
X007600Y007079D02*
X000768Y007079D01*
X000768Y006982D02*
X007600Y006982D01*
X007600Y006885D02*
X000768Y006885D01*
X000768Y006788D02*
X007600Y006788D01*
X007600Y006691D02*
X000768Y006691D01*
X000768Y006594D02*
X007600Y006594D01*
X007600Y006497D02*
X007319Y006497D01*
X007456Y006400D02*
X007600Y006400D01*
X007600Y006303D02*
X007504Y006303D01*
X007512Y006206D02*
X007600Y006206D01*
X007600Y006109D02*
X007488Y006109D01*
X007419Y006012D02*
X007600Y006012D01*
X007600Y005916D02*
X007413Y005916D01*
X007413Y005819D02*
X007600Y005819D01*
X007600Y005722D02*
X007413Y005722D01*
X007413Y005625D02*
X007600Y005625D01*
X007600Y005528D02*
X007413Y005528D01*
X007413Y005431D02*
X007600Y005431D01*
X007600Y005334D02*
X007413Y005334D01*
X007413Y005237D02*
X007600Y005237D01*
X007600Y005140D02*
X007413Y005140D01*
X007413Y005043D02*
X007600Y005043D01*
X007600Y004946D02*
X007413Y004946D01*
X007413Y004849D02*
X007600Y004849D01*
X007600Y004752D02*
X007413Y004752D01*
X007413Y004655D02*
X007600Y004655D01*
X007600Y004559D02*
X007413Y004559D01*
X007413Y004462D02*
X007600Y004462D01*
X007600Y004365D02*
X007413Y004365D01*
X007413Y004268D02*
X007600Y004268D01*
X007600Y004171D02*
X007413Y004171D01*
X007413Y004074D02*
X007600Y004074D01*
X007600Y003977D02*
X007413Y003977D01*
X007413Y003880D02*
X007600Y003880D01*
X007600Y003783D02*
X007413Y003783D01*
X007413Y003686D02*
X007600Y003686D01*
X007600Y003589D02*
X007413Y003589D01*
X007473Y003492D02*
X007600Y003492D01*
X007233Y003202D02*
X006051Y003202D01*
X006051Y003257D02*
X005987Y003321D01*
X005463Y003321D01*
X005399Y003257D01*
X005399Y003173D01*
X005319Y003173D01*
X005319Y003440D01*
X005255Y003504D01*
X004945Y003504D01*
X004881Y003440D01*
X004881Y002570D01*
X004945Y002506D01*
X005255Y002506D01*
X005319Y002570D01*
X005319Y002837D01*
X005399Y002837D01*
X005399Y002773D01*
X005463Y002709D01*
X005847Y002709D01*
X005959Y002623D01*
X005959Y002338D01*
X006023Y002274D01*
X006097Y002274D01*
X006097Y002051D01*
X006023Y002051D01*
X005959Y001987D01*
X005959Y001463D01*
X006023Y001399D01*
X006507Y001399D01*
X006571Y001463D01*
X006571Y001987D01*
X006507Y002051D01*
X006434Y002051D01*
X006434Y002274D01*
X006507Y002274D01*
X006571Y002338D01*
X006571Y002862D01*
X006507Y002926D01*
X006118Y002926D01*
X006051Y002977D01*
X006051Y003257D01*
X006010Y003299D02*
X007136Y003299D01*
X007039Y003395D02*
X006004Y003395D01*
X005987Y003379D02*
X006051Y003443D01*
X006051Y003927D01*
X005987Y003991D01*
X005893Y003991D01*
X005893Y004795D01*
X005643Y005045D01*
X005545Y005143D01*
X005319Y005143D01*
X005319Y005380D01*
X005255Y005444D01*
X004945Y005444D01*
X004881Y005380D01*
X004881Y004510D01*
X004892Y004498D01*
X004892Y004436D01*
X004514Y004058D01*
X002204Y004058D01*
X002194Y004080D01*
X002080Y004194D01*
X001931Y004256D01*
X001769Y004256D01*
X001620Y004194D01*
X001506Y004080D01*
X001444Y003931D01*
X001444Y003769D01*
X001506Y003620D01*
X001620Y003506D01*
X001769Y003444D01*
X001931Y003444D01*
X002080Y003506D01*
X002194Y003620D01*
X002204Y003642D01*
X004686Y003642D01*
X005186Y004142D01*
X005308Y004264D01*
X005308Y004498D01*
X005319Y004510D01*
X005319Y004807D01*
X005405Y004807D01*
X005557Y004655D01*
X005557Y003991D01*
X005463Y003991D01*
X005399Y003927D01*
X005399Y003443D01*
X005463Y003379D01*
X005987Y003379D01*
X006051Y003492D02*
X007037Y003492D01*
X007037Y003589D02*
X006051Y003589D01*
X006051Y003686D02*
X007037Y003686D01*
X007037Y003783D02*
X006051Y003783D01*
X006051Y003880D02*
X007037Y003880D01*
X007037Y003977D02*
X006000Y003977D01*
X005893Y004074D02*
X007037Y004074D01*
X007037Y004171D02*
X005893Y004171D01*
X005893Y004268D02*
X007037Y004268D01*
X007037Y004365D02*
X005893Y004365D01*
X005893Y004462D02*
X007037Y004462D01*
X007037Y004559D02*
X005893Y004559D01*
X005893Y004655D02*
X007037Y004655D01*
X007037Y004752D02*
X005893Y004752D01*
X005839Y004849D02*
X007037Y004849D01*
X007037Y004946D02*
X005742Y004946D01*
X005645Y005043D02*
X007037Y005043D01*
X007037Y005140D02*
X005548Y005140D01*
X005319Y005237D02*
X007037Y005237D01*
X007037Y005334D02*
X005319Y005334D01*
X005269Y005431D02*
X007037Y005431D01*
X007037Y005528D02*
X004983Y005528D01*
X004993Y005534D02*
X005021Y005562D01*
X005040Y005596D01*
X005050Y005634D01*
X005050Y005801D01*
X004734Y005801D01*
X004734Y005899D01*
X005050Y005899D01*
X005050Y006066D01*
X005040Y006104D01*
X005021Y006138D01*
X004993Y006166D01*
X004959Y006186D01*
X004921Y006196D01*
X004734Y006196D01*
X004734Y005899D01*
X004635Y005899D01*
X004635Y006196D01*
X004448Y006196D01*
X004411Y006186D01*
X004376Y006166D01*
X004349Y006138D01*
X004329Y006104D01*
X004277Y006156D01*
X003754Y006156D01*
X003690Y006092D01*
X003690Y005608D01*
X003754Y005544D01*
X003892Y005544D01*
X003892Y005392D01*
X003881Y005380D01*
X003881Y004537D01*
X003856Y004513D01*
X003813Y004407D01*
X003813Y004293D01*
X003856Y004187D01*
X003937Y004106D01*
X004043Y004063D01*
X004157Y004063D01*
X004263Y004106D01*
X004344Y004187D01*
X004387Y004293D01*
X004387Y004407D01*
X004344Y004513D01*
X004319Y004537D01*
X004319Y005380D01*
X004308Y005392D01*
X004308Y005574D01*
X004329Y005596D01*
X004329Y005596D01*
X004349Y005562D01*
X004376Y005534D01*
X004411Y005514D01*
X004448Y005504D01*
X004635Y005504D01*
X004635Y005801D01*
X004734Y005801D01*
X004734Y005504D01*
X004921Y005504D01*
X004959Y005514D01*
X004993Y005534D01*
X005048Y005625D02*
X007037Y005625D01*
X007037Y005722D02*
X005050Y005722D01*
X005050Y005916D02*
X007037Y005916D01*
X007031Y006012D02*
X005050Y006012D01*
X005037Y006109D02*
X006962Y006109D01*
X006938Y006206D02*
X000768Y006206D01*
X000768Y006109D02*
X003707Y006109D01*
X003690Y006012D02*
X000768Y006012D01*
X000768Y005916D02*
X003690Y005916D01*
X003690Y005819D02*
X000768Y005819D01*
X000768Y005722D02*
X003690Y005722D01*
X003690Y005625D02*
X000768Y005625D01*
X000768Y005528D02*
X003892Y005528D01*
X003892Y005431D02*
X003769Y005431D01*
X003755Y005444D02*
X003445Y005444D01*
X003381Y005380D01*
X003381Y005183D01*
X002092Y005183D01*
X002080Y005194D01*
X001931Y005256D01*
X001769Y005256D01*
X001620Y005194D01*
X001506Y005080D01*
X001444Y004931D01*
X001444Y004769D01*
X001506Y004620D01*
X001620Y004506D01*
X001769Y004444D01*
X001931Y004444D01*
X002080Y004506D01*
X002194Y004620D01*
X002255Y004767D01*
X003381Y004767D01*
X003381Y004510D01*
X003445Y004446D01*
X003755Y004446D01*
X003819Y004510D01*
X003819Y005380D01*
X003755Y005444D01*
X003819Y005334D02*
X003881Y005334D01*
X003881Y005237D02*
X003819Y005237D01*
X003819Y005140D02*
X003881Y005140D01*
X003881Y005043D02*
X003819Y005043D01*
X003819Y004946D02*
X003881Y004946D01*
X003881Y004849D02*
X003819Y004849D01*
X003819Y004752D02*
X003881Y004752D01*
X003881Y004655D02*
X003819Y004655D01*
X003819Y004559D02*
X003881Y004559D01*
X003835Y004462D02*
X003771Y004462D01*
X003813Y004365D02*
X000768Y004365D01*
X000768Y004462D02*
X001726Y004462D01*
X001567Y004559D02*
X000768Y004559D01*
X000768Y004655D02*
X001491Y004655D01*
X001451Y004752D02*
X000768Y004752D01*
X000768Y004849D02*
X001444Y004849D01*
X001450Y004946D02*
X000768Y004946D01*
X000768Y005043D02*
X001491Y005043D01*
X001566Y005140D02*
X000768Y005140D01*
X000768Y005237D02*
X001723Y005237D01*
X001977Y005237D02*
X003381Y005237D01*
X003381Y005334D02*
X000768Y005334D01*
X000768Y005431D02*
X003431Y005431D01*
X003381Y004752D02*
X002249Y004752D01*
X002209Y004655D02*
X003381Y004655D01*
X003381Y004559D02*
X002133Y004559D01*
X001974Y004462D02*
X003429Y004462D01*
X003823Y004268D02*
X000768Y004268D01*
X000768Y004171D02*
X001597Y004171D01*
X001503Y004074D02*
X000768Y004074D01*
X000768Y003977D02*
X001463Y003977D01*
X001444Y003880D02*
X000768Y003880D01*
X000768Y003783D02*
X001444Y003783D01*
X001478Y003686D02*
X000768Y003686D01*
X000768Y003589D02*
X001536Y003589D01*
X001652Y003492D02*
X000821Y003492D01*
X000918Y003395D02*
X003381Y003395D01*
X003381Y003299D02*
X001014Y003299D01*
X001111Y003202D02*
X003381Y003202D01*
X003433Y003492D02*
X002048Y003492D01*
X002164Y003589D02*
X005399Y003589D01*
X005399Y003492D02*
X005267Y003492D01*
X005319Y003395D02*
X005446Y003395D01*
X005440Y003299D02*
X005319Y003299D01*
X005319Y003202D02*
X005399Y003202D01*
X004933Y003492D02*
X004767Y003492D01*
X004755Y003504D02*
X004819Y003440D01*
X004819Y002570D01*
X004755Y002506D01*
X004537Y002506D01*
X004513Y002481D01*
X004407Y002438D01*
X004293Y002438D01*
X004187Y002481D01*
X004163Y002506D01*
X003945Y002506D01*
X003881Y002570D01*
X003881Y003440D01*
X003945Y003504D01*
X004255Y003504D01*
X004319Y003440D01*
X004319Y003012D01*
X004381Y003012D01*
X004381Y003440D01*
X004445Y003504D01*
X004755Y003504D01*
X004819Y003395D02*
X004881Y003395D01*
X004881Y003299D02*
X004819Y003299D01*
X004819Y003202D02*
X004881Y003202D01*
X004881Y003105D02*
X004819Y003105D01*
X004819Y003008D02*
X004881Y003008D01*
X004881Y002911D02*
X004819Y002911D01*
X004819Y002814D02*
X004881Y002814D01*
X004881Y002717D02*
X004819Y002717D01*
X004819Y002620D02*
X004881Y002620D01*
X004927Y002523D02*
X004773Y002523D01*
X005273Y002523D02*
X005959Y002523D01*
X005959Y002426D02*
X003768Y002426D01*
X003768Y002329D02*
X005968Y002329D01*
X006097Y002232D02*
X003768Y002232D01*
X003768Y002135D02*
X006097Y002135D01*
X006011Y002039D02*
X003768Y002039D01*
X003768Y001942D02*
X005959Y001942D01*
X005959Y001845D02*
X003768Y001845D01*
X003768Y001748D02*
X005959Y001748D01*
X005959Y001651D02*
X003768Y001651D01*
X003768Y001554D02*
X005959Y001554D01*
X005966Y001457D02*
X003768Y001457D01*
X003768Y001360D02*
X007510Y001360D01*
X007486Y001457D02*
X007234Y001457D01*
X007241Y001554D02*
X007486Y001554D01*
X007600Y001263D02*
X003768Y001263D01*
X003768Y001166D02*
X007600Y001166D01*
X007600Y001069D02*
X003768Y001069D01*
X003841Y000972D02*
X007600Y000972D01*
X007600Y000875D02*
X003938Y000875D01*
X004034Y000778D02*
X007600Y000778D01*
X007600Y000682D02*
X004131Y000682D01*
X006434Y002135D02*
X007600Y002135D01*
X007513Y002232D02*
X006434Y002232D01*
X006562Y002329D02*
X006638Y002329D01*
X006629Y002426D02*
X006571Y002426D01*
X006571Y002523D02*
X006629Y002523D01*
X006629Y002620D02*
X006571Y002620D01*
X006571Y002717D02*
X006629Y002717D01*
X006629Y002814D02*
X006571Y002814D01*
X006522Y002911D02*
X006678Y002911D01*
X007192Y002911D02*
X007486Y002911D01*
X007486Y002814D02*
X007241Y002814D01*
X007330Y003105D02*
X006051Y003105D01*
X006051Y003008D02*
X007600Y003008D01*
X007287Y003147D02*
X007287Y003147D01*
X007241Y002426D02*
X007486Y002426D01*
X007486Y002329D02*
X007232Y002329D01*
X007189Y002039D02*
X007486Y002039D01*
X007486Y001942D02*
X007241Y001942D01*
X006680Y002039D02*
X006520Y002039D01*
X006571Y001942D02*
X006629Y001942D01*
X006629Y001845D02*
X006571Y001845D01*
X006571Y001748D02*
X006629Y001748D01*
X006629Y001651D02*
X006571Y001651D01*
X006571Y001554D02*
X006629Y001554D01*
X006635Y001457D02*
X006565Y001457D01*
X008100Y001321D02*
X008100Y000643D01*
X017905Y000643D01*
X018182Y000920D01*
X018182Y002100D01*
X016088Y002100D01*
X016018Y002030D01*
X015920Y001932D01*
X014741Y001932D01*
X014741Y001838D01*
X014677Y001774D01*
X014193Y001774D01*
X014129Y001838D01*
X014129Y002100D01*
X014071Y002100D01*
X014071Y001838D01*
X014007Y001774D01*
X013523Y001774D01*
X013459Y001838D01*
X013459Y002100D01*
X010475Y002100D01*
X010350Y002225D01*
X010350Y003475D01*
X010225Y003600D01*
X008100Y003600D01*
X008100Y003413D01*
X009428Y003413D01*
X009453Y003387D01*
X009532Y003387D01*
X009638Y003344D01*
X009719Y003263D01*
X009762Y003157D01*
X009762Y003043D01*
X009719Y002937D01*
X009638Y002856D01*
X009532Y002813D01*
X009418Y002813D01*
X009312Y002856D01*
X009231Y002937D01*
X009190Y003037D01*
X008100Y003037D01*
X008100Y003004D01*
X008152Y003004D01*
X008216Y002941D01*
X008216Y002259D01*
X008152Y002196D01*
X008100Y002196D01*
X008100Y002129D01*
X008152Y002129D01*
X008216Y002066D01*
X008216Y001384D01*
X008152Y001321D01*
X008100Y001321D01*
X008100Y001263D02*
X008421Y001263D01*
X008411Y001273D02*
X008521Y001163D01*
X009022Y000662D01*
X017678Y000662D01*
X017788Y000772D01*
X017828Y000813D01*
X017907Y000813D01*
X018013Y000856D01*
X018094Y000937D01*
X018137Y001043D01*
X018137Y001157D01*
X018094Y001263D01*
X018013Y001344D01*
X017907Y001387D01*
X017793Y001387D01*
X017687Y001344D01*
X017606Y001263D01*
X017563Y001157D01*
X017563Y001078D01*
X017522Y001038D01*
X017179Y001038D01*
X017203Y001063D01*
X017282Y001063D01*
X017388Y001106D01*
X017469Y001187D01*
X017512Y001293D01*
X017512Y001407D01*
X017469Y001513D01*
X017388Y001594D01*
X017282Y001637D01*
X017168Y001637D01*
X017062Y001594D01*
X016981Y001513D01*
X016940Y001413D01*
X010428Y001413D01*
X010288Y001553D01*
X010288Y002303D01*
X009913Y002678D01*
X009803Y002788D01*
X008964Y002788D01*
X008964Y002941D01*
X008900Y003004D01*
X008298Y003004D01*
X008234Y002941D01*
X008234Y002259D01*
X008298Y002196D01*
X008900Y002196D01*
X008964Y002259D01*
X008964Y002412D01*
X009647Y002412D01*
X009912Y002147D01*
X009912Y001397D01*
X010022Y001287D01*
X010271Y001038D01*
X009178Y001038D01*
X008895Y001321D01*
X008900Y001321D01*
X008964Y001384D01*
X008964Y001537D01*
X009257Y001537D01*
X009312Y001481D01*
X009418Y001438D01*
X009532Y001438D01*
X009638Y001481D01*
X009719Y001562D01*
X009762Y001668D01*
X009762Y001782D01*
X009719Y001888D01*
X009638Y001969D01*
X009532Y002012D01*
X009418Y002012D01*
X009312Y001969D01*
X009257Y001913D01*
X008964Y001913D01*
X008964Y002066D01*
X008900Y002129D01*
X008298Y002129D01*
X008234Y002066D01*
X008234Y001384D01*
X008298Y001321D01*
X008411Y001321D01*
X008411Y001273D01*
X008518Y001166D02*
X008100Y001166D01*
X008100Y001069D02*
X008615Y001069D01*
X008712Y000972D02*
X008100Y000972D01*
X008100Y000875D02*
X008809Y000875D01*
X008906Y000778D02*
X008100Y000778D01*
X008100Y000682D02*
X009003Y000682D01*
X009147Y001069D02*
X010240Y001069D01*
X010143Y001166D02*
X009050Y001166D01*
X008953Y001263D02*
X010046Y001263D01*
X009949Y001360D02*
X008940Y001360D01*
X008964Y001457D02*
X009371Y001457D01*
X009579Y001457D02*
X009912Y001457D01*
X009912Y001554D02*
X009710Y001554D01*
X009755Y001651D02*
X009912Y001651D01*
X009912Y001748D02*
X009762Y001748D01*
X009736Y001845D02*
X009912Y001845D01*
X009912Y001942D02*
X009665Y001942D01*
X009912Y002039D02*
X008964Y002039D01*
X008964Y001942D02*
X009285Y001942D01*
X008937Y002232D02*
X009827Y002232D01*
X009912Y002135D02*
X008100Y002135D01*
X008189Y002232D02*
X008261Y002232D01*
X008234Y002329D02*
X008216Y002329D01*
X008216Y002426D02*
X008234Y002426D01*
X008234Y002523D02*
X008216Y002523D01*
X008216Y002620D02*
X008234Y002620D01*
X008234Y002717D02*
X008216Y002717D01*
X008216Y002814D02*
X008234Y002814D01*
X008234Y002911D02*
X008216Y002911D01*
X008100Y003008D02*
X009202Y003008D01*
X009258Y002911D02*
X008964Y002911D01*
X008964Y002814D02*
X009415Y002814D01*
X009535Y002814D02*
X010350Y002814D01*
X010350Y002911D02*
X009692Y002911D01*
X009748Y003008D02*
X010350Y003008D01*
X010350Y003105D02*
X009762Y003105D01*
X009744Y003202D02*
X010350Y003202D01*
X010350Y003299D02*
X009683Y003299D01*
X009445Y003395D02*
X010350Y003395D01*
X010333Y003492D02*
X008100Y003492D01*
X008100Y003589D02*
X010236Y003589D01*
X010350Y002717D02*
X009874Y002717D01*
X009971Y002620D02*
X010350Y002620D01*
X010350Y002523D02*
X010068Y002523D01*
X010165Y002426D02*
X010350Y002426D01*
X010350Y002329D02*
X010262Y002329D01*
X010288Y002232D02*
X010350Y002232D01*
X010288Y002135D02*
X010440Y002135D01*
X010288Y002039D02*
X013459Y002039D01*
X013459Y001942D02*
X010288Y001942D01*
X010288Y001845D02*
X013459Y001845D01*
X014071Y001845D02*
X014129Y001845D01*
X014129Y001942D02*
X014071Y001942D01*
X014071Y002039D02*
X014129Y002039D01*
X014741Y001845D02*
X018182Y001845D01*
X018182Y001942D02*
X015930Y001942D01*
X016026Y002039D02*
X018182Y002039D01*
X018182Y001748D02*
X010288Y001748D01*
X010288Y001651D02*
X018182Y001651D01*
X018182Y001554D02*
X017427Y001554D01*
X017492Y001457D02*
X018182Y001457D01*
X018182Y001360D02*
X017973Y001360D01*
X018093Y001263D02*
X018182Y001263D01*
X018182Y001166D02*
X018134Y001166D01*
X018137Y001069D02*
X018182Y001069D01*
X018182Y000972D02*
X018108Y000972D01*
X018137Y000875D02*
X018032Y000875D01*
X018041Y000778D02*
X017794Y000778D01*
X017697Y000682D02*
X017944Y000682D01*
X017553Y001069D02*
X017298Y001069D01*
X017448Y001166D02*
X017566Y001166D01*
X017607Y001263D02*
X017500Y001263D01*
X017512Y001360D02*
X017727Y001360D01*
X017023Y001554D02*
X010288Y001554D01*
X010384Y001457D02*
X016958Y001457D01*
X009730Y002329D02*
X008964Y002329D01*
X008234Y002039D02*
X008216Y002039D01*
X008216Y001942D02*
X008234Y001942D01*
X008234Y001845D02*
X008216Y001845D01*
X008216Y001748D02*
X008234Y001748D01*
X008234Y001651D02*
X008216Y001651D01*
X008216Y001554D02*
X008234Y001554D01*
X008234Y001457D02*
X008216Y001457D01*
X008192Y001360D02*
X008258Y001360D01*
X005959Y002620D02*
X005319Y002620D01*
X005319Y002717D02*
X005456Y002717D01*
X005399Y002814D02*
X005319Y002814D01*
X004381Y003105D02*
X004319Y003105D01*
X004319Y003202D02*
X004381Y003202D01*
X004381Y003299D02*
X004319Y003299D01*
X004319Y003395D02*
X004381Y003395D01*
X004433Y003492D02*
X004267Y003492D01*
X003933Y003492D02*
X003767Y003492D01*
X003819Y003395D02*
X003881Y003395D01*
X003881Y003299D02*
X003819Y003299D01*
X003819Y003202D02*
X003881Y003202D01*
X003881Y003105D02*
X003819Y003105D01*
X003819Y003008D02*
X003881Y003008D01*
X003881Y002911D02*
X003819Y002911D01*
X003819Y002814D02*
X003881Y002814D01*
X003881Y002717D02*
X003819Y002717D01*
X003819Y002620D02*
X003881Y002620D01*
X003927Y002523D02*
X003773Y002523D01*
X004730Y003686D02*
X005399Y003686D01*
X005399Y003783D02*
X004827Y003783D01*
X004924Y003880D02*
X005399Y003880D01*
X005450Y003977D02*
X005021Y003977D01*
X005118Y004074D02*
X005557Y004074D01*
X005557Y004171D02*
X005215Y004171D01*
X005308Y004268D02*
X005557Y004268D01*
X005557Y004365D02*
X005308Y004365D01*
X005308Y004462D02*
X005557Y004462D01*
X005557Y004559D02*
X005319Y004559D01*
X005319Y004655D02*
X005557Y004655D01*
X005460Y004752D02*
X005319Y004752D01*
X004881Y004752D02*
X004859Y004752D01*
X004859Y004655D02*
X004881Y004655D01*
X004881Y004559D02*
X004859Y004559D01*
X004859Y004535D02*
X004859Y004939D01*
X004606Y004939D01*
X004606Y004951D01*
X004594Y004951D01*
X004594Y005484D01*
X004470Y005484D01*
X004432Y005474D01*
X004398Y005454D01*
X004371Y005427D01*
X004351Y005393D01*
X004341Y005355D01*
X004341Y004951D01*
X004594Y004951D01*
X004594Y004939D01*
X004606Y004939D01*
X004606Y004406D01*
X004730Y004406D01*
X004768Y004416D01*
X004802Y004436D01*
X004829Y004463D01*
X004849Y004497D01*
X004859Y004535D01*
X004828Y004462D02*
X004892Y004462D01*
X004821Y004365D02*
X004387Y004365D01*
X004432Y004416D02*
X004470Y004406D01*
X004594Y004406D01*
X004594Y004939D01*
X004341Y004939D01*
X004341Y004535D01*
X004351Y004497D01*
X004371Y004463D01*
X004398Y004436D01*
X004432Y004416D01*
X004372Y004462D02*
X004365Y004462D01*
X004341Y004559D02*
X004319Y004559D01*
X004319Y004655D02*
X004341Y004655D01*
X004341Y004752D02*
X004319Y004752D01*
X004319Y004849D02*
X004341Y004849D01*
X004319Y004946D02*
X004594Y004946D01*
X004606Y004946D02*
X004881Y004946D01*
X004859Y004951D02*
X004859Y005355D01*
X004849Y005393D01*
X004829Y005427D01*
X004802Y005454D01*
X004768Y005474D01*
X004730Y005484D01*
X004606Y005484D01*
X004606Y004951D01*
X004859Y004951D01*
X004859Y005043D02*
X004881Y005043D01*
X004881Y005140D02*
X004859Y005140D01*
X004859Y005237D02*
X004881Y005237D01*
X004881Y005334D02*
X004859Y005334D01*
X004825Y005431D02*
X004931Y005431D01*
X004734Y005528D02*
X004635Y005528D01*
X004635Y005625D02*
X004734Y005625D01*
X004734Y005722D02*
X004635Y005722D01*
X004734Y005819D02*
X007037Y005819D01*
X006946Y006303D02*
X000768Y006303D01*
X000768Y006400D02*
X006994Y006400D01*
X007131Y006497D02*
X000768Y006497D01*
X000924Y008436D02*
X007600Y008436D01*
X007600Y008533D02*
X001020Y008533D01*
X001117Y008629D02*
X007600Y008629D01*
X006876Y008339D02*
X006777Y008339D01*
X006777Y008380D02*
X005941Y008380D01*
X005903Y008370D01*
X005869Y008350D01*
X005841Y008323D01*
X005821Y008288D01*
X005811Y008251D01*
X005811Y008024D01*
X006777Y008024D01*
X006777Y008380D01*
X006777Y008242D02*
X006876Y008242D01*
X006876Y008145D02*
X006777Y008145D01*
X006777Y008048D02*
X006876Y008048D01*
X006777Y007951D02*
X004849Y007951D01*
X004849Y008048D02*
X005811Y008048D01*
X005811Y008145D02*
X004849Y008145D01*
X004849Y008242D02*
X005811Y008242D01*
X005857Y008339D02*
X004786Y008339D01*
X004849Y007854D02*
X005811Y007854D01*
X005811Y007757D02*
X004849Y007757D01*
X004835Y007660D02*
X005822Y007660D01*
X006777Y007660D02*
X006876Y007660D01*
X006876Y007757D02*
X006777Y007757D01*
X006777Y007854D02*
X006876Y007854D01*
X004734Y006109D02*
X004635Y006109D01*
X004635Y006012D02*
X004734Y006012D01*
X004734Y005916D02*
X004635Y005916D01*
X004329Y006104D02*
X004329Y006104D01*
X004332Y006109D02*
X004324Y006109D01*
X004308Y005528D02*
X004387Y005528D01*
X004375Y005431D02*
X004308Y005431D01*
X004319Y005334D02*
X004341Y005334D01*
X004341Y005237D02*
X004319Y005237D01*
X004319Y005140D02*
X004341Y005140D01*
X004341Y005043D02*
X004319Y005043D01*
X004594Y005043D02*
X004606Y005043D01*
X004594Y005140D02*
X004606Y005140D01*
X004594Y005237D02*
X004606Y005237D01*
X004594Y005334D02*
X004606Y005334D01*
X004594Y005431D02*
X004606Y005431D01*
X004594Y004849D02*
X004606Y004849D01*
X004594Y004752D02*
X004606Y004752D01*
X004594Y004655D02*
X004606Y004655D01*
X004594Y004559D02*
X004606Y004559D01*
X004594Y004462D02*
X004606Y004462D01*
X004724Y004268D02*
X004377Y004268D01*
X004327Y004171D02*
X004627Y004171D01*
X004530Y004074D02*
X004184Y004074D01*
X004016Y004074D02*
X002197Y004074D01*
X002103Y004171D02*
X003873Y004171D01*
X004859Y004849D02*
X004881Y004849D01*
D26*
X014226Y009350D02*
X014226Y009726D01*
X014475Y009975D01*
X014850Y009975D01*
X015350Y009975D02*
X015350Y009726D01*
X014974Y009350D01*
X016475Y009390D02*
X016515Y009350D01*
X017100Y009435D02*
X017100Y009850D01*
X016850Y010100D01*
X017100Y009435D02*
X017102Y009418D01*
X017106Y009402D01*
X017114Y009388D01*
X017125Y009375D01*
X017138Y009364D01*
X017152Y009356D01*
X017168Y009352D01*
X017185Y009350D01*
X014850Y013350D02*
X014725Y013475D01*
X014725Y013685D01*
X014685Y013725D01*
X015225Y013475D02*
X015225Y015185D01*
X015185Y015225D01*
D27*
X005100Y013945D02*
X005100Y013475D01*
X004475Y012850D01*
X001850Y012850D01*
X001850Y013850D02*
X001850Y013945D01*
X003600Y013945D01*
X004100Y013945D02*
X004100Y013350D01*
X004100Y013945D02*
X004100Y014886D01*
X004009Y014886D01*
X004600Y014886D02*
X004679Y014886D01*
X004600Y014886D02*
X004600Y013945D01*
X004600Y011725D02*
X004350Y011725D01*
X004100Y011725D01*
X004015Y005850D02*
X004100Y005765D01*
X004100Y004945D01*
X004100Y004350D01*
X004600Y003850D02*
X005100Y004350D01*
X005100Y004945D01*
X004600Y004945D02*
X004600Y005765D01*
X004685Y005850D01*
X003600Y004945D02*
X003570Y004975D01*
X002100Y004975D01*
X001975Y004850D01*
X001850Y004850D01*
X001850Y003850D02*
X004600Y003850D01*
X004600Y003005D02*
X004600Y002725D01*
X004350Y002725D01*
X004100Y002725D01*
X004100Y003005D01*
D28*
X004350Y002725D03*
X004100Y004350D03*
X007225Y006225D03*
X009475Y004850D03*
X009475Y003100D03*
X009475Y001725D03*
X010600Y001850D03*
X011600Y001850D03*
X012600Y001850D03*
X008350Y000850D03*
X013725Y006350D03*
X013600Y007100D03*
X011475Y008600D03*
X011100Y008225D03*
X010600Y008600D03*
X010600Y006975D03*
X012975Y008725D03*
X013100Y009225D03*
X013225Y009725D03*
X014350Y010600D03*
X013600Y010850D03*
X013475Y011725D03*
X011725Y012975D03*
X011225Y013350D03*
X009725Y014100D03*
X010100Y014475D03*
X009100Y014475D03*
X009100Y013225D03*
X012850Y015475D03*
X014100Y015225D03*
X014600Y015725D03*
X014850Y016850D03*
X012725Y017475D03*
X011600Y017475D03*
X010100Y017600D03*
X009725Y017225D03*
X010975Y016350D03*
X011475Y016350D03*
X013225Y013725D03*
X015725Y011225D03*
X018100Y011225D03*
X018475Y012225D03*
X020225Y011850D03*
X020975Y011850D03*
X020350Y009850D03*
X019975Y008100D03*
X019475Y007225D03*
X017850Y007100D03*
X017850Y006350D03*
X017225Y006350D03*
X018975Y005725D03*
X019600Y005475D03*
X020850Y004225D03*
X021725Y002600D03*
X022725Y002600D03*
X022850Y001850D03*
X021850Y001850D03*
X020850Y001850D03*
X020225Y001475D03*
X019475Y001100D03*
X017850Y001100D03*
X017225Y001350D03*
X016600Y001850D03*
X017100Y002725D03*
X021475Y006225D03*
X021100Y006600D03*
X022350Y007350D03*
X021225Y008100D03*
X022475Y006350D03*
X026350Y005975D03*
X029100Y007600D03*
X029100Y008600D03*
X029100Y009600D03*
X025600Y009100D03*
X024600Y009100D03*
X023975Y010600D03*
X023975Y011100D03*
X025600Y012350D03*
X029100Y014600D03*
X029100Y015600D03*
X025100Y015600D03*
X024100Y015600D03*
X021100Y014475D03*
X020350Y015475D03*
X019350Y015475D03*
X018350Y015475D03*
X017350Y015475D03*
X018475Y014100D03*
X018475Y013600D03*
X019100Y014475D03*
X017600Y009600D03*
X017475Y009100D03*
X017975Y008350D03*
X024350Y003475D03*
X024850Y003475D03*
X024600Y002100D03*
X024100Y002100D03*
X025725Y001975D03*
X025725Y000600D03*
X026600Y000600D03*
X029100Y003100D03*
X007225Y009350D03*
X004225Y007975D03*
X003725Y007975D03*
X003225Y007975D03*
X003100Y008975D03*
X001225Y008975D03*
X004350Y011725D03*
X004100Y013350D03*
X004225Y016975D03*
X003725Y016975D03*
X003225Y016975D03*
D29*
X003600Y000975D02*
X004100Y000475D01*
X017975Y000475D01*
X018350Y000850D01*
X018350Y002685D01*
X018310Y002725D01*
X018350Y002725D01*
X018310Y002725D02*
X018350Y002765D01*
X018350Y003350D01*
X018030Y003670D01*
X016473Y003670D01*
X016100Y003975D02*
X016100Y003225D01*
X015725Y003225D01*
X015725Y002725D01*
X015350Y002725D01*
X015100Y002975D01*
X014435Y002975D01*
X013765Y002975D02*
X013765Y002100D01*
X014435Y002100D02*
X015850Y002100D01*
X016100Y002350D01*
X016100Y002724D01*
X016099Y002725D01*
X016473Y002725D02*
X017100Y002725D01*
X017640Y002725D01*
X018850Y003725D02*
X018475Y004100D01*
X016225Y004100D01*
X016100Y003975D01*
X015725Y003670D02*
X014045Y003670D01*
X013765Y003390D01*
X013765Y002975D01*
X015725Y003670D02*
X015725Y004600D01*
X018850Y003725D02*
X018850Y000850D01*
X019225Y000475D01*
X025600Y000475D01*
X025725Y000600D01*
X022208Y003422D02*
X022100Y003530D01*
X022100Y003975D01*
X021725Y004350D01*
X021600Y004350D01*
X021362Y004588D01*
X021362Y004958D01*
X021618Y004958D02*
X022244Y004332D01*
X022616Y004332D01*
X020338Y004713D02*
X019850Y004225D01*
X019225Y004607D02*
X019187Y004645D01*
X020338Y004713D02*
X020338Y004958D01*
X020350Y004970D01*
X016100Y009350D02*
X015850Y009100D01*
X015600Y009350D02*
X015725Y009475D01*
X016475Y009390D02*
X016475Y010100D01*
X016725Y012100D02*
X016490Y012335D01*
X016725Y012100D02*
X017475Y012100D01*
X018405Y013030D01*
X018911Y013030D01*
X019285Y013475D02*
X020350Y013475D01*
X020350Y013765D01*
X020475Y013765D01*
X019659Y013975D02*
X019659Y015041D01*
X019350Y015350D01*
X019350Y015475D01*
X019285Y013975D02*
X019285Y013475D01*
X019659Y013030D02*
X019659Y012640D01*
X020475Y012640D01*
X015850Y013725D02*
X015850Y015850D01*
X015512Y016188D01*
X015512Y017422D01*
X015512Y017813D01*
X015350Y017975D01*
X014225Y017975D01*
X014100Y017850D01*
X014100Y016829D01*
X014104Y016825D01*
X014163Y016100D02*
X014104Y016041D01*
X014163Y016100D02*
X015225Y016100D01*
X015600Y015725D01*
X015600Y013850D01*
X005725Y013725D02*
X005725Y012685D01*
X005725Y012015D02*
X005110Y012015D01*
X005100Y012005D01*
X004600Y012005D02*
X004600Y011725D01*
X004100Y011725D02*
X004100Y012005D01*
X003600Y012005D02*
X003600Y009475D01*
X003100Y008975D01*
X001225Y008975D02*
X000600Y008350D01*
X000600Y003475D01*
X001070Y003005D01*
X003600Y003005D01*
X003600Y000975D01*
X006265Y001725D02*
X006265Y002600D01*
X005725Y003015D01*
X005715Y003005D01*
X005100Y003005D01*
X005725Y003685D02*
X005725Y004725D01*
X005475Y004975D01*
X005130Y004975D01*
X005100Y004945D01*
X006935Y002600D02*
X007851Y002600D01*
X007851Y001725D02*
X006935Y001725D01*
X005725Y013725D02*
X005505Y013945D01*
X005100Y013945D01*
D30*
X005350Y014850D02*
X005314Y014886D01*
X004679Y014886D01*
X002350Y009850D02*
X001850Y009850D01*
X002350Y009850D02*
X002600Y009600D01*
X002600Y007475D01*
X002725Y007350D01*
X004975Y007350D01*
X005350Y007725D01*
X005350Y008225D01*
X005725Y008600D01*
X007975Y008600D01*
X008225Y008350D01*
X008225Y005225D01*
X008631Y004819D01*
X008631Y004808D01*
X009725Y004850D02*
X011850Y004850D01*
X012100Y004600D01*
X015725Y004600D01*
X019141Y004600D01*
X018350Y005475D02*
X018100Y005225D01*
X012850Y005225D01*
X012725Y005350D01*
X012725Y006265D01*
X013725Y006350D02*
X014140Y006350D01*
X016476Y008099D02*
X016850Y007725D01*
X018100Y007725D01*
X018350Y007475D01*
X018350Y005475D01*
X016476Y008099D02*
X016476Y008600D01*
X018475Y012225D02*
X018890Y012225D01*
X014515Y015225D02*
X014100Y015225D01*
X023975Y011100D02*
X024454Y011100D01*
X024628Y010927D01*
X024628Y010600D01*
X023975Y010600D01*
X024628Y012305D02*
X024628Y012350D01*
X025600Y012350D01*
X024628Y013683D02*
X026170Y015225D01*
X026350Y015225D01*
X027225Y016975D02*
X028368Y015832D01*
X028368Y013889D01*
X027225Y016975D02*
X026600Y016975D01*
X026350Y017225D01*
X024350Y004350D02*
X024466Y004234D01*
X024628Y004234D01*
X024841Y004234D01*
X024850Y004225D01*
X024850Y003475D01*
X024350Y003475D02*
X024350Y004350D01*
X022651Y002674D02*
X022208Y002674D01*
X021799Y002674D01*
X021725Y002600D01*
X022651Y002674D02*
X022725Y002600D01*
X005350Y005850D02*
X004685Y005850D01*
D31*
X015600Y008850D02*
X015600Y009350D01*
X015850Y009100D02*
X015850Y007810D01*
X019475Y007225D02*
X019475Y006640D01*
X020515Y005600D01*
X022225Y005600D01*
X022475Y005850D01*
X022475Y006350D01*
X021975Y006475D02*
X021975Y005850D01*
X021350Y005850D01*
X020475Y006725D01*
X020350Y006725D01*
X020338Y006737D01*
X020338Y007242D01*
X020338Y007737D01*
X020225Y007850D01*
X020100Y007850D01*
X019975Y007975D01*
X019975Y008100D01*
X020850Y008100D02*
X021225Y008100D01*
X021362Y007612D02*
X021725Y007975D01*
X021725Y008600D01*
X021475Y008850D01*
X021475Y009791D01*
X021424Y009842D01*
X020924Y008930D02*
X020850Y008930D01*
X020850Y008100D01*
X020850Y007242D01*
X021362Y007242D02*
X021362Y006838D01*
X021475Y006725D01*
X021475Y006225D01*
X021975Y006475D02*
X022475Y006975D01*
X023015Y006975D01*
X022350Y007350D02*
X022350Y007435D01*
X023015Y008100D01*
X021362Y007612D02*
X021362Y007242D01*
X020082Y007242D02*
X020066Y007225D01*
X019475Y007225D01*
X020594Y004958D02*
X020594Y004594D01*
X020350Y004350D01*
X020350Y003476D01*
X020476Y003350D01*
X021224Y003350D02*
X021350Y003476D01*
X021350Y004225D01*
X021106Y004594D01*
X021106Y004958D01*
X020850Y004958D02*
X020850Y004225D01*
X014850Y016850D02*
X014850Y017422D01*
X014843Y017422D01*
D32*
X013435Y016041D02*
X013435Y014729D01*
X013475Y014689D01*
X014698Y012127D02*
X015100Y011725D01*
X018475Y011725D01*
X018600Y011600D01*
X019475Y011600D01*
X019600Y011725D01*
X019600Y012185D01*
X019560Y012225D01*
X018251Y013376D02*
X018475Y013600D01*
X018251Y013376D02*
X017543Y013376D01*
X018050Y011225D02*
X018100Y011225D01*
X018050Y011225D02*
X017795Y010970D01*
X018975Y010350D02*
X019975Y010350D01*
X019975Y009209D01*
X020255Y008930D01*
X020225Y008959D01*
X020350Y009850D02*
X020747Y009850D01*
X020755Y009842D01*
X020755Y010255D01*
X020850Y010350D01*
X023100Y010350D01*
X023600Y009850D01*
X028100Y009850D01*
X028350Y010100D01*
X028350Y010702D01*
X028368Y010720D01*
X024628Y013683D02*
X023933Y013683D01*
X023600Y013350D01*
X023600Y011475D01*
X023100Y010975D01*
X020350Y010975D01*
X019975Y010600D01*
X019975Y010350D01*
X018975Y010350D02*
X017975Y009350D01*
X017975Y008350D01*
X017810Y007140D02*
X017850Y007100D01*
X017810Y007140D02*
X015850Y007140D01*
X015850Y006640D01*
X016140Y006350D01*
X015475Y006600D02*
X015475Y005850D01*
X015600Y005725D01*
X017725Y005725D01*
X017850Y005850D01*
X017850Y006350D01*
X015475Y006600D02*
X015350Y006725D01*
X015100Y006725D01*
X015100Y007140D01*
X015100Y006725D02*
X015100Y006640D01*
X014810Y006350D01*
X013725Y006350D02*
X013140Y006935D01*
X012725Y006935D01*
X015100Y007810D02*
X015100Y008350D01*
X015600Y008850D01*
X013600Y010850D02*
X013850Y011100D01*
X014225Y011100D01*
X007225Y009724D02*
X007225Y009350D01*
X007225Y009724D02*
X006849Y010100D01*
X006101Y010100D02*
X006060Y010141D01*
X006060Y010975D01*
X005390Y010975D02*
X005100Y011265D01*
X005100Y012005D01*
X007225Y006225D02*
X007225Y003475D01*
X007475Y003225D01*
X009350Y003225D01*
X009475Y003100D01*
X009725Y002600D02*
X008599Y002600D01*
X008599Y001725D02*
X009475Y001725D01*
X010100Y001475D02*
X010100Y002225D01*
X009725Y002600D01*
X008599Y001725D02*
X008599Y001351D01*
X009100Y000850D01*
X017600Y000850D01*
X017850Y001100D01*
X017225Y001350D02*
X017100Y001225D01*
X010350Y001225D01*
X010100Y001475D01*
X019475Y001100D02*
X026350Y001100D01*
X026600Y001350D01*
X026600Y002600D01*
X027100Y003100D01*
X028225Y003100D01*
X028350Y003225D01*
X028350Y004009D01*
X028368Y004027D01*
X028350Y003975D02*
X028350Y007179D01*
X028368Y007196D01*
X026975Y006225D02*
X026975Y003475D01*
X026225Y002725D01*
X026225Y001600D01*
X026100Y001475D01*
X020225Y001475D01*
X025725Y001975D02*
X025725Y003350D01*
X025850Y003475D01*
X025850Y003975D01*
X026975Y006225D02*
X026225Y006975D01*
D33*
X021106Y007242D02*
X021106Y006600D01*
X021100Y006600D01*
D34*
X013976Y014475D02*
X013762Y014689D01*
X013475Y014689D01*
X012421Y014689D01*
X006850Y016350D02*
X006850Y016951D01*
X006826Y016975D01*
X004850Y015475D02*
X004850Y014975D01*
X004850Y015475D02*
X004600Y015725D01*
X001600Y015725D01*
X000975Y015100D01*
X000975Y010100D01*
X001225Y009850D01*
X001850Y009850D01*
X001850Y007350D01*
X002475Y006725D01*
X004475Y006725D01*
X004850Y006350D01*
X004850Y005975D01*
X005350Y005850D02*
X005850Y005850D01*
X006850Y007350D02*
X006850Y007975D01*
X006826Y007975D01*
X005975Y014850D02*
X005350Y014850D01*
X005975Y014850D02*
X006100Y014975D01*
D35*
X013435Y016041D02*
X013446Y016084D01*
X013446Y016793D01*
X013435Y016825D01*
D36*
X024628Y006990D02*
X024642Y006975D01*
X024850Y006975D01*
X026225Y006975D01*
X025600Y005600D02*
X024628Y005600D01*
X024628Y005612D01*
X025600Y005600D02*
X025725Y005475D01*
X025850Y005350D01*
X025850Y003975D01*
X028368Y004027D02*
X028368Y007196D01*
X028368Y010720D02*
X028368Y013889D01*
D37*
X011242Y013328D02*
X011242Y012935D01*
X011225Y012935D01*
X011242Y013328D02*
X011225Y013350D01*
X010140Y014100D02*
X010100Y014194D01*
X010100Y014475D01*
D38*
X006850Y015725D02*
X006100Y014975D01*
X006850Y015725D02*
X006850Y016350D01*
X006850Y007350D02*
X006850Y006850D01*
X005850Y005850D01*
M02*
