G75*
G70*
%OFA0B0*%
%FSLAX24Y24*%
%IPPOS*%
%LPD*%
%AMOC8*
5,1,8,0,0,1.08239X$1,22.5*
%
%ADD10C,0.1221*%
%ADD11R,0.0473X0.0434*%
%ADD12R,0.0552X0.0631*%
%ADD13R,0.0434X0.0473*%
%ADD14C,0.0434*%
%ADD15C,0.0634*%
%ADD16C,0.0276*%
%ADD17C,0.0512*%
%ADD18R,0.0631X0.0552*%
D10*
X001675Y001675D03*
X001675Y018210D03*
X028053Y018210D03*
X028053Y001675D03*
D11*
X014310Y009725D03*
X013640Y009725D03*
X009060Y004725D03*
X008390Y004725D03*
X017350Y015890D03*
X017350Y016560D03*
X018350Y016560D03*
X018350Y015890D03*
X019350Y015890D03*
X019350Y016560D03*
X020350Y016560D03*
X020350Y015890D03*
D12*
X014974Y011225D03*
X014226Y011225D03*
X014349Y008850D03*
X013601Y008850D03*
D13*
X019515Y006600D03*
X020185Y006600D03*
X020255Y008122D03*
X020924Y008122D03*
X026436Y012360D03*
X027105Y012360D03*
D14*
X028840Y012994D03*
X028840Y011616D03*
X028840Y006301D03*
X028840Y004923D03*
D15*
X026350Y015225D03*
X026350Y016225D03*
X026350Y017225D03*
X024350Y017225D03*
X023350Y017225D03*
X022350Y017225D03*
X021350Y017225D03*
X020350Y017225D03*
X019350Y017225D03*
X018350Y017225D03*
X017350Y017225D03*
X001850Y013850D03*
X001850Y012850D03*
X001850Y010850D03*
X001850Y009850D03*
X001850Y004850D03*
X001850Y003850D03*
D16*
X007983Y005677D03*
X008081Y005775D03*
D17*
X008081Y005677D03*
D18*
X004350Y003724D03*
X004350Y002976D03*
X004350Y011976D03*
X004350Y012724D03*
M02*
