G75*
G70*
%OFA0B0*%
%FSLAX24Y24*%
%IPPOS*%
%LPD*%
%AMOC8*
5,1,8,0,0,1.08239X$1,22.5*
%
%ADD10C,0.1221*%
%ADD11R,0.0138X0.0650*%
%ADD12R,0.0284X0.0520*%
%ADD13R,0.0473X0.0434*%
%ADD14R,0.0434X0.0473*%
%ADD15R,0.0552X0.0631*%
%ADD16R,0.0182X0.0536*%
%ADD17R,0.0631X0.0552*%
%ADD18R,0.0316X0.0434*%
%ADD19R,0.0985X0.1044*%
%ADD20R,0.0985X0.1024*%
%ADD21R,0.1064X0.0985*%
%ADD22C,0.0434*%
%ADD23C,0.0634*%
%ADD24R,0.0260X0.0820*%
%ADD25R,0.1772X0.0552*%
D10*
X001675Y001675D03*
X001675Y018210D03*
X028053Y018210D03*
X028053Y001675D03*
D11*
X017002Y010623D03*
X016746Y010623D03*
X016490Y010623D03*
X016234Y010623D03*
X015978Y010623D03*
X015722Y010623D03*
X015466Y010623D03*
X015210Y010623D03*
X014954Y010623D03*
X014698Y010623D03*
X014698Y012827D03*
X014954Y012827D03*
X015210Y012827D03*
X015466Y012827D03*
X015722Y012827D03*
X015978Y012827D03*
X016234Y012827D03*
X016490Y012827D03*
X016746Y012827D03*
X017002Y012827D03*
D12*
X010474Y012334D03*
X009726Y012334D03*
X009726Y013366D03*
X010100Y013366D03*
X010474Y013366D03*
X010474Y015459D03*
X009726Y015459D03*
X009726Y016491D03*
X010100Y016491D03*
X010474Y016491D03*
X011226Y007366D03*
X011600Y007366D03*
X011974Y007366D03*
X011974Y006334D03*
X011226Y006334D03*
D13*
X012725Y006265D03*
X012725Y006935D03*
X014140Y006350D03*
X014810Y006350D03*
X015100Y007140D03*
X015850Y007140D03*
X015850Y007810D03*
X015100Y007810D03*
X016140Y006350D03*
X016810Y006350D03*
X016515Y009350D03*
X017185Y009350D03*
X017795Y010301D03*
X017795Y010970D03*
X018890Y012225D03*
X019560Y012225D03*
X020475Y012640D03*
X020475Y013310D03*
X020475Y013765D03*
X020475Y014435D03*
X017543Y014045D03*
X017543Y013376D03*
X015185Y015225D03*
X014515Y015225D03*
X014685Y013725D03*
X014015Y013725D03*
X010810Y014100D03*
X010140Y014100D03*
X005725Y012685D03*
X005725Y012015D03*
X004679Y014886D03*
X004009Y014886D03*
X010140Y017225D03*
X010810Y017225D03*
X011515Y008225D03*
X012185Y008225D03*
X005725Y003685D03*
X005725Y003015D03*
X004685Y005850D03*
X004015Y005850D03*
X022616Y005002D03*
X022616Y004332D03*
D14*
X023015Y006975D03*
X023685Y006975D03*
X023685Y008100D03*
X023015Y008100D03*
X020924Y008930D03*
X020255Y008930D03*
X020755Y009842D03*
X021424Y009842D03*
X014104Y016041D03*
X013435Y016041D03*
X013435Y016825D03*
X014104Y016825D03*
X014843Y017422D03*
X015512Y017422D03*
X011177Y015935D03*
X011177Y015265D03*
X011225Y012935D03*
X011225Y012265D03*
X009100Y012140D03*
X009100Y012810D03*
X006060Y010975D03*
X005390Y010975D03*
X010600Y006560D03*
X010600Y005890D03*
X013765Y002975D03*
X014435Y002975D03*
X014435Y002100D03*
X013765Y002100D03*
X017640Y002725D03*
X018310Y002725D03*
X006935Y002600D03*
X006265Y002600D03*
X006265Y001725D03*
X006935Y001725D03*
D15*
X007851Y001725D03*
X008599Y001725D03*
X008599Y002600D03*
X007851Y002600D03*
X008631Y004808D03*
X009380Y004808D03*
X014226Y009350D03*
X014974Y009350D03*
X016476Y008600D03*
X017224Y008600D03*
X012474Y011600D03*
X011726Y011600D03*
X013976Y014475D03*
X014724Y014475D03*
X012421Y014689D03*
X011673Y014689D03*
X006849Y010100D03*
X006101Y010100D03*
X020476Y003350D03*
X021224Y003350D03*
D16*
X021106Y004958D03*
X021362Y004958D03*
X021618Y004958D03*
X020850Y004958D03*
X020594Y004958D03*
X020338Y004958D03*
X020082Y004958D03*
X020082Y007242D03*
X020338Y007242D03*
X020594Y007242D03*
X020850Y007242D03*
X021106Y007242D03*
X021362Y007242D03*
X021618Y007242D03*
D17*
X019187Y005393D03*
X019187Y004645D03*
X022208Y003422D03*
X022208Y002674D03*
D18*
X016473Y002725D03*
X016099Y002725D03*
X015725Y002725D03*
X015725Y003670D03*
X016473Y003670D03*
X018911Y013030D03*
X019659Y013030D03*
X019659Y013975D03*
X019285Y013975D03*
X018911Y013975D03*
D19*
X028368Y013889D03*
X028368Y010720D03*
X028368Y007196D03*
X028368Y004027D03*
D20*
X024628Y004234D03*
X024628Y006990D03*
X024628Y010927D03*
X024628Y013683D03*
D21*
X024628Y012305D03*
X024628Y005612D03*
D22*
X028840Y006301D03*
X028840Y004923D03*
X028840Y011616D03*
X028840Y012994D03*
D23*
X026350Y015225D03*
X026350Y016225D03*
X026350Y017225D03*
X024350Y017225D03*
X023350Y017225D03*
X022350Y017225D03*
X021350Y017225D03*
X020350Y017225D03*
X019350Y017225D03*
X018350Y017225D03*
X017350Y017225D03*
X001850Y013850D03*
X001850Y012850D03*
X001850Y010850D03*
X001850Y009850D03*
X001850Y004850D03*
X001850Y003850D03*
D24*
X003600Y003005D03*
X004100Y003005D03*
X004600Y003005D03*
X005100Y003005D03*
X005100Y004945D03*
X004600Y004945D03*
X004100Y004945D03*
X003600Y004945D03*
X003600Y012005D03*
X004100Y012005D03*
X004600Y012005D03*
X005100Y012005D03*
X005100Y013945D03*
X004600Y013945D03*
X004100Y013945D03*
X003600Y013945D03*
D25*
X003874Y016975D03*
X006826Y016975D03*
X006826Y007975D03*
X003874Y007975D03*
M02*
