G75*
G70*
%OFA0B0*%
%FSLAX24Y24*%
%IPPOS*%
%LPD*%
%AMOC8*
5,1,8,0,0,1.08239X$1,22.5*
%
%ADD10C,0.0030*%
%ADD11C,0.0079*%
%ADD12C,0.0039*%
D10*
X002913Y003240D02*
X003037Y003240D01*
X003098Y003302D01*
X003098Y003425D02*
X002975Y003487D01*
X002913Y003487D01*
X002851Y003425D01*
X002851Y003302D01*
X002913Y003240D01*
X003098Y003425D02*
X003098Y003610D01*
X002851Y003610D01*
X003220Y003549D02*
X003282Y003610D01*
X003405Y003610D01*
X003467Y003549D01*
X003588Y003549D02*
X003650Y003610D01*
X003773Y003610D01*
X003835Y003549D01*
X003835Y003302D01*
X003773Y003240D01*
X003650Y003240D01*
X003588Y003302D01*
X003467Y003240D02*
X003220Y003487D01*
X003220Y003549D01*
X003220Y003240D02*
X003467Y003240D01*
X008226Y003927D02*
X008288Y003865D01*
X008412Y003865D01*
X008473Y003927D01*
X008226Y004174D01*
X008226Y003927D01*
X008226Y004174D02*
X008288Y004235D01*
X008412Y004235D01*
X008473Y004174D01*
X008473Y003927D01*
X008595Y003865D02*
X008842Y003865D01*
X008595Y004112D01*
X008595Y004174D01*
X008657Y004235D01*
X008780Y004235D01*
X008842Y004174D01*
X008963Y004174D02*
X009025Y004235D01*
X009148Y004235D01*
X009210Y004174D01*
X009210Y003927D01*
X009148Y003865D01*
X009025Y003865D01*
X008963Y003927D01*
X013514Y008049D02*
X013576Y007987D01*
X013699Y007987D01*
X013761Y008049D01*
X013514Y008296D01*
X013514Y008049D01*
X013761Y008049D02*
X013761Y008296D01*
X013699Y008357D01*
X013576Y008357D01*
X013514Y008296D01*
X013882Y007987D02*
X014129Y007987D01*
X014006Y007987D02*
X014006Y008357D01*
X014129Y008234D01*
X014251Y008296D02*
X014312Y008357D01*
X014436Y008357D01*
X014497Y008296D01*
X014497Y008049D01*
X014436Y007987D01*
X014312Y007987D01*
X014251Y008049D01*
X014782Y009615D02*
X014720Y009677D01*
X014720Y009924D01*
X014782Y009985D01*
X014905Y009985D01*
X014967Y009924D01*
X014967Y009862D01*
X014905Y009800D01*
X014720Y009800D01*
X014782Y009615D02*
X014905Y009615D01*
X014967Y009677D01*
X015088Y009677D02*
X015150Y009615D01*
X015273Y009615D01*
X015335Y009677D01*
X015335Y009924D01*
X015273Y009985D01*
X015150Y009985D01*
X015088Y009924D01*
X015059Y011699D02*
X014936Y011699D01*
X014874Y011761D01*
X014753Y011699D02*
X014506Y011699D01*
X014384Y011699D02*
X014138Y011946D01*
X014138Y012008D01*
X014199Y012070D01*
X014323Y012070D01*
X014384Y012008D01*
X014629Y012070D02*
X014629Y011699D01*
X014384Y011699D02*
X014138Y011699D01*
X014629Y012070D02*
X014753Y011946D01*
X014874Y012008D02*
X014936Y012070D01*
X015059Y012070D01*
X015121Y012008D01*
X015121Y011761D01*
X015059Y011699D01*
X017682Y014812D02*
X017620Y014874D01*
X017620Y015120D01*
X017682Y015182D01*
X017805Y015182D01*
X017867Y015120D01*
X017867Y015059D01*
X017805Y014997D01*
X017620Y014997D01*
X017682Y014812D02*
X017805Y014812D01*
X017867Y014874D01*
X017989Y014812D02*
X018235Y014812D01*
X018357Y014812D02*
X018480Y014935D01*
X018419Y014935D02*
X018604Y014935D01*
X018604Y014812D02*
X018604Y015182D01*
X018419Y015182D01*
X018357Y015120D01*
X018357Y014997D01*
X018419Y014935D01*
X018235Y015059D02*
X018112Y015182D01*
X018112Y014812D01*
X019048Y014874D02*
X019110Y014812D01*
X019234Y014812D01*
X019295Y014874D01*
X019048Y015120D01*
X019048Y014874D01*
X019048Y015120D02*
X019110Y015182D01*
X019234Y015182D01*
X019295Y015120D01*
X019295Y014874D01*
X019417Y014812D02*
X019664Y014812D01*
X019417Y015059D01*
X019417Y015120D01*
X019478Y015182D01*
X019602Y015182D01*
X019664Y015120D01*
X019785Y015120D02*
X019785Y014997D01*
X019847Y014935D01*
X020032Y014935D01*
X020032Y014812D02*
X020032Y015182D01*
X019847Y015182D01*
X019785Y015120D01*
X019908Y014935D02*
X019785Y014812D01*
X020851Y015615D02*
X021098Y015615D01*
X020975Y015615D02*
X020975Y015985D01*
X021098Y015862D01*
X021220Y015862D02*
X021282Y015800D01*
X021220Y015738D01*
X021220Y015677D01*
X021282Y015615D01*
X021405Y015615D01*
X021467Y015677D01*
X021588Y015615D02*
X021712Y015738D01*
X021650Y015738D02*
X021835Y015738D01*
X021835Y015615D02*
X021835Y015985D01*
X021650Y015985D01*
X021588Y015924D01*
X021588Y015800D01*
X021650Y015738D01*
X021467Y015924D02*
X021405Y015985D01*
X021282Y015985D01*
X021220Y015924D01*
X021220Y015862D01*
X021282Y015800D02*
X021343Y015800D01*
X020610Y017990D02*
X020240Y017990D01*
X020425Y017990D02*
X020425Y018237D01*
X020487Y018358D02*
X020425Y018420D01*
X020425Y018543D01*
X020363Y018605D01*
X020302Y018605D01*
X020240Y018543D01*
X020240Y018420D01*
X020302Y018358D01*
X020240Y018237D02*
X020610Y018237D01*
X020549Y018358D02*
X020487Y018358D01*
X020549Y018358D02*
X020610Y018420D01*
X020610Y018543D01*
X020549Y018605D01*
X020549Y018727D02*
X020302Y018727D01*
X020240Y018788D01*
X020240Y018912D01*
X020302Y018974D01*
X020363Y019095D02*
X020610Y019342D01*
X020425Y019157D02*
X020240Y019342D01*
X020240Y019095D02*
X020610Y019095D01*
X020549Y018974D02*
X020610Y018912D01*
X020610Y018788D01*
X020549Y018727D01*
X019610Y018727D02*
X019240Y018727D01*
X019240Y018482D02*
X019240Y018358D01*
X019240Y018420D02*
X019610Y018420D01*
X019610Y018358D02*
X019610Y018482D01*
X019610Y018604D02*
X019610Y018851D01*
X019549Y018972D02*
X019302Y018972D01*
X019240Y019034D01*
X019240Y019157D01*
X019302Y019219D01*
X019363Y019340D02*
X019610Y019587D01*
X019610Y019340D02*
X019240Y019340D01*
X019425Y019402D02*
X019240Y019587D01*
X019549Y019219D02*
X019610Y019157D01*
X019610Y019034D01*
X019549Y018972D01*
X018610Y018974D02*
X018610Y018727D01*
X018610Y018850D02*
X018240Y018850D01*
X018240Y018605D02*
X018487Y018605D01*
X018610Y018482D01*
X018487Y018358D01*
X018240Y018358D01*
X018302Y018237D02*
X018549Y018237D01*
X018610Y018175D01*
X018610Y017990D01*
X018240Y017990D01*
X018240Y018175D01*
X018302Y018237D01*
X018425Y018358D02*
X018425Y018605D01*
X018425Y019095D02*
X018425Y019342D01*
X018487Y019342D02*
X018240Y019342D01*
X018487Y019342D02*
X018610Y019218D01*
X018487Y019095D01*
X018240Y019095D01*
X017610Y019095D02*
X017240Y019095D01*
X017363Y019095D02*
X017610Y019342D01*
X017425Y019157D02*
X017240Y019342D01*
X017302Y018974D02*
X017240Y018912D01*
X017240Y018788D01*
X017302Y018727D01*
X017549Y018727D01*
X017610Y018788D01*
X017610Y018912D01*
X017549Y018974D01*
X017549Y018605D02*
X017425Y018605D01*
X017363Y018543D01*
X017363Y018358D01*
X017240Y018358D02*
X017610Y018358D01*
X017610Y018543D01*
X017549Y018605D01*
X017363Y018482D02*
X017240Y018605D01*
X017240Y018237D02*
X017240Y017990D01*
X017610Y017990D01*
X019240Y017990D02*
X019240Y018175D01*
X019302Y018237D01*
X019363Y018237D01*
X019425Y018175D01*
X019425Y017990D01*
X019240Y017990D02*
X019610Y017990D01*
X019610Y018175D01*
X019549Y018237D01*
X019487Y018237D01*
X019425Y018175D01*
X021740Y018302D02*
X021802Y018240D01*
X022049Y018487D01*
X021802Y018487D01*
X021740Y018425D01*
X021740Y018302D01*
X021802Y018240D02*
X022049Y018240D01*
X022110Y018302D01*
X022110Y018425D01*
X022049Y018487D01*
X022110Y018608D02*
X021863Y018608D01*
X021740Y018732D01*
X021863Y018855D01*
X022110Y018855D01*
X023740Y018854D02*
X024110Y018854D01*
X023740Y019101D01*
X024110Y019101D01*
X024110Y018732D02*
X024110Y018608D01*
X024110Y018670D02*
X023740Y018670D01*
X023740Y018608D02*
X023740Y018732D01*
X023863Y018487D02*
X024110Y018487D01*
X023863Y018487D02*
X023740Y018363D01*
X023863Y018240D01*
X024110Y018240D01*
X016835Y015985D02*
X016835Y015615D01*
X016835Y015738D02*
X016650Y015738D01*
X016588Y015800D01*
X016588Y015924D01*
X016650Y015985D01*
X016835Y015985D01*
X016712Y015738D02*
X016588Y015615D01*
X016467Y015615D02*
X016220Y015615D01*
X016098Y015615D02*
X016098Y015677D01*
X015851Y015924D01*
X015851Y015985D01*
X016098Y015985D01*
X016343Y015985D02*
X016467Y015862D01*
X016343Y015985D02*
X016343Y015615D01*
X026377Y011783D02*
X026377Y011537D01*
X026438Y011475D01*
X026562Y011475D01*
X026624Y011537D01*
X026377Y011783D01*
X026438Y011845D01*
X026562Y011845D01*
X026624Y011783D01*
X026624Y011537D01*
X026745Y011537D02*
X026807Y011475D01*
X026930Y011475D01*
X026992Y011537D01*
X027113Y011475D02*
X027237Y011598D01*
X027175Y011598D02*
X027360Y011598D01*
X027360Y011475D02*
X027360Y011845D01*
X027175Y011845D01*
X027113Y011783D01*
X027113Y011660D01*
X027175Y011598D01*
X026992Y011783D02*
X026930Y011845D01*
X026807Y011845D01*
X026745Y011783D01*
X026745Y011722D01*
X026807Y011660D01*
X026745Y011598D01*
X026745Y011537D01*
X026807Y011660D02*
X026868Y011660D01*
X021130Y007613D02*
X020945Y007613D01*
X020883Y007552D01*
X020883Y007428D01*
X020945Y007366D01*
X021130Y007366D01*
X021130Y007243D02*
X021130Y007613D01*
X021007Y007366D02*
X020883Y007243D01*
X020762Y007305D02*
X020700Y007243D01*
X020577Y007243D01*
X020515Y007305D01*
X020515Y007552D01*
X020577Y007613D01*
X020700Y007613D01*
X020762Y007552D01*
X020762Y007490D01*
X020700Y007428D01*
X020515Y007428D01*
X020354Y006057D02*
X020169Y006057D01*
X020107Y005995D01*
X020107Y005872D01*
X020169Y005810D01*
X020354Y005810D01*
X020354Y005687D02*
X020354Y006057D01*
X020230Y005810D02*
X020107Y005687D01*
X019985Y005687D02*
X019739Y005687D01*
X019862Y005687D02*
X019862Y006057D01*
X019985Y005934D01*
X019617Y005995D02*
X019617Y005749D01*
X019370Y005995D01*
X019370Y005749D01*
X019432Y005687D01*
X019555Y005687D01*
X019617Y005749D01*
X019617Y005995D02*
X019555Y006057D01*
X019432Y006057D01*
X019370Y005995D01*
X003835Y012177D02*
X003773Y012115D01*
X003650Y012115D01*
X003588Y012177D01*
X003467Y012177D02*
X003405Y012115D01*
X003282Y012115D01*
X003220Y012177D01*
X003220Y012238D01*
X003282Y012300D01*
X003343Y012300D01*
X003282Y012300D02*
X003220Y012362D01*
X003220Y012424D01*
X003282Y012485D01*
X003405Y012485D01*
X003467Y012424D01*
X003588Y012424D02*
X003650Y012485D01*
X003773Y012485D01*
X003835Y012424D01*
X003835Y012177D01*
X003098Y012177D02*
X002851Y012424D01*
X002851Y012177D01*
X002913Y012115D01*
X003037Y012115D01*
X003098Y012177D01*
X003098Y012424D01*
X003037Y012485D01*
X002913Y012485D01*
X002851Y012424D01*
D11*
X021350Y017850D02*
X021350Y018100D01*
X022350Y018100D01*
X022350Y017850D01*
X023350Y017850D02*
X023350Y018100D01*
X024350Y018100D01*
X024350Y017850D01*
D12*
X000888Y001675D02*
X000890Y001731D01*
X000896Y001786D01*
X000906Y001840D01*
X000919Y001894D01*
X000937Y001947D01*
X000958Y001998D01*
X000982Y002048D01*
X001010Y002096D01*
X001042Y002142D01*
X001076Y002186D01*
X001114Y002227D01*
X001154Y002265D01*
X001197Y002300D01*
X001242Y002332D01*
X001290Y002361D01*
X001339Y002387D01*
X001390Y002409D01*
X001442Y002427D01*
X001496Y002441D01*
X001551Y002452D01*
X001606Y002459D01*
X001661Y002462D01*
X001717Y002461D01*
X001772Y002456D01*
X001827Y002447D01*
X001881Y002435D01*
X001934Y002418D01*
X001986Y002398D01*
X002036Y002374D01*
X002084Y002347D01*
X002131Y002317D01*
X002175Y002283D01*
X002217Y002246D01*
X002255Y002206D01*
X002292Y002164D01*
X002325Y002119D01*
X002354Y002073D01*
X002381Y002024D01*
X002403Y001973D01*
X002423Y001921D01*
X002438Y001867D01*
X002450Y001813D01*
X002458Y001758D01*
X002462Y001703D01*
X002462Y001647D01*
X002458Y001592D01*
X002450Y001537D01*
X002438Y001483D01*
X002423Y001429D01*
X002403Y001377D01*
X002381Y001326D01*
X002354Y001277D01*
X002325Y001231D01*
X002292Y001186D01*
X002255Y001144D01*
X002217Y001104D01*
X002175Y001067D01*
X002131Y001033D01*
X002084Y001003D01*
X002036Y000976D01*
X001986Y000952D01*
X001934Y000932D01*
X001881Y000915D01*
X001827Y000903D01*
X001772Y000894D01*
X001717Y000889D01*
X001661Y000888D01*
X001606Y000891D01*
X001551Y000898D01*
X001496Y000909D01*
X001442Y000923D01*
X001390Y000941D01*
X001339Y000963D01*
X001290Y000989D01*
X001242Y001018D01*
X001197Y001050D01*
X001154Y001085D01*
X001114Y001123D01*
X001076Y001164D01*
X001042Y001208D01*
X001010Y001254D01*
X000982Y001302D01*
X000958Y001352D01*
X000937Y001403D01*
X000919Y001456D01*
X000906Y001510D01*
X000896Y001564D01*
X000890Y001619D01*
X000888Y001675D01*
X000888Y018210D02*
X000890Y018266D01*
X000896Y018321D01*
X000906Y018375D01*
X000919Y018429D01*
X000937Y018482D01*
X000958Y018533D01*
X000982Y018583D01*
X001010Y018631D01*
X001042Y018677D01*
X001076Y018721D01*
X001114Y018762D01*
X001154Y018800D01*
X001197Y018835D01*
X001242Y018867D01*
X001290Y018896D01*
X001339Y018922D01*
X001390Y018944D01*
X001442Y018962D01*
X001496Y018976D01*
X001551Y018987D01*
X001606Y018994D01*
X001661Y018997D01*
X001717Y018996D01*
X001772Y018991D01*
X001827Y018982D01*
X001881Y018970D01*
X001934Y018953D01*
X001986Y018933D01*
X002036Y018909D01*
X002084Y018882D01*
X002131Y018852D01*
X002175Y018818D01*
X002217Y018781D01*
X002255Y018741D01*
X002292Y018699D01*
X002325Y018654D01*
X002354Y018608D01*
X002381Y018559D01*
X002403Y018508D01*
X002423Y018456D01*
X002438Y018402D01*
X002450Y018348D01*
X002458Y018293D01*
X002462Y018238D01*
X002462Y018182D01*
X002458Y018127D01*
X002450Y018072D01*
X002438Y018018D01*
X002423Y017964D01*
X002403Y017912D01*
X002381Y017861D01*
X002354Y017812D01*
X002325Y017766D01*
X002292Y017721D01*
X002255Y017679D01*
X002217Y017639D01*
X002175Y017602D01*
X002131Y017568D01*
X002084Y017538D01*
X002036Y017511D01*
X001986Y017487D01*
X001934Y017467D01*
X001881Y017450D01*
X001827Y017438D01*
X001772Y017429D01*
X001717Y017424D01*
X001661Y017423D01*
X001606Y017426D01*
X001551Y017433D01*
X001496Y017444D01*
X001442Y017458D01*
X001390Y017476D01*
X001339Y017498D01*
X001290Y017524D01*
X001242Y017553D01*
X001197Y017585D01*
X001154Y017620D01*
X001114Y017658D01*
X001076Y017699D01*
X001042Y017743D01*
X001010Y017789D01*
X000982Y017837D01*
X000958Y017887D01*
X000937Y017938D01*
X000919Y017991D01*
X000906Y018045D01*
X000896Y018099D01*
X000890Y018154D01*
X000888Y018210D01*
X027266Y018210D02*
X027268Y018266D01*
X027274Y018321D01*
X027284Y018375D01*
X027297Y018429D01*
X027315Y018482D01*
X027336Y018533D01*
X027360Y018583D01*
X027388Y018631D01*
X027420Y018677D01*
X027454Y018721D01*
X027492Y018762D01*
X027532Y018800D01*
X027575Y018835D01*
X027620Y018867D01*
X027668Y018896D01*
X027717Y018922D01*
X027768Y018944D01*
X027820Y018962D01*
X027874Y018976D01*
X027929Y018987D01*
X027984Y018994D01*
X028039Y018997D01*
X028095Y018996D01*
X028150Y018991D01*
X028205Y018982D01*
X028259Y018970D01*
X028312Y018953D01*
X028364Y018933D01*
X028414Y018909D01*
X028462Y018882D01*
X028509Y018852D01*
X028553Y018818D01*
X028595Y018781D01*
X028633Y018741D01*
X028670Y018699D01*
X028703Y018654D01*
X028732Y018608D01*
X028759Y018559D01*
X028781Y018508D01*
X028801Y018456D01*
X028816Y018402D01*
X028828Y018348D01*
X028836Y018293D01*
X028840Y018238D01*
X028840Y018182D01*
X028836Y018127D01*
X028828Y018072D01*
X028816Y018018D01*
X028801Y017964D01*
X028781Y017912D01*
X028759Y017861D01*
X028732Y017812D01*
X028703Y017766D01*
X028670Y017721D01*
X028633Y017679D01*
X028595Y017639D01*
X028553Y017602D01*
X028509Y017568D01*
X028462Y017538D01*
X028414Y017511D01*
X028364Y017487D01*
X028312Y017467D01*
X028259Y017450D01*
X028205Y017438D01*
X028150Y017429D01*
X028095Y017424D01*
X028039Y017423D01*
X027984Y017426D01*
X027929Y017433D01*
X027874Y017444D01*
X027820Y017458D01*
X027768Y017476D01*
X027717Y017498D01*
X027668Y017524D01*
X027620Y017553D01*
X027575Y017585D01*
X027532Y017620D01*
X027492Y017658D01*
X027454Y017699D01*
X027420Y017743D01*
X027388Y017789D01*
X027360Y017837D01*
X027336Y017887D01*
X027315Y017938D01*
X027297Y017991D01*
X027284Y018045D01*
X027274Y018099D01*
X027268Y018154D01*
X027266Y018210D01*
X027266Y001675D02*
X027268Y001731D01*
X027274Y001786D01*
X027284Y001840D01*
X027297Y001894D01*
X027315Y001947D01*
X027336Y001998D01*
X027360Y002048D01*
X027388Y002096D01*
X027420Y002142D01*
X027454Y002186D01*
X027492Y002227D01*
X027532Y002265D01*
X027575Y002300D01*
X027620Y002332D01*
X027668Y002361D01*
X027717Y002387D01*
X027768Y002409D01*
X027820Y002427D01*
X027874Y002441D01*
X027929Y002452D01*
X027984Y002459D01*
X028039Y002462D01*
X028095Y002461D01*
X028150Y002456D01*
X028205Y002447D01*
X028259Y002435D01*
X028312Y002418D01*
X028364Y002398D01*
X028414Y002374D01*
X028462Y002347D01*
X028509Y002317D01*
X028553Y002283D01*
X028595Y002246D01*
X028633Y002206D01*
X028670Y002164D01*
X028703Y002119D01*
X028732Y002073D01*
X028759Y002024D01*
X028781Y001973D01*
X028801Y001921D01*
X028816Y001867D01*
X028828Y001813D01*
X028836Y001758D01*
X028840Y001703D01*
X028840Y001647D01*
X028836Y001592D01*
X028828Y001537D01*
X028816Y001483D01*
X028801Y001429D01*
X028781Y001377D01*
X028759Y001326D01*
X028732Y001277D01*
X028703Y001231D01*
X028670Y001186D01*
X028633Y001144D01*
X028595Y001104D01*
X028553Y001067D01*
X028509Y001033D01*
X028462Y001003D01*
X028414Y000976D01*
X028364Y000952D01*
X028312Y000932D01*
X028259Y000915D01*
X028205Y000903D01*
X028150Y000894D01*
X028095Y000889D01*
X028039Y000888D01*
X027984Y000891D01*
X027929Y000898D01*
X027874Y000909D01*
X027820Y000923D01*
X027768Y000941D01*
X027717Y000963D01*
X027668Y000989D01*
X027620Y001018D01*
X027575Y001050D01*
X027532Y001085D01*
X027492Y001123D01*
X027454Y001164D01*
X027420Y001208D01*
X027388Y001254D01*
X027360Y001302D01*
X027336Y001352D01*
X027315Y001403D01*
X027297Y001456D01*
X027284Y001510D01*
X027274Y001564D01*
X027268Y001619D01*
X027266Y001675D01*
M02*
